<?xml version="1.0" encoding="UTF-8" standalone="no"?>
<!-- Created with Inkscape (http://www.inkscape.org/) -->

<svg
   xmlns:dc="http://purl.org/dc/elements/1.1/"
   xmlns:cc="http://creativecommons.org/ns#"
   xmlns:rdf="http://www.w3.org/1999/02/22-rdf-syntax-ns#"
   xmlns:svg="http://www.w3.org/2000/svg"
   xmlns="http://www.w3.org/2000/svg"
   xmlns:sodipodi="http://sodipodi.sourceforge.net/DTD/sodipodi-0.dtd"
   xmlns:inkscape="http://www.inkscape.org/namespaces/inkscape"
   width="210mm"
   height="297mm"
   viewBox="0 0 210 297"
   version="1.1"
   id="svg8"
   inkscape:version="0.92.4 5da689c313, 2019-01-14"
   sodipodi:docname="zekeLogo.svg">
  <defs
     id="defs2" />
  <sodipodi:namedview
     id="base"
     pagecolor="#ffffff"
     bordercolor="#666666"
     borderopacity="1.0"
     inkscape:pageopacity="0.0"
     inkscape:pageshadow="2"
     inkscape:zoom="7.9195959"
     inkscape:cx="73.108891"
     inkscape:cy="529.73454"
     inkscape:document-units="mm"
     inkscape:current-layer="flowRoot848"
     showgrid="false"
     inkscape:window-width="1920"
     inkscape:window-height="1052"
     inkscape:window-x="1920"
     inkscape:window-y="200"
     inkscape:window-maximized="1" />
  <metadata
     id="metadata5">
    <rdf:RDF>
      <cc:Work
         rdf:about="">
        <dc:format>image/svg+xml</dc:format>
        <dc:type
           rdf:resource="http://purl.org/dc/dcmitype/StillImage" />
        <dc:title />
      </cc:Work>
    </rdf:RDF>
  </metadata>
  <g
     inkscape:label="Layer 1"
     inkscape:groupmode="layer"
     id="layer1">
    <flowRoot
       xml:space="preserve"
       id="flowRoot834"
       style="font-style:normal;font-weight:normal;font-size:40px;line-height:1.25;font-family:sans-serif;letter-spacing:0px;word-spacing:0px;fill:#000000;fill-opacity:1;stroke:none"
       transform="matrix(0.16711643,0,0,0.16711643,21.363877,49.70902)"><flowRegion
         id="flowRegion836"><rect
           id="rect838"
           width="691.42859"
           height="328.57144"
           x="-40"
           y="525.37683" /></flowRegion><flowPara
         id="flowPara840"
         style="font-style:normal;font-variant:normal;font-weight:normal;font-stretch:normal;font-family:Azonix;-inkscape-font-specification:Azonix">ZEKE</flowPara></flowRoot>    <g
       aria-label="ZEKE"
       transform="matrix(0.16711643,0,0,0.16711643,21.363877,65.300538)"
       style="font-style:normal;font-weight:normal;font-size:40px;line-height:1.25;font-family:sans-serif;letter-spacing:0px;word-spacing:0px;fill:#000000;fill-opacity:1;stroke:none"
       id="flowRoot848">
      <rect
         style="fill:#ffffee;fill-opacity:1;stroke:#000000;stroke-width:0.63329101;stroke-linecap:round;stroke-linejoin:round;stroke-miterlimit:4;stroke-dasharray:none;stroke-dashoffset:0;stroke-opacity:1;paint-order:normal"
         id="rect859"
         width="160.52986"
         height="51.977291"
         x="-56.669373"
         y="525.43146"
         ry="3.2599447" />
      <g
         id="g941"
         transform="matrix(0.66642485,0,0,0.66642485,4.1754946,184.70093)"
         inkscape:export-xdpi="10000"
         inkscape:export-ydpi="10000">
        <path
           inkscape:export-ydpi="10000"
           inkscape:export-xdpi="10000"
           sodipodi:nodetypes="ccccccccccccccccccc"
           inkscape:connector-curvature="0"
           id="path850"
           style="font-style:normal;font-variant:normal;font-weight:normal;font-stretch:normal;font-family:Azonix;-inkscape-font-specification:Azonix"
           d="M -33.697103,563.64372 -24,550.88758 l 3.16,-4.08 6.96,-9.04 3.88,-5 h -6.28 -21.64 v 5 h 17.8 l -3.84,4.96 -3.16,4.08 -12.817103,16.83614 -3.84,5 -0.04,0.04 h 6.32 l 0.04,-0.04 H 87.940844 v -5 z" />
        <path
           inkscape:export-ydpi="10000"
           inkscape:export-xdpi="10000"
           inkscape:connector-curvature="0"
           id="path852"
           style="font-style:normal;font-variant:normal;font-weight:normal;font-stretch:normal;font-family:Azonix;-inkscape-font-specification:Azonix"
           d="M -0.80770199,537.76758 H 19.632298 v -5 H -0.80770199 c -4.16000001,0 -7.52000001,3.4 -7.52000001,7.56 v 12.88 c 0,4.16 3.36,7.56 7.52000001,7.56 H 19.632298 v -5 H -0.80770199 c -1.40000001,0 -2.56000001,-1.16 -2.56000001,-2.56 v -5.28 h 18 v -5 h -18 v -2.6 c 0,-1.4 1.16,-2.56 2.56000001,-2.56 z" />
        <path
           inkscape:export-ydpi="10000"
           inkscape:export-xdpi="10000"
           inkscape:connector-curvature="0"
           id="path854"
           style="font-style:normal;font-variant:normal;font-weight:normal;font-stretch:normal;font-family:Azonix;-inkscape-font-specification:Azonix"
           d="m 51.663548,532.76758 h -7.4 l -7.8,7.16 -3.72,3.4 -4.12,3.76 v -14.32 h -5 v 28 h 5 v -6.92 l 7.08,-6.44 9.68,13.36 h 6.16 l -12.12,-16.76 z" />
        <path
           inkscape:export-ydpi="10000"
           inkscape:export-xdpi="10000"
           inkscape:connector-curvature="0"
           id="path856"
           style="font-style:normal;font-variant:normal;font-weight:normal;font-stretch:normal;font-family:Azonix;-inkscape-font-specification:Azonix"
           d="m 60.832923,537.76758 h 20.44 v -5 h -20.44 c -4.16,0 -7.52,3.4 -7.52,7.56 v 12.88 c 0,4.16 3.36,7.56 7.52,7.56 h 20.44 v -5 h -20.44 c -1.4,0 -2.56,-1.16 -2.56,-2.56 v -5.28 h 18 v -5 h -18 v -2.6 c 0,-1.4 1.16,-2.56 2.56,-2.56 z" />
      </g>
    </g>
  </g>
</svg>
