G04 #@! TF.GenerationSoftware,KiCad,Pcbnew,5.1.2*
G04 #@! TF.CreationDate,2019-07-29T09:43:07-03:00*
G04 #@! TF.ProjectId,zeke,7a656b65-2e6b-4696-9361-645f70636258,rev?*
G04 #@! TF.SameCoordinates,Original*
G04 #@! TF.FileFunction,Legend,Top*
G04 #@! TF.FilePolarity,Positive*
%FSLAX46Y46*%
G04 Gerber Fmt 4.6, Leading zero omitted, Abs format (unit mm)*
G04 Created by KiCad (PCBNEW 5.1.2) date 2019-07-29 09:43:07*
%MOMM*%
%LPD*%
G04 APERTURE LIST*
%ADD10C,0.127000*%
%ADD11C,0.100000*%
%ADD12C,0.150000*%
%ADD13C,0.120000*%
%ADD14C,0.254000*%
%ADD15C,0.158750*%
%ADD16C,0.190500*%
G04 APERTURE END LIST*
D10*
X50371570Y-135969930D02*
G75*
G03X50371570Y-135969930I-1397000J0D01*
G01*
X52917331Y-129619930D02*
G75*
G03X52917331Y-129619930I-1402761J0D01*
G01*
D11*
G36*
X97018690Y-91138730D02*
G01*
X97018690Y-90376730D01*
X96256690Y-90376730D01*
X97018690Y-91138730D01*
G37*
X97018690Y-91138730D02*
X97018690Y-90376730D01*
X96256690Y-90376730D01*
X97018690Y-91138730D01*
D12*
X100167690Y-90096730D02*
X100167690Y-86846730D01*
X96917690Y-90096730D02*
X96917690Y-86846730D01*
X100167690Y-90096730D02*
X99952690Y-90096730D01*
X100167690Y-86846730D02*
X99952690Y-86846730D01*
X96917690Y-86846730D02*
X97132690Y-86846730D01*
X96917690Y-90096730D02*
X97042690Y-90096730D01*
D10*
X110061810Y-91519770D02*
G75*
G03X110061810Y-91519770I-1397000J0D01*
G01*
X107521810Y-97869770D02*
G75*
G03X107521810Y-97869770I-1397000J0D01*
G01*
X110061810Y-129619930D02*
G75*
G03X110061810Y-129619930I-1397000J0D01*
G01*
X107521810Y-135969930D02*
G75*
G03X107521810Y-135969930I-1397000J0D01*
G01*
D13*
X93579140Y-50265038D02*
X93579140Y-49747882D01*
X92159140Y-50265038D02*
X92159140Y-49747882D01*
X94540400Y-49747882D02*
X94540400Y-50265038D01*
X95960400Y-49747882D02*
X95960400Y-50265038D01*
D10*
X108791810Y-139144970D02*
G75*
G03X108791810Y-139144970I-1397000J0D01*
G01*
X102441810Y-136604970D02*
G75*
G03X102441810Y-136604970I-1397000J0D01*
G01*
X89741730Y-139144970D02*
G75*
G03X89741730Y-139144970I-1397000J0D01*
G01*
X83391730Y-136604970D02*
G75*
G03X83391730Y-136604970I-1397000J0D01*
G01*
X70691650Y-139144970D02*
G75*
G03X70691650Y-139144970I-1397000J0D01*
G01*
X64341650Y-136604970D02*
G75*
G03X64341650Y-136604970I-1397000J0D01*
G01*
X51641570Y-139144970D02*
G75*
G03X51641570Y-139144970I-1397000J0D01*
G01*
X45291570Y-136604970D02*
G75*
G03X45291570Y-136604970I-1397000J0D01*
G01*
D11*
G36*
X43148420Y-53086000D02*
G01*
X42386420Y-53086000D01*
X42386420Y-53848000D01*
X43148420Y-53086000D01*
G37*
X43148420Y-53086000D02*
X42386420Y-53086000D01*
X42386420Y-53848000D01*
X43148420Y-53086000D01*
D12*
X42106420Y-49937000D02*
X38856420Y-49937000D01*
X42106420Y-53187000D02*
X38856420Y-53187000D01*
X42106420Y-49937000D02*
X42106420Y-50152000D01*
X38856420Y-49937000D02*
X38856420Y-50152000D01*
X38856420Y-53187000D02*
X38856420Y-52972000D01*
X42106420Y-53187000D02*
X42106420Y-53062000D01*
D13*
X73888370Y-68539730D02*
X76588370Y-68539730D01*
X73888370Y-66239730D02*
X73888370Y-68539730D01*
D11*
G36*
X78946690Y-77930690D02*
G01*
X77930690Y-77930690D01*
X77930690Y-78946690D01*
X78946690Y-77930690D01*
G37*
X78946690Y-77930690D02*
X77930690Y-77930690D01*
X77930690Y-78946690D01*
X78946690Y-77930690D01*
D13*
X71399690Y-71399690D02*
X71399690Y-72124690D01*
X72124690Y-71399690D02*
X71399690Y-71399690D01*
X78619690Y-71399690D02*
X78619690Y-72124690D01*
X77894690Y-71399690D02*
X78619690Y-71399690D01*
X71399690Y-78619690D02*
X71399690Y-77894690D01*
X72124690Y-78619690D02*
X71399690Y-78619690D01*
D10*
X108791810Y-120094890D02*
G75*
G03X108791810Y-120094890I-1397000J0D01*
G01*
X102441810Y-117554890D02*
G75*
G03X102441810Y-117554890I-1397000J0D01*
G01*
X89741730Y-120094890D02*
G75*
G03X89741730Y-120094890I-1397000J0D01*
G01*
X83391730Y-117554890D02*
G75*
G03X83391730Y-117554890I-1397000J0D01*
G01*
X70691650Y-120094890D02*
G75*
G03X70691650Y-120094890I-1397000J0D01*
G01*
X64341650Y-117554890D02*
G75*
G03X64341650Y-117554890I-1397000J0D01*
G01*
X51641570Y-120094890D02*
G75*
G03X51641570Y-120094890I-1397000J0D01*
G01*
X45291570Y-117554890D02*
G75*
G03X45291570Y-117554890I-1397000J0D01*
G01*
D11*
G36*
X95809770Y-43414730D02*
G01*
X95809770Y-44164730D01*
X96559770Y-44164730D01*
X95809770Y-43414730D01*
G37*
X95809770Y-43414730D02*
X95809770Y-44164730D01*
X96559770Y-44164730D01*
X95809770Y-43414730D01*
D10*
X108791810Y-101044810D02*
G75*
G03X108791810Y-101044810I-1397000J0D01*
G01*
X102441810Y-98504810D02*
G75*
G03X102441810Y-98504810I-1397000J0D01*
G01*
X89741730Y-101044810D02*
G75*
G03X89741730Y-101044810I-1397000J0D01*
G01*
X83391730Y-98504810D02*
G75*
G03X83391730Y-98504810I-1397000J0D01*
G01*
X70691650Y-101044810D02*
G75*
G03X70691650Y-101044810I-1397000J0D01*
G01*
X64341650Y-98504810D02*
G75*
G03X64341650Y-98504810I-1397000J0D01*
G01*
X51641570Y-101044810D02*
G75*
G03X51641570Y-101044810I-1397000J0D01*
G01*
X45291570Y-98504810D02*
G75*
G03X45291570Y-98504810I-1397000J0D01*
G01*
X108791810Y-81994730D02*
G75*
G03X108791810Y-81994730I-1397000J0D01*
G01*
X102441810Y-79454730D02*
G75*
G03X102441810Y-79454730I-1397000J0D01*
G01*
X89741730Y-81994730D02*
G75*
G03X89741730Y-81994730I-1397000J0D01*
G01*
X83391730Y-79454730D02*
G75*
G03X83391730Y-79454730I-1397000J0D01*
G01*
X70691650Y-81994730D02*
G75*
G03X70691650Y-81994730I-1397000J0D01*
G01*
X64341650Y-79454730D02*
G75*
G03X64341650Y-79454730I-1397000J0D01*
G01*
X51641570Y-81994730D02*
G75*
G03X51641570Y-81994730I-1397000J0D01*
G01*
X45291570Y-79454730D02*
G75*
G03X45291570Y-79454730I-1397000J0D01*
G01*
X108791810Y-62944650D02*
G75*
G03X108791810Y-62944650I-1397000J0D01*
G01*
X102441810Y-60404650D02*
G75*
G03X102441810Y-60404650I-1397000J0D01*
G01*
X89741730Y-62944650D02*
G75*
G03X89741730Y-62944650I-1397000J0D01*
G01*
X83391730Y-60404650D02*
G75*
G03X83391730Y-60404650I-1397000J0D01*
G01*
X70691650Y-62944650D02*
G75*
G03X70691650Y-62944650I-1397000J0D01*
G01*
X64341650Y-60404650D02*
G75*
G03X64341650Y-60404650I-1397000J0D01*
G01*
X51641570Y-62944650D02*
G75*
G03X51641570Y-62944650I-1397000J0D01*
G01*
X45291570Y-60404650D02*
G75*
G03X45291570Y-60404650I-1397000J0D01*
G01*
X108791810Y-43894570D02*
G75*
G03X108791810Y-43894570I-1397000J0D01*
G01*
X102441810Y-41354570D02*
G75*
G03X102441810Y-41354570I-1397000J0D01*
G01*
X89741730Y-43894570D02*
G75*
G03X89741730Y-43894570I-1397000J0D01*
G01*
X83391730Y-41354570D02*
G75*
G03X83391730Y-41354570I-1397000J0D01*
G01*
X70691650Y-43894570D02*
G75*
G03X70691650Y-43894570I-1397000J0D01*
G01*
X64341650Y-41354570D02*
G75*
G03X64341650Y-41354570I-1397000J0D01*
G01*
X51641570Y-43894570D02*
G75*
G03X51641570Y-43894570I-1397000J0D01*
G01*
X45291570Y-41354570D02*
G75*
G03X45291570Y-41354570I-1397000J0D01*
G01*
D12*
X39711832Y-129612110D02*
X39378499Y-129135920D01*
X39140404Y-129612110D02*
X39140404Y-128612110D01*
X39521356Y-128612110D01*
X39616594Y-128659730D01*
X39664213Y-128707349D01*
X39711832Y-128802587D01*
X39711832Y-128945444D01*
X39664213Y-129040682D01*
X39616594Y-129088301D01*
X39521356Y-129135920D01*
X39140404Y-129135920D01*
X40664213Y-128659730D02*
X40568975Y-128612110D01*
X40426118Y-128612110D01*
X40283261Y-128659730D01*
X40188023Y-128754968D01*
X40140404Y-128850206D01*
X40092785Y-129040682D01*
X40092785Y-129183539D01*
X40140404Y-129374015D01*
X40188023Y-129469253D01*
X40283261Y-129564491D01*
X40426118Y-129612110D01*
X40521356Y-129612110D01*
X40664213Y-129564491D01*
X40711832Y-129516872D01*
X40711832Y-129183539D01*
X40521356Y-129183539D01*
X41473737Y-129088301D02*
X41616594Y-129135920D01*
X41664213Y-129183539D01*
X41711832Y-129278777D01*
X41711832Y-129421634D01*
X41664213Y-129516872D01*
X41616594Y-129564491D01*
X41521356Y-129612110D01*
X41140404Y-129612110D01*
X41140404Y-128612110D01*
X41473737Y-128612110D01*
X41568975Y-128659730D01*
X41616594Y-128707349D01*
X41664213Y-128802587D01*
X41664213Y-128897825D01*
X41616594Y-128993063D01*
X41568975Y-129040682D01*
X41473737Y-129088301D01*
X41140404Y-129088301D01*
X42092785Y-128707349D02*
X42140404Y-128659730D01*
X42235642Y-128612110D01*
X42473737Y-128612110D01*
X42568975Y-128659730D01*
X42616594Y-128707349D01*
X42664213Y-128802587D01*
X42664213Y-128897825D01*
X42616594Y-129040682D01*
X42045166Y-129612110D01*
X42664213Y-129612110D01*
X43568975Y-128612110D02*
X43092785Y-128612110D01*
X43045166Y-129088301D01*
X43092785Y-129040682D01*
X43188023Y-128993063D01*
X43426118Y-128993063D01*
X43521356Y-129040682D01*
X43568975Y-129088301D01*
X43616594Y-129183539D01*
X43616594Y-129421634D01*
X43568975Y-129516872D01*
X43521356Y-129564491D01*
X43426118Y-129612110D01*
X43188023Y-129612110D01*
X43092785Y-129564491D01*
X43045166Y-129516872D01*
X101037070Y-148407587D02*
X100560880Y-148740920D01*
X101037070Y-148979015D02*
X100037070Y-148979015D01*
X100037070Y-148598063D01*
X100084690Y-148502825D01*
X100132309Y-148455206D01*
X100227547Y-148407587D01*
X100370404Y-148407587D01*
X100465642Y-148455206D01*
X100513261Y-148502825D01*
X100560880Y-148598063D01*
X100560880Y-148979015D01*
X100084690Y-147455206D02*
X100037070Y-147550444D01*
X100037070Y-147693301D01*
X100084690Y-147836158D01*
X100179928Y-147931396D01*
X100275166Y-147979015D01*
X100465642Y-148026634D01*
X100608499Y-148026634D01*
X100798975Y-147979015D01*
X100894213Y-147931396D01*
X100989451Y-147836158D01*
X101037070Y-147693301D01*
X101037070Y-147598063D01*
X100989451Y-147455206D01*
X100941832Y-147407587D01*
X100608499Y-147407587D01*
X100608499Y-147598063D01*
X100513261Y-146645682D02*
X100560880Y-146502825D01*
X100608499Y-146455206D01*
X100703737Y-146407587D01*
X100846594Y-146407587D01*
X100941832Y-146455206D01*
X100989451Y-146502825D01*
X101037070Y-146598063D01*
X101037070Y-146979015D01*
X100037070Y-146979015D01*
X100037070Y-146645682D01*
X100084690Y-146550444D01*
X100132309Y-146502825D01*
X100227547Y-146455206D01*
X100322785Y-146455206D01*
X100418023Y-146502825D01*
X100465642Y-146550444D01*
X100513261Y-146645682D01*
X100513261Y-146979015D01*
X100132309Y-146026634D02*
X100084690Y-145979015D01*
X100037070Y-145883777D01*
X100037070Y-145645682D01*
X100084690Y-145550444D01*
X100132309Y-145502825D01*
X100227547Y-145455206D01*
X100322785Y-145455206D01*
X100465642Y-145502825D01*
X101037070Y-146074253D01*
X101037070Y-145455206D01*
X100370404Y-144598063D02*
X101037070Y-144598063D01*
X99989451Y-144836158D02*
X100703737Y-145074253D01*
X100703737Y-144455206D01*
X81860070Y-148407987D02*
X81383880Y-148741320D01*
X81860070Y-148979415D02*
X80860070Y-148979415D01*
X80860070Y-148598463D01*
X80907690Y-148503225D01*
X80955309Y-148455606D01*
X81050547Y-148407987D01*
X81193404Y-148407987D01*
X81288642Y-148455606D01*
X81336261Y-148503225D01*
X81383880Y-148598463D01*
X81383880Y-148979415D01*
X80907690Y-147455606D02*
X80860070Y-147550844D01*
X80860070Y-147693701D01*
X80907690Y-147836558D01*
X81002928Y-147931796D01*
X81098166Y-147979415D01*
X81288642Y-148027034D01*
X81431499Y-148027034D01*
X81621975Y-147979415D01*
X81717213Y-147931796D01*
X81812451Y-147836558D01*
X81860070Y-147693701D01*
X81860070Y-147598463D01*
X81812451Y-147455606D01*
X81764832Y-147407987D01*
X81431499Y-147407987D01*
X81431499Y-147598463D01*
X81336261Y-146646082D02*
X81383880Y-146503225D01*
X81431499Y-146455606D01*
X81526737Y-146407987D01*
X81669594Y-146407987D01*
X81764832Y-146455606D01*
X81812451Y-146503225D01*
X81860070Y-146598463D01*
X81860070Y-146979415D01*
X80860070Y-146979415D01*
X80860070Y-146646082D01*
X80907690Y-146550844D01*
X80955309Y-146503225D01*
X81050547Y-146455606D01*
X81145785Y-146455606D01*
X81241023Y-146503225D01*
X81288642Y-146550844D01*
X81336261Y-146646082D01*
X81336261Y-146979415D01*
X80955309Y-146027034D02*
X80907690Y-145979415D01*
X80860070Y-145884177D01*
X80860070Y-145646082D01*
X80907690Y-145550844D01*
X80955309Y-145503225D01*
X81050547Y-145455606D01*
X81145785Y-145455606D01*
X81288642Y-145503225D01*
X81860070Y-146074653D01*
X81860070Y-145455606D01*
X80860070Y-145122272D02*
X80860070Y-144503225D01*
X81241023Y-144836558D01*
X81241023Y-144693701D01*
X81288642Y-144598463D01*
X81336261Y-144550844D01*
X81431499Y-144503225D01*
X81669594Y-144503225D01*
X81764832Y-144550844D01*
X81812451Y-144598463D01*
X81860070Y-144693701D01*
X81860070Y-144979415D01*
X81812451Y-145074653D01*
X81764832Y-145122272D01*
X62937150Y-148407987D02*
X62460960Y-148741320D01*
X62937150Y-148979415D02*
X61937150Y-148979415D01*
X61937150Y-148598463D01*
X61984770Y-148503225D01*
X62032389Y-148455606D01*
X62127627Y-148407987D01*
X62270484Y-148407987D01*
X62365722Y-148455606D01*
X62413341Y-148503225D01*
X62460960Y-148598463D01*
X62460960Y-148979415D01*
X61984770Y-147455606D02*
X61937150Y-147550844D01*
X61937150Y-147693701D01*
X61984770Y-147836558D01*
X62080008Y-147931796D01*
X62175246Y-147979415D01*
X62365722Y-148027034D01*
X62508579Y-148027034D01*
X62699055Y-147979415D01*
X62794293Y-147931796D01*
X62889531Y-147836558D01*
X62937150Y-147693701D01*
X62937150Y-147598463D01*
X62889531Y-147455606D01*
X62841912Y-147407987D01*
X62508579Y-147407987D01*
X62508579Y-147598463D01*
X62413341Y-146646082D02*
X62460960Y-146503225D01*
X62508579Y-146455606D01*
X62603817Y-146407987D01*
X62746674Y-146407987D01*
X62841912Y-146455606D01*
X62889531Y-146503225D01*
X62937150Y-146598463D01*
X62937150Y-146979415D01*
X61937150Y-146979415D01*
X61937150Y-146646082D01*
X61984770Y-146550844D01*
X62032389Y-146503225D01*
X62127627Y-146455606D01*
X62222865Y-146455606D01*
X62318103Y-146503225D01*
X62365722Y-146550844D01*
X62413341Y-146646082D01*
X62413341Y-146979415D01*
X62032389Y-146027034D02*
X61984770Y-145979415D01*
X61937150Y-145884177D01*
X61937150Y-145646082D01*
X61984770Y-145550844D01*
X62032389Y-145503225D01*
X62127627Y-145455606D01*
X62222865Y-145455606D01*
X62365722Y-145503225D01*
X62937150Y-146074653D01*
X62937150Y-145455606D01*
X62032389Y-145074653D02*
X61984770Y-145027034D01*
X61937150Y-144931796D01*
X61937150Y-144693701D01*
X61984770Y-144598463D01*
X62032389Y-144550844D01*
X62127627Y-144503225D01*
X62222865Y-144503225D01*
X62365722Y-144550844D01*
X62937150Y-145122272D01*
X62937150Y-144503225D01*
X43887070Y-148407987D02*
X43410880Y-148741320D01*
X43887070Y-148979415D02*
X42887070Y-148979415D01*
X42887070Y-148598463D01*
X42934690Y-148503225D01*
X42982309Y-148455606D01*
X43077547Y-148407987D01*
X43220404Y-148407987D01*
X43315642Y-148455606D01*
X43363261Y-148503225D01*
X43410880Y-148598463D01*
X43410880Y-148979415D01*
X42934690Y-147455606D02*
X42887070Y-147550844D01*
X42887070Y-147693701D01*
X42934690Y-147836558D01*
X43029928Y-147931796D01*
X43125166Y-147979415D01*
X43315642Y-148027034D01*
X43458499Y-148027034D01*
X43648975Y-147979415D01*
X43744213Y-147931796D01*
X43839451Y-147836558D01*
X43887070Y-147693701D01*
X43887070Y-147598463D01*
X43839451Y-147455606D01*
X43791832Y-147407987D01*
X43458499Y-147407987D01*
X43458499Y-147598463D01*
X43363261Y-146646082D02*
X43410880Y-146503225D01*
X43458499Y-146455606D01*
X43553737Y-146407987D01*
X43696594Y-146407987D01*
X43791832Y-146455606D01*
X43839451Y-146503225D01*
X43887070Y-146598463D01*
X43887070Y-146979415D01*
X42887070Y-146979415D01*
X42887070Y-146646082D01*
X42934690Y-146550844D01*
X42982309Y-146503225D01*
X43077547Y-146455606D01*
X43172785Y-146455606D01*
X43268023Y-146503225D01*
X43315642Y-146550844D01*
X43363261Y-146646082D01*
X43363261Y-146979415D01*
X42982309Y-146027034D02*
X42934690Y-145979415D01*
X42887070Y-145884177D01*
X42887070Y-145646082D01*
X42934690Y-145550844D01*
X42982309Y-145503225D01*
X43077547Y-145455606D01*
X43172785Y-145455606D01*
X43315642Y-145503225D01*
X43887070Y-146074653D01*
X43887070Y-145455606D01*
X43887070Y-144503225D02*
X43887070Y-145074653D01*
X43887070Y-144788939D02*
X42887070Y-144788939D01*
X43029928Y-144884177D01*
X43125166Y-144979415D01*
X43172785Y-145074653D01*
X101037070Y-129357587D02*
X100560880Y-129690920D01*
X101037070Y-129929015D02*
X100037070Y-129929015D01*
X100037070Y-129548063D01*
X100084690Y-129452825D01*
X100132309Y-129405206D01*
X100227547Y-129357587D01*
X100370404Y-129357587D01*
X100465642Y-129405206D01*
X100513261Y-129452825D01*
X100560880Y-129548063D01*
X100560880Y-129929015D01*
X100084690Y-128405206D02*
X100037070Y-128500444D01*
X100037070Y-128643301D01*
X100084690Y-128786158D01*
X100179928Y-128881396D01*
X100275166Y-128929015D01*
X100465642Y-128976634D01*
X100608499Y-128976634D01*
X100798975Y-128929015D01*
X100894213Y-128881396D01*
X100989451Y-128786158D01*
X101037070Y-128643301D01*
X101037070Y-128548063D01*
X100989451Y-128405206D01*
X100941832Y-128357587D01*
X100608499Y-128357587D01*
X100608499Y-128548063D01*
X100513261Y-127595682D02*
X100560880Y-127452825D01*
X100608499Y-127405206D01*
X100703737Y-127357587D01*
X100846594Y-127357587D01*
X100941832Y-127405206D01*
X100989451Y-127452825D01*
X101037070Y-127548063D01*
X101037070Y-127929015D01*
X100037070Y-127929015D01*
X100037070Y-127595682D01*
X100084690Y-127500444D01*
X100132309Y-127452825D01*
X100227547Y-127405206D01*
X100322785Y-127405206D01*
X100418023Y-127452825D01*
X100465642Y-127500444D01*
X100513261Y-127595682D01*
X100513261Y-127929015D01*
X100132309Y-126976634D02*
X100084690Y-126929015D01*
X100037070Y-126833777D01*
X100037070Y-126595682D01*
X100084690Y-126500444D01*
X100132309Y-126452825D01*
X100227547Y-126405206D01*
X100322785Y-126405206D01*
X100465642Y-126452825D01*
X101037070Y-127024253D01*
X101037070Y-126405206D01*
X100037070Y-125786158D02*
X100037070Y-125690920D01*
X100084690Y-125595682D01*
X100132309Y-125548063D01*
X100227547Y-125500444D01*
X100418023Y-125452825D01*
X100656118Y-125452825D01*
X100846594Y-125500444D01*
X100941832Y-125548063D01*
X100989451Y-125595682D01*
X101037070Y-125690920D01*
X101037070Y-125786158D01*
X100989451Y-125881396D01*
X100941832Y-125929015D01*
X100846594Y-125976634D01*
X100656118Y-126024253D01*
X100418023Y-126024253D01*
X100227547Y-125976634D01*
X100132309Y-125929015D01*
X100084690Y-125881396D01*
X100037070Y-125786158D01*
X81987070Y-129357587D02*
X81510880Y-129690920D01*
X81987070Y-129929015D02*
X80987070Y-129929015D01*
X80987070Y-129548063D01*
X81034690Y-129452825D01*
X81082309Y-129405206D01*
X81177547Y-129357587D01*
X81320404Y-129357587D01*
X81415642Y-129405206D01*
X81463261Y-129452825D01*
X81510880Y-129548063D01*
X81510880Y-129929015D01*
X81034690Y-128405206D02*
X80987070Y-128500444D01*
X80987070Y-128643301D01*
X81034690Y-128786158D01*
X81129928Y-128881396D01*
X81225166Y-128929015D01*
X81415642Y-128976634D01*
X81558499Y-128976634D01*
X81748975Y-128929015D01*
X81844213Y-128881396D01*
X81939451Y-128786158D01*
X81987070Y-128643301D01*
X81987070Y-128548063D01*
X81939451Y-128405206D01*
X81891832Y-128357587D01*
X81558499Y-128357587D01*
X81558499Y-128548063D01*
X81463261Y-127595682D02*
X81510880Y-127452825D01*
X81558499Y-127405206D01*
X81653737Y-127357587D01*
X81796594Y-127357587D01*
X81891832Y-127405206D01*
X81939451Y-127452825D01*
X81987070Y-127548063D01*
X81987070Y-127929015D01*
X80987070Y-127929015D01*
X80987070Y-127595682D01*
X81034690Y-127500444D01*
X81082309Y-127452825D01*
X81177547Y-127405206D01*
X81272785Y-127405206D01*
X81368023Y-127452825D01*
X81415642Y-127500444D01*
X81463261Y-127595682D01*
X81463261Y-127929015D01*
X81987070Y-126405206D02*
X81987070Y-126976634D01*
X81987070Y-126690920D02*
X80987070Y-126690920D01*
X81129928Y-126786158D01*
X81225166Y-126881396D01*
X81272785Y-126976634D01*
X81987070Y-125929015D02*
X81987070Y-125738539D01*
X81939451Y-125643301D01*
X81891832Y-125595682D01*
X81748975Y-125500444D01*
X81558499Y-125452825D01*
X81177547Y-125452825D01*
X81082309Y-125500444D01*
X81034690Y-125548063D01*
X80987070Y-125643301D01*
X80987070Y-125833777D01*
X81034690Y-125929015D01*
X81082309Y-125976634D01*
X81177547Y-126024253D01*
X81415642Y-126024253D01*
X81510880Y-125976634D01*
X81558499Y-125929015D01*
X81606118Y-125833777D01*
X81606118Y-125643301D01*
X81558499Y-125548063D01*
X81510880Y-125500444D01*
X81415642Y-125452825D01*
X62937150Y-129357907D02*
X62460960Y-129691240D01*
X62937150Y-129929335D02*
X61937150Y-129929335D01*
X61937150Y-129548383D01*
X61984770Y-129453145D01*
X62032389Y-129405526D01*
X62127627Y-129357907D01*
X62270484Y-129357907D01*
X62365722Y-129405526D01*
X62413341Y-129453145D01*
X62460960Y-129548383D01*
X62460960Y-129929335D01*
X61984770Y-128405526D02*
X61937150Y-128500764D01*
X61937150Y-128643621D01*
X61984770Y-128786478D01*
X62080008Y-128881716D01*
X62175246Y-128929335D01*
X62365722Y-128976954D01*
X62508579Y-128976954D01*
X62699055Y-128929335D01*
X62794293Y-128881716D01*
X62889531Y-128786478D01*
X62937150Y-128643621D01*
X62937150Y-128548383D01*
X62889531Y-128405526D01*
X62841912Y-128357907D01*
X62508579Y-128357907D01*
X62508579Y-128548383D01*
X62413341Y-127596002D02*
X62460960Y-127453145D01*
X62508579Y-127405526D01*
X62603817Y-127357907D01*
X62746674Y-127357907D01*
X62841912Y-127405526D01*
X62889531Y-127453145D01*
X62937150Y-127548383D01*
X62937150Y-127929335D01*
X61937150Y-127929335D01*
X61937150Y-127596002D01*
X61984770Y-127500764D01*
X62032389Y-127453145D01*
X62127627Y-127405526D01*
X62222865Y-127405526D01*
X62318103Y-127453145D01*
X62365722Y-127500764D01*
X62413341Y-127596002D01*
X62413341Y-127929335D01*
X62937150Y-126405526D02*
X62937150Y-126976954D01*
X62937150Y-126691240D02*
X61937150Y-126691240D01*
X62080008Y-126786478D01*
X62175246Y-126881716D01*
X62222865Y-126976954D01*
X62365722Y-125834097D02*
X62318103Y-125929335D01*
X62270484Y-125976954D01*
X62175246Y-126024573D01*
X62127627Y-126024573D01*
X62032389Y-125976954D01*
X61984770Y-125929335D01*
X61937150Y-125834097D01*
X61937150Y-125643621D01*
X61984770Y-125548383D01*
X62032389Y-125500764D01*
X62127627Y-125453145D01*
X62175246Y-125453145D01*
X62270484Y-125500764D01*
X62318103Y-125548383D01*
X62365722Y-125643621D01*
X62365722Y-125834097D01*
X62413341Y-125929335D01*
X62460960Y-125976954D01*
X62556198Y-126024573D01*
X62746674Y-126024573D01*
X62841912Y-125976954D01*
X62889531Y-125929335D01*
X62937150Y-125834097D01*
X62937150Y-125643621D01*
X62889531Y-125548383D01*
X62841912Y-125500764D01*
X62746674Y-125453145D01*
X62556198Y-125453145D01*
X62460960Y-125500764D01*
X62413341Y-125548383D01*
X62365722Y-125643621D01*
X43887070Y-129357907D02*
X43410880Y-129691240D01*
X43887070Y-129929335D02*
X42887070Y-129929335D01*
X42887070Y-129548383D01*
X42934690Y-129453145D01*
X42982309Y-129405526D01*
X43077547Y-129357907D01*
X43220404Y-129357907D01*
X43315642Y-129405526D01*
X43363261Y-129453145D01*
X43410880Y-129548383D01*
X43410880Y-129929335D01*
X42934690Y-128405526D02*
X42887070Y-128500764D01*
X42887070Y-128643621D01*
X42934690Y-128786478D01*
X43029928Y-128881716D01*
X43125166Y-128929335D01*
X43315642Y-128976954D01*
X43458499Y-128976954D01*
X43648975Y-128929335D01*
X43744213Y-128881716D01*
X43839451Y-128786478D01*
X43887070Y-128643621D01*
X43887070Y-128548383D01*
X43839451Y-128405526D01*
X43791832Y-128357907D01*
X43458499Y-128357907D01*
X43458499Y-128548383D01*
X43363261Y-127596002D02*
X43410880Y-127453145D01*
X43458499Y-127405526D01*
X43553737Y-127357907D01*
X43696594Y-127357907D01*
X43791832Y-127405526D01*
X43839451Y-127453145D01*
X43887070Y-127548383D01*
X43887070Y-127929335D01*
X42887070Y-127929335D01*
X42887070Y-127596002D01*
X42934690Y-127500764D01*
X42982309Y-127453145D01*
X43077547Y-127405526D01*
X43172785Y-127405526D01*
X43268023Y-127453145D01*
X43315642Y-127500764D01*
X43363261Y-127596002D01*
X43363261Y-127929335D01*
X43887070Y-126405526D02*
X43887070Y-126976954D01*
X43887070Y-126691240D02*
X42887070Y-126691240D01*
X43029928Y-126786478D01*
X43125166Y-126881716D01*
X43172785Y-126976954D01*
X42887070Y-126072192D02*
X42887070Y-125405526D01*
X43887070Y-125834097D01*
X101037310Y-110307827D02*
X100561120Y-110641160D01*
X101037310Y-110879255D02*
X100037310Y-110879255D01*
X100037310Y-110498303D01*
X100084930Y-110403065D01*
X100132549Y-110355446D01*
X100227787Y-110307827D01*
X100370644Y-110307827D01*
X100465882Y-110355446D01*
X100513501Y-110403065D01*
X100561120Y-110498303D01*
X100561120Y-110879255D01*
X100084930Y-109355446D02*
X100037310Y-109450684D01*
X100037310Y-109593541D01*
X100084930Y-109736398D01*
X100180168Y-109831636D01*
X100275406Y-109879255D01*
X100465882Y-109926874D01*
X100608739Y-109926874D01*
X100799215Y-109879255D01*
X100894453Y-109831636D01*
X100989691Y-109736398D01*
X101037310Y-109593541D01*
X101037310Y-109498303D01*
X100989691Y-109355446D01*
X100942072Y-109307827D01*
X100608739Y-109307827D01*
X100608739Y-109498303D01*
X100513501Y-108545922D02*
X100561120Y-108403065D01*
X100608739Y-108355446D01*
X100703977Y-108307827D01*
X100846834Y-108307827D01*
X100942072Y-108355446D01*
X100989691Y-108403065D01*
X101037310Y-108498303D01*
X101037310Y-108879255D01*
X100037310Y-108879255D01*
X100037310Y-108545922D01*
X100084930Y-108450684D01*
X100132549Y-108403065D01*
X100227787Y-108355446D01*
X100323025Y-108355446D01*
X100418263Y-108403065D01*
X100465882Y-108450684D01*
X100513501Y-108545922D01*
X100513501Y-108879255D01*
X101037310Y-107355446D02*
X101037310Y-107926874D01*
X101037310Y-107641160D02*
X100037310Y-107641160D01*
X100180168Y-107736398D01*
X100275406Y-107831636D01*
X100323025Y-107926874D01*
X100037310Y-106498303D02*
X100037310Y-106688779D01*
X100084930Y-106784017D01*
X100132549Y-106831636D01*
X100275406Y-106926874D01*
X100465882Y-106974493D01*
X100846834Y-106974493D01*
X100942072Y-106926874D01*
X100989691Y-106879255D01*
X101037310Y-106784017D01*
X101037310Y-106593541D01*
X100989691Y-106498303D01*
X100942072Y-106450684D01*
X100846834Y-106403065D01*
X100608739Y-106403065D01*
X100513501Y-106450684D01*
X100465882Y-106498303D01*
X100418263Y-106593541D01*
X100418263Y-106784017D01*
X100465882Y-106879255D01*
X100513501Y-106926874D01*
X100608739Y-106974493D01*
X81987230Y-110307827D02*
X81511040Y-110641160D01*
X81987230Y-110879255D02*
X80987230Y-110879255D01*
X80987230Y-110498303D01*
X81034850Y-110403065D01*
X81082469Y-110355446D01*
X81177707Y-110307827D01*
X81320564Y-110307827D01*
X81415802Y-110355446D01*
X81463421Y-110403065D01*
X81511040Y-110498303D01*
X81511040Y-110879255D01*
X81034850Y-109355446D02*
X80987230Y-109450684D01*
X80987230Y-109593541D01*
X81034850Y-109736398D01*
X81130088Y-109831636D01*
X81225326Y-109879255D01*
X81415802Y-109926874D01*
X81558659Y-109926874D01*
X81749135Y-109879255D01*
X81844373Y-109831636D01*
X81939611Y-109736398D01*
X81987230Y-109593541D01*
X81987230Y-109498303D01*
X81939611Y-109355446D01*
X81891992Y-109307827D01*
X81558659Y-109307827D01*
X81558659Y-109498303D01*
X81463421Y-108545922D02*
X81511040Y-108403065D01*
X81558659Y-108355446D01*
X81653897Y-108307827D01*
X81796754Y-108307827D01*
X81891992Y-108355446D01*
X81939611Y-108403065D01*
X81987230Y-108498303D01*
X81987230Y-108879255D01*
X80987230Y-108879255D01*
X80987230Y-108545922D01*
X81034850Y-108450684D01*
X81082469Y-108403065D01*
X81177707Y-108355446D01*
X81272945Y-108355446D01*
X81368183Y-108403065D01*
X81415802Y-108450684D01*
X81463421Y-108545922D01*
X81463421Y-108879255D01*
X81987230Y-107355446D02*
X81987230Y-107926874D01*
X81987230Y-107641160D02*
X80987230Y-107641160D01*
X81130088Y-107736398D01*
X81225326Y-107831636D01*
X81272945Y-107926874D01*
X80987230Y-106450684D02*
X80987230Y-106926874D01*
X81463421Y-106974493D01*
X81415802Y-106926874D01*
X81368183Y-106831636D01*
X81368183Y-106593541D01*
X81415802Y-106498303D01*
X81463421Y-106450684D01*
X81558659Y-106403065D01*
X81796754Y-106403065D01*
X81891992Y-106450684D01*
X81939611Y-106498303D01*
X81987230Y-106593541D01*
X81987230Y-106831636D01*
X81939611Y-106926874D01*
X81891992Y-106974493D01*
X62937150Y-110307827D02*
X62460960Y-110641160D01*
X62937150Y-110879255D02*
X61937150Y-110879255D01*
X61937150Y-110498303D01*
X61984770Y-110403065D01*
X62032389Y-110355446D01*
X62127627Y-110307827D01*
X62270484Y-110307827D01*
X62365722Y-110355446D01*
X62413341Y-110403065D01*
X62460960Y-110498303D01*
X62460960Y-110879255D01*
X61984770Y-109355446D02*
X61937150Y-109450684D01*
X61937150Y-109593541D01*
X61984770Y-109736398D01*
X62080008Y-109831636D01*
X62175246Y-109879255D01*
X62365722Y-109926874D01*
X62508579Y-109926874D01*
X62699055Y-109879255D01*
X62794293Y-109831636D01*
X62889531Y-109736398D01*
X62937150Y-109593541D01*
X62937150Y-109498303D01*
X62889531Y-109355446D01*
X62841912Y-109307827D01*
X62508579Y-109307827D01*
X62508579Y-109498303D01*
X62413341Y-108545922D02*
X62460960Y-108403065D01*
X62508579Y-108355446D01*
X62603817Y-108307827D01*
X62746674Y-108307827D01*
X62841912Y-108355446D01*
X62889531Y-108403065D01*
X62937150Y-108498303D01*
X62937150Y-108879255D01*
X61937150Y-108879255D01*
X61937150Y-108545922D01*
X61984770Y-108450684D01*
X62032389Y-108403065D01*
X62127627Y-108355446D01*
X62222865Y-108355446D01*
X62318103Y-108403065D01*
X62365722Y-108450684D01*
X62413341Y-108545922D01*
X62413341Y-108879255D01*
X62937150Y-107355446D02*
X62937150Y-107926874D01*
X62937150Y-107641160D02*
X61937150Y-107641160D01*
X62080008Y-107736398D01*
X62175246Y-107831636D01*
X62222865Y-107926874D01*
X62270484Y-106498303D02*
X62937150Y-106498303D01*
X61889531Y-106736398D02*
X62603817Y-106974493D01*
X62603817Y-106355446D01*
X43887070Y-110307827D02*
X43410880Y-110641160D01*
X43887070Y-110879255D02*
X42887070Y-110879255D01*
X42887070Y-110498303D01*
X42934690Y-110403065D01*
X42982309Y-110355446D01*
X43077547Y-110307827D01*
X43220404Y-110307827D01*
X43315642Y-110355446D01*
X43363261Y-110403065D01*
X43410880Y-110498303D01*
X43410880Y-110879255D01*
X42934690Y-109355446D02*
X42887070Y-109450684D01*
X42887070Y-109593541D01*
X42934690Y-109736398D01*
X43029928Y-109831636D01*
X43125166Y-109879255D01*
X43315642Y-109926874D01*
X43458499Y-109926874D01*
X43648975Y-109879255D01*
X43744213Y-109831636D01*
X43839451Y-109736398D01*
X43887070Y-109593541D01*
X43887070Y-109498303D01*
X43839451Y-109355446D01*
X43791832Y-109307827D01*
X43458499Y-109307827D01*
X43458499Y-109498303D01*
X43363261Y-108545922D02*
X43410880Y-108403065D01*
X43458499Y-108355446D01*
X43553737Y-108307827D01*
X43696594Y-108307827D01*
X43791832Y-108355446D01*
X43839451Y-108403065D01*
X43887070Y-108498303D01*
X43887070Y-108879255D01*
X42887070Y-108879255D01*
X42887070Y-108545922D01*
X42934690Y-108450684D01*
X42982309Y-108403065D01*
X43077547Y-108355446D01*
X43172785Y-108355446D01*
X43268023Y-108403065D01*
X43315642Y-108450684D01*
X43363261Y-108545922D01*
X43363261Y-108879255D01*
X43887070Y-107355446D02*
X43887070Y-107926874D01*
X43887070Y-107641160D02*
X42887070Y-107641160D01*
X43029928Y-107736398D01*
X43125166Y-107831636D01*
X43172785Y-107926874D01*
X42887070Y-107022112D02*
X42887070Y-106403065D01*
X43268023Y-106736398D01*
X43268023Y-106593541D01*
X43315642Y-106498303D01*
X43363261Y-106450684D01*
X43458499Y-106403065D01*
X43696594Y-106403065D01*
X43791832Y-106450684D01*
X43839451Y-106498303D01*
X43887070Y-106593541D01*
X43887070Y-106879255D01*
X43839451Y-106974493D01*
X43791832Y-107022112D01*
X81987230Y-91257747D02*
X81511040Y-91591080D01*
X81987230Y-91829175D02*
X80987230Y-91829175D01*
X80987230Y-91448223D01*
X81034850Y-91352985D01*
X81082469Y-91305366D01*
X81177707Y-91257747D01*
X81320564Y-91257747D01*
X81415802Y-91305366D01*
X81463421Y-91352985D01*
X81511040Y-91448223D01*
X81511040Y-91829175D01*
X81034850Y-90305366D02*
X80987230Y-90400604D01*
X80987230Y-90543461D01*
X81034850Y-90686318D01*
X81130088Y-90781556D01*
X81225326Y-90829175D01*
X81415802Y-90876794D01*
X81558659Y-90876794D01*
X81749135Y-90829175D01*
X81844373Y-90781556D01*
X81939611Y-90686318D01*
X81987230Y-90543461D01*
X81987230Y-90448223D01*
X81939611Y-90305366D01*
X81891992Y-90257747D01*
X81558659Y-90257747D01*
X81558659Y-90448223D01*
X81463421Y-89495842D02*
X81511040Y-89352985D01*
X81558659Y-89305366D01*
X81653897Y-89257747D01*
X81796754Y-89257747D01*
X81891992Y-89305366D01*
X81939611Y-89352985D01*
X81987230Y-89448223D01*
X81987230Y-89829175D01*
X80987230Y-89829175D01*
X80987230Y-89495842D01*
X81034850Y-89400604D01*
X81082469Y-89352985D01*
X81177707Y-89305366D01*
X81272945Y-89305366D01*
X81368183Y-89352985D01*
X81415802Y-89400604D01*
X81463421Y-89495842D01*
X81463421Y-89829175D01*
X81987230Y-88305366D02*
X81987230Y-88876794D01*
X81987230Y-88591080D02*
X80987230Y-88591080D01*
X81130088Y-88686318D01*
X81225326Y-88781556D01*
X81272945Y-88876794D01*
X81987230Y-87352985D02*
X81987230Y-87924413D01*
X81987230Y-87638699D02*
X80987230Y-87638699D01*
X81130088Y-87733937D01*
X81225326Y-87829175D01*
X81272945Y-87924413D01*
X62937070Y-91257587D02*
X62460880Y-91590920D01*
X62937070Y-91829015D02*
X61937070Y-91829015D01*
X61937070Y-91448063D01*
X61984690Y-91352825D01*
X62032309Y-91305206D01*
X62127547Y-91257587D01*
X62270404Y-91257587D01*
X62365642Y-91305206D01*
X62413261Y-91352825D01*
X62460880Y-91448063D01*
X62460880Y-91829015D01*
X61984690Y-90305206D02*
X61937070Y-90400444D01*
X61937070Y-90543301D01*
X61984690Y-90686158D01*
X62079928Y-90781396D01*
X62175166Y-90829015D01*
X62365642Y-90876634D01*
X62508499Y-90876634D01*
X62698975Y-90829015D01*
X62794213Y-90781396D01*
X62889451Y-90686158D01*
X62937070Y-90543301D01*
X62937070Y-90448063D01*
X62889451Y-90305206D01*
X62841832Y-90257587D01*
X62508499Y-90257587D01*
X62508499Y-90448063D01*
X62413261Y-89495682D02*
X62460880Y-89352825D01*
X62508499Y-89305206D01*
X62603737Y-89257587D01*
X62746594Y-89257587D01*
X62841832Y-89305206D01*
X62889451Y-89352825D01*
X62937070Y-89448063D01*
X62937070Y-89829015D01*
X61937070Y-89829015D01*
X61937070Y-89495682D01*
X61984690Y-89400444D01*
X62032309Y-89352825D01*
X62127547Y-89305206D01*
X62222785Y-89305206D01*
X62318023Y-89352825D01*
X62365642Y-89400444D01*
X62413261Y-89495682D01*
X62413261Y-89829015D01*
X62937070Y-88305206D02*
X62937070Y-88876634D01*
X62937070Y-88590920D02*
X61937070Y-88590920D01*
X62079928Y-88686158D01*
X62175166Y-88781396D01*
X62222785Y-88876634D01*
X61937070Y-87686158D02*
X61937070Y-87590920D01*
X61984690Y-87495682D01*
X62032309Y-87448063D01*
X62127547Y-87400444D01*
X62318023Y-87352825D01*
X62556118Y-87352825D01*
X62746594Y-87400444D01*
X62841832Y-87448063D01*
X62889451Y-87495682D01*
X62937070Y-87590920D01*
X62937070Y-87686158D01*
X62889451Y-87781396D01*
X62841832Y-87829015D01*
X62746594Y-87876634D01*
X62556118Y-87924253D01*
X62318023Y-87924253D01*
X62127547Y-87876634D01*
X62032309Y-87829015D01*
X61984690Y-87781396D01*
X61937070Y-87686158D01*
X43887070Y-90781396D02*
X43410880Y-91114730D01*
X43887070Y-91352825D02*
X42887070Y-91352825D01*
X42887070Y-90971872D01*
X42934690Y-90876634D01*
X42982309Y-90829015D01*
X43077547Y-90781396D01*
X43220404Y-90781396D01*
X43315642Y-90829015D01*
X43363261Y-90876634D01*
X43410880Y-90971872D01*
X43410880Y-91352825D01*
X42934690Y-89829015D02*
X42887070Y-89924253D01*
X42887070Y-90067110D01*
X42934690Y-90209968D01*
X43029928Y-90305206D01*
X43125166Y-90352825D01*
X43315642Y-90400444D01*
X43458499Y-90400444D01*
X43648975Y-90352825D01*
X43744213Y-90305206D01*
X43839451Y-90209968D01*
X43887070Y-90067110D01*
X43887070Y-89971872D01*
X43839451Y-89829015D01*
X43791832Y-89781396D01*
X43458499Y-89781396D01*
X43458499Y-89971872D01*
X43363261Y-89019491D02*
X43410880Y-88876634D01*
X43458499Y-88829015D01*
X43553737Y-88781396D01*
X43696594Y-88781396D01*
X43791832Y-88829015D01*
X43839451Y-88876634D01*
X43887070Y-88971872D01*
X43887070Y-89352825D01*
X42887070Y-89352825D01*
X42887070Y-89019491D01*
X42934690Y-88924253D01*
X42982309Y-88876634D01*
X43077547Y-88829015D01*
X43172785Y-88829015D01*
X43268023Y-88876634D01*
X43315642Y-88924253D01*
X43363261Y-89019491D01*
X43363261Y-89352825D01*
X43887070Y-88305206D02*
X43887070Y-88114730D01*
X43839451Y-88019491D01*
X43791832Y-87971872D01*
X43648975Y-87876634D01*
X43458499Y-87829015D01*
X43077547Y-87829015D01*
X42982309Y-87876634D01*
X42934690Y-87924253D01*
X42887070Y-88019491D01*
X42887070Y-88209968D01*
X42934690Y-88305206D01*
X42982309Y-88352825D01*
X43077547Y-88400444D01*
X43315642Y-88400444D01*
X43410880Y-88352825D01*
X43458499Y-88305206D01*
X43506118Y-88209968D01*
X43506118Y-88019491D01*
X43458499Y-87924253D01*
X43410880Y-87876634D01*
X43315642Y-87829015D01*
X101037310Y-71731476D02*
X100561120Y-72064810D01*
X101037310Y-72302905D02*
X100037310Y-72302905D01*
X100037310Y-71921952D01*
X100084930Y-71826714D01*
X100132549Y-71779095D01*
X100227787Y-71731476D01*
X100370644Y-71731476D01*
X100465882Y-71779095D01*
X100513501Y-71826714D01*
X100561120Y-71921952D01*
X100561120Y-72302905D01*
X100084930Y-70779095D02*
X100037310Y-70874333D01*
X100037310Y-71017190D01*
X100084930Y-71160048D01*
X100180168Y-71255286D01*
X100275406Y-71302905D01*
X100465882Y-71350524D01*
X100608739Y-71350524D01*
X100799215Y-71302905D01*
X100894453Y-71255286D01*
X100989691Y-71160048D01*
X101037310Y-71017190D01*
X101037310Y-70921952D01*
X100989691Y-70779095D01*
X100942072Y-70731476D01*
X100608739Y-70731476D01*
X100608739Y-70921952D01*
X100513501Y-69969571D02*
X100561120Y-69826714D01*
X100608739Y-69779095D01*
X100703977Y-69731476D01*
X100846834Y-69731476D01*
X100942072Y-69779095D01*
X100989691Y-69826714D01*
X101037310Y-69921952D01*
X101037310Y-70302905D01*
X100037310Y-70302905D01*
X100037310Y-69969571D01*
X100084930Y-69874333D01*
X100132549Y-69826714D01*
X100227787Y-69779095D01*
X100323025Y-69779095D01*
X100418263Y-69826714D01*
X100465882Y-69874333D01*
X100513501Y-69969571D01*
X100513501Y-70302905D01*
X100465882Y-69160048D02*
X100418263Y-69255286D01*
X100370644Y-69302905D01*
X100275406Y-69350524D01*
X100227787Y-69350524D01*
X100132549Y-69302905D01*
X100084930Y-69255286D01*
X100037310Y-69160048D01*
X100037310Y-68969571D01*
X100084930Y-68874333D01*
X100132549Y-68826714D01*
X100227787Y-68779095D01*
X100275406Y-68779095D01*
X100370644Y-68826714D01*
X100418263Y-68874333D01*
X100465882Y-68969571D01*
X100465882Y-69160048D01*
X100513501Y-69255286D01*
X100561120Y-69302905D01*
X100656358Y-69350524D01*
X100846834Y-69350524D01*
X100942072Y-69302905D01*
X100989691Y-69255286D01*
X101037310Y-69160048D01*
X101037310Y-68969571D01*
X100989691Y-68874333D01*
X100942072Y-68826714D01*
X100846834Y-68779095D01*
X100656358Y-68779095D01*
X100561120Y-68826714D01*
X100513501Y-68874333D01*
X100465882Y-68969571D01*
X81987230Y-71731476D02*
X81511040Y-72064810D01*
X81987230Y-72302905D02*
X80987230Y-72302905D01*
X80987230Y-71921952D01*
X81034850Y-71826714D01*
X81082469Y-71779095D01*
X81177707Y-71731476D01*
X81320564Y-71731476D01*
X81415802Y-71779095D01*
X81463421Y-71826714D01*
X81511040Y-71921952D01*
X81511040Y-72302905D01*
X81034850Y-70779095D02*
X80987230Y-70874333D01*
X80987230Y-71017190D01*
X81034850Y-71160048D01*
X81130088Y-71255286D01*
X81225326Y-71302905D01*
X81415802Y-71350524D01*
X81558659Y-71350524D01*
X81749135Y-71302905D01*
X81844373Y-71255286D01*
X81939611Y-71160048D01*
X81987230Y-71017190D01*
X81987230Y-70921952D01*
X81939611Y-70779095D01*
X81891992Y-70731476D01*
X81558659Y-70731476D01*
X81558659Y-70921952D01*
X81463421Y-69969571D02*
X81511040Y-69826714D01*
X81558659Y-69779095D01*
X81653897Y-69731476D01*
X81796754Y-69731476D01*
X81891992Y-69779095D01*
X81939611Y-69826714D01*
X81987230Y-69921952D01*
X81987230Y-70302905D01*
X80987230Y-70302905D01*
X80987230Y-69969571D01*
X81034850Y-69874333D01*
X81082469Y-69826714D01*
X81177707Y-69779095D01*
X81272945Y-69779095D01*
X81368183Y-69826714D01*
X81415802Y-69874333D01*
X81463421Y-69969571D01*
X81463421Y-70302905D01*
X80987230Y-69398143D02*
X80987230Y-68731476D01*
X81987230Y-69160048D01*
X62937070Y-71731476D02*
X62460880Y-72064810D01*
X62937070Y-72302905D02*
X61937070Y-72302905D01*
X61937070Y-71921952D01*
X61984690Y-71826714D01*
X62032309Y-71779095D01*
X62127547Y-71731476D01*
X62270404Y-71731476D01*
X62365642Y-71779095D01*
X62413261Y-71826714D01*
X62460880Y-71921952D01*
X62460880Y-72302905D01*
X61984690Y-70779095D02*
X61937070Y-70874333D01*
X61937070Y-71017190D01*
X61984690Y-71160048D01*
X62079928Y-71255286D01*
X62175166Y-71302905D01*
X62365642Y-71350524D01*
X62508499Y-71350524D01*
X62698975Y-71302905D01*
X62794213Y-71255286D01*
X62889451Y-71160048D01*
X62937070Y-71017190D01*
X62937070Y-70921952D01*
X62889451Y-70779095D01*
X62841832Y-70731476D01*
X62508499Y-70731476D01*
X62508499Y-70921952D01*
X62413261Y-69969571D02*
X62460880Y-69826714D01*
X62508499Y-69779095D01*
X62603737Y-69731476D01*
X62746594Y-69731476D01*
X62841832Y-69779095D01*
X62889451Y-69826714D01*
X62937070Y-69921952D01*
X62937070Y-70302905D01*
X61937070Y-70302905D01*
X61937070Y-69969571D01*
X61984690Y-69874333D01*
X62032309Y-69826714D01*
X62127547Y-69779095D01*
X62222785Y-69779095D01*
X62318023Y-69826714D01*
X62365642Y-69874333D01*
X62413261Y-69969571D01*
X62413261Y-70302905D01*
X61937070Y-68874333D02*
X61937070Y-69064810D01*
X61984690Y-69160048D01*
X62032309Y-69207667D01*
X62175166Y-69302905D01*
X62365642Y-69350524D01*
X62746594Y-69350524D01*
X62841832Y-69302905D01*
X62889451Y-69255286D01*
X62937070Y-69160048D01*
X62937070Y-68969571D01*
X62889451Y-68874333D01*
X62841832Y-68826714D01*
X62746594Y-68779095D01*
X62508499Y-68779095D01*
X62413261Y-68826714D01*
X62365642Y-68874333D01*
X62318023Y-68969571D01*
X62318023Y-69160048D01*
X62365642Y-69255286D01*
X62413261Y-69302905D01*
X62508499Y-69350524D01*
X43887070Y-71731396D02*
X43410880Y-72064730D01*
X43887070Y-72302825D02*
X42887070Y-72302825D01*
X42887070Y-71921872D01*
X42934690Y-71826634D01*
X42982309Y-71779015D01*
X43077547Y-71731396D01*
X43220404Y-71731396D01*
X43315642Y-71779015D01*
X43363261Y-71826634D01*
X43410880Y-71921872D01*
X43410880Y-72302825D01*
X42934690Y-70779015D02*
X42887070Y-70874253D01*
X42887070Y-71017110D01*
X42934690Y-71159968D01*
X43029928Y-71255206D01*
X43125166Y-71302825D01*
X43315642Y-71350444D01*
X43458499Y-71350444D01*
X43648975Y-71302825D01*
X43744213Y-71255206D01*
X43839451Y-71159968D01*
X43887070Y-71017110D01*
X43887070Y-70921872D01*
X43839451Y-70779015D01*
X43791832Y-70731396D01*
X43458499Y-70731396D01*
X43458499Y-70921872D01*
X43363261Y-69969491D02*
X43410880Y-69826634D01*
X43458499Y-69779015D01*
X43553737Y-69731396D01*
X43696594Y-69731396D01*
X43791832Y-69779015D01*
X43839451Y-69826634D01*
X43887070Y-69921872D01*
X43887070Y-70302825D01*
X42887070Y-70302825D01*
X42887070Y-69969491D01*
X42934690Y-69874253D01*
X42982309Y-69826634D01*
X43077547Y-69779015D01*
X43172785Y-69779015D01*
X43268023Y-69826634D01*
X43315642Y-69874253D01*
X43363261Y-69969491D01*
X43363261Y-70302825D01*
X42887070Y-68826634D02*
X42887070Y-69302825D01*
X43363261Y-69350444D01*
X43315642Y-69302825D01*
X43268023Y-69207587D01*
X43268023Y-68969491D01*
X43315642Y-68874253D01*
X43363261Y-68826634D01*
X43458499Y-68779015D01*
X43696594Y-68779015D01*
X43791832Y-68826634D01*
X43839451Y-68874253D01*
X43887070Y-68969491D01*
X43887070Y-69207587D01*
X43839451Y-69302825D01*
X43791832Y-69350444D01*
X101037070Y-52681396D02*
X100560880Y-53014730D01*
X101037070Y-53252825D02*
X100037070Y-53252825D01*
X100037070Y-52871872D01*
X100084690Y-52776634D01*
X100132309Y-52729015D01*
X100227547Y-52681396D01*
X100370404Y-52681396D01*
X100465642Y-52729015D01*
X100513261Y-52776634D01*
X100560880Y-52871872D01*
X100560880Y-53252825D01*
X100084690Y-51729015D02*
X100037070Y-51824253D01*
X100037070Y-51967110D01*
X100084690Y-52109968D01*
X100179928Y-52205206D01*
X100275166Y-52252825D01*
X100465642Y-52300444D01*
X100608499Y-52300444D01*
X100798975Y-52252825D01*
X100894213Y-52205206D01*
X100989451Y-52109968D01*
X101037070Y-51967110D01*
X101037070Y-51871872D01*
X100989451Y-51729015D01*
X100941832Y-51681396D01*
X100608499Y-51681396D01*
X100608499Y-51871872D01*
X100513261Y-50919491D02*
X100560880Y-50776634D01*
X100608499Y-50729015D01*
X100703737Y-50681396D01*
X100846594Y-50681396D01*
X100941832Y-50729015D01*
X100989451Y-50776634D01*
X101037070Y-50871872D01*
X101037070Y-51252825D01*
X100037070Y-51252825D01*
X100037070Y-50919491D01*
X100084690Y-50824253D01*
X100132309Y-50776634D01*
X100227547Y-50729015D01*
X100322785Y-50729015D01*
X100418023Y-50776634D01*
X100465642Y-50824253D01*
X100513261Y-50919491D01*
X100513261Y-51252825D01*
X100370404Y-49824253D02*
X101037070Y-49824253D01*
X99989451Y-50062349D02*
X100703737Y-50300444D01*
X100703737Y-49681396D01*
X81987230Y-52681396D02*
X81511040Y-53014730D01*
X81987230Y-53252825D02*
X80987230Y-53252825D01*
X80987230Y-52871872D01*
X81034850Y-52776634D01*
X81082469Y-52729015D01*
X81177707Y-52681396D01*
X81320564Y-52681396D01*
X81415802Y-52729015D01*
X81463421Y-52776634D01*
X81511040Y-52871872D01*
X81511040Y-53252825D01*
X81034850Y-51729015D02*
X80987230Y-51824253D01*
X80987230Y-51967110D01*
X81034850Y-52109968D01*
X81130088Y-52205206D01*
X81225326Y-52252825D01*
X81415802Y-52300444D01*
X81558659Y-52300444D01*
X81749135Y-52252825D01*
X81844373Y-52205206D01*
X81939611Y-52109968D01*
X81987230Y-51967110D01*
X81987230Y-51871872D01*
X81939611Y-51729015D01*
X81891992Y-51681396D01*
X81558659Y-51681396D01*
X81558659Y-51871872D01*
X81463421Y-50919491D02*
X81511040Y-50776634D01*
X81558659Y-50729015D01*
X81653897Y-50681396D01*
X81796754Y-50681396D01*
X81891992Y-50729015D01*
X81939611Y-50776634D01*
X81987230Y-50871872D01*
X81987230Y-51252825D01*
X80987230Y-51252825D01*
X80987230Y-50919491D01*
X81034850Y-50824253D01*
X81082469Y-50776634D01*
X81177707Y-50729015D01*
X81272945Y-50729015D01*
X81368183Y-50776634D01*
X81415802Y-50824253D01*
X81463421Y-50919491D01*
X81463421Y-51252825D01*
X80987230Y-50348063D02*
X80987230Y-49729015D01*
X81368183Y-50062349D01*
X81368183Y-49919491D01*
X81415802Y-49824253D01*
X81463421Y-49776634D01*
X81558659Y-49729015D01*
X81796754Y-49729015D01*
X81891992Y-49776634D01*
X81939611Y-49824253D01*
X81987230Y-49919491D01*
X81987230Y-50205206D01*
X81939611Y-50300444D01*
X81891992Y-50348063D01*
X62937150Y-52681396D02*
X62460960Y-53014730D01*
X62937150Y-53252825D02*
X61937150Y-53252825D01*
X61937150Y-52871872D01*
X61984770Y-52776634D01*
X62032389Y-52729015D01*
X62127627Y-52681396D01*
X62270484Y-52681396D01*
X62365722Y-52729015D01*
X62413341Y-52776634D01*
X62460960Y-52871872D01*
X62460960Y-53252825D01*
X61984770Y-51729015D02*
X61937150Y-51824253D01*
X61937150Y-51967110D01*
X61984770Y-52109968D01*
X62080008Y-52205206D01*
X62175246Y-52252825D01*
X62365722Y-52300444D01*
X62508579Y-52300444D01*
X62699055Y-52252825D01*
X62794293Y-52205206D01*
X62889531Y-52109968D01*
X62937150Y-51967110D01*
X62937150Y-51871872D01*
X62889531Y-51729015D01*
X62841912Y-51681396D01*
X62508579Y-51681396D01*
X62508579Y-51871872D01*
X62413341Y-50919491D02*
X62460960Y-50776634D01*
X62508579Y-50729015D01*
X62603817Y-50681396D01*
X62746674Y-50681396D01*
X62841912Y-50729015D01*
X62889531Y-50776634D01*
X62937150Y-50871872D01*
X62937150Y-51252825D01*
X61937150Y-51252825D01*
X61937150Y-50919491D01*
X61984770Y-50824253D01*
X62032389Y-50776634D01*
X62127627Y-50729015D01*
X62222865Y-50729015D01*
X62318103Y-50776634D01*
X62365722Y-50824253D01*
X62413341Y-50919491D01*
X62413341Y-51252825D01*
X62032389Y-50300444D02*
X61984770Y-50252825D01*
X61937150Y-50157587D01*
X61937150Y-49919491D01*
X61984770Y-49824253D01*
X62032389Y-49776634D01*
X62127627Y-49729015D01*
X62222865Y-49729015D01*
X62365722Y-49776634D01*
X62937150Y-50348063D01*
X62937150Y-49729015D01*
D14*
X95436309Y-89729634D02*
X96258785Y-89729634D01*
X96355547Y-89681253D01*
X96403928Y-89632872D01*
X96452309Y-89536110D01*
X96452309Y-89342587D01*
X96403928Y-89245825D01*
X96355547Y-89197444D01*
X96258785Y-89149063D01*
X95436309Y-89149063D01*
X96452309Y-88133063D02*
X96452309Y-88713634D01*
X96452309Y-88423349D02*
X95436309Y-88423349D01*
X95581451Y-88520110D01*
X95678213Y-88616872D01*
X95726594Y-88713634D01*
X95533070Y-87746015D02*
X95484690Y-87697634D01*
X95436309Y-87600872D01*
X95436309Y-87358968D01*
X95484690Y-87262206D01*
X95533070Y-87213825D01*
X95629832Y-87165444D01*
X95726594Y-87165444D01*
X95871737Y-87213825D01*
X96452309Y-87794396D01*
X96452309Y-87165444D01*
D15*
X95997951Y-95229944D02*
X95695570Y-95441610D01*
X95997951Y-95592801D02*
X95362951Y-95592801D01*
X95362951Y-95350896D01*
X95393190Y-95290420D01*
X95423428Y-95260182D01*
X95483904Y-95229944D01*
X95574618Y-95229944D01*
X95635094Y-95260182D01*
X95665332Y-95290420D01*
X95695570Y-95350896D01*
X95695570Y-95592801D01*
X95393190Y-94625182D02*
X95362951Y-94685658D01*
X95362951Y-94776372D01*
X95393190Y-94867087D01*
X95453666Y-94927563D01*
X95514142Y-94957801D01*
X95635094Y-94988039D01*
X95725809Y-94988039D01*
X95846761Y-94957801D01*
X95907237Y-94927563D01*
X95967713Y-94867087D01*
X95997951Y-94776372D01*
X95997951Y-94715896D01*
X95967713Y-94625182D01*
X95937475Y-94594944D01*
X95725809Y-94594944D01*
X95725809Y-94715896D01*
X95665332Y-94111134D02*
X95695570Y-94020420D01*
X95725809Y-93990182D01*
X95786285Y-93959944D01*
X95876999Y-93959944D01*
X95937475Y-93990182D01*
X95967713Y-94020420D01*
X95997951Y-94080896D01*
X95997951Y-94322801D01*
X95362951Y-94322801D01*
X95362951Y-94111134D01*
X95393190Y-94050658D01*
X95423428Y-94020420D01*
X95483904Y-93990182D01*
X95544380Y-93990182D01*
X95604856Y-94020420D01*
X95635094Y-94050658D01*
X95665332Y-94111134D01*
X95665332Y-94322801D01*
X95997951Y-93355182D02*
X95997951Y-93718039D01*
X95997951Y-93536610D02*
X95362951Y-93536610D01*
X95453666Y-93597087D01*
X95514142Y-93657563D01*
X95544380Y-93718039D01*
X95423428Y-93113277D02*
X95393190Y-93083039D01*
X95362951Y-93022563D01*
X95362951Y-92871372D01*
X95393190Y-92810896D01*
X95423428Y-92780658D01*
X95483904Y-92750420D01*
X95544380Y-92750420D01*
X95635094Y-92780658D01*
X95997951Y-93143515D01*
X95997951Y-92750420D01*
X106792951Y-90657944D02*
X106490570Y-90869610D01*
X106792951Y-91020801D02*
X106157951Y-91020801D01*
X106157951Y-90778896D01*
X106188190Y-90718420D01*
X106218428Y-90688182D01*
X106278904Y-90657944D01*
X106369618Y-90657944D01*
X106430094Y-90688182D01*
X106460332Y-90718420D01*
X106490570Y-90778896D01*
X106490570Y-91020801D01*
X106188190Y-90053182D02*
X106157951Y-90113658D01*
X106157951Y-90204372D01*
X106188190Y-90295087D01*
X106248666Y-90355563D01*
X106309142Y-90385801D01*
X106430094Y-90416039D01*
X106520809Y-90416039D01*
X106641761Y-90385801D01*
X106702237Y-90355563D01*
X106762713Y-90295087D01*
X106792951Y-90204372D01*
X106792951Y-90143896D01*
X106762713Y-90053182D01*
X106732475Y-90022944D01*
X106520809Y-90022944D01*
X106520809Y-90143896D01*
X106460332Y-89539134D02*
X106490570Y-89448420D01*
X106520809Y-89418182D01*
X106581285Y-89387944D01*
X106671999Y-89387944D01*
X106732475Y-89418182D01*
X106762713Y-89448420D01*
X106792951Y-89508896D01*
X106792951Y-89750801D01*
X106157951Y-89750801D01*
X106157951Y-89539134D01*
X106188190Y-89478658D01*
X106218428Y-89448420D01*
X106278904Y-89418182D01*
X106339380Y-89418182D01*
X106399856Y-89448420D01*
X106430094Y-89478658D01*
X106460332Y-89539134D01*
X106460332Y-89750801D01*
X106218428Y-89146039D02*
X106188190Y-89115801D01*
X106157951Y-89055325D01*
X106157951Y-88904134D01*
X106188190Y-88843658D01*
X106218428Y-88813420D01*
X106278904Y-88783182D01*
X106339380Y-88783182D01*
X106430094Y-88813420D01*
X106792951Y-89176277D01*
X106792951Y-88783182D01*
X106157951Y-88571515D02*
X106157951Y-88148182D01*
X106792951Y-88420325D01*
X91506401Y-50747293D02*
X91204020Y-50958960D01*
X91506401Y-51110150D02*
X90871401Y-51110150D01*
X90871401Y-50868245D01*
X90901640Y-50807769D01*
X90931878Y-50777531D01*
X90992354Y-50747293D01*
X91083068Y-50747293D01*
X91143544Y-50777531D01*
X91173782Y-50807769D01*
X91204020Y-50868245D01*
X91204020Y-51110150D01*
X91506401Y-50475150D02*
X90871401Y-50475150D01*
X90871401Y-50323960D01*
X90901640Y-50233245D01*
X90962116Y-50172769D01*
X91022592Y-50142531D01*
X91143544Y-50112293D01*
X91234259Y-50112293D01*
X91355211Y-50142531D01*
X91415687Y-50172769D01*
X91476163Y-50233245D01*
X91506401Y-50323960D01*
X91506401Y-50475150D01*
X91506401Y-49840150D02*
X90871401Y-49840150D01*
X90871401Y-49598245D01*
X90901640Y-49537769D01*
X90931878Y-49507531D01*
X90992354Y-49477293D01*
X91083068Y-49477293D01*
X91143544Y-49507531D01*
X91173782Y-49537769D01*
X91204020Y-49598245D01*
X91204020Y-49840150D01*
X91506401Y-48872531D02*
X91506401Y-49235388D01*
X91506401Y-49053960D02*
X90871401Y-49053960D01*
X90962116Y-49114436D01*
X91022592Y-49174912D01*
X91052830Y-49235388D01*
X97187661Y-50792650D02*
X96885280Y-51004317D01*
X97187661Y-51155507D02*
X96552661Y-51155507D01*
X96552661Y-50913602D01*
X96582900Y-50853126D01*
X96613138Y-50822888D01*
X96673614Y-50792650D01*
X96764328Y-50792650D01*
X96824804Y-50822888D01*
X96855042Y-50853126D01*
X96885280Y-50913602D01*
X96885280Y-51155507D01*
X97187661Y-50520507D02*
X96552661Y-50520507D01*
X96552661Y-50369317D01*
X96582900Y-50278602D01*
X96643376Y-50218126D01*
X96703852Y-50187888D01*
X96824804Y-50157650D01*
X96915519Y-50157650D01*
X97036471Y-50187888D01*
X97096947Y-50218126D01*
X97157423Y-50278602D01*
X97187661Y-50369317D01*
X97187661Y-50520507D01*
X97187661Y-49885507D02*
X96552661Y-49885507D01*
X97006233Y-49673840D01*
X96552661Y-49462174D01*
X97187661Y-49462174D01*
X97187661Y-48827174D02*
X97187661Y-49190031D01*
X97187661Y-49008602D02*
X96552661Y-49008602D01*
X96643376Y-49069079D01*
X96703852Y-49129555D01*
X96734090Y-49190031D01*
D12*
X74247785Y-139137350D02*
X74247785Y-138137350D01*
X74247785Y-138613541D02*
X74819213Y-138613541D01*
X74819213Y-139137350D02*
X74819213Y-138137350D01*
X75771594Y-138137350D02*
X75295404Y-138137350D01*
X75247785Y-138613541D01*
X75295404Y-138565922D01*
X75390642Y-138518303D01*
X75628737Y-138518303D01*
X75723975Y-138565922D01*
X75771594Y-138613541D01*
X75819213Y-138708779D01*
X75819213Y-138946874D01*
X75771594Y-139042112D01*
X75723975Y-139089731D01*
X75628737Y-139137350D01*
X75390642Y-139137350D01*
X75295404Y-139089731D01*
X75247785Y-139042112D01*
X93297865Y-110562230D02*
X93297865Y-109562230D01*
X93297865Y-110038421D02*
X93869293Y-110038421D01*
X93869293Y-110562230D02*
X93869293Y-109562230D01*
X94774055Y-109895564D02*
X94774055Y-110562230D01*
X94535960Y-109514611D02*
X94297865Y-110228897D01*
X94916912Y-110228897D01*
X55197705Y-110562230D02*
X55197705Y-109562230D01*
X55197705Y-110038421D02*
X55769133Y-110038421D01*
X55769133Y-110562230D02*
X55769133Y-109562230D01*
X56150086Y-109562230D02*
X56769133Y-109562230D01*
X56435800Y-109943183D01*
X56578657Y-109943183D01*
X56673895Y-109990802D01*
X56721514Y-110038421D01*
X56769133Y-110133659D01*
X56769133Y-110371754D01*
X56721514Y-110466992D01*
X56673895Y-110514611D01*
X56578657Y-110562230D01*
X56292943Y-110562230D01*
X56197705Y-110514611D01*
X56150086Y-110466992D01*
D16*
X39900848Y-53694714D02*
X39900848Y-54311571D01*
X39937134Y-54384142D01*
X39973420Y-54420428D01*
X40045991Y-54456714D01*
X40191134Y-54456714D01*
X40263705Y-54420428D01*
X40299991Y-54384142D01*
X40336277Y-54311571D01*
X40336277Y-53694714D01*
X41098277Y-54456714D02*
X40662848Y-54456714D01*
X40880562Y-54456714D02*
X40880562Y-53694714D01*
X40807991Y-53803571D01*
X40735420Y-53876142D01*
X40662848Y-53912428D01*
D15*
X45693736Y-54897261D02*
X45482070Y-54594880D01*
X45330879Y-54897261D02*
X45330879Y-54262261D01*
X45572784Y-54262261D01*
X45633260Y-54292500D01*
X45663498Y-54322738D01*
X45693736Y-54383214D01*
X45693736Y-54473928D01*
X45663498Y-54534404D01*
X45633260Y-54564642D01*
X45572784Y-54594880D01*
X45330879Y-54594880D01*
X46298498Y-54292500D02*
X46238022Y-54262261D01*
X46147308Y-54262261D01*
X46056593Y-54292500D01*
X45996117Y-54352976D01*
X45965879Y-54413452D01*
X45935641Y-54534404D01*
X45935641Y-54625119D01*
X45965879Y-54746071D01*
X45996117Y-54806547D01*
X46056593Y-54867023D01*
X46147308Y-54897261D01*
X46207784Y-54897261D01*
X46298498Y-54867023D01*
X46328736Y-54836785D01*
X46328736Y-54625119D01*
X46207784Y-54625119D01*
X46812546Y-54564642D02*
X46903260Y-54594880D01*
X46933498Y-54625119D01*
X46963736Y-54685595D01*
X46963736Y-54776309D01*
X46933498Y-54836785D01*
X46903260Y-54867023D01*
X46842784Y-54897261D01*
X46600879Y-54897261D01*
X46600879Y-54262261D01*
X46812546Y-54262261D01*
X46873022Y-54292500D01*
X46903260Y-54322738D01*
X46933498Y-54383214D01*
X46933498Y-54443690D01*
X46903260Y-54504166D01*
X46873022Y-54534404D01*
X46812546Y-54564642D01*
X46600879Y-54564642D01*
X47568498Y-54897261D02*
X47205641Y-54897261D01*
X47387070Y-54897261D02*
X47387070Y-54262261D01*
X47326593Y-54352976D01*
X47266117Y-54413452D01*
X47205641Y-54443690D01*
X72163075Y-67797904D02*
X72193313Y-67828142D01*
X72223551Y-67918856D01*
X72223551Y-67979332D01*
X72193313Y-68070047D01*
X72132837Y-68130523D01*
X72072361Y-68160761D01*
X71951409Y-68190999D01*
X71860694Y-68190999D01*
X71739742Y-68160761D01*
X71679266Y-68130523D01*
X71618790Y-68070047D01*
X71588551Y-67979332D01*
X71588551Y-67918856D01*
X71618790Y-67828142D01*
X71649028Y-67797904D01*
X71588551Y-67586237D02*
X72223551Y-67162904D01*
X71588551Y-67162904D02*
X72223551Y-67586237D01*
X71649028Y-66951237D02*
X71618790Y-66920999D01*
X71588551Y-66860523D01*
X71588551Y-66709332D01*
X71618790Y-66648856D01*
X71649028Y-66618618D01*
X71709504Y-66588380D01*
X71769980Y-66588380D01*
X71860694Y-66618618D01*
X72223551Y-66981475D01*
X72223551Y-66588380D01*
X78839785Y-67797904D02*
X78870023Y-67828142D01*
X78900261Y-67918856D01*
X78900261Y-67979332D01*
X78870023Y-68070047D01*
X78809547Y-68130523D01*
X78749071Y-68160761D01*
X78628119Y-68190999D01*
X78537404Y-68190999D01*
X78416452Y-68160761D01*
X78355976Y-68130523D01*
X78295500Y-68070047D01*
X78265261Y-67979332D01*
X78265261Y-67918856D01*
X78295500Y-67828142D01*
X78325738Y-67797904D01*
X78265261Y-67586237D02*
X78900261Y-67162904D01*
X78265261Y-67162904D02*
X78900261Y-67586237D01*
X78900261Y-66588380D02*
X78900261Y-66951237D01*
X78900261Y-66769809D02*
X78265261Y-66769809D01*
X78355976Y-66830285D01*
X78416452Y-66890761D01*
X78446690Y-66951237D01*
D16*
X74621512Y-68877444D02*
X75129512Y-69639444D01*
X75129512Y-68877444D02*
X74621512Y-69639444D01*
X75818941Y-69639444D02*
X75383512Y-69639444D01*
X75601227Y-69639444D02*
X75601227Y-68877444D01*
X75528655Y-68986301D01*
X75456084Y-69058872D01*
X75383512Y-69095158D01*
D15*
X78668499Y-78598991D02*
X78668499Y-79113039D01*
X78698737Y-79173515D01*
X78728975Y-79203753D01*
X78789451Y-79233991D01*
X78910404Y-79233991D01*
X78970880Y-79203753D01*
X79001118Y-79173515D01*
X79031356Y-79113039D01*
X79031356Y-78598991D01*
X79303499Y-78659468D02*
X79333737Y-78629230D01*
X79394213Y-78598991D01*
X79545404Y-78598991D01*
X79605880Y-78629230D01*
X79636118Y-78659468D01*
X79666356Y-78719944D01*
X79666356Y-78780420D01*
X79636118Y-78871134D01*
X79273261Y-79233991D01*
X79666356Y-79233991D01*
X79968737Y-79233991D02*
X80089690Y-79233991D01*
X80150166Y-79203753D01*
X80180404Y-79173515D01*
X80240880Y-79082801D01*
X80271118Y-78961849D01*
X80271118Y-78719944D01*
X80240880Y-78659468D01*
X80210642Y-78629230D01*
X80150166Y-78598991D01*
X80029213Y-78598991D01*
X79968737Y-78629230D01*
X79938499Y-78659468D01*
X79908261Y-78719944D01*
X79908261Y-78871134D01*
X79938499Y-78931610D01*
X79968737Y-78961849D01*
X80029213Y-78992087D01*
X80150166Y-78992087D01*
X80210642Y-78961849D01*
X80240880Y-78931610D01*
X80271118Y-78871134D01*
D12*
X93726436Y-34933800D02*
X93726436Y-35648086D01*
X93678817Y-35790943D01*
X93583579Y-35886181D01*
X93440722Y-35933800D01*
X93345484Y-35933800D01*
X94726436Y-35933800D02*
X94155008Y-35933800D01*
X94440722Y-35933800D02*
X94440722Y-34933800D01*
X94345484Y-35076658D01*
X94250246Y-35171896D01*
X94155008Y-35219515D01*
X96017118Y-46288587D02*
X96502832Y-46288587D01*
X96559975Y-46260015D01*
X96588547Y-46231444D01*
X96617118Y-46174301D01*
X96617118Y-46060015D01*
X96588547Y-46002872D01*
X96559975Y-45974301D01*
X96502832Y-45945730D01*
X96017118Y-45945730D01*
X96074261Y-45688587D02*
X96045690Y-45660015D01*
X96017118Y-45602872D01*
X96017118Y-45460015D01*
X96045690Y-45402872D01*
X96074261Y-45374301D01*
X96131404Y-45345730D01*
X96188547Y-45345730D01*
X96274261Y-45374301D01*
X96617118Y-45717158D01*
X96617118Y-45345730D01*
X96274261Y-45002872D02*
X96245690Y-45060015D01*
X96217118Y-45088587D01*
X96159975Y-45117158D01*
X96131404Y-45117158D01*
X96074261Y-45088587D01*
X96045690Y-45060015D01*
X96017118Y-45002872D01*
X96017118Y-44888587D01*
X96045690Y-44831444D01*
X96074261Y-44802872D01*
X96131404Y-44774301D01*
X96159975Y-44774301D01*
X96217118Y-44802872D01*
X96245690Y-44831444D01*
X96274261Y-44888587D01*
X96274261Y-45002872D01*
X96302832Y-45060015D01*
X96331404Y-45088587D01*
X96388547Y-45117158D01*
X96502832Y-45117158D01*
X96559975Y-45088587D01*
X96588547Y-45060015D01*
X96617118Y-45002872D01*
X96617118Y-44888587D01*
X96588547Y-44831444D01*
X96559975Y-44802872D01*
X96502832Y-44774301D01*
X96388547Y-44774301D01*
X96331404Y-44802872D01*
X96302832Y-44831444D01*
X96274261Y-44888587D01*
M02*
