G04 #@! TF.GenerationSoftware,KiCad,Pcbnew,5.1.2*
G04 #@! TF.CreationDate,2019-07-29T09:43:07-03:00*
G04 #@! TF.ProjectId,zeke,7a656b65-2e6b-4696-9361-645f70636258,rev?*
G04 #@! TF.SameCoordinates,Original*
G04 #@! TF.FileFunction,Other,Fab,Top*
%FSLAX46Y46*%
G04 Gerber Fmt 4.6, Leading zero omitted, Abs format (unit mm)*
G04 Created by KiCad (PCBNEW 5.1.2) date 2019-07-29 09:43:07*
%MOMM*%
%LPD*%
G04 APERTURE LIST*
%ADD10C,0.150000*%
%ADD11C,0.120000*%
%ADD12C,0.100000*%
%ADD13C,0.050000*%
%ADD14C,0.075000*%
%ADD15C,0.090000*%
%ADD16C,0.080000*%
%ADD17C,0.127000*%
%ADD18C,0.040000*%
%ADD19C,0.063500*%
%ADD20C,0.125000*%
G04 APERTURE END LIST*
D10*
X140233244Y-49999510D02*
X140233244Y-48999510D01*
X140804672Y-49999510D02*
X140376101Y-49428082D01*
X140804672Y-48999510D02*
X140233244Y-49570939D01*
X141614196Y-49951891D02*
X141518958Y-49999510D01*
X141328482Y-49999510D01*
X141233244Y-49951891D01*
X141185625Y-49856653D01*
X141185625Y-49475701D01*
X141233244Y-49380463D01*
X141328482Y-49332844D01*
X141518958Y-49332844D01*
X141614196Y-49380463D01*
X141661815Y-49475701D01*
X141661815Y-49570939D01*
X141185625Y-49666177D01*
X141995149Y-49332844D02*
X142233244Y-49999510D01*
X142471339Y-49332844D02*
X142233244Y-49999510D01*
X142138006Y-50237606D01*
X142090387Y-50285225D01*
X141995149Y-50332844D01*
X142852291Y-49999510D02*
X142852291Y-48999510D01*
X142852291Y-49380463D02*
X142947530Y-49332844D01*
X143138006Y-49332844D01*
X143233244Y-49380463D01*
X143280863Y-49428082D01*
X143328482Y-49523320D01*
X143328482Y-49809034D01*
X143280863Y-49904272D01*
X143233244Y-49951891D01*
X143138006Y-49999510D01*
X142947530Y-49999510D01*
X142852291Y-49951891D01*
X143899910Y-49999510D02*
X143804672Y-49951891D01*
X143757053Y-49904272D01*
X143709434Y-49809034D01*
X143709434Y-49523320D01*
X143757053Y-49428082D01*
X143804672Y-49380463D01*
X143899910Y-49332844D01*
X144042768Y-49332844D01*
X144138006Y-49380463D01*
X144185625Y-49428082D01*
X144233244Y-49523320D01*
X144233244Y-49809034D01*
X144185625Y-49904272D01*
X144138006Y-49951891D01*
X144042768Y-49999510D01*
X143899910Y-49999510D01*
X145090387Y-49999510D02*
X145090387Y-49475701D01*
X145042768Y-49380463D01*
X144947530Y-49332844D01*
X144757053Y-49332844D01*
X144661815Y-49380463D01*
X145090387Y-49951891D02*
X144995149Y-49999510D01*
X144757053Y-49999510D01*
X144661815Y-49951891D01*
X144614196Y-49856653D01*
X144614196Y-49761415D01*
X144661815Y-49666177D01*
X144757053Y-49618558D01*
X144995149Y-49618558D01*
X145090387Y-49570939D01*
X145566577Y-49999510D02*
X145566577Y-49332844D01*
X145566577Y-49523320D02*
X145614196Y-49428082D01*
X145661815Y-49380463D01*
X145757053Y-49332844D01*
X145852291Y-49332844D01*
X146614196Y-49999510D02*
X146614196Y-48999510D01*
X146614196Y-49951891D02*
X146518958Y-49999510D01*
X146328482Y-49999510D01*
X146233244Y-49951891D01*
X146185625Y-49904272D01*
X146138006Y-49809034D01*
X146138006Y-49523320D01*
X146185625Y-49428082D01*
X146233244Y-49380463D01*
X146328482Y-49332844D01*
X146518958Y-49332844D01*
X146614196Y-49380463D01*
X148423720Y-49904272D02*
X148376101Y-49951891D01*
X148233244Y-49999510D01*
X148138006Y-49999510D01*
X147995149Y-49951891D01*
X147899910Y-49856653D01*
X147852291Y-49761415D01*
X147804672Y-49570939D01*
X147804672Y-49428082D01*
X147852291Y-49237606D01*
X147899910Y-49142368D01*
X147995149Y-49047130D01*
X148138006Y-48999510D01*
X148233244Y-48999510D01*
X148376101Y-49047130D01*
X148423720Y-49094749D01*
X149233244Y-49951891D02*
X149138006Y-49999510D01*
X148947530Y-49999510D01*
X148852291Y-49951891D01*
X148804672Y-49856653D01*
X148804672Y-49475701D01*
X148852291Y-49380463D01*
X148947530Y-49332844D01*
X149138006Y-49332844D01*
X149233244Y-49380463D01*
X149280863Y-49475701D01*
X149280863Y-49570939D01*
X148804672Y-49666177D01*
X149709434Y-49332844D02*
X149709434Y-49999510D01*
X149709434Y-49428082D02*
X149757053Y-49380463D01*
X149852291Y-49332844D01*
X149995149Y-49332844D01*
X150090387Y-49380463D01*
X150138006Y-49475701D01*
X150138006Y-49999510D01*
X150471339Y-49332844D02*
X150852291Y-49332844D01*
X150614196Y-48999510D02*
X150614196Y-49856653D01*
X150661815Y-49951891D01*
X150757053Y-49999510D01*
X150852291Y-49999510D01*
X151566577Y-49951891D02*
X151471339Y-49999510D01*
X151280863Y-49999510D01*
X151185625Y-49951891D01*
X151138006Y-49856653D01*
X151138006Y-49475701D01*
X151185625Y-49380463D01*
X151280863Y-49332844D01*
X151471339Y-49332844D01*
X151566577Y-49380463D01*
X151614196Y-49475701D01*
X151614196Y-49570939D01*
X151138006Y-49666177D01*
X152042768Y-49999510D02*
X152042768Y-49332844D01*
X152042768Y-49523320D02*
X152090387Y-49428082D01*
X152138006Y-49380463D01*
X152233244Y-49332844D01*
X152328482Y-49332844D01*
X152661815Y-49904272D02*
X152709434Y-49951891D01*
X152661815Y-49999510D01*
X152614196Y-49951891D01*
X152661815Y-49904272D01*
X152661815Y-49999510D01*
X152661815Y-49380463D02*
X152709434Y-49428082D01*
X152661815Y-49475701D01*
X152614196Y-49428082D01*
X152661815Y-49380463D01*
X152661815Y-49475701D01*
X139804672Y-50649510D02*
X140471339Y-51649510D01*
X140471339Y-50649510D02*
X139804672Y-51649510D01*
X140852291Y-51125701D02*
X141614196Y-51125701D01*
X141614196Y-51411415D02*
X140852291Y-51411415D01*
X142042768Y-50744749D02*
X142090387Y-50697130D01*
X142185625Y-50649510D01*
X142423720Y-50649510D01*
X142518958Y-50697130D01*
X142566577Y-50744749D01*
X142614196Y-50839987D01*
X142614196Y-50935225D01*
X142566577Y-51078082D01*
X141995149Y-51649510D01*
X142614196Y-51649510D01*
X143042768Y-51554272D02*
X143090387Y-51601891D01*
X143042768Y-51649510D01*
X142995149Y-51601891D01*
X143042768Y-51554272D01*
X143042768Y-51649510D01*
X143566577Y-51649510D02*
X143757053Y-51649510D01*
X143852291Y-51601891D01*
X143899910Y-51554272D01*
X143995149Y-51411415D01*
X144042768Y-51220939D01*
X144042768Y-50839987D01*
X143995149Y-50744749D01*
X143947530Y-50697130D01*
X143852291Y-50649510D01*
X143661815Y-50649510D01*
X143566577Y-50697130D01*
X143518958Y-50744749D01*
X143471339Y-50839987D01*
X143471339Y-51078082D01*
X143518958Y-51173320D01*
X143566577Y-51220939D01*
X143661815Y-51268558D01*
X143852291Y-51268558D01*
X143947530Y-51220939D01*
X143995149Y-51173320D01*
X144042768Y-51078082D01*
X144947530Y-50649510D02*
X144471339Y-50649510D01*
X144423720Y-51125701D01*
X144471339Y-51078082D01*
X144566577Y-51030463D01*
X144804672Y-51030463D01*
X144899910Y-51078082D01*
X144947530Y-51125701D01*
X144995149Y-51220939D01*
X144995149Y-51459034D01*
X144947530Y-51554272D01*
X144899910Y-51601891D01*
X144804672Y-51649510D01*
X144566577Y-51649510D01*
X144471339Y-51601891D01*
X144423720Y-51554272D01*
X145328482Y-50649510D02*
X145947530Y-50649510D01*
X145614196Y-51030463D01*
X145757053Y-51030463D01*
X145852291Y-51078082D01*
X145899910Y-51125701D01*
X145947530Y-51220939D01*
X145947530Y-51459034D01*
X145899910Y-51554272D01*
X145852291Y-51601891D01*
X145757053Y-51649510D01*
X145471339Y-51649510D01*
X145376101Y-51601891D01*
X145328482Y-51554272D01*
X146899910Y-51649510D02*
X146328482Y-51649510D01*
X146614196Y-51649510D02*
X146614196Y-50649510D01*
X146518958Y-50792368D01*
X146423720Y-50887606D01*
X146328482Y-50935225D01*
X147233244Y-50649510D02*
X147852291Y-50649510D01*
X147518958Y-51030463D01*
X147661815Y-51030463D01*
X147757053Y-51078082D01*
X147804672Y-51125701D01*
X147852291Y-51220939D01*
X147852291Y-51459034D01*
X147804672Y-51554272D01*
X147757053Y-51601891D01*
X147661815Y-51649510D01*
X147376101Y-51649510D01*
X147280863Y-51601891D01*
X147233244Y-51554272D01*
X148423720Y-51078082D02*
X148328482Y-51030463D01*
X148280863Y-50982844D01*
X148233244Y-50887606D01*
X148233244Y-50839987D01*
X148280863Y-50744749D01*
X148328482Y-50697130D01*
X148423720Y-50649510D01*
X148614196Y-50649510D01*
X148709434Y-50697130D01*
X148757053Y-50744749D01*
X148804672Y-50839987D01*
X148804672Y-50887606D01*
X148757053Y-50982844D01*
X148709434Y-51030463D01*
X148614196Y-51078082D01*
X148423720Y-51078082D01*
X148328482Y-51125701D01*
X148280863Y-51173320D01*
X148233244Y-51268558D01*
X148233244Y-51459034D01*
X148280863Y-51554272D01*
X148328482Y-51601891D01*
X148423720Y-51649510D01*
X148614196Y-51649510D01*
X148709434Y-51601891D01*
X148757053Y-51554272D01*
X148804672Y-51459034D01*
X148804672Y-51268558D01*
X148757053Y-51173320D01*
X148709434Y-51125701D01*
X148614196Y-51078082D01*
X149280863Y-51649510D02*
X149471339Y-51649510D01*
X149566577Y-51601891D01*
X149614196Y-51554272D01*
X149709434Y-51411415D01*
X149757053Y-51220939D01*
X149757053Y-50839987D01*
X149709434Y-50744749D01*
X149661815Y-50697130D01*
X149566577Y-50649510D01*
X149376101Y-50649510D01*
X149280863Y-50697130D01*
X149233244Y-50744749D01*
X149185625Y-50839987D01*
X149185625Y-51078082D01*
X149233244Y-51173320D01*
X149280863Y-51220939D01*
X149376101Y-51268558D01*
X149566577Y-51268558D01*
X149661815Y-51220939D01*
X149709434Y-51173320D01*
X149757053Y-51078082D01*
X150090387Y-50649510D02*
X150757053Y-50649510D01*
X150328482Y-51649510D01*
X151566577Y-50649510D02*
X151376101Y-50649510D01*
X151280863Y-50697130D01*
X151233244Y-50744749D01*
X151138006Y-50887606D01*
X151090387Y-51078082D01*
X151090387Y-51459034D01*
X151138006Y-51554272D01*
X151185625Y-51601891D01*
X151280863Y-51649510D01*
X151471339Y-51649510D01*
X151566577Y-51601891D01*
X151614196Y-51554272D01*
X151661815Y-51459034D01*
X151661815Y-51220939D01*
X151614196Y-51125701D01*
X151566577Y-51078082D01*
X151471339Y-51030463D01*
X151280863Y-51030463D01*
X151185625Y-51078082D01*
X151138006Y-51125701D01*
X151090387Y-51220939D01*
X152090387Y-51649510D02*
X152090387Y-50982844D01*
X152090387Y-50649510D02*
X152042768Y-50697130D01*
X152090387Y-50744749D01*
X152138006Y-50697130D01*
X152090387Y-50649510D01*
X152090387Y-50744749D01*
X152566577Y-50982844D02*
X152566577Y-51649510D01*
X152566577Y-51078082D02*
X152614196Y-51030463D01*
X152709434Y-50982844D01*
X152852291Y-50982844D01*
X152947529Y-51030463D01*
X152995149Y-51125701D01*
X152995149Y-51649510D01*
X140138006Y-52823320D02*
X140138006Y-53299510D01*
X139804672Y-52299510D02*
X140138006Y-52823320D01*
X140471339Y-52299510D01*
X140804672Y-52775701D02*
X141566577Y-52775701D01*
X141566577Y-53061415D02*
X140804672Y-53061415D01*
X141947530Y-52299510D02*
X142566577Y-52299510D01*
X142233244Y-52680463D01*
X142376101Y-52680463D01*
X142471339Y-52728082D01*
X142518958Y-52775701D01*
X142566577Y-52870939D01*
X142566577Y-53109034D01*
X142518958Y-53204272D01*
X142471339Y-53251891D01*
X142376101Y-53299510D01*
X142090387Y-53299510D01*
X141995149Y-53251891D01*
X141947530Y-53204272D01*
X142995149Y-53204272D02*
X143042768Y-53251891D01*
X142995149Y-53299510D01*
X142947530Y-53251891D01*
X142995149Y-53204272D01*
X142995149Y-53299510D01*
X143376101Y-52299510D02*
X144042768Y-52299510D01*
X143614196Y-53299510D01*
X144614196Y-52299510D02*
X144709434Y-52299510D01*
X144804672Y-52347130D01*
X144852291Y-52394749D01*
X144899910Y-52489987D01*
X144947530Y-52680463D01*
X144947530Y-52918558D01*
X144899910Y-53109034D01*
X144852291Y-53204272D01*
X144804672Y-53251891D01*
X144709434Y-53299510D01*
X144614196Y-53299510D01*
X144518958Y-53251891D01*
X144471339Y-53204272D01*
X144423720Y-53109034D01*
X144376101Y-52918558D01*
X144376101Y-52680463D01*
X144423720Y-52489987D01*
X144471339Y-52394749D01*
X144518958Y-52347130D01*
X144614196Y-52299510D01*
X145280863Y-52299510D02*
X145899910Y-52299510D01*
X145566577Y-52680463D01*
X145709434Y-52680463D01*
X145804672Y-52728082D01*
X145852291Y-52775701D01*
X145899910Y-52870939D01*
X145899910Y-53109034D01*
X145852291Y-53204272D01*
X145804672Y-53251891D01*
X145709434Y-53299510D01*
X145423720Y-53299510D01*
X145328482Y-53251891D01*
X145280863Y-53204272D01*
X146852291Y-53299510D02*
X146280863Y-53299510D01*
X146566577Y-53299510D02*
X146566577Y-52299510D01*
X146471339Y-52442368D01*
X146376101Y-52537606D01*
X146280863Y-52585225D01*
X147709434Y-52632844D02*
X147709434Y-53299510D01*
X147471339Y-52251891D02*
X147233244Y-52966177D01*
X147852291Y-52966177D01*
X148185625Y-52394749D02*
X148233244Y-52347130D01*
X148328482Y-52299510D01*
X148566577Y-52299510D01*
X148661815Y-52347130D01*
X148709434Y-52394749D01*
X148757053Y-52489987D01*
X148757053Y-52585225D01*
X148709434Y-52728082D01*
X148138006Y-53299510D01*
X148757053Y-53299510D01*
X149709434Y-53299510D02*
X149138006Y-53299510D01*
X149423720Y-53299510D02*
X149423720Y-52299510D01*
X149328482Y-52442368D01*
X149233244Y-52537606D01*
X149138006Y-52585225D01*
X150090387Y-52394749D02*
X150138006Y-52347130D01*
X150233244Y-52299510D01*
X150471339Y-52299510D01*
X150566577Y-52347130D01*
X150614196Y-52394749D01*
X150661815Y-52489987D01*
X150661815Y-52585225D01*
X150614196Y-52728082D01*
X150042768Y-53299510D01*
X150661815Y-53299510D01*
X151518958Y-52299510D02*
X151328482Y-52299510D01*
X151233244Y-52347130D01*
X151185625Y-52394749D01*
X151090387Y-52537606D01*
X151042768Y-52728082D01*
X151042768Y-53109034D01*
X151090387Y-53204272D01*
X151138006Y-53251891D01*
X151233244Y-53299510D01*
X151423720Y-53299510D01*
X151518958Y-53251891D01*
X151566577Y-53204272D01*
X151614196Y-53109034D01*
X151614196Y-52870939D01*
X151566577Y-52775701D01*
X151518958Y-52728082D01*
X151423720Y-52680463D01*
X151233244Y-52680463D01*
X151138006Y-52728082D01*
X151090387Y-52775701D01*
X151042768Y-52870939D01*
X152042768Y-53299510D02*
X152042768Y-52632844D01*
X152042768Y-52299510D02*
X151995149Y-52347130D01*
X152042768Y-52394749D01*
X152090387Y-52347130D01*
X152042768Y-52299510D01*
X152042768Y-52394749D01*
X152518958Y-52632844D02*
X152518958Y-53299510D01*
X152518958Y-52728082D02*
X152566577Y-52680463D01*
X152661815Y-52632844D01*
X152804672Y-52632844D01*
X152899910Y-52680463D01*
X152947530Y-52775701D01*
X152947530Y-53299510D01*
D11*
X97780690Y-91075230D02*
X97336190Y-91075230D01*
X97780690Y-90122730D02*
X97780690Y-91075230D01*
X97336190Y-90122730D02*
X97780690Y-90122730D01*
X97336190Y-91075230D02*
X97336190Y-90122730D01*
D10*
X98042690Y-89971730D02*
X97042690Y-88971730D01*
X100042690Y-89971730D02*
X98042690Y-89971730D01*
X100042690Y-86971730D02*
X100042690Y-89971730D01*
X97042690Y-86971730D02*
X100042690Y-86971730D01*
X97042690Y-88971730D02*
X97042690Y-86971730D01*
D12*
X93469140Y-49006460D02*
X93469140Y-51006460D01*
X92269140Y-49006460D02*
X93469140Y-49006460D01*
X92269140Y-51006460D02*
X92269140Y-49006460D01*
X93469140Y-51006460D02*
X92269140Y-51006460D01*
X94650400Y-51006460D02*
X94650400Y-49006460D01*
X95850400Y-51006460D02*
X94650400Y-51006460D01*
X95850400Y-49006460D02*
X95850400Y-51006460D01*
X94650400Y-49006460D02*
X95850400Y-49006460D01*
D11*
X43084920Y-52324000D02*
X43084920Y-52768500D01*
X42132420Y-52324000D02*
X43084920Y-52324000D01*
X42132420Y-52768500D02*
X42132420Y-52324000D01*
X43084920Y-52768500D02*
X42132420Y-52768500D01*
D10*
X41981420Y-52062000D02*
X40981420Y-53062000D01*
X41981420Y-50062000D02*
X41981420Y-52062000D01*
X38981420Y-50062000D02*
X41981420Y-50062000D01*
X38981420Y-53062000D02*
X38981420Y-50062000D01*
X40981420Y-53062000D02*
X38981420Y-53062000D01*
D12*
X73202290Y-66889690D02*
X73202290Y-67889690D01*
X72702290Y-66889690D02*
X73202290Y-66889690D01*
X72702290Y-67889690D02*
X72702290Y-66889690D01*
X73202290Y-67889690D02*
X72702290Y-67889690D01*
X77774290Y-66889690D02*
X77774290Y-67889690D01*
X77274290Y-66889690D02*
X77774290Y-66889690D01*
X77274290Y-67889690D02*
X77274290Y-66889690D01*
X77774290Y-67889690D02*
X77274290Y-67889690D01*
X74238370Y-67689730D02*
X74738370Y-68189730D01*
X74238370Y-66689730D02*
X74338370Y-66589730D01*
X74238370Y-68089730D02*
X74238370Y-66689730D01*
X74338370Y-68189730D02*
X74238370Y-68089730D01*
X76138370Y-68189730D02*
X74338370Y-68189730D01*
X76238370Y-68089730D02*
X76138370Y-68189730D01*
X76238370Y-66689730D02*
X76238370Y-68089730D01*
X76138370Y-66589730D02*
X76238370Y-66689730D01*
X74338370Y-66589730D02*
X76138370Y-66589730D01*
D11*
X77549690Y-77549690D02*
X77422690Y-77422690D01*
X77549690Y-77549690D02*
X77422690Y-77676690D01*
X77232190Y-77549690D02*
X77549690Y-77549690D01*
X78946690Y-77676690D02*
X78946690Y-77359190D01*
X77740190Y-77676690D02*
X78946690Y-77676690D01*
X77740190Y-77359190D02*
X77740190Y-77676690D01*
X78946690Y-77359190D02*
X77740190Y-77359190D01*
D12*
X78311690Y-77676690D02*
X77509690Y-78509690D01*
X78509690Y-71509690D02*
X78509690Y-77295690D01*
X71509690Y-71509690D02*
X78509690Y-71509690D01*
X71509690Y-78509690D02*
X71509690Y-71509690D01*
X77509690Y-78509690D02*
X71509690Y-78509690D01*
D13*
X90359770Y-33681420D02*
X89059770Y-34981420D01*
X91359770Y-33681420D02*
X89059770Y-35981420D01*
X92359770Y-33681420D02*
X89059770Y-36981420D01*
X93359770Y-33681420D02*
X89059770Y-37981420D01*
X94359770Y-33681420D02*
X91959770Y-35981420D01*
X90959770Y-37081420D02*
X89059770Y-38981420D01*
X91959770Y-37081420D02*
X89959770Y-39081420D01*
X95359770Y-33681420D02*
X92959770Y-35981420D01*
X96359770Y-33681420D02*
X93959770Y-35981420D01*
X92959770Y-37081420D02*
X90959770Y-39081420D01*
X93959770Y-37081420D02*
X91959770Y-39081420D01*
X97359770Y-33681420D02*
X94959770Y-35981420D01*
X99059770Y-33981420D02*
X96959770Y-35981420D01*
X95959770Y-37081420D02*
X93959770Y-39081420D01*
X94959770Y-37081420D02*
X92959770Y-39081420D01*
X99059770Y-37981420D02*
X97959770Y-39081420D01*
X99059770Y-36981420D02*
X96959770Y-39081420D01*
X98359770Y-33681420D02*
X95959770Y-35981420D01*
X99059770Y-35981420D02*
X95959770Y-39081420D01*
X99059770Y-34981420D02*
X94959770Y-39081420D01*
D11*
X89059770Y-39081420D02*
X99059770Y-39081420D01*
X89059770Y-33681420D02*
X89059770Y-39081420D01*
X99059770Y-33681420D02*
X89059770Y-33681420D01*
X99059770Y-39081420D02*
X99059770Y-33681420D01*
D12*
X95359770Y-44664730D02*
X95609770Y-44914730D01*
D11*
X94609770Y-43464730D02*
X95409770Y-43464730D01*
X94609770Y-44664730D02*
X94609770Y-43464730D01*
X95409770Y-44664730D02*
X94609770Y-44664730D01*
X95409770Y-43464730D02*
X95409770Y-44664730D01*
D12*
X95609770Y-46064730D02*
X92509770Y-46064730D01*
X92509770Y-46064730D02*
X92509770Y-44264730D01*
X94609770Y-44264730D02*
X92509770Y-44264730D01*
X95609770Y-46064730D02*
X95609770Y-44914730D01*
D10*
X38402309Y-135612110D02*
X37926118Y-135612110D01*
X37926118Y-134612110D01*
X38735642Y-135088301D02*
X39068975Y-135088301D01*
X39211832Y-135612110D02*
X38735642Y-135612110D01*
X38735642Y-134612110D01*
X39211832Y-134612110D01*
X39640404Y-135612110D02*
X39640404Y-134612110D01*
X39878499Y-134612110D01*
X40021356Y-134659730D01*
X40116594Y-134754968D01*
X40164213Y-134850206D01*
X40211832Y-135040682D01*
X40211832Y-135183539D01*
X40164213Y-135374015D01*
X40116594Y-135469253D01*
X40021356Y-135564491D01*
X39878499Y-135612110D01*
X39640404Y-135612110D01*
X40402309Y-135707349D02*
X41164213Y-135707349D01*
X41926118Y-134659730D02*
X41830880Y-134612110D01*
X41688023Y-134612110D01*
X41545166Y-134659730D01*
X41449928Y-134754968D01*
X41402309Y-134850206D01*
X41354690Y-135040682D01*
X41354690Y-135183539D01*
X41402309Y-135374015D01*
X41449928Y-135469253D01*
X41545166Y-135564491D01*
X41688023Y-135612110D01*
X41783261Y-135612110D01*
X41926118Y-135564491D01*
X41973737Y-135516872D01*
X41973737Y-135183539D01*
X41783261Y-135183539D01*
X42735642Y-135088301D02*
X42878499Y-135135920D01*
X42926118Y-135183539D01*
X42973737Y-135278777D01*
X42973737Y-135421634D01*
X42926118Y-135516872D01*
X42878499Y-135564491D01*
X42783261Y-135612110D01*
X42402309Y-135612110D01*
X42402309Y-134612110D01*
X42735642Y-134612110D01*
X42830880Y-134659730D01*
X42878499Y-134707349D01*
X42926118Y-134802587D01*
X42926118Y-134897825D01*
X42878499Y-134993063D01*
X42830880Y-135040682D01*
X42735642Y-135088301D01*
X42402309Y-135088301D01*
X43973737Y-135612110D02*
X43640404Y-135135920D01*
X43402309Y-135612110D02*
X43402309Y-134612110D01*
X43783261Y-134612110D01*
X43878499Y-134659730D01*
X43926118Y-134707349D01*
X43973737Y-134802587D01*
X43973737Y-134945444D01*
X43926118Y-135040682D01*
X43878499Y-135088301D01*
X43783261Y-135135920D01*
X43402309Y-135135920D01*
X44354690Y-135326396D02*
X44830880Y-135326396D01*
X44259451Y-135612110D02*
X44592785Y-134612110D01*
X44926118Y-135612110D01*
X107037070Y-149717110D02*
X107037070Y-150193301D01*
X106037070Y-150193301D01*
X106513261Y-149383777D02*
X106513261Y-149050444D01*
X107037070Y-148907587D02*
X107037070Y-149383777D01*
X106037070Y-149383777D01*
X106037070Y-148907587D01*
X107037070Y-148479015D02*
X106037070Y-148479015D01*
X106037070Y-148240920D01*
X106084690Y-148098063D01*
X106179928Y-148002825D01*
X106275166Y-147955206D01*
X106465642Y-147907587D01*
X106608499Y-147907587D01*
X106798975Y-147955206D01*
X106894213Y-148002825D01*
X106989451Y-148098063D01*
X107037070Y-148240920D01*
X107037070Y-148479015D01*
X107132309Y-147717110D02*
X107132309Y-146955206D01*
X106084690Y-146193301D02*
X106037070Y-146288539D01*
X106037070Y-146431396D01*
X106084690Y-146574253D01*
X106179928Y-146669491D01*
X106275166Y-146717110D01*
X106465642Y-146764730D01*
X106608499Y-146764730D01*
X106798975Y-146717110D01*
X106894213Y-146669491D01*
X106989451Y-146574253D01*
X107037070Y-146431396D01*
X107037070Y-146336158D01*
X106989451Y-146193301D01*
X106941832Y-146145682D01*
X106608499Y-146145682D01*
X106608499Y-146336158D01*
X106513261Y-145383777D02*
X106560880Y-145240920D01*
X106608499Y-145193301D01*
X106703737Y-145145682D01*
X106846594Y-145145682D01*
X106941832Y-145193301D01*
X106989451Y-145240920D01*
X107037070Y-145336158D01*
X107037070Y-145717110D01*
X106037070Y-145717110D01*
X106037070Y-145383777D01*
X106084690Y-145288539D01*
X106132309Y-145240920D01*
X106227547Y-145193301D01*
X106322785Y-145193301D01*
X106418023Y-145240920D01*
X106465642Y-145288539D01*
X106513261Y-145383777D01*
X106513261Y-145717110D01*
X107037070Y-144145682D02*
X106560880Y-144479015D01*
X107037070Y-144717110D02*
X106037070Y-144717110D01*
X106037070Y-144336158D01*
X106084690Y-144240920D01*
X106132309Y-144193301D01*
X106227547Y-144145682D01*
X106370404Y-144145682D01*
X106465642Y-144193301D01*
X106513261Y-144240920D01*
X106560880Y-144336158D01*
X106560880Y-144717110D01*
X106751356Y-143764730D02*
X106751356Y-143288539D01*
X107037070Y-143859968D02*
X106037070Y-143526634D01*
X107037070Y-143193301D01*
X87860070Y-149717510D02*
X87860070Y-150193701D01*
X86860070Y-150193701D01*
X87336261Y-149384177D02*
X87336261Y-149050844D01*
X87860070Y-148907987D02*
X87860070Y-149384177D01*
X86860070Y-149384177D01*
X86860070Y-148907987D01*
X87860070Y-148479415D02*
X86860070Y-148479415D01*
X86860070Y-148241320D01*
X86907690Y-148098463D01*
X87002928Y-148003225D01*
X87098166Y-147955606D01*
X87288642Y-147907987D01*
X87431499Y-147907987D01*
X87621975Y-147955606D01*
X87717213Y-148003225D01*
X87812451Y-148098463D01*
X87860070Y-148241320D01*
X87860070Y-148479415D01*
X87955309Y-147717510D02*
X87955309Y-146955606D01*
X86907690Y-146193701D02*
X86860070Y-146288939D01*
X86860070Y-146431796D01*
X86907690Y-146574653D01*
X87002928Y-146669891D01*
X87098166Y-146717510D01*
X87288642Y-146765130D01*
X87431499Y-146765130D01*
X87621975Y-146717510D01*
X87717213Y-146669891D01*
X87812451Y-146574653D01*
X87860070Y-146431796D01*
X87860070Y-146336558D01*
X87812451Y-146193701D01*
X87764832Y-146146082D01*
X87431499Y-146146082D01*
X87431499Y-146336558D01*
X87336261Y-145384177D02*
X87383880Y-145241320D01*
X87431499Y-145193701D01*
X87526737Y-145146082D01*
X87669594Y-145146082D01*
X87764832Y-145193701D01*
X87812451Y-145241320D01*
X87860070Y-145336558D01*
X87860070Y-145717510D01*
X86860070Y-145717510D01*
X86860070Y-145384177D01*
X86907690Y-145288939D01*
X86955309Y-145241320D01*
X87050547Y-145193701D01*
X87145785Y-145193701D01*
X87241023Y-145241320D01*
X87288642Y-145288939D01*
X87336261Y-145384177D01*
X87336261Y-145717510D01*
X87860070Y-144146082D02*
X87383880Y-144479415D01*
X87860070Y-144717510D02*
X86860070Y-144717510D01*
X86860070Y-144336558D01*
X86907690Y-144241320D01*
X86955309Y-144193701D01*
X87050547Y-144146082D01*
X87193404Y-144146082D01*
X87288642Y-144193701D01*
X87336261Y-144241320D01*
X87383880Y-144336558D01*
X87383880Y-144717510D01*
X87574356Y-143765130D02*
X87574356Y-143288939D01*
X87860070Y-143860368D02*
X86860070Y-143527034D01*
X87860070Y-143193701D01*
X68937150Y-149717510D02*
X68937150Y-150193701D01*
X67937150Y-150193701D01*
X68413341Y-149384177D02*
X68413341Y-149050844D01*
X68937150Y-148907987D02*
X68937150Y-149384177D01*
X67937150Y-149384177D01*
X67937150Y-148907987D01*
X68937150Y-148479415D02*
X67937150Y-148479415D01*
X67937150Y-148241320D01*
X67984770Y-148098463D01*
X68080008Y-148003225D01*
X68175246Y-147955606D01*
X68365722Y-147907987D01*
X68508579Y-147907987D01*
X68699055Y-147955606D01*
X68794293Y-148003225D01*
X68889531Y-148098463D01*
X68937150Y-148241320D01*
X68937150Y-148479415D01*
X69032389Y-147717510D02*
X69032389Y-146955606D01*
X67984770Y-146193701D02*
X67937150Y-146288939D01*
X67937150Y-146431796D01*
X67984770Y-146574653D01*
X68080008Y-146669891D01*
X68175246Y-146717510D01*
X68365722Y-146765130D01*
X68508579Y-146765130D01*
X68699055Y-146717510D01*
X68794293Y-146669891D01*
X68889531Y-146574653D01*
X68937150Y-146431796D01*
X68937150Y-146336558D01*
X68889531Y-146193701D01*
X68841912Y-146146082D01*
X68508579Y-146146082D01*
X68508579Y-146336558D01*
X68413341Y-145384177D02*
X68460960Y-145241320D01*
X68508579Y-145193701D01*
X68603817Y-145146082D01*
X68746674Y-145146082D01*
X68841912Y-145193701D01*
X68889531Y-145241320D01*
X68937150Y-145336558D01*
X68937150Y-145717510D01*
X67937150Y-145717510D01*
X67937150Y-145384177D01*
X67984770Y-145288939D01*
X68032389Y-145241320D01*
X68127627Y-145193701D01*
X68222865Y-145193701D01*
X68318103Y-145241320D01*
X68365722Y-145288939D01*
X68413341Y-145384177D01*
X68413341Y-145717510D01*
X68937150Y-144146082D02*
X68460960Y-144479415D01*
X68937150Y-144717510D02*
X67937150Y-144717510D01*
X67937150Y-144336558D01*
X67984770Y-144241320D01*
X68032389Y-144193701D01*
X68127627Y-144146082D01*
X68270484Y-144146082D01*
X68365722Y-144193701D01*
X68413341Y-144241320D01*
X68460960Y-144336558D01*
X68460960Y-144717510D01*
X68651436Y-143765130D02*
X68651436Y-143288939D01*
X68937150Y-143860368D02*
X67937150Y-143527034D01*
X68937150Y-143193701D01*
X49887070Y-149717510D02*
X49887070Y-150193701D01*
X48887070Y-150193701D01*
X49363261Y-149384177D02*
X49363261Y-149050844D01*
X49887070Y-148907987D02*
X49887070Y-149384177D01*
X48887070Y-149384177D01*
X48887070Y-148907987D01*
X49887070Y-148479415D02*
X48887070Y-148479415D01*
X48887070Y-148241320D01*
X48934690Y-148098463D01*
X49029928Y-148003225D01*
X49125166Y-147955606D01*
X49315642Y-147907987D01*
X49458499Y-147907987D01*
X49648975Y-147955606D01*
X49744213Y-148003225D01*
X49839451Y-148098463D01*
X49887070Y-148241320D01*
X49887070Y-148479415D01*
X49982309Y-147717510D02*
X49982309Y-146955606D01*
X48934690Y-146193701D02*
X48887070Y-146288939D01*
X48887070Y-146431796D01*
X48934690Y-146574653D01*
X49029928Y-146669891D01*
X49125166Y-146717510D01*
X49315642Y-146765130D01*
X49458499Y-146765130D01*
X49648975Y-146717510D01*
X49744213Y-146669891D01*
X49839451Y-146574653D01*
X49887070Y-146431796D01*
X49887070Y-146336558D01*
X49839451Y-146193701D01*
X49791832Y-146146082D01*
X49458499Y-146146082D01*
X49458499Y-146336558D01*
X49363261Y-145384177D02*
X49410880Y-145241320D01*
X49458499Y-145193701D01*
X49553737Y-145146082D01*
X49696594Y-145146082D01*
X49791832Y-145193701D01*
X49839451Y-145241320D01*
X49887070Y-145336558D01*
X49887070Y-145717510D01*
X48887070Y-145717510D01*
X48887070Y-145384177D01*
X48934690Y-145288939D01*
X48982309Y-145241320D01*
X49077547Y-145193701D01*
X49172785Y-145193701D01*
X49268023Y-145241320D01*
X49315642Y-145288939D01*
X49363261Y-145384177D01*
X49363261Y-145717510D01*
X49887070Y-144146082D02*
X49410880Y-144479415D01*
X49887070Y-144717510D02*
X48887070Y-144717510D01*
X48887070Y-144336558D01*
X48934690Y-144241320D01*
X48982309Y-144193701D01*
X49077547Y-144146082D01*
X49220404Y-144146082D01*
X49315642Y-144193701D01*
X49363261Y-144241320D01*
X49410880Y-144336558D01*
X49410880Y-144717510D01*
X49601356Y-143765130D02*
X49601356Y-143288939D01*
X49887070Y-143860368D02*
X48887070Y-143527034D01*
X49887070Y-143193701D01*
X107037070Y-130667110D02*
X107037070Y-131143301D01*
X106037070Y-131143301D01*
X106513261Y-130333777D02*
X106513261Y-130000444D01*
X107037070Y-129857587D02*
X107037070Y-130333777D01*
X106037070Y-130333777D01*
X106037070Y-129857587D01*
X107037070Y-129429015D02*
X106037070Y-129429015D01*
X106037070Y-129190920D01*
X106084690Y-129048063D01*
X106179928Y-128952825D01*
X106275166Y-128905206D01*
X106465642Y-128857587D01*
X106608499Y-128857587D01*
X106798975Y-128905206D01*
X106894213Y-128952825D01*
X106989451Y-129048063D01*
X107037070Y-129190920D01*
X107037070Y-129429015D01*
X107132309Y-128667110D02*
X107132309Y-127905206D01*
X106084690Y-127143301D02*
X106037070Y-127238539D01*
X106037070Y-127381396D01*
X106084690Y-127524253D01*
X106179928Y-127619491D01*
X106275166Y-127667110D01*
X106465642Y-127714730D01*
X106608499Y-127714730D01*
X106798975Y-127667110D01*
X106894213Y-127619491D01*
X106989451Y-127524253D01*
X107037070Y-127381396D01*
X107037070Y-127286158D01*
X106989451Y-127143301D01*
X106941832Y-127095682D01*
X106608499Y-127095682D01*
X106608499Y-127286158D01*
X106513261Y-126333777D02*
X106560880Y-126190920D01*
X106608499Y-126143301D01*
X106703737Y-126095682D01*
X106846594Y-126095682D01*
X106941832Y-126143301D01*
X106989451Y-126190920D01*
X107037070Y-126286158D01*
X107037070Y-126667110D01*
X106037070Y-126667110D01*
X106037070Y-126333777D01*
X106084690Y-126238539D01*
X106132309Y-126190920D01*
X106227547Y-126143301D01*
X106322785Y-126143301D01*
X106418023Y-126190920D01*
X106465642Y-126238539D01*
X106513261Y-126333777D01*
X106513261Y-126667110D01*
X107037070Y-125095682D02*
X106560880Y-125429015D01*
X107037070Y-125667110D02*
X106037070Y-125667110D01*
X106037070Y-125286158D01*
X106084690Y-125190920D01*
X106132309Y-125143301D01*
X106227547Y-125095682D01*
X106370404Y-125095682D01*
X106465642Y-125143301D01*
X106513261Y-125190920D01*
X106560880Y-125286158D01*
X106560880Y-125667110D01*
X106751356Y-124714730D02*
X106751356Y-124238539D01*
X107037070Y-124809968D02*
X106037070Y-124476634D01*
X107037070Y-124143301D01*
X87987070Y-130667110D02*
X87987070Y-131143301D01*
X86987070Y-131143301D01*
X87463261Y-130333777D02*
X87463261Y-130000444D01*
X87987070Y-129857587D02*
X87987070Y-130333777D01*
X86987070Y-130333777D01*
X86987070Y-129857587D01*
X87987070Y-129429015D02*
X86987070Y-129429015D01*
X86987070Y-129190920D01*
X87034690Y-129048063D01*
X87129928Y-128952825D01*
X87225166Y-128905206D01*
X87415642Y-128857587D01*
X87558499Y-128857587D01*
X87748975Y-128905206D01*
X87844213Y-128952825D01*
X87939451Y-129048063D01*
X87987070Y-129190920D01*
X87987070Y-129429015D01*
X88082309Y-128667110D02*
X88082309Y-127905206D01*
X87034690Y-127143301D02*
X86987070Y-127238539D01*
X86987070Y-127381396D01*
X87034690Y-127524253D01*
X87129928Y-127619491D01*
X87225166Y-127667110D01*
X87415642Y-127714730D01*
X87558499Y-127714730D01*
X87748975Y-127667110D01*
X87844213Y-127619491D01*
X87939451Y-127524253D01*
X87987070Y-127381396D01*
X87987070Y-127286158D01*
X87939451Y-127143301D01*
X87891832Y-127095682D01*
X87558499Y-127095682D01*
X87558499Y-127286158D01*
X87463261Y-126333777D02*
X87510880Y-126190920D01*
X87558499Y-126143301D01*
X87653737Y-126095682D01*
X87796594Y-126095682D01*
X87891832Y-126143301D01*
X87939451Y-126190920D01*
X87987070Y-126286158D01*
X87987070Y-126667110D01*
X86987070Y-126667110D01*
X86987070Y-126333777D01*
X87034690Y-126238539D01*
X87082309Y-126190920D01*
X87177547Y-126143301D01*
X87272785Y-126143301D01*
X87368023Y-126190920D01*
X87415642Y-126238539D01*
X87463261Y-126333777D01*
X87463261Y-126667110D01*
X87987070Y-125095682D02*
X87510880Y-125429015D01*
X87987070Y-125667110D02*
X86987070Y-125667110D01*
X86987070Y-125286158D01*
X87034690Y-125190920D01*
X87082309Y-125143301D01*
X87177547Y-125095682D01*
X87320404Y-125095682D01*
X87415642Y-125143301D01*
X87463261Y-125190920D01*
X87510880Y-125286158D01*
X87510880Y-125667110D01*
X87701356Y-124714730D02*
X87701356Y-124238539D01*
X87987070Y-124809968D02*
X86987070Y-124476634D01*
X87987070Y-124143301D01*
X68937150Y-130667430D02*
X68937150Y-131143621D01*
X67937150Y-131143621D01*
X68413341Y-130334097D02*
X68413341Y-130000764D01*
X68937150Y-129857907D02*
X68937150Y-130334097D01*
X67937150Y-130334097D01*
X67937150Y-129857907D01*
X68937150Y-129429335D02*
X67937150Y-129429335D01*
X67937150Y-129191240D01*
X67984770Y-129048383D01*
X68080008Y-128953145D01*
X68175246Y-128905526D01*
X68365722Y-128857907D01*
X68508579Y-128857907D01*
X68699055Y-128905526D01*
X68794293Y-128953145D01*
X68889531Y-129048383D01*
X68937150Y-129191240D01*
X68937150Y-129429335D01*
X69032389Y-128667430D02*
X69032389Y-127905526D01*
X67984770Y-127143621D02*
X67937150Y-127238859D01*
X67937150Y-127381716D01*
X67984770Y-127524573D01*
X68080008Y-127619811D01*
X68175246Y-127667430D01*
X68365722Y-127715050D01*
X68508579Y-127715050D01*
X68699055Y-127667430D01*
X68794293Y-127619811D01*
X68889531Y-127524573D01*
X68937150Y-127381716D01*
X68937150Y-127286478D01*
X68889531Y-127143621D01*
X68841912Y-127096002D01*
X68508579Y-127096002D01*
X68508579Y-127286478D01*
X68413341Y-126334097D02*
X68460960Y-126191240D01*
X68508579Y-126143621D01*
X68603817Y-126096002D01*
X68746674Y-126096002D01*
X68841912Y-126143621D01*
X68889531Y-126191240D01*
X68937150Y-126286478D01*
X68937150Y-126667430D01*
X67937150Y-126667430D01*
X67937150Y-126334097D01*
X67984770Y-126238859D01*
X68032389Y-126191240D01*
X68127627Y-126143621D01*
X68222865Y-126143621D01*
X68318103Y-126191240D01*
X68365722Y-126238859D01*
X68413341Y-126334097D01*
X68413341Y-126667430D01*
X68937150Y-125096002D02*
X68460960Y-125429335D01*
X68937150Y-125667430D02*
X67937150Y-125667430D01*
X67937150Y-125286478D01*
X67984770Y-125191240D01*
X68032389Y-125143621D01*
X68127627Y-125096002D01*
X68270484Y-125096002D01*
X68365722Y-125143621D01*
X68413341Y-125191240D01*
X68460960Y-125286478D01*
X68460960Y-125667430D01*
X68651436Y-124715050D02*
X68651436Y-124238859D01*
X68937150Y-124810288D02*
X67937150Y-124476954D01*
X68937150Y-124143621D01*
X49887070Y-130667430D02*
X49887070Y-131143621D01*
X48887070Y-131143621D01*
X49363261Y-130334097D02*
X49363261Y-130000764D01*
X49887070Y-129857907D02*
X49887070Y-130334097D01*
X48887070Y-130334097D01*
X48887070Y-129857907D01*
X49887070Y-129429335D02*
X48887070Y-129429335D01*
X48887070Y-129191240D01*
X48934690Y-129048383D01*
X49029928Y-128953145D01*
X49125166Y-128905526D01*
X49315642Y-128857907D01*
X49458499Y-128857907D01*
X49648975Y-128905526D01*
X49744213Y-128953145D01*
X49839451Y-129048383D01*
X49887070Y-129191240D01*
X49887070Y-129429335D01*
X49982309Y-128667430D02*
X49982309Y-127905526D01*
X48934690Y-127143621D02*
X48887070Y-127238859D01*
X48887070Y-127381716D01*
X48934690Y-127524573D01*
X49029928Y-127619811D01*
X49125166Y-127667430D01*
X49315642Y-127715050D01*
X49458499Y-127715050D01*
X49648975Y-127667430D01*
X49744213Y-127619811D01*
X49839451Y-127524573D01*
X49887070Y-127381716D01*
X49887070Y-127286478D01*
X49839451Y-127143621D01*
X49791832Y-127096002D01*
X49458499Y-127096002D01*
X49458499Y-127286478D01*
X49363261Y-126334097D02*
X49410880Y-126191240D01*
X49458499Y-126143621D01*
X49553737Y-126096002D01*
X49696594Y-126096002D01*
X49791832Y-126143621D01*
X49839451Y-126191240D01*
X49887070Y-126286478D01*
X49887070Y-126667430D01*
X48887070Y-126667430D01*
X48887070Y-126334097D01*
X48934690Y-126238859D01*
X48982309Y-126191240D01*
X49077547Y-126143621D01*
X49172785Y-126143621D01*
X49268023Y-126191240D01*
X49315642Y-126238859D01*
X49363261Y-126334097D01*
X49363261Y-126667430D01*
X49887070Y-125096002D02*
X49410880Y-125429335D01*
X49887070Y-125667430D02*
X48887070Y-125667430D01*
X48887070Y-125286478D01*
X48934690Y-125191240D01*
X48982309Y-125143621D01*
X49077547Y-125096002D01*
X49220404Y-125096002D01*
X49315642Y-125143621D01*
X49363261Y-125191240D01*
X49410880Y-125286478D01*
X49410880Y-125667430D01*
X49601356Y-124715050D02*
X49601356Y-124238859D01*
X49887070Y-124810288D02*
X48887070Y-124476954D01*
X49887070Y-124143621D01*
X107037310Y-111617350D02*
X107037310Y-112093541D01*
X106037310Y-112093541D01*
X106513501Y-111284017D02*
X106513501Y-110950684D01*
X107037310Y-110807827D02*
X107037310Y-111284017D01*
X106037310Y-111284017D01*
X106037310Y-110807827D01*
X107037310Y-110379255D02*
X106037310Y-110379255D01*
X106037310Y-110141160D01*
X106084930Y-109998303D01*
X106180168Y-109903065D01*
X106275406Y-109855446D01*
X106465882Y-109807827D01*
X106608739Y-109807827D01*
X106799215Y-109855446D01*
X106894453Y-109903065D01*
X106989691Y-109998303D01*
X107037310Y-110141160D01*
X107037310Y-110379255D01*
X107132549Y-109617350D02*
X107132549Y-108855446D01*
X106084930Y-108093541D02*
X106037310Y-108188779D01*
X106037310Y-108331636D01*
X106084930Y-108474493D01*
X106180168Y-108569731D01*
X106275406Y-108617350D01*
X106465882Y-108664970D01*
X106608739Y-108664970D01*
X106799215Y-108617350D01*
X106894453Y-108569731D01*
X106989691Y-108474493D01*
X107037310Y-108331636D01*
X107037310Y-108236398D01*
X106989691Y-108093541D01*
X106942072Y-108045922D01*
X106608739Y-108045922D01*
X106608739Y-108236398D01*
X106513501Y-107284017D02*
X106561120Y-107141160D01*
X106608739Y-107093541D01*
X106703977Y-107045922D01*
X106846834Y-107045922D01*
X106942072Y-107093541D01*
X106989691Y-107141160D01*
X107037310Y-107236398D01*
X107037310Y-107617350D01*
X106037310Y-107617350D01*
X106037310Y-107284017D01*
X106084930Y-107188779D01*
X106132549Y-107141160D01*
X106227787Y-107093541D01*
X106323025Y-107093541D01*
X106418263Y-107141160D01*
X106465882Y-107188779D01*
X106513501Y-107284017D01*
X106513501Y-107617350D01*
X107037310Y-106045922D02*
X106561120Y-106379255D01*
X107037310Y-106617350D02*
X106037310Y-106617350D01*
X106037310Y-106236398D01*
X106084930Y-106141160D01*
X106132549Y-106093541D01*
X106227787Y-106045922D01*
X106370644Y-106045922D01*
X106465882Y-106093541D01*
X106513501Y-106141160D01*
X106561120Y-106236398D01*
X106561120Y-106617350D01*
X106751596Y-105664970D02*
X106751596Y-105188779D01*
X107037310Y-105760208D02*
X106037310Y-105426874D01*
X107037310Y-105093541D01*
X87987230Y-111617350D02*
X87987230Y-112093541D01*
X86987230Y-112093541D01*
X87463421Y-111284017D02*
X87463421Y-110950684D01*
X87987230Y-110807827D02*
X87987230Y-111284017D01*
X86987230Y-111284017D01*
X86987230Y-110807827D01*
X87987230Y-110379255D02*
X86987230Y-110379255D01*
X86987230Y-110141160D01*
X87034850Y-109998303D01*
X87130088Y-109903065D01*
X87225326Y-109855446D01*
X87415802Y-109807827D01*
X87558659Y-109807827D01*
X87749135Y-109855446D01*
X87844373Y-109903065D01*
X87939611Y-109998303D01*
X87987230Y-110141160D01*
X87987230Y-110379255D01*
X88082469Y-109617350D02*
X88082469Y-108855446D01*
X87034850Y-108093541D02*
X86987230Y-108188779D01*
X86987230Y-108331636D01*
X87034850Y-108474493D01*
X87130088Y-108569731D01*
X87225326Y-108617350D01*
X87415802Y-108664970D01*
X87558659Y-108664970D01*
X87749135Y-108617350D01*
X87844373Y-108569731D01*
X87939611Y-108474493D01*
X87987230Y-108331636D01*
X87987230Y-108236398D01*
X87939611Y-108093541D01*
X87891992Y-108045922D01*
X87558659Y-108045922D01*
X87558659Y-108236398D01*
X87463421Y-107284017D02*
X87511040Y-107141160D01*
X87558659Y-107093541D01*
X87653897Y-107045922D01*
X87796754Y-107045922D01*
X87891992Y-107093541D01*
X87939611Y-107141160D01*
X87987230Y-107236398D01*
X87987230Y-107617350D01*
X86987230Y-107617350D01*
X86987230Y-107284017D01*
X87034850Y-107188779D01*
X87082469Y-107141160D01*
X87177707Y-107093541D01*
X87272945Y-107093541D01*
X87368183Y-107141160D01*
X87415802Y-107188779D01*
X87463421Y-107284017D01*
X87463421Y-107617350D01*
X87987230Y-106045922D02*
X87511040Y-106379255D01*
X87987230Y-106617350D02*
X86987230Y-106617350D01*
X86987230Y-106236398D01*
X87034850Y-106141160D01*
X87082469Y-106093541D01*
X87177707Y-106045922D01*
X87320564Y-106045922D01*
X87415802Y-106093541D01*
X87463421Y-106141160D01*
X87511040Y-106236398D01*
X87511040Y-106617350D01*
X87701516Y-105664970D02*
X87701516Y-105188779D01*
X87987230Y-105760208D02*
X86987230Y-105426874D01*
X87987230Y-105093541D01*
X68937150Y-111617350D02*
X68937150Y-112093541D01*
X67937150Y-112093541D01*
X68413341Y-111284017D02*
X68413341Y-110950684D01*
X68937150Y-110807827D02*
X68937150Y-111284017D01*
X67937150Y-111284017D01*
X67937150Y-110807827D01*
X68937150Y-110379255D02*
X67937150Y-110379255D01*
X67937150Y-110141160D01*
X67984770Y-109998303D01*
X68080008Y-109903065D01*
X68175246Y-109855446D01*
X68365722Y-109807827D01*
X68508579Y-109807827D01*
X68699055Y-109855446D01*
X68794293Y-109903065D01*
X68889531Y-109998303D01*
X68937150Y-110141160D01*
X68937150Y-110379255D01*
X69032389Y-109617350D02*
X69032389Y-108855446D01*
X67984770Y-108093541D02*
X67937150Y-108188779D01*
X67937150Y-108331636D01*
X67984770Y-108474493D01*
X68080008Y-108569731D01*
X68175246Y-108617350D01*
X68365722Y-108664970D01*
X68508579Y-108664970D01*
X68699055Y-108617350D01*
X68794293Y-108569731D01*
X68889531Y-108474493D01*
X68937150Y-108331636D01*
X68937150Y-108236398D01*
X68889531Y-108093541D01*
X68841912Y-108045922D01*
X68508579Y-108045922D01*
X68508579Y-108236398D01*
X68413341Y-107284017D02*
X68460960Y-107141160D01*
X68508579Y-107093541D01*
X68603817Y-107045922D01*
X68746674Y-107045922D01*
X68841912Y-107093541D01*
X68889531Y-107141160D01*
X68937150Y-107236398D01*
X68937150Y-107617350D01*
X67937150Y-107617350D01*
X67937150Y-107284017D01*
X67984770Y-107188779D01*
X68032389Y-107141160D01*
X68127627Y-107093541D01*
X68222865Y-107093541D01*
X68318103Y-107141160D01*
X68365722Y-107188779D01*
X68413341Y-107284017D01*
X68413341Y-107617350D01*
X68937150Y-106045922D02*
X68460960Y-106379255D01*
X68937150Y-106617350D02*
X67937150Y-106617350D01*
X67937150Y-106236398D01*
X67984770Y-106141160D01*
X68032389Y-106093541D01*
X68127627Y-106045922D01*
X68270484Y-106045922D01*
X68365722Y-106093541D01*
X68413341Y-106141160D01*
X68460960Y-106236398D01*
X68460960Y-106617350D01*
X68651436Y-105664970D02*
X68651436Y-105188779D01*
X68937150Y-105760208D02*
X67937150Y-105426874D01*
X68937150Y-105093541D01*
X49887070Y-111617350D02*
X49887070Y-112093541D01*
X48887070Y-112093541D01*
X49363261Y-111284017D02*
X49363261Y-110950684D01*
X49887070Y-110807827D02*
X49887070Y-111284017D01*
X48887070Y-111284017D01*
X48887070Y-110807827D01*
X49887070Y-110379255D02*
X48887070Y-110379255D01*
X48887070Y-110141160D01*
X48934690Y-109998303D01*
X49029928Y-109903065D01*
X49125166Y-109855446D01*
X49315642Y-109807827D01*
X49458499Y-109807827D01*
X49648975Y-109855446D01*
X49744213Y-109903065D01*
X49839451Y-109998303D01*
X49887070Y-110141160D01*
X49887070Y-110379255D01*
X49982309Y-109617350D02*
X49982309Y-108855446D01*
X48934690Y-108093541D02*
X48887070Y-108188779D01*
X48887070Y-108331636D01*
X48934690Y-108474493D01*
X49029928Y-108569731D01*
X49125166Y-108617350D01*
X49315642Y-108664970D01*
X49458499Y-108664970D01*
X49648975Y-108617350D01*
X49744213Y-108569731D01*
X49839451Y-108474493D01*
X49887070Y-108331636D01*
X49887070Y-108236398D01*
X49839451Y-108093541D01*
X49791832Y-108045922D01*
X49458499Y-108045922D01*
X49458499Y-108236398D01*
X49363261Y-107284017D02*
X49410880Y-107141160D01*
X49458499Y-107093541D01*
X49553737Y-107045922D01*
X49696594Y-107045922D01*
X49791832Y-107093541D01*
X49839451Y-107141160D01*
X49887070Y-107236398D01*
X49887070Y-107617350D01*
X48887070Y-107617350D01*
X48887070Y-107284017D01*
X48934690Y-107188779D01*
X48982309Y-107141160D01*
X49077547Y-107093541D01*
X49172785Y-107093541D01*
X49268023Y-107141160D01*
X49315642Y-107188779D01*
X49363261Y-107284017D01*
X49363261Y-107617350D01*
X49887070Y-106045922D02*
X49410880Y-106379255D01*
X49887070Y-106617350D02*
X48887070Y-106617350D01*
X48887070Y-106236398D01*
X48934690Y-106141160D01*
X48982309Y-106093541D01*
X49077547Y-106045922D01*
X49220404Y-106045922D01*
X49315642Y-106093541D01*
X49363261Y-106141160D01*
X49410880Y-106236398D01*
X49410880Y-106617350D01*
X49601356Y-105664970D02*
X49601356Y-105188779D01*
X49887070Y-105760208D02*
X48887070Y-105426874D01*
X49887070Y-105093541D01*
X87987230Y-92567270D02*
X87987230Y-93043461D01*
X86987230Y-93043461D01*
X87463421Y-92233937D02*
X87463421Y-91900604D01*
X87987230Y-91757747D02*
X87987230Y-92233937D01*
X86987230Y-92233937D01*
X86987230Y-91757747D01*
X87987230Y-91329175D02*
X86987230Y-91329175D01*
X86987230Y-91091080D01*
X87034850Y-90948223D01*
X87130088Y-90852985D01*
X87225326Y-90805366D01*
X87415802Y-90757747D01*
X87558659Y-90757747D01*
X87749135Y-90805366D01*
X87844373Y-90852985D01*
X87939611Y-90948223D01*
X87987230Y-91091080D01*
X87987230Y-91329175D01*
X88082469Y-90567270D02*
X88082469Y-89805366D01*
X87034850Y-89043461D02*
X86987230Y-89138699D01*
X86987230Y-89281556D01*
X87034850Y-89424413D01*
X87130088Y-89519651D01*
X87225326Y-89567270D01*
X87415802Y-89614890D01*
X87558659Y-89614890D01*
X87749135Y-89567270D01*
X87844373Y-89519651D01*
X87939611Y-89424413D01*
X87987230Y-89281556D01*
X87987230Y-89186318D01*
X87939611Y-89043461D01*
X87891992Y-88995842D01*
X87558659Y-88995842D01*
X87558659Y-89186318D01*
X87463421Y-88233937D02*
X87511040Y-88091080D01*
X87558659Y-88043461D01*
X87653897Y-87995842D01*
X87796754Y-87995842D01*
X87891992Y-88043461D01*
X87939611Y-88091080D01*
X87987230Y-88186318D01*
X87987230Y-88567270D01*
X86987230Y-88567270D01*
X86987230Y-88233937D01*
X87034850Y-88138699D01*
X87082469Y-88091080D01*
X87177707Y-88043461D01*
X87272945Y-88043461D01*
X87368183Y-88091080D01*
X87415802Y-88138699D01*
X87463421Y-88233937D01*
X87463421Y-88567270D01*
X87987230Y-86995842D02*
X87511040Y-87329175D01*
X87987230Y-87567270D02*
X86987230Y-87567270D01*
X86987230Y-87186318D01*
X87034850Y-87091080D01*
X87082469Y-87043461D01*
X87177707Y-86995842D01*
X87320564Y-86995842D01*
X87415802Y-87043461D01*
X87463421Y-87091080D01*
X87511040Y-87186318D01*
X87511040Y-87567270D01*
X87701516Y-86614890D02*
X87701516Y-86138699D01*
X87987230Y-86710128D02*
X86987230Y-86376794D01*
X87987230Y-86043461D01*
X68937070Y-92567110D02*
X68937070Y-93043301D01*
X67937070Y-93043301D01*
X68413261Y-92233777D02*
X68413261Y-91900444D01*
X68937070Y-91757587D02*
X68937070Y-92233777D01*
X67937070Y-92233777D01*
X67937070Y-91757587D01*
X68937070Y-91329015D02*
X67937070Y-91329015D01*
X67937070Y-91090920D01*
X67984690Y-90948063D01*
X68079928Y-90852825D01*
X68175166Y-90805206D01*
X68365642Y-90757587D01*
X68508499Y-90757587D01*
X68698975Y-90805206D01*
X68794213Y-90852825D01*
X68889451Y-90948063D01*
X68937070Y-91090920D01*
X68937070Y-91329015D01*
X69032309Y-90567110D02*
X69032309Y-89805206D01*
X67984690Y-89043301D02*
X67937070Y-89138539D01*
X67937070Y-89281396D01*
X67984690Y-89424253D01*
X68079928Y-89519491D01*
X68175166Y-89567110D01*
X68365642Y-89614730D01*
X68508499Y-89614730D01*
X68698975Y-89567110D01*
X68794213Y-89519491D01*
X68889451Y-89424253D01*
X68937070Y-89281396D01*
X68937070Y-89186158D01*
X68889451Y-89043301D01*
X68841832Y-88995682D01*
X68508499Y-88995682D01*
X68508499Y-89186158D01*
X68413261Y-88233777D02*
X68460880Y-88090920D01*
X68508499Y-88043301D01*
X68603737Y-87995682D01*
X68746594Y-87995682D01*
X68841832Y-88043301D01*
X68889451Y-88090920D01*
X68937070Y-88186158D01*
X68937070Y-88567110D01*
X67937070Y-88567110D01*
X67937070Y-88233777D01*
X67984690Y-88138539D01*
X68032309Y-88090920D01*
X68127547Y-88043301D01*
X68222785Y-88043301D01*
X68318023Y-88090920D01*
X68365642Y-88138539D01*
X68413261Y-88233777D01*
X68413261Y-88567110D01*
X68937070Y-86995682D02*
X68460880Y-87329015D01*
X68937070Y-87567110D02*
X67937070Y-87567110D01*
X67937070Y-87186158D01*
X67984690Y-87090920D01*
X68032309Y-87043301D01*
X68127547Y-86995682D01*
X68270404Y-86995682D01*
X68365642Y-87043301D01*
X68413261Y-87090920D01*
X68460880Y-87186158D01*
X68460880Y-87567110D01*
X68651356Y-86614730D02*
X68651356Y-86138539D01*
X68937070Y-86709968D02*
X67937070Y-86376634D01*
X68937070Y-86043301D01*
X49887070Y-92567110D02*
X49887070Y-93043301D01*
X48887070Y-93043301D01*
X49363261Y-92233777D02*
X49363261Y-91900444D01*
X49887070Y-91757587D02*
X49887070Y-92233777D01*
X48887070Y-92233777D01*
X48887070Y-91757587D01*
X49887070Y-91329015D02*
X48887070Y-91329015D01*
X48887070Y-91090920D01*
X48934690Y-90948063D01*
X49029928Y-90852825D01*
X49125166Y-90805206D01*
X49315642Y-90757587D01*
X49458499Y-90757587D01*
X49648975Y-90805206D01*
X49744213Y-90852825D01*
X49839451Y-90948063D01*
X49887070Y-91090920D01*
X49887070Y-91329015D01*
X49982309Y-90567110D02*
X49982309Y-89805206D01*
X48934690Y-89043301D02*
X48887070Y-89138539D01*
X48887070Y-89281396D01*
X48934690Y-89424253D01*
X49029928Y-89519491D01*
X49125166Y-89567110D01*
X49315642Y-89614730D01*
X49458499Y-89614730D01*
X49648975Y-89567110D01*
X49744213Y-89519491D01*
X49839451Y-89424253D01*
X49887070Y-89281396D01*
X49887070Y-89186158D01*
X49839451Y-89043301D01*
X49791832Y-88995682D01*
X49458499Y-88995682D01*
X49458499Y-89186158D01*
X49363261Y-88233777D02*
X49410880Y-88090920D01*
X49458499Y-88043301D01*
X49553737Y-87995682D01*
X49696594Y-87995682D01*
X49791832Y-88043301D01*
X49839451Y-88090920D01*
X49887070Y-88186158D01*
X49887070Y-88567110D01*
X48887070Y-88567110D01*
X48887070Y-88233777D01*
X48934690Y-88138539D01*
X48982309Y-88090920D01*
X49077547Y-88043301D01*
X49172785Y-88043301D01*
X49268023Y-88090920D01*
X49315642Y-88138539D01*
X49363261Y-88233777D01*
X49363261Y-88567110D01*
X49887070Y-86995682D02*
X49410880Y-87329015D01*
X49887070Y-87567110D02*
X48887070Y-87567110D01*
X48887070Y-87186158D01*
X48934690Y-87090920D01*
X48982309Y-87043301D01*
X49077547Y-86995682D01*
X49220404Y-86995682D01*
X49315642Y-87043301D01*
X49363261Y-87090920D01*
X49410880Y-87186158D01*
X49410880Y-87567110D01*
X49601356Y-86614730D02*
X49601356Y-86138539D01*
X49887070Y-86709968D02*
X48887070Y-86376634D01*
X49887070Y-86043301D01*
X107037310Y-73517190D02*
X107037310Y-73993381D01*
X106037310Y-73993381D01*
X106513501Y-73183857D02*
X106513501Y-72850524D01*
X107037310Y-72707667D02*
X107037310Y-73183857D01*
X106037310Y-73183857D01*
X106037310Y-72707667D01*
X107037310Y-72279095D02*
X106037310Y-72279095D01*
X106037310Y-72041000D01*
X106084930Y-71898143D01*
X106180168Y-71802905D01*
X106275406Y-71755286D01*
X106465882Y-71707667D01*
X106608739Y-71707667D01*
X106799215Y-71755286D01*
X106894453Y-71802905D01*
X106989691Y-71898143D01*
X107037310Y-72041000D01*
X107037310Y-72279095D01*
X107132549Y-71517190D02*
X107132549Y-70755286D01*
X106084930Y-69993381D02*
X106037310Y-70088619D01*
X106037310Y-70231476D01*
X106084930Y-70374333D01*
X106180168Y-70469571D01*
X106275406Y-70517190D01*
X106465882Y-70564810D01*
X106608739Y-70564810D01*
X106799215Y-70517190D01*
X106894453Y-70469571D01*
X106989691Y-70374333D01*
X107037310Y-70231476D01*
X107037310Y-70136238D01*
X106989691Y-69993381D01*
X106942072Y-69945762D01*
X106608739Y-69945762D01*
X106608739Y-70136238D01*
X106513501Y-69183857D02*
X106561120Y-69041000D01*
X106608739Y-68993381D01*
X106703977Y-68945762D01*
X106846834Y-68945762D01*
X106942072Y-68993381D01*
X106989691Y-69041000D01*
X107037310Y-69136238D01*
X107037310Y-69517190D01*
X106037310Y-69517190D01*
X106037310Y-69183857D01*
X106084930Y-69088619D01*
X106132549Y-69041000D01*
X106227787Y-68993381D01*
X106323025Y-68993381D01*
X106418263Y-69041000D01*
X106465882Y-69088619D01*
X106513501Y-69183857D01*
X106513501Y-69517190D01*
X107037310Y-67945762D02*
X106561120Y-68279095D01*
X107037310Y-68517190D02*
X106037310Y-68517190D01*
X106037310Y-68136238D01*
X106084930Y-68041000D01*
X106132549Y-67993381D01*
X106227787Y-67945762D01*
X106370644Y-67945762D01*
X106465882Y-67993381D01*
X106513501Y-68041000D01*
X106561120Y-68136238D01*
X106561120Y-68517190D01*
X106751596Y-67564810D02*
X106751596Y-67088619D01*
X107037310Y-67660048D02*
X106037310Y-67326714D01*
X107037310Y-66993381D01*
X87987230Y-73517190D02*
X87987230Y-73993381D01*
X86987230Y-73993381D01*
X87463421Y-73183857D02*
X87463421Y-72850524D01*
X87987230Y-72707667D02*
X87987230Y-73183857D01*
X86987230Y-73183857D01*
X86987230Y-72707667D01*
X87987230Y-72279095D02*
X86987230Y-72279095D01*
X86987230Y-72041000D01*
X87034850Y-71898143D01*
X87130088Y-71802905D01*
X87225326Y-71755286D01*
X87415802Y-71707667D01*
X87558659Y-71707667D01*
X87749135Y-71755286D01*
X87844373Y-71802905D01*
X87939611Y-71898143D01*
X87987230Y-72041000D01*
X87987230Y-72279095D01*
X88082469Y-71517190D02*
X88082469Y-70755286D01*
X87034850Y-69993381D02*
X86987230Y-70088619D01*
X86987230Y-70231476D01*
X87034850Y-70374333D01*
X87130088Y-70469571D01*
X87225326Y-70517190D01*
X87415802Y-70564810D01*
X87558659Y-70564810D01*
X87749135Y-70517190D01*
X87844373Y-70469571D01*
X87939611Y-70374333D01*
X87987230Y-70231476D01*
X87987230Y-70136238D01*
X87939611Y-69993381D01*
X87891992Y-69945762D01*
X87558659Y-69945762D01*
X87558659Y-70136238D01*
X87463421Y-69183857D02*
X87511040Y-69041000D01*
X87558659Y-68993381D01*
X87653897Y-68945762D01*
X87796754Y-68945762D01*
X87891992Y-68993381D01*
X87939611Y-69041000D01*
X87987230Y-69136238D01*
X87987230Y-69517190D01*
X86987230Y-69517190D01*
X86987230Y-69183857D01*
X87034850Y-69088619D01*
X87082469Y-69041000D01*
X87177707Y-68993381D01*
X87272945Y-68993381D01*
X87368183Y-69041000D01*
X87415802Y-69088619D01*
X87463421Y-69183857D01*
X87463421Y-69517190D01*
X87987230Y-67945762D02*
X87511040Y-68279095D01*
X87987230Y-68517190D02*
X86987230Y-68517190D01*
X86987230Y-68136238D01*
X87034850Y-68041000D01*
X87082469Y-67993381D01*
X87177707Y-67945762D01*
X87320564Y-67945762D01*
X87415802Y-67993381D01*
X87463421Y-68041000D01*
X87511040Y-68136238D01*
X87511040Y-68517190D01*
X87701516Y-67564810D02*
X87701516Y-67088619D01*
X87987230Y-67660048D02*
X86987230Y-67326714D01*
X87987230Y-66993381D01*
X68937070Y-73517190D02*
X68937070Y-73993381D01*
X67937070Y-73993381D01*
X68413261Y-73183857D02*
X68413261Y-72850524D01*
X68937070Y-72707667D02*
X68937070Y-73183857D01*
X67937070Y-73183857D01*
X67937070Y-72707667D01*
X68937070Y-72279095D02*
X67937070Y-72279095D01*
X67937070Y-72041000D01*
X67984690Y-71898143D01*
X68079928Y-71802905D01*
X68175166Y-71755286D01*
X68365642Y-71707667D01*
X68508499Y-71707667D01*
X68698975Y-71755286D01*
X68794213Y-71802905D01*
X68889451Y-71898143D01*
X68937070Y-72041000D01*
X68937070Y-72279095D01*
X69032309Y-71517190D02*
X69032309Y-70755286D01*
X67984690Y-69993381D02*
X67937070Y-70088619D01*
X67937070Y-70231476D01*
X67984690Y-70374333D01*
X68079928Y-70469571D01*
X68175166Y-70517190D01*
X68365642Y-70564810D01*
X68508499Y-70564810D01*
X68698975Y-70517190D01*
X68794213Y-70469571D01*
X68889451Y-70374333D01*
X68937070Y-70231476D01*
X68937070Y-70136238D01*
X68889451Y-69993381D01*
X68841832Y-69945762D01*
X68508499Y-69945762D01*
X68508499Y-70136238D01*
X68413261Y-69183857D02*
X68460880Y-69041000D01*
X68508499Y-68993381D01*
X68603737Y-68945762D01*
X68746594Y-68945762D01*
X68841832Y-68993381D01*
X68889451Y-69041000D01*
X68937070Y-69136238D01*
X68937070Y-69517190D01*
X67937070Y-69517190D01*
X67937070Y-69183857D01*
X67984690Y-69088619D01*
X68032309Y-69041000D01*
X68127547Y-68993381D01*
X68222785Y-68993381D01*
X68318023Y-69041000D01*
X68365642Y-69088619D01*
X68413261Y-69183857D01*
X68413261Y-69517190D01*
X68937070Y-67945762D02*
X68460880Y-68279095D01*
X68937070Y-68517190D02*
X67937070Y-68517190D01*
X67937070Y-68136238D01*
X67984690Y-68041000D01*
X68032309Y-67993381D01*
X68127547Y-67945762D01*
X68270404Y-67945762D01*
X68365642Y-67993381D01*
X68413261Y-68041000D01*
X68460880Y-68136238D01*
X68460880Y-68517190D01*
X68651356Y-67564810D02*
X68651356Y-67088619D01*
X68937070Y-67660048D02*
X67937070Y-67326714D01*
X68937070Y-66993381D01*
X49887070Y-73517110D02*
X49887070Y-73993301D01*
X48887070Y-73993301D01*
X49363261Y-73183777D02*
X49363261Y-72850444D01*
X49887070Y-72707587D02*
X49887070Y-73183777D01*
X48887070Y-73183777D01*
X48887070Y-72707587D01*
X49887070Y-72279015D02*
X48887070Y-72279015D01*
X48887070Y-72040920D01*
X48934690Y-71898063D01*
X49029928Y-71802825D01*
X49125166Y-71755206D01*
X49315642Y-71707587D01*
X49458499Y-71707587D01*
X49648975Y-71755206D01*
X49744213Y-71802825D01*
X49839451Y-71898063D01*
X49887070Y-72040920D01*
X49887070Y-72279015D01*
X49982309Y-71517110D02*
X49982309Y-70755206D01*
X48934690Y-69993301D02*
X48887070Y-70088539D01*
X48887070Y-70231396D01*
X48934690Y-70374253D01*
X49029928Y-70469491D01*
X49125166Y-70517110D01*
X49315642Y-70564730D01*
X49458499Y-70564730D01*
X49648975Y-70517110D01*
X49744213Y-70469491D01*
X49839451Y-70374253D01*
X49887070Y-70231396D01*
X49887070Y-70136158D01*
X49839451Y-69993301D01*
X49791832Y-69945682D01*
X49458499Y-69945682D01*
X49458499Y-70136158D01*
X49363261Y-69183777D02*
X49410880Y-69040920D01*
X49458499Y-68993301D01*
X49553737Y-68945682D01*
X49696594Y-68945682D01*
X49791832Y-68993301D01*
X49839451Y-69040920D01*
X49887070Y-69136158D01*
X49887070Y-69517110D01*
X48887070Y-69517110D01*
X48887070Y-69183777D01*
X48934690Y-69088539D01*
X48982309Y-69040920D01*
X49077547Y-68993301D01*
X49172785Y-68993301D01*
X49268023Y-69040920D01*
X49315642Y-69088539D01*
X49363261Y-69183777D01*
X49363261Y-69517110D01*
X49887070Y-67945682D02*
X49410880Y-68279015D01*
X49887070Y-68517110D02*
X48887070Y-68517110D01*
X48887070Y-68136158D01*
X48934690Y-68040920D01*
X48982309Y-67993301D01*
X49077547Y-67945682D01*
X49220404Y-67945682D01*
X49315642Y-67993301D01*
X49363261Y-68040920D01*
X49410880Y-68136158D01*
X49410880Y-68517110D01*
X49601356Y-67564730D02*
X49601356Y-67088539D01*
X49887070Y-67659968D02*
X48887070Y-67326634D01*
X49887070Y-66993301D01*
X107037070Y-54467110D02*
X107037070Y-54943301D01*
X106037070Y-54943301D01*
X106513261Y-54133777D02*
X106513261Y-53800444D01*
X107037070Y-53657587D02*
X107037070Y-54133777D01*
X106037070Y-54133777D01*
X106037070Y-53657587D01*
X107037070Y-53229015D02*
X106037070Y-53229015D01*
X106037070Y-52990920D01*
X106084690Y-52848063D01*
X106179928Y-52752825D01*
X106275166Y-52705206D01*
X106465642Y-52657587D01*
X106608499Y-52657587D01*
X106798975Y-52705206D01*
X106894213Y-52752825D01*
X106989451Y-52848063D01*
X107037070Y-52990920D01*
X107037070Y-53229015D01*
X107132309Y-52467110D02*
X107132309Y-51705206D01*
X106084690Y-50943301D02*
X106037070Y-51038539D01*
X106037070Y-51181396D01*
X106084690Y-51324253D01*
X106179928Y-51419491D01*
X106275166Y-51467110D01*
X106465642Y-51514730D01*
X106608499Y-51514730D01*
X106798975Y-51467110D01*
X106894213Y-51419491D01*
X106989451Y-51324253D01*
X107037070Y-51181396D01*
X107037070Y-51086158D01*
X106989451Y-50943301D01*
X106941832Y-50895682D01*
X106608499Y-50895682D01*
X106608499Y-51086158D01*
X106513261Y-50133777D02*
X106560880Y-49990920D01*
X106608499Y-49943301D01*
X106703737Y-49895682D01*
X106846594Y-49895682D01*
X106941832Y-49943301D01*
X106989451Y-49990920D01*
X107037070Y-50086158D01*
X107037070Y-50467110D01*
X106037070Y-50467110D01*
X106037070Y-50133777D01*
X106084690Y-50038539D01*
X106132309Y-49990920D01*
X106227547Y-49943301D01*
X106322785Y-49943301D01*
X106418023Y-49990920D01*
X106465642Y-50038539D01*
X106513261Y-50133777D01*
X106513261Y-50467110D01*
X107037070Y-48895682D02*
X106560880Y-49229015D01*
X107037070Y-49467110D02*
X106037070Y-49467110D01*
X106037070Y-49086158D01*
X106084690Y-48990920D01*
X106132309Y-48943301D01*
X106227547Y-48895682D01*
X106370404Y-48895682D01*
X106465642Y-48943301D01*
X106513261Y-48990920D01*
X106560880Y-49086158D01*
X106560880Y-49467110D01*
X106751356Y-48514730D02*
X106751356Y-48038539D01*
X107037070Y-48609968D02*
X106037070Y-48276634D01*
X107037070Y-47943301D01*
X87987230Y-54467110D02*
X87987230Y-54943301D01*
X86987230Y-54943301D01*
X87463421Y-54133777D02*
X87463421Y-53800444D01*
X87987230Y-53657587D02*
X87987230Y-54133777D01*
X86987230Y-54133777D01*
X86987230Y-53657587D01*
X87987230Y-53229015D02*
X86987230Y-53229015D01*
X86987230Y-52990920D01*
X87034850Y-52848063D01*
X87130088Y-52752825D01*
X87225326Y-52705206D01*
X87415802Y-52657587D01*
X87558659Y-52657587D01*
X87749135Y-52705206D01*
X87844373Y-52752825D01*
X87939611Y-52848063D01*
X87987230Y-52990920D01*
X87987230Y-53229015D01*
X88082469Y-52467110D02*
X88082469Y-51705206D01*
X87034850Y-50943301D02*
X86987230Y-51038539D01*
X86987230Y-51181396D01*
X87034850Y-51324253D01*
X87130088Y-51419491D01*
X87225326Y-51467110D01*
X87415802Y-51514730D01*
X87558659Y-51514730D01*
X87749135Y-51467110D01*
X87844373Y-51419491D01*
X87939611Y-51324253D01*
X87987230Y-51181396D01*
X87987230Y-51086158D01*
X87939611Y-50943301D01*
X87891992Y-50895682D01*
X87558659Y-50895682D01*
X87558659Y-51086158D01*
X87463421Y-50133777D02*
X87511040Y-49990920D01*
X87558659Y-49943301D01*
X87653897Y-49895682D01*
X87796754Y-49895682D01*
X87891992Y-49943301D01*
X87939611Y-49990920D01*
X87987230Y-50086158D01*
X87987230Y-50467110D01*
X86987230Y-50467110D01*
X86987230Y-50133777D01*
X87034850Y-50038539D01*
X87082469Y-49990920D01*
X87177707Y-49943301D01*
X87272945Y-49943301D01*
X87368183Y-49990920D01*
X87415802Y-50038539D01*
X87463421Y-50133777D01*
X87463421Y-50467110D01*
X87987230Y-48895682D02*
X87511040Y-49229015D01*
X87987230Y-49467110D02*
X86987230Y-49467110D01*
X86987230Y-49086158D01*
X87034850Y-48990920D01*
X87082469Y-48943301D01*
X87177707Y-48895682D01*
X87320564Y-48895682D01*
X87415802Y-48943301D01*
X87463421Y-48990920D01*
X87511040Y-49086158D01*
X87511040Y-49467110D01*
X87701516Y-48514730D02*
X87701516Y-48038539D01*
X87987230Y-48609968D02*
X86987230Y-48276634D01*
X87987230Y-47943301D01*
X68937150Y-54467110D02*
X68937150Y-54943301D01*
X67937150Y-54943301D01*
X68413341Y-54133777D02*
X68413341Y-53800444D01*
X68937150Y-53657587D02*
X68937150Y-54133777D01*
X67937150Y-54133777D01*
X67937150Y-53657587D01*
X68937150Y-53229015D02*
X67937150Y-53229015D01*
X67937150Y-52990920D01*
X67984770Y-52848063D01*
X68080008Y-52752825D01*
X68175246Y-52705206D01*
X68365722Y-52657587D01*
X68508579Y-52657587D01*
X68699055Y-52705206D01*
X68794293Y-52752825D01*
X68889531Y-52848063D01*
X68937150Y-52990920D01*
X68937150Y-53229015D01*
X69032389Y-52467110D02*
X69032389Y-51705206D01*
X67984770Y-50943301D02*
X67937150Y-51038539D01*
X67937150Y-51181396D01*
X67984770Y-51324253D01*
X68080008Y-51419491D01*
X68175246Y-51467110D01*
X68365722Y-51514730D01*
X68508579Y-51514730D01*
X68699055Y-51467110D01*
X68794293Y-51419491D01*
X68889531Y-51324253D01*
X68937150Y-51181396D01*
X68937150Y-51086158D01*
X68889531Y-50943301D01*
X68841912Y-50895682D01*
X68508579Y-50895682D01*
X68508579Y-51086158D01*
X68413341Y-50133777D02*
X68460960Y-49990920D01*
X68508579Y-49943301D01*
X68603817Y-49895682D01*
X68746674Y-49895682D01*
X68841912Y-49943301D01*
X68889531Y-49990920D01*
X68937150Y-50086158D01*
X68937150Y-50467110D01*
X67937150Y-50467110D01*
X67937150Y-50133777D01*
X67984770Y-50038539D01*
X68032389Y-49990920D01*
X68127627Y-49943301D01*
X68222865Y-49943301D01*
X68318103Y-49990920D01*
X68365722Y-50038539D01*
X68413341Y-50133777D01*
X68413341Y-50467110D01*
X68937150Y-48895682D02*
X68460960Y-49229015D01*
X68937150Y-49467110D02*
X67937150Y-49467110D01*
X67937150Y-49086158D01*
X67984770Y-48990920D01*
X68032389Y-48943301D01*
X68127627Y-48895682D01*
X68270484Y-48895682D01*
X68365722Y-48943301D01*
X68413341Y-48990920D01*
X68460960Y-49086158D01*
X68460960Y-49467110D01*
X68651436Y-48514730D02*
X68651436Y-48038539D01*
X68937150Y-48609968D02*
X67937150Y-48276634D01*
X68937150Y-47943301D01*
X100545070Y-91852682D02*
X101545070Y-91614587D01*
X100830785Y-91424110D01*
X101545070Y-91233634D01*
X100545070Y-90995539D01*
X101497451Y-90662206D02*
X101545070Y-90519349D01*
X101545070Y-90281253D01*
X101497451Y-90186015D01*
X101449832Y-90138396D01*
X101354594Y-90090777D01*
X101259356Y-90090777D01*
X101164118Y-90138396D01*
X101116499Y-90186015D01*
X101068880Y-90281253D01*
X101021261Y-90471730D01*
X100973642Y-90566968D01*
X100926023Y-90614587D01*
X100830785Y-90662206D01*
X100735547Y-90662206D01*
X100640309Y-90614587D01*
X100592690Y-90566968D01*
X100545070Y-90471730D01*
X100545070Y-90233634D01*
X100592690Y-90090777D01*
X100640309Y-89709825D02*
X100592690Y-89662206D01*
X100545070Y-89566968D01*
X100545070Y-89328872D01*
X100592690Y-89233634D01*
X100640309Y-89186015D01*
X100735547Y-89138396D01*
X100830785Y-89138396D01*
X100973642Y-89186015D01*
X101545070Y-89757444D01*
X101545070Y-89138396D01*
X100973642Y-88566968D02*
X100926023Y-88662206D01*
X100878404Y-88709825D01*
X100783166Y-88757444D01*
X100735547Y-88757444D01*
X100640309Y-88709825D01*
X100592690Y-88662206D01*
X100545070Y-88566968D01*
X100545070Y-88376491D01*
X100592690Y-88281253D01*
X100640309Y-88233634D01*
X100735547Y-88186015D01*
X100783166Y-88186015D01*
X100878404Y-88233634D01*
X100926023Y-88281253D01*
X100973642Y-88376491D01*
X100973642Y-88566968D01*
X101021261Y-88662206D01*
X101068880Y-88709825D01*
X101164118Y-88757444D01*
X101354594Y-88757444D01*
X101449832Y-88709825D01*
X101497451Y-88662206D01*
X101545070Y-88566968D01*
X101545070Y-88376491D01*
X101497451Y-88281253D01*
X101449832Y-88233634D01*
X101354594Y-88186015D01*
X101164118Y-88186015D01*
X101068880Y-88233634D01*
X101021261Y-88281253D01*
X100973642Y-88376491D01*
X101545070Y-87233634D02*
X101545070Y-87805063D01*
X101545070Y-87519349D02*
X100545070Y-87519349D01*
X100687928Y-87614587D01*
X100783166Y-87709825D01*
X100830785Y-87805063D01*
X101545070Y-86281253D02*
X101545070Y-86852682D01*
X101545070Y-86566968D02*
X100545070Y-86566968D01*
X100687928Y-86662206D01*
X100783166Y-86757444D01*
X100830785Y-86852682D01*
X101545070Y-85852682D02*
X100545070Y-85852682D01*
X101259356Y-85519349D01*
X100545070Y-85186015D01*
X101545070Y-85186015D01*
D14*
X97612404Y-90702944D02*
X97440975Y-90702944D01*
X97526690Y-90702944D02*
X97526690Y-90402944D01*
X97498118Y-90445801D01*
X97469547Y-90474372D01*
X97440975Y-90488658D01*
D15*
X98214118Y-89214587D02*
X98699832Y-89214587D01*
X98756975Y-89186015D01*
X98785547Y-89157444D01*
X98814118Y-89100301D01*
X98814118Y-88986015D01*
X98785547Y-88928872D01*
X98756975Y-88900301D01*
X98699832Y-88871730D01*
X98214118Y-88871730D01*
X98814118Y-88271730D02*
X98814118Y-88614587D01*
X98814118Y-88443158D02*
X98214118Y-88443158D01*
X98299832Y-88500301D01*
X98356975Y-88557444D01*
X98385547Y-88614587D01*
X98271261Y-88043158D02*
X98242690Y-88014587D01*
X98214118Y-87957444D01*
X98214118Y-87814587D01*
X98242690Y-87757444D01*
X98271261Y-87728872D01*
X98328404Y-87700301D01*
X98385547Y-87700301D01*
X98471261Y-87728872D01*
X98814118Y-88071730D01*
X98814118Y-87700301D01*
D10*
X95577709Y-97588310D02*
X95101518Y-97588310D01*
X95101518Y-96588310D01*
X95911042Y-97064501D02*
X96244375Y-97064501D01*
X96387232Y-97588310D02*
X95911042Y-97588310D01*
X95911042Y-96588310D01*
X96387232Y-96588310D01*
X96815804Y-97588310D02*
X96815804Y-96588310D01*
X97053899Y-96588310D01*
X97196756Y-96635930D01*
X97291994Y-96731168D01*
X97339613Y-96826406D01*
X97387232Y-97016882D01*
X97387232Y-97159739D01*
X97339613Y-97350215D01*
X97291994Y-97445453D01*
X97196756Y-97540691D01*
X97053899Y-97588310D01*
X96815804Y-97588310D01*
X97577709Y-97683549D02*
X98339613Y-97683549D01*
X99101518Y-96635930D02*
X99006280Y-96588310D01*
X98863423Y-96588310D01*
X98720566Y-96635930D01*
X98625328Y-96731168D01*
X98577709Y-96826406D01*
X98530090Y-97016882D01*
X98530090Y-97159739D01*
X98577709Y-97350215D01*
X98625328Y-97445453D01*
X98720566Y-97540691D01*
X98863423Y-97588310D01*
X98958661Y-97588310D01*
X99101518Y-97540691D01*
X99149137Y-97493072D01*
X99149137Y-97159739D01*
X98958661Y-97159739D01*
X99911042Y-97064501D02*
X100053899Y-97112120D01*
X100101518Y-97159739D01*
X100149137Y-97254977D01*
X100149137Y-97397834D01*
X100101518Y-97493072D01*
X100053899Y-97540691D01*
X99958661Y-97588310D01*
X99577709Y-97588310D01*
X99577709Y-96588310D01*
X99911042Y-96588310D01*
X100006280Y-96635930D01*
X100053899Y-96683549D01*
X100101518Y-96778787D01*
X100101518Y-96874025D01*
X100053899Y-96969263D01*
X100006280Y-97016882D01*
X99911042Y-97064501D01*
X99577709Y-97064501D01*
X101149137Y-97588310D02*
X100815804Y-97112120D01*
X100577709Y-97588310D02*
X100577709Y-96588310D01*
X100958661Y-96588310D01*
X101053899Y-96635930D01*
X101101518Y-96683549D01*
X101149137Y-96778787D01*
X101149137Y-96921644D01*
X101101518Y-97016882D01*
X101053899Y-97064501D01*
X100958661Y-97112120D01*
X100577709Y-97112120D01*
X101530090Y-97302596D02*
X102006280Y-97302596D01*
X101434851Y-97588310D02*
X101768185Y-96588310D01*
X102101518Y-97588310D01*
X107037310Y-92567270D02*
X107037310Y-93043461D01*
X106037310Y-93043461D01*
X106513501Y-92233937D02*
X106513501Y-91900604D01*
X107037310Y-91757747D02*
X107037310Y-92233937D01*
X106037310Y-92233937D01*
X106037310Y-91757747D01*
X107037310Y-91329175D02*
X106037310Y-91329175D01*
X106037310Y-91091080D01*
X106084930Y-90948223D01*
X106180168Y-90852985D01*
X106275406Y-90805366D01*
X106465882Y-90757747D01*
X106608739Y-90757747D01*
X106799215Y-90805366D01*
X106894453Y-90852985D01*
X106989691Y-90948223D01*
X107037310Y-91091080D01*
X107037310Y-91329175D01*
X107132549Y-90567270D02*
X107132549Y-89805366D01*
X106084930Y-89043461D02*
X106037310Y-89138699D01*
X106037310Y-89281556D01*
X106084930Y-89424413D01*
X106180168Y-89519651D01*
X106275406Y-89567270D01*
X106465882Y-89614890D01*
X106608739Y-89614890D01*
X106799215Y-89567270D01*
X106894453Y-89519651D01*
X106989691Y-89424413D01*
X107037310Y-89281556D01*
X107037310Y-89186318D01*
X106989691Y-89043461D01*
X106942072Y-88995842D01*
X106608739Y-88995842D01*
X106608739Y-89186318D01*
X106513501Y-88233937D02*
X106561120Y-88091080D01*
X106608739Y-88043461D01*
X106703977Y-87995842D01*
X106846834Y-87995842D01*
X106942072Y-88043461D01*
X106989691Y-88091080D01*
X107037310Y-88186318D01*
X107037310Y-88567270D01*
X106037310Y-88567270D01*
X106037310Y-88233937D01*
X106084930Y-88138699D01*
X106132549Y-88091080D01*
X106227787Y-88043461D01*
X106323025Y-88043461D01*
X106418263Y-88091080D01*
X106465882Y-88138699D01*
X106513501Y-88233937D01*
X106513501Y-88567270D01*
X107037310Y-86995842D02*
X106561120Y-87329175D01*
X107037310Y-87567270D02*
X106037310Y-87567270D01*
X106037310Y-87186318D01*
X106084930Y-87091080D01*
X106132549Y-87043461D01*
X106227787Y-86995842D01*
X106370644Y-86995842D01*
X106465882Y-87043461D01*
X106513501Y-87091080D01*
X106561120Y-87186318D01*
X106561120Y-87567270D01*
X106751596Y-86614890D02*
X106751596Y-86138699D01*
X107037310Y-86710128D02*
X106037310Y-86376794D01*
X107037310Y-86043461D01*
X94066759Y-50768364D02*
X94019140Y-50720745D01*
X93971520Y-50625507D01*
X93971520Y-50387412D01*
X94019140Y-50292174D01*
X94066759Y-50244555D01*
X94161997Y-50196936D01*
X94257235Y-50196936D01*
X94400092Y-50244555D01*
X94971520Y-50815983D01*
X94971520Y-50196936D01*
X94066759Y-49815983D02*
X94019140Y-49768364D01*
X93971520Y-49673126D01*
X93971520Y-49435031D01*
X94019140Y-49339793D01*
X94066759Y-49292174D01*
X94161997Y-49244555D01*
X94257235Y-49244555D01*
X94400092Y-49292174D01*
X94971520Y-49863602D01*
X94971520Y-49244555D01*
D16*
X93095330Y-50589793D02*
X92857235Y-50756460D01*
X93095330Y-50875507D02*
X92595330Y-50875507D01*
X92595330Y-50685031D01*
X92619140Y-50637412D01*
X92642949Y-50613602D01*
X92690568Y-50589793D01*
X92761997Y-50589793D01*
X92809616Y-50613602D01*
X92833425Y-50637412D01*
X92857235Y-50685031D01*
X92857235Y-50875507D01*
X93095330Y-50375507D02*
X92595330Y-50375507D01*
X92595330Y-50256460D01*
X92619140Y-50185031D01*
X92666759Y-50137412D01*
X92714378Y-50113602D01*
X92809616Y-50089793D01*
X92881044Y-50089793D01*
X92976282Y-50113602D01*
X93023901Y-50137412D01*
X93071520Y-50185031D01*
X93095330Y-50256460D01*
X93095330Y-50375507D01*
X93095330Y-49875507D02*
X92595330Y-49875507D01*
X92595330Y-49685031D01*
X92619140Y-49637412D01*
X92642949Y-49613602D01*
X92690568Y-49589793D01*
X92761997Y-49589793D01*
X92809616Y-49613602D01*
X92833425Y-49637412D01*
X92857235Y-49685031D01*
X92857235Y-49875507D01*
X93095330Y-49113602D02*
X93095330Y-49399317D01*
X93095330Y-49256460D02*
X92595330Y-49256460D01*
X92666759Y-49304079D01*
X92714378Y-49351698D01*
X92738187Y-49399317D01*
D10*
X93148019Y-50768364D02*
X93100400Y-50720745D01*
X93052780Y-50625507D01*
X93052780Y-50387412D01*
X93100400Y-50292174D01*
X93148019Y-50244555D01*
X93243257Y-50196936D01*
X93338495Y-50196936D01*
X93481352Y-50244555D01*
X94052780Y-50815983D01*
X94052780Y-50196936D01*
X93148019Y-49815983D02*
X93100400Y-49768364D01*
X93052780Y-49673126D01*
X93052780Y-49435031D01*
X93100400Y-49339793D01*
X93148019Y-49292174D01*
X93243257Y-49244555D01*
X93338495Y-49244555D01*
X93481352Y-49292174D01*
X94052780Y-49863602D01*
X94052780Y-49244555D01*
D16*
X95476590Y-50625507D02*
X95238495Y-50792174D01*
X95476590Y-50911221D02*
X94976590Y-50911221D01*
X94976590Y-50720745D01*
X95000400Y-50673126D01*
X95024209Y-50649317D01*
X95071828Y-50625507D01*
X95143257Y-50625507D01*
X95190876Y-50649317D01*
X95214685Y-50673126D01*
X95238495Y-50720745D01*
X95238495Y-50911221D01*
X95476590Y-50411221D02*
X94976590Y-50411221D01*
X94976590Y-50292174D01*
X95000400Y-50220745D01*
X95048019Y-50173126D01*
X95095638Y-50149317D01*
X95190876Y-50125507D01*
X95262304Y-50125507D01*
X95357542Y-50149317D01*
X95405161Y-50173126D01*
X95452780Y-50220745D01*
X95476590Y-50292174D01*
X95476590Y-50411221D01*
X95476590Y-49911221D02*
X94976590Y-49911221D01*
X95333733Y-49744555D01*
X94976590Y-49577888D01*
X95476590Y-49577888D01*
X95476590Y-49077888D02*
X95476590Y-49363602D01*
X95476590Y-49220745D02*
X94976590Y-49220745D01*
X95048019Y-49268364D01*
X95095638Y-49315983D01*
X95119447Y-49363602D01*
D10*
X70223975Y-141637350D02*
X70223975Y-140637350D01*
X70557309Y-141351636D01*
X70890642Y-140637350D01*
X70890642Y-141637350D01*
X71509690Y-141637350D02*
X71414451Y-141589731D01*
X71366832Y-141542112D01*
X71319213Y-141446874D01*
X71319213Y-141161160D01*
X71366832Y-141065922D01*
X71414451Y-141018303D01*
X71509690Y-140970684D01*
X71652547Y-140970684D01*
X71747785Y-141018303D01*
X71795404Y-141065922D01*
X71843023Y-141161160D01*
X71843023Y-141446874D01*
X71795404Y-141542112D01*
X71747785Y-141589731D01*
X71652547Y-141637350D01*
X71509690Y-141637350D01*
X72700166Y-140970684D02*
X72700166Y-141637350D01*
X72271594Y-140970684D02*
X72271594Y-141494493D01*
X72319213Y-141589731D01*
X72414451Y-141637350D01*
X72557309Y-141637350D01*
X72652547Y-141589731D01*
X72700166Y-141542112D01*
X73176356Y-140970684D02*
X73176356Y-141637350D01*
X73176356Y-141065922D02*
X73223975Y-141018303D01*
X73319213Y-140970684D01*
X73462070Y-140970684D01*
X73557309Y-141018303D01*
X73604928Y-141113541D01*
X73604928Y-141637350D01*
X73938261Y-140970684D02*
X74319213Y-140970684D01*
X74081118Y-140637350D02*
X74081118Y-141494493D01*
X74128737Y-141589731D01*
X74223975Y-141637350D01*
X74319213Y-141637350D01*
X74652547Y-141637350D02*
X74652547Y-140970684D01*
X74652547Y-140637350D02*
X74604928Y-140684970D01*
X74652547Y-140732589D01*
X74700166Y-140684970D01*
X74652547Y-140637350D01*
X74652547Y-140732589D01*
X75128737Y-140970684D02*
X75128737Y-141637350D01*
X75128737Y-141065922D02*
X75176356Y-141018303D01*
X75271594Y-140970684D01*
X75414451Y-140970684D01*
X75509690Y-141018303D01*
X75557309Y-141113541D01*
X75557309Y-141637350D01*
X76462070Y-140970684D02*
X76462070Y-141780208D01*
X76414451Y-141875446D01*
X76366832Y-141923065D01*
X76271594Y-141970684D01*
X76128737Y-141970684D01*
X76033499Y-141923065D01*
X76462070Y-141589731D02*
X76366832Y-141637350D01*
X76176356Y-141637350D01*
X76081118Y-141589731D01*
X76033499Y-141542112D01*
X75985880Y-141446874D01*
X75985880Y-141161160D01*
X76033499Y-141065922D01*
X76081118Y-141018303D01*
X76176356Y-140970684D01*
X76366832Y-140970684D01*
X76462070Y-141018303D01*
X76938261Y-141637350D02*
X76938261Y-140637350D01*
X76938261Y-141113541D02*
X77509690Y-141113541D01*
X77509690Y-141637350D02*
X77509690Y-140637350D01*
X78128737Y-141637350D02*
X78033499Y-141589731D01*
X77985880Y-141542112D01*
X77938261Y-141446874D01*
X77938261Y-141161160D01*
X77985880Y-141065922D01*
X78033499Y-141018303D01*
X78128737Y-140970684D01*
X78271594Y-140970684D01*
X78366832Y-141018303D01*
X78414451Y-141065922D01*
X78462070Y-141161160D01*
X78462070Y-141446874D01*
X78414451Y-141542112D01*
X78366832Y-141589731D01*
X78271594Y-141637350D01*
X78128737Y-141637350D01*
X79033499Y-141637350D02*
X78938261Y-141589731D01*
X78890642Y-141494493D01*
X78890642Y-140637350D01*
X79795404Y-141589731D02*
X79700166Y-141637350D01*
X79509690Y-141637350D01*
X79414451Y-141589731D01*
X79366832Y-141494493D01*
X79366832Y-141113541D01*
X79414451Y-141018303D01*
X79509690Y-140970684D01*
X79700166Y-140970684D01*
X79795404Y-141018303D01*
X79843023Y-141113541D01*
X79843023Y-141208779D01*
X79366832Y-141304017D01*
X89274055Y-113062230D02*
X89274055Y-112062230D01*
X89607389Y-112776516D01*
X89940722Y-112062230D01*
X89940722Y-113062230D01*
X90559770Y-113062230D02*
X90464531Y-113014611D01*
X90416912Y-112966992D01*
X90369293Y-112871754D01*
X90369293Y-112586040D01*
X90416912Y-112490802D01*
X90464531Y-112443183D01*
X90559770Y-112395564D01*
X90702627Y-112395564D01*
X90797865Y-112443183D01*
X90845484Y-112490802D01*
X90893103Y-112586040D01*
X90893103Y-112871754D01*
X90845484Y-112966992D01*
X90797865Y-113014611D01*
X90702627Y-113062230D01*
X90559770Y-113062230D01*
X91750246Y-112395564D02*
X91750246Y-113062230D01*
X91321674Y-112395564D02*
X91321674Y-112919373D01*
X91369293Y-113014611D01*
X91464531Y-113062230D01*
X91607389Y-113062230D01*
X91702627Y-113014611D01*
X91750246Y-112966992D01*
X92226436Y-112395564D02*
X92226436Y-113062230D01*
X92226436Y-112490802D02*
X92274055Y-112443183D01*
X92369293Y-112395564D01*
X92512150Y-112395564D01*
X92607389Y-112443183D01*
X92655008Y-112538421D01*
X92655008Y-113062230D01*
X92988341Y-112395564D02*
X93369293Y-112395564D01*
X93131198Y-112062230D02*
X93131198Y-112919373D01*
X93178817Y-113014611D01*
X93274055Y-113062230D01*
X93369293Y-113062230D01*
X93702627Y-113062230D02*
X93702627Y-112395564D01*
X93702627Y-112062230D02*
X93655008Y-112109850D01*
X93702627Y-112157469D01*
X93750246Y-112109850D01*
X93702627Y-112062230D01*
X93702627Y-112157469D01*
X94178817Y-112395564D02*
X94178817Y-113062230D01*
X94178817Y-112490802D02*
X94226436Y-112443183D01*
X94321674Y-112395564D01*
X94464531Y-112395564D01*
X94559770Y-112443183D01*
X94607389Y-112538421D01*
X94607389Y-113062230D01*
X95512150Y-112395564D02*
X95512150Y-113205088D01*
X95464531Y-113300326D01*
X95416912Y-113347945D01*
X95321674Y-113395564D01*
X95178817Y-113395564D01*
X95083579Y-113347945D01*
X95512150Y-113014611D02*
X95416912Y-113062230D01*
X95226436Y-113062230D01*
X95131198Y-113014611D01*
X95083579Y-112966992D01*
X95035960Y-112871754D01*
X95035960Y-112586040D01*
X95083579Y-112490802D01*
X95131198Y-112443183D01*
X95226436Y-112395564D01*
X95416912Y-112395564D01*
X95512150Y-112443183D01*
X95988341Y-113062230D02*
X95988341Y-112062230D01*
X95988341Y-112538421D02*
X96559770Y-112538421D01*
X96559770Y-113062230D02*
X96559770Y-112062230D01*
X97178817Y-113062230D02*
X97083579Y-113014611D01*
X97035960Y-112966992D01*
X96988341Y-112871754D01*
X96988341Y-112586040D01*
X97035960Y-112490802D01*
X97083579Y-112443183D01*
X97178817Y-112395564D01*
X97321674Y-112395564D01*
X97416912Y-112443183D01*
X97464531Y-112490802D01*
X97512150Y-112586040D01*
X97512150Y-112871754D01*
X97464531Y-112966992D01*
X97416912Y-113014611D01*
X97321674Y-113062230D01*
X97178817Y-113062230D01*
X98083579Y-113062230D02*
X97988341Y-113014611D01*
X97940722Y-112919373D01*
X97940722Y-112062230D01*
X98845484Y-113014611D02*
X98750246Y-113062230D01*
X98559770Y-113062230D01*
X98464531Y-113014611D01*
X98416912Y-112919373D01*
X98416912Y-112538421D01*
X98464531Y-112443183D01*
X98559770Y-112395564D01*
X98750246Y-112395564D01*
X98845484Y-112443183D01*
X98893103Y-112538421D01*
X98893103Y-112633659D01*
X98416912Y-112728897D01*
X51173895Y-113062230D02*
X51173895Y-112062230D01*
X51507229Y-112776516D01*
X51840562Y-112062230D01*
X51840562Y-113062230D01*
X52459610Y-113062230D02*
X52364371Y-113014611D01*
X52316752Y-112966992D01*
X52269133Y-112871754D01*
X52269133Y-112586040D01*
X52316752Y-112490802D01*
X52364371Y-112443183D01*
X52459610Y-112395564D01*
X52602467Y-112395564D01*
X52697705Y-112443183D01*
X52745324Y-112490802D01*
X52792943Y-112586040D01*
X52792943Y-112871754D01*
X52745324Y-112966992D01*
X52697705Y-113014611D01*
X52602467Y-113062230D01*
X52459610Y-113062230D01*
X53650086Y-112395564D02*
X53650086Y-113062230D01*
X53221514Y-112395564D02*
X53221514Y-112919373D01*
X53269133Y-113014611D01*
X53364371Y-113062230D01*
X53507229Y-113062230D01*
X53602467Y-113014611D01*
X53650086Y-112966992D01*
X54126276Y-112395564D02*
X54126276Y-113062230D01*
X54126276Y-112490802D02*
X54173895Y-112443183D01*
X54269133Y-112395564D01*
X54411990Y-112395564D01*
X54507229Y-112443183D01*
X54554848Y-112538421D01*
X54554848Y-113062230D01*
X54888181Y-112395564D02*
X55269133Y-112395564D01*
X55031038Y-112062230D02*
X55031038Y-112919373D01*
X55078657Y-113014611D01*
X55173895Y-113062230D01*
X55269133Y-113062230D01*
X55602467Y-113062230D02*
X55602467Y-112395564D01*
X55602467Y-112062230D02*
X55554848Y-112109850D01*
X55602467Y-112157469D01*
X55650086Y-112109850D01*
X55602467Y-112062230D01*
X55602467Y-112157469D01*
X56078657Y-112395564D02*
X56078657Y-113062230D01*
X56078657Y-112490802D02*
X56126276Y-112443183D01*
X56221514Y-112395564D01*
X56364371Y-112395564D01*
X56459610Y-112443183D01*
X56507229Y-112538421D01*
X56507229Y-113062230D01*
X57411990Y-112395564D02*
X57411990Y-113205088D01*
X57364371Y-113300326D01*
X57316752Y-113347945D01*
X57221514Y-113395564D01*
X57078657Y-113395564D01*
X56983419Y-113347945D01*
X57411990Y-113014611D02*
X57316752Y-113062230D01*
X57126276Y-113062230D01*
X57031038Y-113014611D01*
X56983419Y-112966992D01*
X56935800Y-112871754D01*
X56935800Y-112586040D01*
X56983419Y-112490802D01*
X57031038Y-112443183D01*
X57126276Y-112395564D01*
X57316752Y-112395564D01*
X57411990Y-112443183D01*
X57888181Y-113062230D02*
X57888181Y-112062230D01*
X57888181Y-112538421D02*
X58459610Y-112538421D01*
X58459610Y-113062230D02*
X58459610Y-112062230D01*
X59078657Y-113062230D02*
X58983419Y-113014611D01*
X58935800Y-112966992D01*
X58888181Y-112871754D01*
X58888181Y-112586040D01*
X58935800Y-112490802D01*
X58983419Y-112443183D01*
X59078657Y-112395564D01*
X59221514Y-112395564D01*
X59316752Y-112443183D01*
X59364371Y-112490802D01*
X59411990Y-112586040D01*
X59411990Y-112871754D01*
X59364371Y-112966992D01*
X59316752Y-113014611D01*
X59221514Y-113062230D01*
X59078657Y-113062230D01*
X59983419Y-113062230D02*
X59888181Y-113014611D01*
X59840562Y-112919373D01*
X59840562Y-112062230D01*
X60745324Y-113014611D02*
X60650086Y-113062230D01*
X60459610Y-113062230D01*
X60364371Y-113014611D01*
X60316752Y-112919373D01*
X60316752Y-112538421D01*
X60364371Y-112443183D01*
X60459610Y-112395564D01*
X60650086Y-112395564D01*
X60745324Y-112443183D01*
X60792943Y-112538421D01*
X60792943Y-112633659D01*
X60316752Y-112728897D01*
X89274055Y-55911990D02*
X89274055Y-54911990D01*
X89607389Y-55626276D01*
X89940722Y-54911990D01*
X89940722Y-55911990D01*
X90559770Y-55911990D02*
X90464531Y-55864371D01*
X90416912Y-55816752D01*
X90369293Y-55721514D01*
X90369293Y-55435800D01*
X90416912Y-55340562D01*
X90464531Y-55292943D01*
X90559770Y-55245324D01*
X90702627Y-55245324D01*
X90797865Y-55292943D01*
X90845484Y-55340562D01*
X90893103Y-55435800D01*
X90893103Y-55721514D01*
X90845484Y-55816752D01*
X90797865Y-55864371D01*
X90702627Y-55911990D01*
X90559770Y-55911990D01*
X91750246Y-55245324D02*
X91750246Y-55911990D01*
X91321674Y-55245324D02*
X91321674Y-55769133D01*
X91369293Y-55864371D01*
X91464531Y-55911990D01*
X91607389Y-55911990D01*
X91702627Y-55864371D01*
X91750246Y-55816752D01*
X92226436Y-55245324D02*
X92226436Y-55911990D01*
X92226436Y-55340562D02*
X92274055Y-55292943D01*
X92369293Y-55245324D01*
X92512150Y-55245324D01*
X92607389Y-55292943D01*
X92655008Y-55388181D01*
X92655008Y-55911990D01*
X92988341Y-55245324D02*
X93369293Y-55245324D01*
X93131198Y-54911990D02*
X93131198Y-55769133D01*
X93178817Y-55864371D01*
X93274055Y-55911990D01*
X93369293Y-55911990D01*
X93702627Y-55911990D02*
X93702627Y-55245324D01*
X93702627Y-54911990D02*
X93655008Y-54959610D01*
X93702627Y-55007229D01*
X93750246Y-54959610D01*
X93702627Y-54911990D01*
X93702627Y-55007229D01*
X94178817Y-55245324D02*
X94178817Y-55911990D01*
X94178817Y-55340562D02*
X94226436Y-55292943D01*
X94321674Y-55245324D01*
X94464531Y-55245324D01*
X94559770Y-55292943D01*
X94607389Y-55388181D01*
X94607389Y-55911990D01*
X95512150Y-55245324D02*
X95512150Y-56054848D01*
X95464531Y-56150086D01*
X95416912Y-56197705D01*
X95321674Y-56245324D01*
X95178817Y-56245324D01*
X95083579Y-56197705D01*
X95512150Y-55864371D02*
X95416912Y-55911990D01*
X95226436Y-55911990D01*
X95131198Y-55864371D01*
X95083579Y-55816752D01*
X95035960Y-55721514D01*
X95035960Y-55435800D01*
X95083579Y-55340562D01*
X95131198Y-55292943D01*
X95226436Y-55245324D01*
X95416912Y-55245324D01*
X95512150Y-55292943D01*
X95988341Y-55911990D02*
X95988341Y-54911990D01*
X95988341Y-55388181D02*
X96559770Y-55388181D01*
X96559770Y-55911990D02*
X96559770Y-54911990D01*
X97178817Y-55911990D02*
X97083579Y-55864371D01*
X97035960Y-55816752D01*
X96988341Y-55721514D01*
X96988341Y-55435800D01*
X97035960Y-55340562D01*
X97083579Y-55292943D01*
X97178817Y-55245324D01*
X97321674Y-55245324D01*
X97416912Y-55292943D01*
X97464531Y-55340562D01*
X97512150Y-55435800D01*
X97512150Y-55721514D01*
X97464531Y-55816752D01*
X97416912Y-55864371D01*
X97321674Y-55911990D01*
X97178817Y-55911990D01*
X98083579Y-55911990D02*
X97988341Y-55864371D01*
X97940722Y-55769133D01*
X97940722Y-54911990D01*
X98845484Y-55864371D02*
X98750246Y-55911990D01*
X98559770Y-55911990D01*
X98464531Y-55864371D01*
X98416912Y-55769133D01*
X98416912Y-55388181D01*
X98464531Y-55292943D01*
X98559770Y-55245324D01*
X98750246Y-55245324D01*
X98845484Y-55292943D01*
X98893103Y-55388181D01*
X98893103Y-55483419D01*
X98416912Y-55578657D01*
X51173895Y-55911990D02*
X51173895Y-54911990D01*
X51507229Y-55626276D01*
X51840562Y-54911990D01*
X51840562Y-55911990D01*
X52459610Y-55911990D02*
X52364371Y-55864371D01*
X52316752Y-55816752D01*
X52269133Y-55721514D01*
X52269133Y-55435800D01*
X52316752Y-55340562D01*
X52364371Y-55292943D01*
X52459610Y-55245324D01*
X52602467Y-55245324D01*
X52697705Y-55292943D01*
X52745324Y-55340562D01*
X52792943Y-55435800D01*
X52792943Y-55721514D01*
X52745324Y-55816752D01*
X52697705Y-55864371D01*
X52602467Y-55911990D01*
X52459610Y-55911990D01*
X53650086Y-55245324D02*
X53650086Y-55911990D01*
X53221514Y-55245324D02*
X53221514Y-55769133D01*
X53269133Y-55864371D01*
X53364371Y-55911990D01*
X53507229Y-55911990D01*
X53602467Y-55864371D01*
X53650086Y-55816752D01*
X54126276Y-55245324D02*
X54126276Y-55911990D01*
X54126276Y-55340562D02*
X54173895Y-55292943D01*
X54269133Y-55245324D01*
X54411990Y-55245324D01*
X54507229Y-55292943D01*
X54554848Y-55388181D01*
X54554848Y-55911990D01*
X54888181Y-55245324D02*
X55269133Y-55245324D01*
X55031038Y-54911990D02*
X55031038Y-55769133D01*
X55078657Y-55864371D01*
X55173895Y-55911990D01*
X55269133Y-55911990D01*
X55602467Y-55911990D02*
X55602467Y-55245324D01*
X55602467Y-54911990D02*
X55554848Y-54959610D01*
X55602467Y-55007229D01*
X55650086Y-54959610D01*
X55602467Y-54911990D01*
X55602467Y-55007229D01*
X56078657Y-55245324D02*
X56078657Y-55911990D01*
X56078657Y-55340562D02*
X56126276Y-55292943D01*
X56221514Y-55245324D01*
X56364371Y-55245324D01*
X56459610Y-55292943D01*
X56507229Y-55388181D01*
X56507229Y-55911990D01*
X57411990Y-55245324D02*
X57411990Y-56054848D01*
X57364371Y-56150086D01*
X57316752Y-56197705D01*
X57221514Y-56245324D01*
X57078657Y-56245324D01*
X56983419Y-56197705D01*
X57411990Y-55864371D02*
X57316752Y-55911990D01*
X57126276Y-55911990D01*
X57031038Y-55864371D01*
X56983419Y-55816752D01*
X56935800Y-55721514D01*
X56935800Y-55435800D01*
X56983419Y-55340562D01*
X57031038Y-55292943D01*
X57126276Y-55245324D01*
X57316752Y-55245324D01*
X57411990Y-55292943D01*
X57888181Y-55911990D02*
X57888181Y-54911990D01*
X57888181Y-55388181D02*
X58459610Y-55388181D01*
X58459610Y-55911990D02*
X58459610Y-54911990D01*
X59078657Y-55911990D02*
X58983419Y-55864371D01*
X58935800Y-55816752D01*
X58888181Y-55721514D01*
X58888181Y-55435800D01*
X58935800Y-55340562D01*
X58983419Y-55292943D01*
X59078657Y-55245324D01*
X59221514Y-55245324D01*
X59316752Y-55292943D01*
X59364371Y-55340562D01*
X59411990Y-55435800D01*
X59411990Y-55721514D01*
X59364371Y-55816752D01*
X59316752Y-55864371D01*
X59221514Y-55911990D01*
X59078657Y-55911990D01*
X59983419Y-55911990D02*
X59888181Y-55864371D01*
X59840562Y-55769133D01*
X59840562Y-54911990D01*
X60745324Y-55864371D02*
X60650086Y-55911990D01*
X60459610Y-55911990D01*
X60364371Y-55864371D01*
X60316752Y-55769133D01*
X60316752Y-55388181D01*
X60364371Y-55292943D01*
X60459610Y-55245324D01*
X60650086Y-55245324D01*
X60745324Y-55292943D01*
X60792943Y-55388181D01*
X60792943Y-55483419D01*
X60316752Y-55578657D01*
X37100467Y-48464380D02*
X37338562Y-49464380D01*
X37529039Y-48750095D01*
X37719515Y-49464380D01*
X37957610Y-48464380D01*
X38290943Y-49416761D02*
X38433800Y-49464380D01*
X38671896Y-49464380D01*
X38767134Y-49416761D01*
X38814753Y-49369142D01*
X38862372Y-49273904D01*
X38862372Y-49178666D01*
X38814753Y-49083428D01*
X38767134Y-49035809D01*
X38671896Y-48988190D01*
X38481420Y-48940571D01*
X38386181Y-48892952D01*
X38338562Y-48845333D01*
X38290943Y-48750095D01*
X38290943Y-48654857D01*
X38338562Y-48559619D01*
X38386181Y-48512000D01*
X38481420Y-48464380D01*
X38719515Y-48464380D01*
X38862372Y-48512000D01*
X39243324Y-48559619D02*
X39290943Y-48512000D01*
X39386181Y-48464380D01*
X39624277Y-48464380D01*
X39719515Y-48512000D01*
X39767134Y-48559619D01*
X39814753Y-48654857D01*
X39814753Y-48750095D01*
X39767134Y-48892952D01*
X39195705Y-49464380D01*
X39814753Y-49464380D01*
X40386181Y-48892952D02*
X40290943Y-48845333D01*
X40243324Y-48797714D01*
X40195705Y-48702476D01*
X40195705Y-48654857D01*
X40243324Y-48559619D01*
X40290943Y-48512000D01*
X40386181Y-48464380D01*
X40576658Y-48464380D01*
X40671896Y-48512000D01*
X40719515Y-48559619D01*
X40767134Y-48654857D01*
X40767134Y-48702476D01*
X40719515Y-48797714D01*
X40671896Y-48845333D01*
X40576658Y-48892952D01*
X40386181Y-48892952D01*
X40290943Y-48940571D01*
X40243324Y-48988190D01*
X40195705Y-49083428D01*
X40195705Y-49273904D01*
X40243324Y-49369142D01*
X40290943Y-49416761D01*
X40386181Y-49464380D01*
X40576658Y-49464380D01*
X40671896Y-49416761D01*
X40719515Y-49369142D01*
X40767134Y-49273904D01*
X40767134Y-49083428D01*
X40719515Y-48988190D01*
X40671896Y-48940571D01*
X40576658Y-48892952D01*
X41719515Y-49464380D02*
X41148086Y-49464380D01*
X41433800Y-49464380D02*
X41433800Y-48464380D01*
X41338562Y-48607238D01*
X41243324Y-48702476D01*
X41148086Y-48750095D01*
X42671896Y-49464380D02*
X42100467Y-49464380D01*
X42386181Y-49464380D02*
X42386181Y-48464380D01*
X42290943Y-48607238D01*
X42195705Y-48702476D01*
X42100467Y-48750095D01*
X43100467Y-49464380D02*
X43100467Y-48464380D01*
X43433800Y-49178666D01*
X43767134Y-48464380D01*
X43767134Y-49464380D01*
D14*
X42712634Y-52492285D02*
X42712634Y-52663714D01*
X42712634Y-52578000D02*
X42412634Y-52578000D01*
X42455491Y-52606571D01*
X42484062Y-52635142D01*
X42498348Y-52663714D01*
D15*
X40024277Y-51233428D02*
X40024277Y-51719142D01*
X40052848Y-51776285D01*
X40081420Y-51804857D01*
X40138562Y-51833428D01*
X40252848Y-51833428D01*
X40309991Y-51804857D01*
X40338562Y-51776285D01*
X40367134Y-51719142D01*
X40367134Y-51233428D01*
X40967134Y-51833428D02*
X40624277Y-51833428D01*
X40795705Y-51833428D02*
X40795705Y-51233428D01*
X40738562Y-51319142D01*
X40681420Y-51376285D01*
X40624277Y-51404857D01*
D10*
X49887070Y-54467110D02*
X49887070Y-54943301D01*
X48887070Y-54943301D01*
X49363261Y-54133777D02*
X49363261Y-53800444D01*
X49887070Y-53657587D02*
X49887070Y-54133777D01*
X48887070Y-54133777D01*
X48887070Y-53657587D01*
X49887070Y-53229015D02*
X48887070Y-53229015D01*
X48887070Y-52990920D01*
X48934690Y-52848063D01*
X49029928Y-52752825D01*
X49125166Y-52705206D01*
X49315642Y-52657587D01*
X49458499Y-52657587D01*
X49648975Y-52705206D01*
X49744213Y-52752825D01*
X49839451Y-52848063D01*
X49887070Y-52990920D01*
X49887070Y-53229015D01*
X49982309Y-52467110D02*
X49982309Y-51705206D01*
X48934690Y-50943301D02*
X48887070Y-51038539D01*
X48887070Y-51181396D01*
X48934690Y-51324253D01*
X49029928Y-51419491D01*
X49125166Y-51467110D01*
X49315642Y-51514730D01*
X49458499Y-51514730D01*
X49648975Y-51467110D01*
X49744213Y-51419491D01*
X49839451Y-51324253D01*
X49887070Y-51181396D01*
X49887070Y-51086158D01*
X49839451Y-50943301D01*
X49791832Y-50895682D01*
X49458499Y-50895682D01*
X49458499Y-51086158D01*
X49363261Y-50133777D02*
X49410880Y-49990920D01*
X49458499Y-49943301D01*
X49553737Y-49895682D01*
X49696594Y-49895682D01*
X49791832Y-49943301D01*
X49839451Y-49990920D01*
X49887070Y-50086158D01*
X49887070Y-50467110D01*
X48887070Y-50467110D01*
X48887070Y-50133777D01*
X48934690Y-50038539D01*
X48982309Y-49990920D01*
X49077547Y-49943301D01*
X49172785Y-49943301D01*
X49268023Y-49990920D01*
X49315642Y-50038539D01*
X49363261Y-50133777D01*
X49363261Y-50467110D01*
X49887070Y-48895682D02*
X49410880Y-49229015D01*
X49887070Y-49467110D02*
X48887070Y-49467110D01*
X48887070Y-49086158D01*
X48934690Y-48990920D01*
X48982309Y-48943301D01*
X49077547Y-48895682D01*
X49220404Y-48895682D01*
X49315642Y-48943301D01*
X49363261Y-48990920D01*
X49410880Y-49086158D01*
X49410880Y-49467110D01*
X49601356Y-48514730D02*
X49601356Y-48038539D01*
X49887070Y-48609968D02*
X48887070Y-48276634D01*
X49887070Y-47943301D01*
D17*
X72002813Y-68248451D02*
X71978623Y-68296832D01*
X71954432Y-68321023D01*
X71906051Y-68345213D01*
X71881861Y-68345213D01*
X71833480Y-68321023D01*
X71809290Y-68296832D01*
X71785099Y-68248451D01*
X71785099Y-68151690D01*
X71809290Y-68103309D01*
X71833480Y-68079118D01*
X71881861Y-68054928D01*
X71906051Y-68054928D01*
X71954432Y-68079118D01*
X71978623Y-68103309D01*
X72002813Y-68151690D01*
X72002813Y-68248451D01*
X72027004Y-68296832D01*
X72051194Y-68321023D01*
X72099575Y-68345213D01*
X72196337Y-68345213D01*
X72244718Y-68321023D01*
X72268909Y-68296832D01*
X72293099Y-68248451D01*
X72293099Y-68151690D01*
X72268909Y-68103309D01*
X72244718Y-68079118D01*
X72196337Y-68054928D01*
X72099575Y-68054928D01*
X72051194Y-68079118D01*
X72027004Y-68103309D01*
X72002813Y-68151690D01*
X72244718Y-67837213D02*
X72268909Y-67813023D01*
X72293099Y-67837213D01*
X72268909Y-67861404D01*
X72244718Y-67837213D01*
X72293099Y-67837213D01*
X71833480Y-67619499D02*
X71809290Y-67595309D01*
X71785099Y-67546928D01*
X71785099Y-67425975D01*
X71809290Y-67377594D01*
X71833480Y-67353404D01*
X71881861Y-67329213D01*
X71930242Y-67329213D01*
X72002813Y-67353404D01*
X72293099Y-67643690D01*
X72293099Y-67329213D01*
X71954432Y-67111499D02*
X72462432Y-67111499D01*
X71978623Y-67111499D02*
X71954432Y-67063118D01*
X71954432Y-66966356D01*
X71978623Y-66917975D01*
X72002813Y-66893785D01*
X72051194Y-66869594D01*
X72196337Y-66869594D01*
X72244718Y-66893785D01*
X72268909Y-66917975D01*
X72293099Y-66966356D01*
X72293099Y-67063118D01*
X72268909Y-67111499D01*
X72027004Y-66482547D02*
X72027004Y-66651880D01*
X72293099Y-66651880D02*
X71785099Y-66651880D01*
X71785099Y-66409975D01*
D18*
X73041575Y-67550404D02*
X73053480Y-67562309D01*
X73065385Y-67598023D01*
X73065385Y-67621832D01*
X73053480Y-67657547D01*
X73029670Y-67681356D01*
X73005861Y-67693261D01*
X72958242Y-67705166D01*
X72922528Y-67705166D01*
X72874909Y-67693261D01*
X72851099Y-67681356D01*
X72827290Y-67657547D01*
X72815385Y-67621832D01*
X72815385Y-67598023D01*
X72827290Y-67562309D01*
X72839194Y-67550404D01*
X72815385Y-67467070D02*
X73065385Y-67300404D01*
X72815385Y-67300404D02*
X73065385Y-67467070D01*
X72839194Y-67217070D02*
X72827290Y-67205166D01*
X72815385Y-67181356D01*
X72815385Y-67121832D01*
X72827290Y-67098023D01*
X72839194Y-67086118D01*
X72863004Y-67074213D01*
X72886813Y-67074213D01*
X72922528Y-67086118D01*
X73065385Y-67228975D01*
X73065385Y-67074213D01*
D17*
X78425523Y-68248371D02*
X78401333Y-68296752D01*
X78377142Y-68320943D01*
X78328761Y-68345133D01*
X78304571Y-68345133D01*
X78256190Y-68320943D01*
X78232000Y-68296752D01*
X78207809Y-68248371D01*
X78207809Y-68151610D01*
X78232000Y-68103229D01*
X78256190Y-68079038D01*
X78304571Y-68054848D01*
X78328761Y-68054848D01*
X78377142Y-68079038D01*
X78401333Y-68103229D01*
X78425523Y-68151610D01*
X78425523Y-68248371D01*
X78449714Y-68296752D01*
X78473904Y-68320943D01*
X78522285Y-68345133D01*
X78619047Y-68345133D01*
X78667428Y-68320943D01*
X78691619Y-68296752D01*
X78715809Y-68248371D01*
X78715809Y-68151610D01*
X78691619Y-68103229D01*
X78667428Y-68079038D01*
X78619047Y-68054848D01*
X78522285Y-68054848D01*
X78473904Y-68079038D01*
X78449714Y-68103229D01*
X78425523Y-68151610D01*
X78667428Y-67837133D02*
X78691619Y-67812943D01*
X78715809Y-67837133D01*
X78691619Y-67861324D01*
X78667428Y-67837133D01*
X78715809Y-67837133D01*
X78256190Y-67619419D02*
X78232000Y-67595229D01*
X78207809Y-67546848D01*
X78207809Y-67425895D01*
X78232000Y-67377514D01*
X78256190Y-67353324D01*
X78304571Y-67329133D01*
X78352952Y-67329133D01*
X78425523Y-67353324D01*
X78715809Y-67643610D01*
X78715809Y-67329133D01*
X78377142Y-67111419D02*
X78885142Y-67111419D01*
X78401333Y-67111419D02*
X78377142Y-67063038D01*
X78377142Y-66966276D01*
X78401333Y-66917895D01*
X78425523Y-66893705D01*
X78473904Y-66869514D01*
X78619047Y-66869514D01*
X78667428Y-66893705D01*
X78691619Y-66917895D01*
X78715809Y-66966276D01*
X78715809Y-67063038D01*
X78691619Y-67111419D01*
X78449714Y-66482467D02*
X78449714Y-66651800D01*
X78715809Y-66651800D02*
X78207809Y-66651800D01*
X78207809Y-66409895D01*
D18*
X77613575Y-67550404D02*
X77625480Y-67562309D01*
X77637385Y-67598023D01*
X77637385Y-67621832D01*
X77625480Y-67657547D01*
X77601670Y-67681356D01*
X77577861Y-67693261D01*
X77530242Y-67705166D01*
X77494528Y-67705166D01*
X77446909Y-67693261D01*
X77423099Y-67681356D01*
X77399290Y-67657547D01*
X77387385Y-67621832D01*
X77387385Y-67598023D01*
X77399290Y-67562309D01*
X77411194Y-67550404D01*
X77387385Y-67467070D02*
X77637385Y-67300404D01*
X77387385Y-67300404D02*
X77637385Y-67467070D01*
X77637385Y-67074213D02*
X77637385Y-67217070D01*
X77637385Y-67145642D02*
X77387385Y-67145642D01*
X77423099Y-67169451D01*
X77446909Y-67193261D01*
X77458813Y-67217070D01*
D17*
X74379528Y-69524539D02*
X74089242Y-69524539D01*
X74234385Y-69524539D02*
X74234385Y-69016539D01*
X74186004Y-69089110D01*
X74137623Y-69137491D01*
X74089242Y-69161682D01*
X74814956Y-69016539D02*
X74718194Y-69016539D01*
X74669813Y-69040730D01*
X74645623Y-69064920D01*
X74597242Y-69137491D01*
X74573051Y-69234253D01*
X74573051Y-69427777D01*
X74597242Y-69476158D01*
X74621432Y-69500349D01*
X74669813Y-69524539D01*
X74766575Y-69524539D01*
X74814956Y-69500349D01*
X74839147Y-69476158D01*
X74863337Y-69427777D01*
X74863337Y-69306825D01*
X74839147Y-69258444D01*
X74814956Y-69234253D01*
X74766575Y-69210063D01*
X74669813Y-69210063D01*
X74621432Y-69234253D01*
X74597242Y-69258444D01*
X74573051Y-69306825D01*
X75081051Y-69524539D02*
X75081051Y-69016539D01*
X75250385Y-69379396D01*
X75419718Y-69016539D01*
X75419718Y-69524539D01*
X75661623Y-69524539D02*
X75661623Y-69016539D01*
X75661623Y-69258444D02*
X75951909Y-69258444D01*
X75951909Y-69524539D02*
X75951909Y-69016539D01*
X76145432Y-69185872D02*
X76411528Y-69185872D01*
X76145432Y-69524539D01*
X76411528Y-69524539D01*
D14*
X74833608Y-67115920D02*
X75166941Y-67615920D01*
X75166941Y-67115920D02*
X74833608Y-67615920D01*
X75619322Y-67615920D02*
X75333608Y-67615920D01*
X75476465Y-67615920D02*
X75476465Y-67115920D01*
X75428846Y-67187349D01*
X75381227Y-67234968D01*
X75333608Y-67258777D01*
D19*
X74416983Y-76158737D02*
X74416983Y-76037785D01*
X74489554Y-76182928D02*
X74235554Y-76098261D01*
X74489554Y-76013594D01*
X74235554Y-75965213D02*
X74235554Y-75820070D01*
X74489554Y-75892642D02*
X74235554Y-75892642D01*
X74489554Y-75735404D02*
X74235554Y-75735404D01*
X74416983Y-75650737D01*
X74235554Y-75566070D01*
X74489554Y-75566070D01*
X74356507Y-75445118D02*
X74356507Y-75360451D01*
X74489554Y-75324166D02*
X74489554Y-75445118D01*
X74235554Y-75445118D01*
X74235554Y-75324166D01*
X74247650Y-75082261D02*
X74235554Y-75106451D01*
X74235554Y-75142737D01*
X74247650Y-75179023D01*
X74271840Y-75203213D01*
X74296030Y-75215309D01*
X74344411Y-75227404D01*
X74380697Y-75227404D01*
X74429078Y-75215309D01*
X74453269Y-75203213D01*
X74477459Y-75179023D01*
X74489554Y-75142737D01*
X74489554Y-75118547D01*
X74477459Y-75082261D01*
X74465364Y-75070166D01*
X74380697Y-75070166D01*
X74380697Y-75118547D01*
X74416983Y-74973404D02*
X74416983Y-74852451D01*
X74489554Y-74997594D02*
X74235554Y-74912928D01*
X74489554Y-74828261D01*
X74235554Y-74767785D02*
X74235554Y-74610547D01*
X74332316Y-74695213D01*
X74332316Y-74658928D01*
X74344411Y-74634737D01*
X74356507Y-74622642D01*
X74380697Y-74610547D01*
X74441173Y-74610547D01*
X74465364Y-74622642D01*
X74477459Y-74634737D01*
X74489554Y-74658928D01*
X74489554Y-74731499D01*
X74477459Y-74755690D01*
X74465364Y-74767785D01*
X74259745Y-74513785D02*
X74247650Y-74501690D01*
X74235554Y-74477499D01*
X74235554Y-74417023D01*
X74247650Y-74392832D01*
X74259745Y-74380737D01*
X74283935Y-74368642D01*
X74308126Y-74368642D01*
X74344411Y-74380737D01*
X74489554Y-74525880D01*
X74489554Y-74368642D01*
X74235554Y-74259785D02*
X74441173Y-74259785D01*
X74465364Y-74247690D01*
X74477459Y-74235594D01*
X74489554Y-74211404D01*
X74489554Y-74163023D01*
X74477459Y-74138832D01*
X74465364Y-74126737D01*
X74441173Y-74114642D01*
X74235554Y-74114642D01*
X74320221Y-73884832D02*
X74489554Y-73884832D01*
X74223459Y-73945309D02*
X74404888Y-74005785D01*
X74404888Y-73848547D01*
D10*
X77086118Y-77821118D02*
X76743261Y-77821118D01*
X76914690Y-77821118D02*
X76914690Y-77221118D01*
X76857547Y-77306832D01*
X76800404Y-77363975D01*
X76743261Y-77392547D01*
X73771594Y-74462070D02*
X73771594Y-75271594D01*
X73819213Y-75366832D01*
X73866832Y-75414451D01*
X73962070Y-75462070D01*
X74152547Y-75462070D01*
X74247785Y-75414451D01*
X74295404Y-75366832D01*
X74343023Y-75271594D01*
X74343023Y-74462070D01*
X74771594Y-74557309D02*
X74819213Y-74509690D01*
X74914451Y-74462070D01*
X75152547Y-74462070D01*
X75247785Y-74509690D01*
X75295404Y-74557309D01*
X75343023Y-74652547D01*
X75343023Y-74747785D01*
X75295404Y-74890642D01*
X74723975Y-75462070D01*
X75343023Y-75462070D01*
X75819213Y-75462070D02*
X76009690Y-75462070D01*
X76104928Y-75414451D01*
X76152547Y-75366832D01*
X76247785Y-75223975D01*
X76295404Y-75033499D01*
X76295404Y-74652547D01*
X76247785Y-74557309D01*
X76200166Y-74509690D01*
X76104928Y-74462070D01*
X75914451Y-74462070D01*
X75819213Y-74509690D01*
X75771594Y-74557309D01*
X75723975Y-74652547D01*
X75723975Y-74890642D01*
X75771594Y-74985880D01*
X75819213Y-75033499D01*
X75914451Y-75081118D01*
X76104928Y-75081118D01*
X76200166Y-75033499D01*
X76247785Y-74985880D01*
X76295404Y-74890642D01*
X90035960Y-43362800D02*
X90035960Y-44172324D01*
X90083579Y-44267562D01*
X90131198Y-44315181D01*
X90226436Y-44362800D01*
X90416912Y-44362800D01*
X90512150Y-44315181D01*
X90559770Y-44267562D01*
X90607389Y-44172324D01*
X90607389Y-43362800D01*
X91035960Y-44315181D02*
X91178817Y-44362800D01*
X91416912Y-44362800D01*
X91512150Y-44315181D01*
X91559770Y-44267562D01*
X91607389Y-44172324D01*
X91607389Y-44077086D01*
X91559770Y-43981848D01*
X91512150Y-43934229D01*
X91416912Y-43886610D01*
X91226436Y-43838991D01*
X91131198Y-43791372D01*
X91083579Y-43743753D01*
X91035960Y-43648515D01*
X91035960Y-43553277D01*
X91083579Y-43458039D01*
X91131198Y-43410420D01*
X91226436Y-43362800D01*
X91464531Y-43362800D01*
X91607389Y-43410420D01*
X92369293Y-43838991D02*
X92512150Y-43886610D01*
X92559770Y-43934229D01*
X92607389Y-44029467D01*
X92607389Y-44172324D01*
X92559770Y-44267562D01*
X92512150Y-44315181D01*
X92416912Y-44362800D01*
X92035960Y-44362800D01*
X92035960Y-43362800D01*
X92369293Y-43362800D01*
X92464531Y-43410420D01*
X92512150Y-43458039D01*
X92559770Y-43553277D01*
X92559770Y-43648515D01*
X92512150Y-43743753D01*
X92464531Y-43791372D01*
X92369293Y-43838991D01*
X92035960Y-43838991D01*
X92797865Y-44458039D02*
X93559770Y-44458039D01*
X94131198Y-43838991D02*
X94274055Y-43886610D01*
X94321674Y-43934229D01*
X94369293Y-44029467D01*
X94369293Y-44172324D01*
X94321674Y-44267562D01*
X94274055Y-44315181D01*
X94178817Y-44362800D01*
X93797865Y-44362800D01*
X93797865Y-43362800D01*
X94131198Y-43362800D01*
X94226436Y-43410420D01*
X94274055Y-43458039D01*
X94321674Y-43553277D01*
X94321674Y-43648515D01*
X94274055Y-43743753D01*
X94226436Y-43791372D01*
X94131198Y-43838991D01*
X93797865Y-43838991D01*
X94559770Y-44458039D02*
X95321674Y-44458039D01*
X95559770Y-44362800D02*
X95559770Y-43362800D01*
X95893103Y-44077086D01*
X96226436Y-43362800D01*
X96226436Y-44362800D01*
X96702627Y-44362800D02*
X96702627Y-43696134D01*
X96702627Y-43362800D02*
X96655008Y-43410420D01*
X96702627Y-43458039D01*
X96750246Y-43410420D01*
X96702627Y-43362800D01*
X96702627Y-43458039D01*
X97178817Y-43696134D02*
X97178817Y-44362800D01*
X97178817Y-43791372D02*
X97226436Y-43743753D01*
X97321674Y-43696134D01*
X97464531Y-43696134D01*
X97559770Y-43743753D01*
X97607389Y-43838991D01*
X97607389Y-44362800D01*
X98083579Y-44362800D02*
X98083579Y-43696134D01*
X98083579Y-43362800D02*
X98035960Y-43410420D01*
X98083579Y-43458039D01*
X98131198Y-43410420D01*
X98083579Y-43362800D01*
X98083579Y-43458039D01*
D20*
X91333579Y-36707610D02*
X91333579Y-36207610D01*
X91619293Y-36707610D02*
X91405008Y-36421896D01*
X91619293Y-36207610D02*
X91333579Y-36493324D01*
X91833579Y-36445705D02*
X92000246Y-36445705D01*
X92071674Y-36707610D02*
X91833579Y-36707610D01*
X91833579Y-36207610D01*
X92071674Y-36207610D01*
X92285960Y-36445705D02*
X92452627Y-36445705D01*
X92524055Y-36707610D02*
X92285960Y-36707610D01*
X92285960Y-36207610D01*
X92524055Y-36207610D01*
X92738341Y-36707610D02*
X92738341Y-36207610D01*
X92928817Y-36207610D01*
X92976436Y-36231420D01*
X93000246Y-36255229D01*
X93024055Y-36302848D01*
X93024055Y-36374277D01*
X93000246Y-36421896D01*
X92976436Y-36445705D01*
X92928817Y-36469515D01*
X92738341Y-36469515D01*
X93333579Y-36207610D02*
X93428817Y-36207610D01*
X93476436Y-36231420D01*
X93524055Y-36279039D01*
X93547865Y-36374277D01*
X93547865Y-36540943D01*
X93524055Y-36636181D01*
X93476436Y-36683800D01*
X93428817Y-36707610D01*
X93333579Y-36707610D01*
X93285960Y-36683800D01*
X93238341Y-36636181D01*
X93214531Y-36540943D01*
X93214531Y-36374277D01*
X93238341Y-36279039D01*
X93285960Y-36231420D01*
X93333579Y-36207610D01*
X93762150Y-36207610D02*
X93762150Y-36612372D01*
X93785960Y-36659991D01*
X93809770Y-36683800D01*
X93857389Y-36707610D01*
X93952627Y-36707610D01*
X94000246Y-36683800D01*
X94024055Y-36659991D01*
X94047865Y-36612372D01*
X94047865Y-36207610D01*
X94214531Y-36207610D02*
X94500246Y-36207610D01*
X94357389Y-36707610D02*
X94357389Y-36207610D01*
X95000246Y-36207610D02*
X95333579Y-36207610D01*
X95000246Y-36707610D01*
X95333579Y-36707610D01*
X95619293Y-36207610D02*
X95714531Y-36207610D01*
X95762150Y-36231420D01*
X95809770Y-36279039D01*
X95833579Y-36374277D01*
X95833579Y-36540943D01*
X95809770Y-36636181D01*
X95762150Y-36683800D01*
X95714531Y-36707610D01*
X95619293Y-36707610D01*
X95571674Y-36683800D01*
X95524055Y-36636181D01*
X95500246Y-36540943D01*
X95500246Y-36374277D01*
X95524055Y-36279039D01*
X95571674Y-36231420D01*
X95619293Y-36207610D01*
X96047865Y-36707610D02*
X96047865Y-36207610D01*
X96333579Y-36707610D01*
X96333579Y-36207610D01*
X96571674Y-36445705D02*
X96738341Y-36445705D01*
X96809770Y-36707610D02*
X96571674Y-36707610D01*
X96571674Y-36207610D01*
X96809770Y-36207610D01*
D10*
X90612150Y-50355206D02*
X91421674Y-50355206D01*
X91516912Y-50307587D01*
X91564531Y-50259968D01*
X91612150Y-50164730D01*
X91612150Y-49974253D01*
X91564531Y-49879015D01*
X91516912Y-49831396D01*
X91421674Y-49783777D01*
X90612150Y-49783777D01*
X91564531Y-49355206D02*
X91612150Y-49212349D01*
X91612150Y-48974253D01*
X91564531Y-48879015D01*
X91516912Y-48831396D01*
X91421674Y-48783777D01*
X91326436Y-48783777D01*
X91231198Y-48831396D01*
X91183579Y-48879015D01*
X91135960Y-48974253D01*
X91088341Y-49164730D01*
X91040722Y-49259968D01*
X90993103Y-49307587D01*
X90897865Y-49355206D01*
X90802627Y-49355206D01*
X90707389Y-49307587D01*
X90659770Y-49259968D01*
X90612150Y-49164730D01*
X90612150Y-48926634D01*
X90659770Y-48783777D01*
X91088341Y-48021872D02*
X91135960Y-47879015D01*
X91183579Y-47831396D01*
X91278817Y-47783777D01*
X91421674Y-47783777D01*
X91516912Y-47831396D01*
X91564531Y-47879015D01*
X91612150Y-47974253D01*
X91612150Y-48355206D01*
X90612150Y-48355206D01*
X90612150Y-48021872D01*
X90659770Y-47926634D01*
X90707389Y-47879015D01*
X90802627Y-47831396D01*
X90897865Y-47831396D01*
X90993103Y-47879015D01*
X91040722Y-47926634D01*
X91088341Y-48021872D01*
X91088341Y-48355206D01*
X91612150Y-46879015D02*
X91612150Y-47355206D01*
X90612150Y-47355206D01*
X91516912Y-45974253D02*
X91564531Y-46021872D01*
X91612150Y-46164730D01*
X91612150Y-46259968D01*
X91564531Y-46402825D01*
X91469293Y-46498063D01*
X91374055Y-46545682D01*
X91183579Y-46593301D01*
X91040722Y-46593301D01*
X90850246Y-46545682D01*
X90755008Y-46498063D01*
X90659770Y-46402825D01*
X90612150Y-46259968D01*
X90612150Y-46164730D01*
X90659770Y-46021872D01*
X90707389Y-45974253D01*
X90612150Y-45117110D02*
X90612150Y-45307587D01*
X90659770Y-45402825D01*
X90707389Y-45450444D01*
X90850246Y-45545682D01*
X91040722Y-45593301D01*
X91421674Y-45593301D01*
X91516912Y-45545682D01*
X91564531Y-45498063D01*
X91612150Y-45402825D01*
X91612150Y-45212349D01*
X91564531Y-45117110D01*
X91516912Y-45069491D01*
X91421674Y-45021872D01*
X91183579Y-45021872D01*
X91088341Y-45069491D01*
X91040722Y-45117110D01*
X90993103Y-45212349D01*
X90993103Y-45402825D01*
X91040722Y-45498063D01*
X91088341Y-45545682D01*
X91183579Y-45593301D01*
X91231198Y-44593301D02*
X91231198Y-43831396D01*
X90707389Y-43402825D02*
X90659770Y-43355206D01*
X90612150Y-43259968D01*
X90612150Y-43021872D01*
X90659770Y-42926634D01*
X90707389Y-42879015D01*
X90802627Y-42831396D01*
X90897865Y-42831396D01*
X91040722Y-42879015D01*
X91612150Y-43450444D01*
X91612150Y-42831396D01*
X91564531Y-42450444D02*
X91612150Y-42307587D01*
X91612150Y-42069491D01*
X91564531Y-41974253D01*
X91516912Y-41926634D01*
X91421674Y-41879015D01*
X91326436Y-41879015D01*
X91231198Y-41926634D01*
X91183579Y-41974253D01*
X91135960Y-42069491D01*
X91088341Y-42259968D01*
X91040722Y-42355206D01*
X90993103Y-42402825D01*
X90897865Y-42450444D01*
X90802627Y-42450444D01*
X90707389Y-42402825D01*
X90659770Y-42355206D01*
X90612150Y-42259968D01*
X90612150Y-42021872D01*
X90659770Y-41879015D01*
X91516912Y-40879015D02*
X91564531Y-40926634D01*
X91612150Y-41069491D01*
X91612150Y-41164730D01*
X91564531Y-41307587D01*
X91469293Y-41402825D01*
X91374055Y-41450444D01*
X91183579Y-41498063D01*
X91040722Y-41498063D01*
X90850246Y-41450444D01*
X90755008Y-41402825D01*
X90659770Y-41307587D01*
X90612150Y-41164730D01*
X90612150Y-41069491D01*
X90659770Y-40926634D01*
X90707389Y-40879015D01*
X90612150Y-40021872D02*
X90612150Y-40212349D01*
X90659770Y-40307587D01*
X90707389Y-40355206D01*
X90850246Y-40450444D01*
X91040722Y-40498063D01*
X91421674Y-40498063D01*
X91516912Y-40450444D01*
X91564531Y-40402825D01*
X91612150Y-40307587D01*
X91612150Y-40117110D01*
X91564531Y-40021872D01*
X91516912Y-39974253D01*
X91421674Y-39926634D01*
X91183579Y-39926634D01*
X91088341Y-39974253D01*
X91040722Y-40021872D01*
X90993103Y-40117110D01*
X90993103Y-40307587D01*
X91040722Y-40402825D01*
X91088341Y-40450444D01*
X91183579Y-40498063D01*
D12*
X95190722Y-43950444D02*
X95190722Y-44179015D01*
X95190722Y-44064730D02*
X94790722Y-44064730D01*
X94847865Y-44102825D01*
X94885960Y-44140920D01*
X94905008Y-44179015D01*
D14*
X93440722Y-44890920D02*
X93440722Y-45295682D01*
X93464531Y-45343301D01*
X93488341Y-45367110D01*
X93535960Y-45390920D01*
X93631198Y-45390920D01*
X93678817Y-45367110D01*
X93702627Y-45343301D01*
X93726436Y-45295682D01*
X93726436Y-44890920D01*
X93940722Y-44938539D02*
X93964531Y-44914730D01*
X94012150Y-44890920D01*
X94131198Y-44890920D01*
X94178817Y-44914730D01*
X94202627Y-44938539D01*
X94226436Y-44986158D01*
X94226436Y-45033777D01*
X94202627Y-45105206D01*
X93916912Y-45390920D01*
X94226436Y-45390920D01*
X94512150Y-45105206D02*
X94464531Y-45081396D01*
X94440722Y-45057587D01*
X94416912Y-45009968D01*
X94416912Y-44986158D01*
X94440722Y-44938539D01*
X94464531Y-44914730D01*
X94512150Y-44890920D01*
X94607389Y-44890920D01*
X94655008Y-44914730D01*
X94678817Y-44938539D01*
X94702627Y-44986158D01*
X94702627Y-45009968D01*
X94678817Y-45057587D01*
X94655008Y-45081396D01*
X94607389Y-45105206D01*
X94512150Y-45105206D01*
X94464531Y-45129015D01*
X94440722Y-45152825D01*
X94416912Y-45200444D01*
X94416912Y-45295682D01*
X94440722Y-45343301D01*
X94464531Y-45367110D01*
X94512150Y-45390920D01*
X94607389Y-45390920D01*
X94655008Y-45367110D01*
X94678817Y-45343301D01*
X94702627Y-45295682D01*
X94702627Y-45200444D01*
X94678817Y-45152825D01*
X94655008Y-45129015D01*
X94607389Y-45105206D01*
M02*
