G04 #@! TF.GenerationSoftware,KiCad,Pcbnew,5.1.2*
G04 #@! TF.CreationDate,2019-07-29T09:43:07-03:00*
G04 #@! TF.ProjectId,zeke,7a656b65-2e6b-4696-9361-645f70636258,rev?*
G04 #@! TF.SameCoordinates,Original*
G04 #@! TF.FileFunction,Copper,L2,Bot*
G04 #@! TF.FilePolarity,Positive*
%FSLAX46Y46*%
G04 Gerber Fmt 4.6, Leading zero omitted, Abs format (unit mm)*
G04 Created by KiCad (PCBNEW 5.1.2) date 2019-07-29 09:43:07*
%MOMM*%
%LPD*%
G04 APERTURE LIST*
%ADD10C,2.540000*%
%ADD11O,4.000000X7.960000*%
%ADD12C,4.000000*%
%ADD13O,1.300000X1.900000*%
%ADD14O,1.300000X2.400000*%
%ADD15O,1.000000X2.100000*%
%ADD16O,1.000000X1.600000*%
%ADD17C,0.508000*%
%ADD18C,0.500000*%
%ADD19C,0.250000*%
%ADD20C,0.254000*%
G04 APERTURE END LIST*
D10*
X51514570Y-129619930D03*
X48974570Y-135969930D03*
X108664810Y-91519770D03*
X106124810Y-97869770D03*
X108664810Y-129619930D03*
X106124810Y-135969930D03*
D11*
X75009690Y-141684970D03*
D10*
X107394810Y-139144970D03*
X101044810Y-136604970D03*
X88344730Y-139144970D03*
X81994730Y-136604970D03*
X69294650Y-139144970D03*
X62944650Y-136604970D03*
X50244570Y-139144970D03*
X43894570Y-136604970D03*
D12*
X94059770Y-113109850D03*
X55959610Y-113109850D03*
X94059770Y-55959610D03*
X55959610Y-55959610D03*
D13*
X98359770Y-34781420D03*
X89759770Y-34781420D03*
D14*
X98359770Y-38981420D03*
X89759770Y-38981420D03*
D15*
X89759770Y-38981420D03*
D16*
X89759770Y-34781420D03*
X98359770Y-34781420D03*
D15*
X98359770Y-38981420D03*
D10*
X107394810Y-120094890D03*
X101044810Y-117554890D03*
X88344730Y-120094890D03*
X81994730Y-117554890D03*
X69294650Y-120094890D03*
X62944650Y-117554890D03*
X50244570Y-120094890D03*
X43894570Y-117554890D03*
X107394810Y-101044810D03*
X101044810Y-98504810D03*
X88344730Y-101044810D03*
X81994730Y-98504810D03*
X69294650Y-101044810D03*
X62944650Y-98504810D03*
X50244570Y-101044810D03*
X43894570Y-98504810D03*
X107394810Y-81994730D03*
X101044810Y-79454730D03*
X88344730Y-81994730D03*
X81994730Y-79454730D03*
X69294650Y-81994730D03*
X62944650Y-79454730D03*
X50244570Y-81994730D03*
X43894570Y-79454730D03*
X107394810Y-62944650D03*
X101044810Y-60404650D03*
X88344730Y-62944650D03*
X81994730Y-60404650D03*
X69294650Y-62944650D03*
X62944650Y-60404650D03*
X50244570Y-62944650D03*
X43894570Y-60404650D03*
X107394810Y-43894570D03*
X101044810Y-41354570D03*
X88344730Y-43894570D03*
X81994730Y-41354570D03*
X69294650Y-43894570D03*
X62944650Y-41354570D03*
X50244570Y-43894570D03*
X43894570Y-41354570D03*
D17*
X100917690Y-91900730D03*
X93678770Y-41989730D03*
X94440770Y-41989730D03*
X97107770Y-42878730D03*
X91011770Y-42878730D03*
X95009770Y-42690730D03*
X93109770Y-42685730D03*
X95837770Y-41608730D03*
X91773770Y-41608730D03*
X100917690Y-87074730D03*
D18*
X91011770Y-42878730D02*
X92281770Y-44148730D01*
X95837770Y-44148730D02*
X97107770Y-42878730D01*
X92281770Y-44148730D02*
X95837770Y-44148730D01*
D19*
X93678770Y-41636177D02*
X93678770Y-41989730D01*
X93900218Y-41414729D02*
X93678770Y-41636177D01*
X94716771Y-41414729D02*
X93900218Y-41414729D01*
X95015771Y-41713729D02*
X94716771Y-41414729D01*
D20*
X95263769Y-41961727D02*
X94716771Y-41414729D01*
X95263769Y-42436731D02*
X95263769Y-41961727D01*
X95009770Y-42690730D02*
X95263769Y-42436731D01*
D19*
X94098323Y-42685730D02*
X94440770Y-42343283D01*
X94440770Y-42343283D02*
X94440770Y-41989730D01*
X93109770Y-42685730D02*
X94098323Y-42685730D01*
D20*
X100917690Y-91900730D02*
X100917690Y-91265730D01*
X100917690Y-88090730D02*
X100917690Y-91265730D01*
X100917690Y-91265730D02*
X100917690Y-91519730D01*
X100917690Y-87074730D02*
X100917690Y-88090730D01*
G36*
X98917227Y-32858168D02*
G01*
X99008550Y-32885740D01*
X99012770Y-32887984D01*
X99012770Y-38427496D01*
X98995086Y-38607046D01*
X98944533Y-38773696D01*
X98862434Y-38927292D01*
X98751953Y-39061913D01*
X98617332Y-39172394D01*
X98463736Y-39254493D01*
X98297086Y-39305046D01*
X98117536Y-39322730D01*
X97304145Y-39322730D01*
X97404501Y-39281161D01*
X97561734Y-39176101D01*
X97695451Y-39042384D01*
X97800511Y-38885151D01*
X97872878Y-38710442D01*
X97909770Y-38524972D01*
X97909770Y-38335868D01*
X97872878Y-38150398D01*
X97800511Y-37975689D01*
X97695451Y-37818456D01*
X97561734Y-37684739D01*
X97404501Y-37579679D01*
X97229792Y-37507312D01*
X97044322Y-37470420D01*
X96855218Y-37470420D01*
X96669748Y-37507312D01*
X96495039Y-37579679D01*
X96337806Y-37684739D01*
X96204089Y-37818456D01*
X96099029Y-37975689D01*
X96026662Y-38150398D01*
X95989770Y-38335868D01*
X95989770Y-38524972D01*
X96026662Y-38710442D01*
X96099029Y-38885151D01*
X96204089Y-39042384D01*
X96337806Y-39176101D01*
X96495039Y-39281161D01*
X96595395Y-39322730D01*
X91524145Y-39322730D01*
X91624501Y-39281161D01*
X91781734Y-39176101D01*
X91915451Y-39042384D01*
X92020511Y-38885151D01*
X92092878Y-38710442D01*
X92129770Y-38524972D01*
X92129770Y-38335868D01*
X92092878Y-38150398D01*
X92020511Y-37975689D01*
X91915451Y-37818456D01*
X91781734Y-37684739D01*
X91624501Y-37579679D01*
X91449792Y-37507312D01*
X91264322Y-37470420D01*
X91075218Y-37470420D01*
X90889748Y-37507312D01*
X90715039Y-37579679D01*
X90557806Y-37684739D01*
X90424089Y-37818456D01*
X90319029Y-37975689D01*
X90246662Y-38150398D01*
X90209770Y-38335868D01*
X90209770Y-38524972D01*
X90246662Y-38710442D01*
X90319029Y-38885151D01*
X90424089Y-39042384D01*
X90557806Y-39176101D01*
X90715039Y-39281161D01*
X90815395Y-39322730D01*
X90002004Y-39322730D01*
X89822454Y-39305046D01*
X89655804Y-39254493D01*
X89502208Y-39172394D01*
X89367587Y-39061913D01*
X89257106Y-38927292D01*
X89175007Y-38773696D01*
X89124454Y-38607046D01*
X89106770Y-38427496D01*
X89106770Y-32887630D01*
X89107839Y-32887052D01*
X89198966Y-32858843D01*
X89325824Y-32845510D01*
X98788132Y-32845510D01*
X98917227Y-32858168D01*
X98917227Y-32858168D01*
G37*
X98917227Y-32858168D02*
X99008550Y-32885740D01*
X99012770Y-32887984D01*
X99012770Y-38427496D01*
X98995086Y-38607046D01*
X98944533Y-38773696D01*
X98862434Y-38927292D01*
X98751953Y-39061913D01*
X98617332Y-39172394D01*
X98463736Y-39254493D01*
X98297086Y-39305046D01*
X98117536Y-39322730D01*
X97304145Y-39322730D01*
X97404501Y-39281161D01*
X97561734Y-39176101D01*
X97695451Y-39042384D01*
X97800511Y-38885151D01*
X97872878Y-38710442D01*
X97909770Y-38524972D01*
X97909770Y-38335868D01*
X97872878Y-38150398D01*
X97800511Y-37975689D01*
X97695451Y-37818456D01*
X97561734Y-37684739D01*
X97404501Y-37579679D01*
X97229792Y-37507312D01*
X97044322Y-37470420D01*
X96855218Y-37470420D01*
X96669748Y-37507312D01*
X96495039Y-37579679D01*
X96337806Y-37684739D01*
X96204089Y-37818456D01*
X96099029Y-37975689D01*
X96026662Y-38150398D01*
X95989770Y-38335868D01*
X95989770Y-38524972D01*
X96026662Y-38710442D01*
X96099029Y-38885151D01*
X96204089Y-39042384D01*
X96337806Y-39176101D01*
X96495039Y-39281161D01*
X96595395Y-39322730D01*
X91524145Y-39322730D01*
X91624501Y-39281161D01*
X91781734Y-39176101D01*
X91915451Y-39042384D01*
X92020511Y-38885151D01*
X92092878Y-38710442D01*
X92129770Y-38524972D01*
X92129770Y-38335868D01*
X92092878Y-38150398D01*
X92020511Y-37975689D01*
X91915451Y-37818456D01*
X91781734Y-37684739D01*
X91624501Y-37579679D01*
X91449792Y-37507312D01*
X91264322Y-37470420D01*
X91075218Y-37470420D01*
X90889748Y-37507312D01*
X90715039Y-37579679D01*
X90557806Y-37684739D01*
X90424089Y-37818456D01*
X90319029Y-37975689D01*
X90246662Y-38150398D01*
X90209770Y-38335868D01*
X90209770Y-38524972D01*
X90246662Y-38710442D01*
X90319029Y-38885151D01*
X90424089Y-39042384D01*
X90557806Y-39176101D01*
X90715039Y-39281161D01*
X90815395Y-39322730D01*
X90002004Y-39322730D01*
X89822454Y-39305046D01*
X89655804Y-39254493D01*
X89502208Y-39172394D01*
X89367587Y-39061913D01*
X89257106Y-38927292D01*
X89175007Y-38773696D01*
X89124454Y-38607046D01*
X89106770Y-38427496D01*
X89106770Y-32887630D01*
X89107839Y-32887052D01*
X89198966Y-32858843D01*
X89325824Y-32845510D01*
X98788132Y-32845510D01*
X98917227Y-32858168D01*
M02*
