G04 #@! TF.GenerationSoftware,KiCad,Pcbnew,5.1.2*
G04 #@! TF.CreationDate,2019-07-29T09:43:07-03:00*
G04 #@! TF.ProjectId,zeke,7a656b65-2e6b-4696-9361-645f70636258,rev?*
G04 #@! TF.SameCoordinates,Original*
G04 #@! TF.FileFunction,Paste,Top*
G04 #@! TF.FilePolarity,Positive*
%FSLAX46Y46*%
G04 Gerber Fmt 4.6, Leading zero omitted, Abs format (unit mm)*
G04 Created by KiCad (PCBNEW 5.1.2) date 2019-07-29 09:43:07*
%MOMM*%
%LPD*%
G04 APERTURE LIST*
%ADD10R,1.600000X1.400000*%
%ADD11R,1.400000X1.600000*%
%ADD12R,0.760000X0.660000*%
%ADD13C,0.254000*%
%ADD14C,0.420000*%
%ADD15R,0.420000X0.890000*%
%ADD16C,0.975000*%
%ADD17R,0.660000X0.760000*%
%ADD18R,0.890000X0.420000*%
%ADD19C,0.590000*%
%ADD20R,0.900000X0.800000*%
%ADD21C,0.250000*%
%ADD22C,1.050000*%
%ADD23C,0.600000*%
%ADD24C,0.300000*%
%ADD25C,0.650000*%
%ADD26R,0.650000X1.060000*%
G04 APERTURE END LIST*
D10*
X42654690Y-133109730D03*
X40054690Y-133109730D03*
X40054690Y-131209730D03*
X42654690Y-131209730D03*
D11*
X104534690Y-145464730D03*
X104534690Y-148064730D03*
X102634690Y-148064730D03*
X102634690Y-145464730D03*
X85357690Y-145465130D03*
X85357690Y-148065130D03*
X83457690Y-148065130D03*
X83457690Y-145465130D03*
X66434770Y-145465130D03*
X66434770Y-148065130D03*
X64534770Y-148065130D03*
X64534770Y-145465130D03*
X47384690Y-145465130D03*
X47384690Y-148065130D03*
X45484690Y-148065130D03*
X45484690Y-145465130D03*
X104534690Y-126414730D03*
X104534690Y-129014730D03*
X102634690Y-129014730D03*
X102634690Y-126414730D03*
X85484690Y-126414730D03*
X85484690Y-129014730D03*
X83584690Y-129014730D03*
X83584690Y-126414730D03*
X66434770Y-126415050D03*
X66434770Y-129015050D03*
X64534770Y-129015050D03*
X64534770Y-126415050D03*
X47384690Y-126415050D03*
X47384690Y-129015050D03*
X45484690Y-129015050D03*
X45484690Y-126415050D03*
X104534930Y-107364970D03*
X104534930Y-109964970D03*
X102634930Y-109964970D03*
X102634930Y-107364970D03*
X85484850Y-107364970D03*
X85484850Y-109964970D03*
X83584850Y-109964970D03*
X83584850Y-107364970D03*
X66434770Y-107364970D03*
X66434770Y-109964970D03*
X64534770Y-109964970D03*
X64534770Y-107364970D03*
X47384690Y-107364970D03*
X47384690Y-109964970D03*
X45484690Y-109964970D03*
X45484690Y-107364970D03*
X85484850Y-88314890D03*
X85484850Y-90914890D03*
X83584850Y-90914890D03*
X83584850Y-88314890D03*
X66434690Y-88314730D03*
X66434690Y-90914730D03*
X64534690Y-90914730D03*
X64534690Y-88314730D03*
X47384690Y-88314730D03*
X47384690Y-90914730D03*
X45484690Y-90914730D03*
X45484690Y-88314730D03*
X104534930Y-69264810D03*
X104534930Y-71864810D03*
X102634930Y-71864810D03*
X102634930Y-69264810D03*
X85484850Y-69264810D03*
X85484850Y-71864810D03*
X83584850Y-71864810D03*
X83584850Y-69264810D03*
X66434690Y-69264810D03*
X66434690Y-71864810D03*
X64534690Y-71864810D03*
X64534690Y-69264810D03*
X47384690Y-69264730D03*
X47384690Y-71864730D03*
X45484690Y-71864730D03*
X45484690Y-69264730D03*
X104534690Y-50214730D03*
X104534690Y-52814730D03*
X102634690Y-52814730D03*
X102634690Y-50214730D03*
X85484850Y-50214730D03*
X85484850Y-52814730D03*
X83584850Y-52814730D03*
X83584850Y-50214730D03*
X66434770Y-50214730D03*
X66434770Y-52814730D03*
X64534770Y-52814730D03*
X64534770Y-50214730D03*
D12*
X98072690Y-88051730D03*
X98072690Y-88891730D03*
X99012690Y-88891730D03*
X99012690Y-88051730D03*
D13*
G36*
X97588275Y-85922741D02*
G01*
X97608660Y-85925765D01*
X97628651Y-85930773D01*
X97648055Y-85937715D01*
X97666684Y-85946527D01*
X97684361Y-85957121D01*
X97700914Y-85969398D01*
X97716183Y-85983238D01*
X97730023Y-85998507D01*
X97742300Y-86015060D01*
X97752894Y-86032737D01*
X97761706Y-86051366D01*
X97768648Y-86070770D01*
X97773656Y-86090761D01*
X97776680Y-86111146D01*
X97777691Y-86131730D01*
X97777691Y-86601730D01*
X97776680Y-86622314D01*
X97773656Y-86642699D01*
X97768648Y-86662690D01*
X97761706Y-86682094D01*
X97752894Y-86700723D01*
X97742300Y-86718400D01*
X97730023Y-86734953D01*
X97716183Y-86750222D01*
X97700914Y-86764062D01*
X97684361Y-86776339D01*
X97666684Y-86786933D01*
X97648055Y-86795745D01*
X97628651Y-86802687D01*
X97608660Y-86807695D01*
X97588275Y-86810719D01*
X97567691Y-86811730D01*
X97567689Y-86811730D01*
X97547105Y-86810719D01*
X97526720Y-86807695D01*
X97506729Y-86802687D01*
X97487325Y-86795745D01*
X97468696Y-86786933D01*
X97451019Y-86776339D01*
X97434466Y-86764062D01*
X97419197Y-86750222D01*
X97405357Y-86734953D01*
X97393080Y-86718400D01*
X97382486Y-86700723D01*
X97373674Y-86682094D01*
X97366732Y-86662690D01*
X97361724Y-86642699D01*
X97358700Y-86622314D01*
X97357689Y-86601730D01*
X97357689Y-86131730D01*
X97358700Y-86111146D01*
X97361724Y-86090761D01*
X97366732Y-86070770D01*
X97373674Y-86051366D01*
X97382486Y-86032737D01*
X97393080Y-86015060D01*
X97405357Y-85998507D01*
X97419197Y-85983238D01*
X97434466Y-85969398D01*
X97451019Y-85957121D01*
X97468696Y-85946527D01*
X97487325Y-85937715D01*
X97506729Y-85930773D01*
X97526720Y-85925765D01*
X97547105Y-85922741D01*
X97567689Y-85921730D01*
X97567691Y-85921730D01*
X97588275Y-85922741D01*
X97588275Y-85922741D01*
G37*
D14*
X97567690Y-86366730D03*
D13*
G36*
X98238275Y-85922741D02*
G01*
X98258660Y-85925765D01*
X98278651Y-85930773D01*
X98298055Y-85937715D01*
X98316684Y-85946527D01*
X98334361Y-85957121D01*
X98350914Y-85969398D01*
X98366183Y-85983238D01*
X98380023Y-85998507D01*
X98392300Y-86015060D01*
X98402894Y-86032737D01*
X98411706Y-86051366D01*
X98418648Y-86070770D01*
X98423656Y-86090761D01*
X98426680Y-86111146D01*
X98427691Y-86131730D01*
X98427691Y-86601730D01*
X98426680Y-86622314D01*
X98423656Y-86642699D01*
X98418648Y-86662690D01*
X98411706Y-86682094D01*
X98402894Y-86700723D01*
X98392300Y-86718400D01*
X98380023Y-86734953D01*
X98366183Y-86750222D01*
X98350914Y-86764062D01*
X98334361Y-86776339D01*
X98316684Y-86786933D01*
X98298055Y-86795745D01*
X98278651Y-86802687D01*
X98258660Y-86807695D01*
X98238275Y-86810719D01*
X98217691Y-86811730D01*
X98217689Y-86811730D01*
X98197105Y-86810719D01*
X98176720Y-86807695D01*
X98156729Y-86802687D01*
X98137325Y-86795745D01*
X98118696Y-86786933D01*
X98101019Y-86776339D01*
X98084466Y-86764062D01*
X98069197Y-86750222D01*
X98055357Y-86734953D01*
X98043080Y-86718400D01*
X98032486Y-86700723D01*
X98023674Y-86682094D01*
X98016732Y-86662690D01*
X98011724Y-86642699D01*
X98008700Y-86622314D01*
X98007689Y-86601730D01*
X98007689Y-86131730D01*
X98008700Y-86111146D01*
X98011724Y-86090761D01*
X98016732Y-86070770D01*
X98023674Y-86051366D01*
X98032486Y-86032737D01*
X98043080Y-86015060D01*
X98055357Y-85998507D01*
X98069197Y-85983238D01*
X98084466Y-85969398D01*
X98101019Y-85957121D01*
X98118696Y-85946527D01*
X98137325Y-85937715D01*
X98156729Y-85930773D01*
X98176720Y-85925765D01*
X98197105Y-85922741D01*
X98217689Y-85921730D01*
X98217691Y-85921730D01*
X98238275Y-85922741D01*
X98238275Y-85922741D01*
G37*
D14*
X98217690Y-86366730D03*
D13*
G36*
X98888275Y-85922741D02*
G01*
X98908660Y-85925765D01*
X98928651Y-85930773D01*
X98948055Y-85937715D01*
X98966684Y-85946527D01*
X98984361Y-85957121D01*
X99000914Y-85969398D01*
X99016183Y-85983238D01*
X99030023Y-85998507D01*
X99042300Y-86015060D01*
X99052894Y-86032737D01*
X99061706Y-86051366D01*
X99068648Y-86070770D01*
X99073656Y-86090761D01*
X99076680Y-86111146D01*
X99077691Y-86131730D01*
X99077691Y-86601730D01*
X99076680Y-86622314D01*
X99073656Y-86642699D01*
X99068648Y-86662690D01*
X99061706Y-86682094D01*
X99052894Y-86700723D01*
X99042300Y-86718400D01*
X99030023Y-86734953D01*
X99016183Y-86750222D01*
X99000914Y-86764062D01*
X98984361Y-86776339D01*
X98966684Y-86786933D01*
X98948055Y-86795745D01*
X98928651Y-86802687D01*
X98908660Y-86807695D01*
X98888275Y-86810719D01*
X98867691Y-86811730D01*
X98867689Y-86811730D01*
X98847105Y-86810719D01*
X98826720Y-86807695D01*
X98806729Y-86802687D01*
X98787325Y-86795745D01*
X98768696Y-86786933D01*
X98751019Y-86776339D01*
X98734466Y-86764062D01*
X98719197Y-86750222D01*
X98705357Y-86734953D01*
X98693080Y-86718400D01*
X98682486Y-86700723D01*
X98673674Y-86682094D01*
X98666732Y-86662690D01*
X98661724Y-86642699D01*
X98658700Y-86622314D01*
X98657689Y-86601730D01*
X98657689Y-86131730D01*
X98658700Y-86111146D01*
X98661724Y-86090761D01*
X98666732Y-86070770D01*
X98673674Y-86051366D01*
X98682486Y-86032737D01*
X98693080Y-86015060D01*
X98705357Y-85998507D01*
X98719197Y-85983238D01*
X98734466Y-85969398D01*
X98751019Y-85957121D01*
X98768696Y-85946527D01*
X98787325Y-85937715D01*
X98806729Y-85930773D01*
X98826720Y-85925765D01*
X98847105Y-85922741D01*
X98867689Y-85921730D01*
X98867691Y-85921730D01*
X98888275Y-85922741D01*
X98888275Y-85922741D01*
G37*
D14*
X98867690Y-86366730D03*
D13*
G36*
X99538275Y-85922741D02*
G01*
X99558660Y-85925765D01*
X99578651Y-85930773D01*
X99598055Y-85937715D01*
X99616684Y-85946527D01*
X99634361Y-85957121D01*
X99650914Y-85969398D01*
X99666183Y-85983238D01*
X99680023Y-85998507D01*
X99692300Y-86015060D01*
X99702894Y-86032737D01*
X99711706Y-86051366D01*
X99718648Y-86070770D01*
X99723656Y-86090761D01*
X99726680Y-86111146D01*
X99727691Y-86131730D01*
X99727691Y-86601730D01*
X99726680Y-86622314D01*
X99723656Y-86642699D01*
X99718648Y-86662690D01*
X99711706Y-86682094D01*
X99702894Y-86700723D01*
X99692300Y-86718400D01*
X99680023Y-86734953D01*
X99666183Y-86750222D01*
X99650914Y-86764062D01*
X99634361Y-86776339D01*
X99616684Y-86786933D01*
X99598055Y-86795745D01*
X99578651Y-86802687D01*
X99558660Y-86807695D01*
X99538275Y-86810719D01*
X99517691Y-86811730D01*
X99517689Y-86811730D01*
X99497105Y-86810719D01*
X99476720Y-86807695D01*
X99456729Y-86802687D01*
X99437325Y-86795745D01*
X99418696Y-86786933D01*
X99401019Y-86776339D01*
X99384466Y-86764062D01*
X99369197Y-86750222D01*
X99355357Y-86734953D01*
X99343080Y-86718400D01*
X99332486Y-86700723D01*
X99323674Y-86682094D01*
X99316732Y-86662690D01*
X99311724Y-86642699D01*
X99308700Y-86622314D01*
X99307689Y-86601730D01*
X99307689Y-86131730D01*
X99308700Y-86111146D01*
X99311724Y-86090761D01*
X99316732Y-86070770D01*
X99323674Y-86051366D01*
X99332486Y-86032737D01*
X99343080Y-86015060D01*
X99355357Y-85998507D01*
X99369197Y-85983238D01*
X99384466Y-85969398D01*
X99401019Y-85957121D01*
X99418696Y-85946527D01*
X99437325Y-85937715D01*
X99456729Y-85930773D01*
X99476720Y-85925765D01*
X99497105Y-85922741D01*
X99517689Y-85921730D01*
X99517691Y-85921730D01*
X99538275Y-85922741D01*
X99538275Y-85922741D01*
G37*
D14*
X99517690Y-86366730D03*
D13*
G36*
X99538275Y-90132741D02*
G01*
X99558660Y-90135765D01*
X99578651Y-90140773D01*
X99598055Y-90147715D01*
X99616684Y-90156527D01*
X99634361Y-90167121D01*
X99650914Y-90179398D01*
X99666183Y-90193238D01*
X99680023Y-90208507D01*
X99692300Y-90225060D01*
X99702894Y-90242737D01*
X99711706Y-90261366D01*
X99718648Y-90280770D01*
X99723656Y-90300761D01*
X99726680Y-90321146D01*
X99727691Y-90341730D01*
X99727691Y-90811730D01*
X99726680Y-90832314D01*
X99723656Y-90852699D01*
X99718648Y-90872690D01*
X99711706Y-90892094D01*
X99702894Y-90910723D01*
X99692300Y-90928400D01*
X99680023Y-90944953D01*
X99666183Y-90960222D01*
X99650914Y-90974062D01*
X99634361Y-90986339D01*
X99616684Y-90996933D01*
X99598055Y-91005745D01*
X99578651Y-91012687D01*
X99558660Y-91017695D01*
X99538275Y-91020719D01*
X99517691Y-91021730D01*
X99517689Y-91021730D01*
X99497105Y-91020719D01*
X99476720Y-91017695D01*
X99456729Y-91012687D01*
X99437325Y-91005745D01*
X99418696Y-90996933D01*
X99401019Y-90986339D01*
X99384466Y-90974062D01*
X99369197Y-90960222D01*
X99355357Y-90944953D01*
X99343080Y-90928400D01*
X99332486Y-90910723D01*
X99323674Y-90892094D01*
X99316732Y-90872690D01*
X99311724Y-90852699D01*
X99308700Y-90832314D01*
X99307689Y-90811730D01*
X99307689Y-90341730D01*
X99308700Y-90321146D01*
X99311724Y-90300761D01*
X99316732Y-90280770D01*
X99323674Y-90261366D01*
X99332486Y-90242737D01*
X99343080Y-90225060D01*
X99355357Y-90208507D01*
X99369197Y-90193238D01*
X99384466Y-90179398D01*
X99401019Y-90167121D01*
X99418696Y-90156527D01*
X99437325Y-90147715D01*
X99456729Y-90140773D01*
X99476720Y-90135765D01*
X99497105Y-90132741D01*
X99517689Y-90131730D01*
X99517691Y-90131730D01*
X99538275Y-90132741D01*
X99538275Y-90132741D01*
G37*
D14*
X99517690Y-90576730D03*
D13*
G36*
X98888275Y-90132741D02*
G01*
X98908660Y-90135765D01*
X98928651Y-90140773D01*
X98948055Y-90147715D01*
X98966684Y-90156527D01*
X98984361Y-90167121D01*
X99000914Y-90179398D01*
X99016183Y-90193238D01*
X99030023Y-90208507D01*
X99042300Y-90225060D01*
X99052894Y-90242737D01*
X99061706Y-90261366D01*
X99068648Y-90280770D01*
X99073656Y-90300761D01*
X99076680Y-90321146D01*
X99077691Y-90341730D01*
X99077691Y-90811730D01*
X99076680Y-90832314D01*
X99073656Y-90852699D01*
X99068648Y-90872690D01*
X99061706Y-90892094D01*
X99052894Y-90910723D01*
X99042300Y-90928400D01*
X99030023Y-90944953D01*
X99016183Y-90960222D01*
X99000914Y-90974062D01*
X98984361Y-90986339D01*
X98966684Y-90996933D01*
X98948055Y-91005745D01*
X98928651Y-91012687D01*
X98908660Y-91017695D01*
X98888275Y-91020719D01*
X98867691Y-91021730D01*
X98867689Y-91021730D01*
X98847105Y-91020719D01*
X98826720Y-91017695D01*
X98806729Y-91012687D01*
X98787325Y-91005745D01*
X98768696Y-90996933D01*
X98751019Y-90986339D01*
X98734466Y-90974062D01*
X98719197Y-90960222D01*
X98705357Y-90944953D01*
X98693080Y-90928400D01*
X98682486Y-90910723D01*
X98673674Y-90892094D01*
X98666732Y-90872690D01*
X98661724Y-90852699D01*
X98658700Y-90832314D01*
X98657689Y-90811730D01*
X98657689Y-90341730D01*
X98658700Y-90321146D01*
X98661724Y-90300761D01*
X98666732Y-90280770D01*
X98673674Y-90261366D01*
X98682486Y-90242737D01*
X98693080Y-90225060D01*
X98705357Y-90208507D01*
X98719197Y-90193238D01*
X98734466Y-90179398D01*
X98751019Y-90167121D01*
X98768696Y-90156527D01*
X98787325Y-90147715D01*
X98806729Y-90140773D01*
X98826720Y-90135765D01*
X98847105Y-90132741D01*
X98867689Y-90131730D01*
X98867691Y-90131730D01*
X98888275Y-90132741D01*
X98888275Y-90132741D01*
G37*
D14*
X98867690Y-90576730D03*
D13*
G36*
X98238275Y-90132741D02*
G01*
X98258660Y-90135765D01*
X98278651Y-90140773D01*
X98298055Y-90147715D01*
X98316684Y-90156527D01*
X98334361Y-90167121D01*
X98350914Y-90179398D01*
X98366183Y-90193238D01*
X98380023Y-90208507D01*
X98392300Y-90225060D01*
X98402894Y-90242737D01*
X98411706Y-90261366D01*
X98418648Y-90280770D01*
X98423656Y-90300761D01*
X98426680Y-90321146D01*
X98427691Y-90341730D01*
X98427691Y-90811730D01*
X98426680Y-90832314D01*
X98423656Y-90852699D01*
X98418648Y-90872690D01*
X98411706Y-90892094D01*
X98402894Y-90910723D01*
X98392300Y-90928400D01*
X98380023Y-90944953D01*
X98366183Y-90960222D01*
X98350914Y-90974062D01*
X98334361Y-90986339D01*
X98316684Y-90996933D01*
X98298055Y-91005745D01*
X98278651Y-91012687D01*
X98258660Y-91017695D01*
X98238275Y-91020719D01*
X98217691Y-91021730D01*
X98217689Y-91021730D01*
X98197105Y-91020719D01*
X98176720Y-91017695D01*
X98156729Y-91012687D01*
X98137325Y-91005745D01*
X98118696Y-90996933D01*
X98101019Y-90986339D01*
X98084466Y-90974062D01*
X98069197Y-90960222D01*
X98055357Y-90944953D01*
X98043080Y-90928400D01*
X98032486Y-90910723D01*
X98023674Y-90892094D01*
X98016732Y-90872690D01*
X98011724Y-90852699D01*
X98008700Y-90832314D01*
X98007689Y-90811730D01*
X98007689Y-90341730D01*
X98008700Y-90321146D01*
X98011724Y-90300761D01*
X98016732Y-90280770D01*
X98023674Y-90261366D01*
X98032486Y-90242737D01*
X98043080Y-90225060D01*
X98055357Y-90208507D01*
X98069197Y-90193238D01*
X98084466Y-90179398D01*
X98101019Y-90167121D01*
X98118696Y-90156527D01*
X98137325Y-90147715D01*
X98156729Y-90140773D01*
X98176720Y-90135765D01*
X98197105Y-90132741D01*
X98217689Y-90131730D01*
X98217691Y-90131730D01*
X98238275Y-90132741D01*
X98238275Y-90132741D01*
G37*
D14*
X98217690Y-90576730D03*
D15*
X97567690Y-90576730D03*
D10*
X99830090Y-95085930D03*
X97230090Y-95085930D03*
X97230090Y-93185930D03*
X99830090Y-93185930D03*
D11*
X104534930Y-88314890D03*
X104534930Y-90914890D03*
X102634930Y-90914890D03*
X102634930Y-88314890D03*
D13*
G36*
X93349282Y-48582634D02*
G01*
X93372943Y-48586144D01*
X93396147Y-48591956D01*
X93418669Y-48600014D01*
X93440293Y-48610242D01*
X93460810Y-48622539D01*
X93480023Y-48636789D01*
X93497747Y-48652853D01*
X93513811Y-48670577D01*
X93528061Y-48689790D01*
X93540358Y-48710307D01*
X93550586Y-48731931D01*
X93558644Y-48754453D01*
X93564456Y-48777657D01*
X93567966Y-48801318D01*
X93569140Y-48825210D01*
X93569140Y-49312710D01*
X93567966Y-49336602D01*
X93564456Y-49360263D01*
X93558644Y-49383467D01*
X93550586Y-49405989D01*
X93540358Y-49427613D01*
X93528061Y-49448130D01*
X93513811Y-49467343D01*
X93497747Y-49485067D01*
X93480023Y-49501131D01*
X93460810Y-49515381D01*
X93440293Y-49527678D01*
X93418669Y-49537906D01*
X93396147Y-49545964D01*
X93372943Y-49551776D01*
X93349282Y-49555286D01*
X93325390Y-49556460D01*
X92412890Y-49556460D01*
X92388998Y-49555286D01*
X92365337Y-49551776D01*
X92342133Y-49545964D01*
X92319611Y-49537906D01*
X92297987Y-49527678D01*
X92277470Y-49515381D01*
X92258257Y-49501131D01*
X92240533Y-49485067D01*
X92224469Y-49467343D01*
X92210219Y-49448130D01*
X92197922Y-49427613D01*
X92187694Y-49405989D01*
X92179636Y-49383467D01*
X92173824Y-49360263D01*
X92170314Y-49336602D01*
X92169140Y-49312710D01*
X92169140Y-48825210D01*
X92170314Y-48801318D01*
X92173824Y-48777657D01*
X92179636Y-48754453D01*
X92187694Y-48731931D01*
X92197922Y-48710307D01*
X92210219Y-48689790D01*
X92224469Y-48670577D01*
X92240533Y-48652853D01*
X92258257Y-48636789D01*
X92277470Y-48622539D01*
X92297987Y-48610242D01*
X92319611Y-48600014D01*
X92342133Y-48591956D01*
X92365337Y-48586144D01*
X92388998Y-48582634D01*
X92412890Y-48581460D01*
X93325390Y-48581460D01*
X93349282Y-48582634D01*
X93349282Y-48582634D01*
G37*
D16*
X92869140Y-49068960D03*
D13*
G36*
X93349282Y-50457634D02*
G01*
X93372943Y-50461144D01*
X93396147Y-50466956D01*
X93418669Y-50475014D01*
X93440293Y-50485242D01*
X93460810Y-50497539D01*
X93480023Y-50511789D01*
X93497747Y-50527853D01*
X93513811Y-50545577D01*
X93528061Y-50564790D01*
X93540358Y-50585307D01*
X93550586Y-50606931D01*
X93558644Y-50629453D01*
X93564456Y-50652657D01*
X93567966Y-50676318D01*
X93569140Y-50700210D01*
X93569140Y-51187710D01*
X93567966Y-51211602D01*
X93564456Y-51235263D01*
X93558644Y-51258467D01*
X93550586Y-51280989D01*
X93540358Y-51302613D01*
X93528061Y-51323130D01*
X93513811Y-51342343D01*
X93497747Y-51360067D01*
X93480023Y-51376131D01*
X93460810Y-51390381D01*
X93440293Y-51402678D01*
X93418669Y-51412906D01*
X93396147Y-51420964D01*
X93372943Y-51426776D01*
X93349282Y-51430286D01*
X93325390Y-51431460D01*
X92412890Y-51431460D01*
X92388998Y-51430286D01*
X92365337Y-51426776D01*
X92342133Y-51420964D01*
X92319611Y-51412906D01*
X92297987Y-51402678D01*
X92277470Y-51390381D01*
X92258257Y-51376131D01*
X92240533Y-51360067D01*
X92224469Y-51342343D01*
X92210219Y-51323130D01*
X92197922Y-51302613D01*
X92187694Y-51280989D01*
X92179636Y-51258467D01*
X92173824Y-51235263D01*
X92170314Y-51211602D01*
X92169140Y-51187710D01*
X92169140Y-50700210D01*
X92170314Y-50676318D01*
X92173824Y-50652657D01*
X92179636Y-50629453D01*
X92187694Y-50606931D01*
X92197922Y-50585307D01*
X92210219Y-50564790D01*
X92224469Y-50545577D01*
X92240533Y-50527853D01*
X92258257Y-50511789D01*
X92277470Y-50497539D01*
X92297987Y-50485242D01*
X92319611Y-50475014D01*
X92342133Y-50466956D01*
X92365337Y-50461144D01*
X92388998Y-50457634D01*
X92412890Y-50456460D01*
X93325390Y-50456460D01*
X93349282Y-50457634D01*
X93349282Y-50457634D01*
G37*
D16*
X92869140Y-50943960D03*
D13*
G36*
X95730542Y-50457634D02*
G01*
X95754203Y-50461144D01*
X95777407Y-50466956D01*
X95799929Y-50475014D01*
X95821553Y-50485242D01*
X95842070Y-50497539D01*
X95861283Y-50511789D01*
X95879007Y-50527853D01*
X95895071Y-50545577D01*
X95909321Y-50564790D01*
X95921618Y-50585307D01*
X95931846Y-50606931D01*
X95939904Y-50629453D01*
X95945716Y-50652657D01*
X95949226Y-50676318D01*
X95950400Y-50700210D01*
X95950400Y-51187710D01*
X95949226Y-51211602D01*
X95945716Y-51235263D01*
X95939904Y-51258467D01*
X95931846Y-51280989D01*
X95921618Y-51302613D01*
X95909321Y-51323130D01*
X95895071Y-51342343D01*
X95879007Y-51360067D01*
X95861283Y-51376131D01*
X95842070Y-51390381D01*
X95821553Y-51402678D01*
X95799929Y-51412906D01*
X95777407Y-51420964D01*
X95754203Y-51426776D01*
X95730542Y-51430286D01*
X95706650Y-51431460D01*
X94794150Y-51431460D01*
X94770258Y-51430286D01*
X94746597Y-51426776D01*
X94723393Y-51420964D01*
X94700871Y-51412906D01*
X94679247Y-51402678D01*
X94658730Y-51390381D01*
X94639517Y-51376131D01*
X94621793Y-51360067D01*
X94605729Y-51342343D01*
X94591479Y-51323130D01*
X94579182Y-51302613D01*
X94568954Y-51280989D01*
X94560896Y-51258467D01*
X94555084Y-51235263D01*
X94551574Y-51211602D01*
X94550400Y-51187710D01*
X94550400Y-50700210D01*
X94551574Y-50676318D01*
X94555084Y-50652657D01*
X94560896Y-50629453D01*
X94568954Y-50606931D01*
X94579182Y-50585307D01*
X94591479Y-50564790D01*
X94605729Y-50545577D01*
X94621793Y-50527853D01*
X94639517Y-50511789D01*
X94658730Y-50497539D01*
X94679247Y-50485242D01*
X94700871Y-50475014D01*
X94723393Y-50466956D01*
X94746597Y-50461144D01*
X94770258Y-50457634D01*
X94794150Y-50456460D01*
X95706650Y-50456460D01*
X95730542Y-50457634D01*
X95730542Y-50457634D01*
G37*
D16*
X95250400Y-50943960D03*
D13*
G36*
X95730542Y-48582634D02*
G01*
X95754203Y-48586144D01*
X95777407Y-48591956D01*
X95799929Y-48600014D01*
X95821553Y-48610242D01*
X95842070Y-48622539D01*
X95861283Y-48636789D01*
X95879007Y-48652853D01*
X95895071Y-48670577D01*
X95909321Y-48689790D01*
X95921618Y-48710307D01*
X95931846Y-48731931D01*
X95939904Y-48754453D01*
X95945716Y-48777657D01*
X95949226Y-48801318D01*
X95950400Y-48825210D01*
X95950400Y-49312710D01*
X95949226Y-49336602D01*
X95945716Y-49360263D01*
X95939904Y-49383467D01*
X95931846Y-49405989D01*
X95921618Y-49427613D01*
X95909321Y-49448130D01*
X95895071Y-49467343D01*
X95879007Y-49485067D01*
X95861283Y-49501131D01*
X95842070Y-49515381D01*
X95821553Y-49527678D01*
X95799929Y-49537906D01*
X95777407Y-49545964D01*
X95754203Y-49551776D01*
X95730542Y-49555286D01*
X95706650Y-49556460D01*
X94794150Y-49556460D01*
X94770258Y-49555286D01*
X94746597Y-49551776D01*
X94723393Y-49545964D01*
X94700871Y-49537906D01*
X94679247Y-49527678D01*
X94658730Y-49515381D01*
X94639517Y-49501131D01*
X94621793Y-49485067D01*
X94605729Y-49467343D01*
X94591479Y-49448130D01*
X94579182Y-49427613D01*
X94568954Y-49405989D01*
X94560896Y-49383467D01*
X94555084Y-49360263D01*
X94551574Y-49336602D01*
X94550400Y-49312710D01*
X94550400Y-48825210D01*
X94551574Y-48801318D01*
X94555084Y-48777657D01*
X94560896Y-48754453D01*
X94568954Y-48731931D01*
X94579182Y-48710307D01*
X94591479Y-48689790D01*
X94605729Y-48670577D01*
X94621793Y-48652853D01*
X94639517Y-48636789D01*
X94658730Y-48622539D01*
X94679247Y-48610242D01*
X94700871Y-48600014D01*
X94723393Y-48591956D01*
X94746597Y-48586144D01*
X94770258Y-48582634D01*
X94794150Y-48581460D01*
X95706650Y-48581460D01*
X95730542Y-48582634D01*
X95730542Y-48582634D01*
G37*
D16*
X95250400Y-49068960D03*
D17*
X40061420Y-52032000D03*
X40901420Y-52032000D03*
X40901420Y-51092000D03*
X40061420Y-51092000D03*
D13*
G36*
X38632004Y-52328010D02*
G01*
X38652389Y-52331034D01*
X38672380Y-52336042D01*
X38691784Y-52342984D01*
X38710413Y-52351796D01*
X38728090Y-52362390D01*
X38744643Y-52374667D01*
X38759912Y-52388507D01*
X38773752Y-52403776D01*
X38786029Y-52420329D01*
X38796623Y-52438006D01*
X38805435Y-52456635D01*
X38812377Y-52476039D01*
X38817385Y-52496030D01*
X38820409Y-52516415D01*
X38821420Y-52536999D01*
X38821420Y-52537001D01*
X38820409Y-52557585D01*
X38817385Y-52577970D01*
X38812377Y-52597961D01*
X38805435Y-52617365D01*
X38796623Y-52635994D01*
X38786029Y-52653671D01*
X38773752Y-52670224D01*
X38759912Y-52685493D01*
X38744643Y-52699333D01*
X38728090Y-52711610D01*
X38710413Y-52722204D01*
X38691784Y-52731016D01*
X38672380Y-52737958D01*
X38652389Y-52742966D01*
X38632004Y-52745990D01*
X38611420Y-52747001D01*
X38141420Y-52747001D01*
X38120836Y-52745990D01*
X38100451Y-52742966D01*
X38080460Y-52737958D01*
X38061056Y-52731016D01*
X38042427Y-52722204D01*
X38024750Y-52711610D01*
X38008197Y-52699333D01*
X37992928Y-52685493D01*
X37979088Y-52670224D01*
X37966811Y-52653671D01*
X37956217Y-52635994D01*
X37947405Y-52617365D01*
X37940463Y-52597961D01*
X37935455Y-52577970D01*
X37932431Y-52557585D01*
X37931420Y-52537001D01*
X37931420Y-52536999D01*
X37932431Y-52516415D01*
X37935455Y-52496030D01*
X37940463Y-52476039D01*
X37947405Y-52456635D01*
X37956217Y-52438006D01*
X37966811Y-52420329D01*
X37979088Y-52403776D01*
X37992928Y-52388507D01*
X38008197Y-52374667D01*
X38024750Y-52362390D01*
X38042427Y-52351796D01*
X38061056Y-52342984D01*
X38080460Y-52336042D01*
X38100451Y-52331034D01*
X38120836Y-52328010D01*
X38141420Y-52326999D01*
X38611420Y-52326999D01*
X38632004Y-52328010D01*
X38632004Y-52328010D01*
G37*
D14*
X38376420Y-52537000D03*
D13*
G36*
X38632004Y-51678010D02*
G01*
X38652389Y-51681034D01*
X38672380Y-51686042D01*
X38691784Y-51692984D01*
X38710413Y-51701796D01*
X38728090Y-51712390D01*
X38744643Y-51724667D01*
X38759912Y-51738507D01*
X38773752Y-51753776D01*
X38786029Y-51770329D01*
X38796623Y-51788006D01*
X38805435Y-51806635D01*
X38812377Y-51826039D01*
X38817385Y-51846030D01*
X38820409Y-51866415D01*
X38821420Y-51886999D01*
X38821420Y-51887001D01*
X38820409Y-51907585D01*
X38817385Y-51927970D01*
X38812377Y-51947961D01*
X38805435Y-51967365D01*
X38796623Y-51985994D01*
X38786029Y-52003671D01*
X38773752Y-52020224D01*
X38759912Y-52035493D01*
X38744643Y-52049333D01*
X38728090Y-52061610D01*
X38710413Y-52072204D01*
X38691784Y-52081016D01*
X38672380Y-52087958D01*
X38652389Y-52092966D01*
X38632004Y-52095990D01*
X38611420Y-52097001D01*
X38141420Y-52097001D01*
X38120836Y-52095990D01*
X38100451Y-52092966D01*
X38080460Y-52087958D01*
X38061056Y-52081016D01*
X38042427Y-52072204D01*
X38024750Y-52061610D01*
X38008197Y-52049333D01*
X37992928Y-52035493D01*
X37979088Y-52020224D01*
X37966811Y-52003671D01*
X37956217Y-51985994D01*
X37947405Y-51967365D01*
X37940463Y-51947961D01*
X37935455Y-51927970D01*
X37932431Y-51907585D01*
X37931420Y-51887001D01*
X37931420Y-51886999D01*
X37932431Y-51866415D01*
X37935455Y-51846030D01*
X37940463Y-51826039D01*
X37947405Y-51806635D01*
X37956217Y-51788006D01*
X37966811Y-51770329D01*
X37979088Y-51753776D01*
X37992928Y-51738507D01*
X38008197Y-51724667D01*
X38024750Y-51712390D01*
X38042427Y-51701796D01*
X38061056Y-51692984D01*
X38080460Y-51686042D01*
X38100451Y-51681034D01*
X38120836Y-51678010D01*
X38141420Y-51676999D01*
X38611420Y-51676999D01*
X38632004Y-51678010D01*
X38632004Y-51678010D01*
G37*
D14*
X38376420Y-51887000D03*
D13*
G36*
X38632004Y-51028010D02*
G01*
X38652389Y-51031034D01*
X38672380Y-51036042D01*
X38691784Y-51042984D01*
X38710413Y-51051796D01*
X38728090Y-51062390D01*
X38744643Y-51074667D01*
X38759912Y-51088507D01*
X38773752Y-51103776D01*
X38786029Y-51120329D01*
X38796623Y-51138006D01*
X38805435Y-51156635D01*
X38812377Y-51176039D01*
X38817385Y-51196030D01*
X38820409Y-51216415D01*
X38821420Y-51236999D01*
X38821420Y-51237001D01*
X38820409Y-51257585D01*
X38817385Y-51277970D01*
X38812377Y-51297961D01*
X38805435Y-51317365D01*
X38796623Y-51335994D01*
X38786029Y-51353671D01*
X38773752Y-51370224D01*
X38759912Y-51385493D01*
X38744643Y-51399333D01*
X38728090Y-51411610D01*
X38710413Y-51422204D01*
X38691784Y-51431016D01*
X38672380Y-51437958D01*
X38652389Y-51442966D01*
X38632004Y-51445990D01*
X38611420Y-51447001D01*
X38141420Y-51447001D01*
X38120836Y-51445990D01*
X38100451Y-51442966D01*
X38080460Y-51437958D01*
X38061056Y-51431016D01*
X38042427Y-51422204D01*
X38024750Y-51411610D01*
X38008197Y-51399333D01*
X37992928Y-51385493D01*
X37979088Y-51370224D01*
X37966811Y-51353671D01*
X37956217Y-51335994D01*
X37947405Y-51317365D01*
X37940463Y-51297961D01*
X37935455Y-51277970D01*
X37932431Y-51257585D01*
X37931420Y-51237001D01*
X37931420Y-51236999D01*
X37932431Y-51216415D01*
X37935455Y-51196030D01*
X37940463Y-51176039D01*
X37947405Y-51156635D01*
X37956217Y-51138006D01*
X37966811Y-51120329D01*
X37979088Y-51103776D01*
X37992928Y-51088507D01*
X38008197Y-51074667D01*
X38024750Y-51062390D01*
X38042427Y-51051796D01*
X38061056Y-51042984D01*
X38080460Y-51036042D01*
X38100451Y-51031034D01*
X38120836Y-51028010D01*
X38141420Y-51026999D01*
X38611420Y-51026999D01*
X38632004Y-51028010D01*
X38632004Y-51028010D01*
G37*
D14*
X38376420Y-51237000D03*
D13*
G36*
X38632004Y-50378010D02*
G01*
X38652389Y-50381034D01*
X38672380Y-50386042D01*
X38691784Y-50392984D01*
X38710413Y-50401796D01*
X38728090Y-50412390D01*
X38744643Y-50424667D01*
X38759912Y-50438507D01*
X38773752Y-50453776D01*
X38786029Y-50470329D01*
X38796623Y-50488006D01*
X38805435Y-50506635D01*
X38812377Y-50526039D01*
X38817385Y-50546030D01*
X38820409Y-50566415D01*
X38821420Y-50586999D01*
X38821420Y-50587001D01*
X38820409Y-50607585D01*
X38817385Y-50627970D01*
X38812377Y-50647961D01*
X38805435Y-50667365D01*
X38796623Y-50685994D01*
X38786029Y-50703671D01*
X38773752Y-50720224D01*
X38759912Y-50735493D01*
X38744643Y-50749333D01*
X38728090Y-50761610D01*
X38710413Y-50772204D01*
X38691784Y-50781016D01*
X38672380Y-50787958D01*
X38652389Y-50792966D01*
X38632004Y-50795990D01*
X38611420Y-50797001D01*
X38141420Y-50797001D01*
X38120836Y-50795990D01*
X38100451Y-50792966D01*
X38080460Y-50787958D01*
X38061056Y-50781016D01*
X38042427Y-50772204D01*
X38024750Y-50761610D01*
X38008197Y-50749333D01*
X37992928Y-50735493D01*
X37979088Y-50720224D01*
X37966811Y-50703671D01*
X37956217Y-50685994D01*
X37947405Y-50667365D01*
X37940463Y-50647961D01*
X37935455Y-50627970D01*
X37932431Y-50607585D01*
X37931420Y-50587001D01*
X37931420Y-50586999D01*
X37932431Y-50566415D01*
X37935455Y-50546030D01*
X37940463Y-50526039D01*
X37947405Y-50506635D01*
X37956217Y-50488006D01*
X37966811Y-50470329D01*
X37979088Y-50453776D01*
X37992928Y-50438507D01*
X38008197Y-50424667D01*
X38024750Y-50412390D01*
X38042427Y-50401796D01*
X38061056Y-50392984D01*
X38080460Y-50386042D01*
X38100451Y-50381034D01*
X38120836Y-50378010D01*
X38141420Y-50376999D01*
X38611420Y-50376999D01*
X38632004Y-50378010D01*
X38632004Y-50378010D01*
G37*
D14*
X38376420Y-50587000D03*
D13*
G36*
X42842004Y-50378010D02*
G01*
X42862389Y-50381034D01*
X42882380Y-50386042D01*
X42901784Y-50392984D01*
X42920413Y-50401796D01*
X42938090Y-50412390D01*
X42954643Y-50424667D01*
X42969912Y-50438507D01*
X42983752Y-50453776D01*
X42996029Y-50470329D01*
X43006623Y-50488006D01*
X43015435Y-50506635D01*
X43022377Y-50526039D01*
X43027385Y-50546030D01*
X43030409Y-50566415D01*
X43031420Y-50586999D01*
X43031420Y-50587001D01*
X43030409Y-50607585D01*
X43027385Y-50627970D01*
X43022377Y-50647961D01*
X43015435Y-50667365D01*
X43006623Y-50685994D01*
X42996029Y-50703671D01*
X42983752Y-50720224D01*
X42969912Y-50735493D01*
X42954643Y-50749333D01*
X42938090Y-50761610D01*
X42920413Y-50772204D01*
X42901784Y-50781016D01*
X42882380Y-50787958D01*
X42862389Y-50792966D01*
X42842004Y-50795990D01*
X42821420Y-50797001D01*
X42351420Y-50797001D01*
X42330836Y-50795990D01*
X42310451Y-50792966D01*
X42290460Y-50787958D01*
X42271056Y-50781016D01*
X42252427Y-50772204D01*
X42234750Y-50761610D01*
X42218197Y-50749333D01*
X42202928Y-50735493D01*
X42189088Y-50720224D01*
X42176811Y-50703671D01*
X42166217Y-50685994D01*
X42157405Y-50667365D01*
X42150463Y-50647961D01*
X42145455Y-50627970D01*
X42142431Y-50607585D01*
X42141420Y-50587001D01*
X42141420Y-50586999D01*
X42142431Y-50566415D01*
X42145455Y-50546030D01*
X42150463Y-50526039D01*
X42157405Y-50506635D01*
X42166217Y-50488006D01*
X42176811Y-50470329D01*
X42189088Y-50453776D01*
X42202928Y-50438507D01*
X42218197Y-50424667D01*
X42234750Y-50412390D01*
X42252427Y-50401796D01*
X42271056Y-50392984D01*
X42290460Y-50386042D01*
X42310451Y-50381034D01*
X42330836Y-50378010D01*
X42351420Y-50376999D01*
X42821420Y-50376999D01*
X42842004Y-50378010D01*
X42842004Y-50378010D01*
G37*
D14*
X42586420Y-50587000D03*
D13*
G36*
X42842004Y-51028010D02*
G01*
X42862389Y-51031034D01*
X42882380Y-51036042D01*
X42901784Y-51042984D01*
X42920413Y-51051796D01*
X42938090Y-51062390D01*
X42954643Y-51074667D01*
X42969912Y-51088507D01*
X42983752Y-51103776D01*
X42996029Y-51120329D01*
X43006623Y-51138006D01*
X43015435Y-51156635D01*
X43022377Y-51176039D01*
X43027385Y-51196030D01*
X43030409Y-51216415D01*
X43031420Y-51236999D01*
X43031420Y-51237001D01*
X43030409Y-51257585D01*
X43027385Y-51277970D01*
X43022377Y-51297961D01*
X43015435Y-51317365D01*
X43006623Y-51335994D01*
X42996029Y-51353671D01*
X42983752Y-51370224D01*
X42969912Y-51385493D01*
X42954643Y-51399333D01*
X42938090Y-51411610D01*
X42920413Y-51422204D01*
X42901784Y-51431016D01*
X42882380Y-51437958D01*
X42862389Y-51442966D01*
X42842004Y-51445990D01*
X42821420Y-51447001D01*
X42351420Y-51447001D01*
X42330836Y-51445990D01*
X42310451Y-51442966D01*
X42290460Y-51437958D01*
X42271056Y-51431016D01*
X42252427Y-51422204D01*
X42234750Y-51411610D01*
X42218197Y-51399333D01*
X42202928Y-51385493D01*
X42189088Y-51370224D01*
X42176811Y-51353671D01*
X42166217Y-51335994D01*
X42157405Y-51317365D01*
X42150463Y-51297961D01*
X42145455Y-51277970D01*
X42142431Y-51257585D01*
X42141420Y-51237001D01*
X42141420Y-51236999D01*
X42142431Y-51216415D01*
X42145455Y-51196030D01*
X42150463Y-51176039D01*
X42157405Y-51156635D01*
X42166217Y-51138006D01*
X42176811Y-51120329D01*
X42189088Y-51103776D01*
X42202928Y-51088507D01*
X42218197Y-51074667D01*
X42234750Y-51062390D01*
X42252427Y-51051796D01*
X42271056Y-51042984D01*
X42290460Y-51036042D01*
X42310451Y-51031034D01*
X42330836Y-51028010D01*
X42351420Y-51026999D01*
X42821420Y-51026999D01*
X42842004Y-51028010D01*
X42842004Y-51028010D01*
G37*
D14*
X42586420Y-51237000D03*
D13*
G36*
X42842004Y-51678010D02*
G01*
X42862389Y-51681034D01*
X42882380Y-51686042D01*
X42901784Y-51692984D01*
X42920413Y-51701796D01*
X42938090Y-51712390D01*
X42954643Y-51724667D01*
X42969912Y-51738507D01*
X42983752Y-51753776D01*
X42996029Y-51770329D01*
X43006623Y-51788006D01*
X43015435Y-51806635D01*
X43022377Y-51826039D01*
X43027385Y-51846030D01*
X43030409Y-51866415D01*
X43031420Y-51886999D01*
X43031420Y-51887001D01*
X43030409Y-51907585D01*
X43027385Y-51927970D01*
X43022377Y-51947961D01*
X43015435Y-51967365D01*
X43006623Y-51985994D01*
X42996029Y-52003671D01*
X42983752Y-52020224D01*
X42969912Y-52035493D01*
X42954643Y-52049333D01*
X42938090Y-52061610D01*
X42920413Y-52072204D01*
X42901784Y-52081016D01*
X42882380Y-52087958D01*
X42862389Y-52092966D01*
X42842004Y-52095990D01*
X42821420Y-52097001D01*
X42351420Y-52097001D01*
X42330836Y-52095990D01*
X42310451Y-52092966D01*
X42290460Y-52087958D01*
X42271056Y-52081016D01*
X42252427Y-52072204D01*
X42234750Y-52061610D01*
X42218197Y-52049333D01*
X42202928Y-52035493D01*
X42189088Y-52020224D01*
X42176811Y-52003671D01*
X42166217Y-51985994D01*
X42157405Y-51967365D01*
X42150463Y-51947961D01*
X42145455Y-51927970D01*
X42142431Y-51907585D01*
X42141420Y-51887001D01*
X42141420Y-51886999D01*
X42142431Y-51866415D01*
X42145455Y-51846030D01*
X42150463Y-51826039D01*
X42157405Y-51806635D01*
X42166217Y-51788006D01*
X42176811Y-51770329D01*
X42189088Y-51753776D01*
X42202928Y-51738507D01*
X42218197Y-51724667D01*
X42234750Y-51712390D01*
X42252427Y-51701796D01*
X42271056Y-51692984D01*
X42290460Y-51686042D01*
X42310451Y-51681034D01*
X42330836Y-51678010D01*
X42351420Y-51676999D01*
X42821420Y-51676999D01*
X42842004Y-51678010D01*
X42842004Y-51678010D01*
G37*
D14*
X42586420Y-51887000D03*
D18*
X42586420Y-52537000D03*
D11*
X47384690Y-50214730D03*
X47384690Y-52814730D03*
X45484690Y-52814730D03*
X45484690Y-50214730D03*
D13*
G36*
X73139248Y-66610400D02*
G01*
X73153566Y-66612524D01*
X73167607Y-66616041D01*
X73181236Y-66620918D01*
X73194321Y-66627107D01*
X73206737Y-66634548D01*
X73218363Y-66643171D01*
X73229088Y-66652892D01*
X73238809Y-66663617D01*
X73247432Y-66675243D01*
X73254873Y-66687659D01*
X73261062Y-66700744D01*
X73265939Y-66714373D01*
X73269456Y-66728414D01*
X73271580Y-66742732D01*
X73272290Y-66757190D01*
X73272290Y-67052190D01*
X73271580Y-67066648D01*
X73269456Y-67080966D01*
X73265939Y-67095007D01*
X73261062Y-67108636D01*
X73254873Y-67121721D01*
X73247432Y-67134137D01*
X73238809Y-67145763D01*
X73229088Y-67156488D01*
X73218363Y-67166209D01*
X73206737Y-67174832D01*
X73194321Y-67182273D01*
X73181236Y-67188462D01*
X73167607Y-67193339D01*
X73153566Y-67196856D01*
X73139248Y-67198980D01*
X73124790Y-67199690D01*
X72779790Y-67199690D01*
X72765332Y-67198980D01*
X72751014Y-67196856D01*
X72736973Y-67193339D01*
X72723344Y-67188462D01*
X72710259Y-67182273D01*
X72697843Y-67174832D01*
X72686217Y-67166209D01*
X72675492Y-67156488D01*
X72665771Y-67145763D01*
X72657148Y-67134137D01*
X72649707Y-67121721D01*
X72643518Y-67108636D01*
X72638641Y-67095007D01*
X72635124Y-67080966D01*
X72633000Y-67066648D01*
X72632290Y-67052190D01*
X72632290Y-66757190D01*
X72633000Y-66742732D01*
X72635124Y-66728414D01*
X72638641Y-66714373D01*
X72643518Y-66700744D01*
X72649707Y-66687659D01*
X72657148Y-66675243D01*
X72665771Y-66663617D01*
X72675492Y-66652892D01*
X72686217Y-66643171D01*
X72697843Y-66634548D01*
X72710259Y-66627107D01*
X72723344Y-66620918D01*
X72736973Y-66616041D01*
X72751014Y-66612524D01*
X72765332Y-66610400D01*
X72779790Y-66609690D01*
X73124790Y-66609690D01*
X73139248Y-66610400D01*
X73139248Y-66610400D01*
G37*
D19*
X72952290Y-66904690D03*
D13*
G36*
X73139248Y-67580400D02*
G01*
X73153566Y-67582524D01*
X73167607Y-67586041D01*
X73181236Y-67590918D01*
X73194321Y-67597107D01*
X73206737Y-67604548D01*
X73218363Y-67613171D01*
X73229088Y-67622892D01*
X73238809Y-67633617D01*
X73247432Y-67645243D01*
X73254873Y-67657659D01*
X73261062Y-67670744D01*
X73265939Y-67684373D01*
X73269456Y-67698414D01*
X73271580Y-67712732D01*
X73272290Y-67727190D01*
X73272290Y-68022190D01*
X73271580Y-68036648D01*
X73269456Y-68050966D01*
X73265939Y-68065007D01*
X73261062Y-68078636D01*
X73254873Y-68091721D01*
X73247432Y-68104137D01*
X73238809Y-68115763D01*
X73229088Y-68126488D01*
X73218363Y-68136209D01*
X73206737Y-68144832D01*
X73194321Y-68152273D01*
X73181236Y-68158462D01*
X73167607Y-68163339D01*
X73153566Y-68166856D01*
X73139248Y-68168980D01*
X73124790Y-68169690D01*
X72779790Y-68169690D01*
X72765332Y-68168980D01*
X72751014Y-68166856D01*
X72736973Y-68163339D01*
X72723344Y-68158462D01*
X72710259Y-68152273D01*
X72697843Y-68144832D01*
X72686217Y-68136209D01*
X72675492Y-68126488D01*
X72665771Y-68115763D01*
X72657148Y-68104137D01*
X72649707Y-68091721D01*
X72643518Y-68078636D01*
X72638641Y-68065007D01*
X72635124Y-68050966D01*
X72633000Y-68036648D01*
X72632290Y-68022190D01*
X72632290Y-67727190D01*
X72633000Y-67712732D01*
X72635124Y-67698414D01*
X72638641Y-67684373D01*
X72643518Y-67670744D01*
X72649707Y-67657659D01*
X72657148Y-67645243D01*
X72665771Y-67633617D01*
X72675492Y-67622892D01*
X72686217Y-67613171D01*
X72697843Y-67604548D01*
X72710259Y-67597107D01*
X72723344Y-67590918D01*
X72736973Y-67586041D01*
X72751014Y-67582524D01*
X72765332Y-67580400D01*
X72779790Y-67579690D01*
X73124790Y-67579690D01*
X73139248Y-67580400D01*
X73139248Y-67580400D01*
G37*
D19*
X72952290Y-67874690D03*
D13*
G36*
X77711248Y-66610400D02*
G01*
X77725566Y-66612524D01*
X77739607Y-66616041D01*
X77753236Y-66620918D01*
X77766321Y-66627107D01*
X77778737Y-66634548D01*
X77790363Y-66643171D01*
X77801088Y-66652892D01*
X77810809Y-66663617D01*
X77819432Y-66675243D01*
X77826873Y-66687659D01*
X77833062Y-66700744D01*
X77837939Y-66714373D01*
X77841456Y-66728414D01*
X77843580Y-66742732D01*
X77844290Y-66757190D01*
X77844290Y-67052190D01*
X77843580Y-67066648D01*
X77841456Y-67080966D01*
X77837939Y-67095007D01*
X77833062Y-67108636D01*
X77826873Y-67121721D01*
X77819432Y-67134137D01*
X77810809Y-67145763D01*
X77801088Y-67156488D01*
X77790363Y-67166209D01*
X77778737Y-67174832D01*
X77766321Y-67182273D01*
X77753236Y-67188462D01*
X77739607Y-67193339D01*
X77725566Y-67196856D01*
X77711248Y-67198980D01*
X77696790Y-67199690D01*
X77351790Y-67199690D01*
X77337332Y-67198980D01*
X77323014Y-67196856D01*
X77308973Y-67193339D01*
X77295344Y-67188462D01*
X77282259Y-67182273D01*
X77269843Y-67174832D01*
X77258217Y-67166209D01*
X77247492Y-67156488D01*
X77237771Y-67145763D01*
X77229148Y-67134137D01*
X77221707Y-67121721D01*
X77215518Y-67108636D01*
X77210641Y-67095007D01*
X77207124Y-67080966D01*
X77205000Y-67066648D01*
X77204290Y-67052190D01*
X77204290Y-66757190D01*
X77205000Y-66742732D01*
X77207124Y-66728414D01*
X77210641Y-66714373D01*
X77215518Y-66700744D01*
X77221707Y-66687659D01*
X77229148Y-66675243D01*
X77237771Y-66663617D01*
X77247492Y-66652892D01*
X77258217Y-66643171D01*
X77269843Y-66634548D01*
X77282259Y-66627107D01*
X77295344Y-66620918D01*
X77308973Y-66616041D01*
X77323014Y-66612524D01*
X77337332Y-66610400D01*
X77351790Y-66609690D01*
X77696790Y-66609690D01*
X77711248Y-66610400D01*
X77711248Y-66610400D01*
G37*
D19*
X77524290Y-66904690D03*
D13*
G36*
X77711248Y-67580400D02*
G01*
X77725566Y-67582524D01*
X77739607Y-67586041D01*
X77753236Y-67590918D01*
X77766321Y-67597107D01*
X77778737Y-67604548D01*
X77790363Y-67613171D01*
X77801088Y-67622892D01*
X77810809Y-67633617D01*
X77819432Y-67645243D01*
X77826873Y-67657659D01*
X77833062Y-67670744D01*
X77837939Y-67684373D01*
X77841456Y-67698414D01*
X77843580Y-67712732D01*
X77844290Y-67727190D01*
X77844290Y-68022190D01*
X77843580Y-68036648D01*
X77841456Y-68050966D01*
X77837939Y-68065007D01*
X77833062Y-68078636D01*
X77826873Y-68091721D01*
X77819432Y-68104137D01*
X77810809Y-68115763D01*
X77801088Y-68126488D01*
X77790363Y-68136209D01*
X77778737Y-68144832D01*
X77766321Y-68152273D01*
X77753236Y-68158462D01*
X77739607Y-68163339D01*
X77725566Y-68166856D01*
X77711248Y-68168980D01*
X77696790Y-68169690D01*
X77351790Y-68169690D01*
X77337332Y-68168980D01*
X77323014Y-68166856D01*
X77308973Y-68163339D01*
X77295344Y-68158462D01*
X77282259Y-68152273D01*
X77269843Y-68144832D01*
X77258217Y-68136209D01*
X77247492Y-68126488D01*
X77237771Y-68115763D01*
X77229148Y-68104137D01*
X77221707Y-68091721D01*
X77215518Y-68078636D01*
X77210641Y-68065007D01*
X77207124Y-68050966D01*
X77205000Y-68036648D01*
X77204290Y-68022190D01*
X77204290Y-67727190D01*
X77205000Y-67712732D01*
X77207124Y-67698414D01*
X77210641Y-67684373D01*
X77215518Y-67670744D01*
X77221707Y-67657659D01*
X77229148Y-67645243D01*
X77237771Y-67633617D01*
X77247492Y-67622892D01*
X77258217Y-67613171D01*
X77269843Y-67604548D01*
X77282259Y-67597107D01*
X77295344Y-67590918D01*
X77308973Y-67586041D01*
X77323014Y-67582524D01*
X77337332Y-67580400D01*
X77351790Y-67579690D01*
X77696790Y-67579690D01*
X77711248Y-67580400D01*
X77711248Y-67580400D01*
G37*
D19*
X77524290Y-67874690D03*
D20*
X74538370Y-66839730D03*
X75938370Y-66839730D03*
X75938370Y-67939730D03*
X74538370Y-67939730D03*
D13*
G36*
X77521943Y-77810292D02*
G01*
X77534077Y-77812092D01*
X77545977Y-77815072D01*
X77557526Y-77819205D01*
X77568616Y-77824450D01*
X77579137Y-77830756D01*
X77588990Y-77838064D01*
X77598079Y-77846302D01*
X77606317Y-77855391D01*
X77613625Y-77865244D01*
X77619931Y-77875765D01*
X77625176Y-77886855D01*
X77629309Y-77898404D01*
X77632289Y-77910304D01*
X77634089Y-77922438D01*
X77634691Y-77934690D01*
X77634691Y-78759690D01*
X77634089Y-78771942D01*
X77632289Y-78784076D01*
X77629309Y-78795976D01*
X77625176Y-78807525D01*
X77619931Y-78818615D01*
X77613625Y-78829136D01*
X77606317Y-78838989D01*
X77598079Y-78848078D01*
X77588990Y-78856316D01*
X77579137Y-78863624D01*
X77568616Y-78869930D01*
X77557526Y-78875175D01*
X77545977Y-78879308D01*
X77534077Y-78882288D01*
X77521943Y-78884088D01*
X77509691Y-78884690D01*
X77509689Y-78884690D01*
X77497437Y-78884088D01*
X77485303Y-78882288D01*
X77473403Y-78879308D01*
X77461854Y-78875175D01*
X77450764Y-78869930D01*
X77440243Y-78863624D01*
X77430390Y-78856316D01*
X77421301Y-78848078D01*
X77413063Y-78838989D01*
X77405755Y-78829136D01*
X77399449Y-78818615D01*
X77394204Y-78807525D01*
X77390071Y-78795976D01*
X77387091Y-78784076D01*
X77385291Y-78771942D01*
X77384689Y-78759690D01*
X77384689Y-77934690D01*
X77385291Y-77922438D01*
X77387091Y-77910304D01*
X77390071Y-77898404D01*
X77394204Y-77886855D01*
X77399449Y-77875765D01*
X77405755Y-77865244D01*
X77413063Y-77855391D01*
X77421301Y-77846302D01*
X77430390Y-77838064D01*
X77440243Y-77830756D01*
X77450764Y-77824450D01*
X77461854Y-77819205D01*
X77473403Y-77815072D01*
X77485303Y-77812092D01*
X77497437Y-77810292D01*
X77509689Y-77809690D01*
X77509691Y-77809690D01*
X77521943Y-77810292D01*
X77521943Y-77810292D01*
G37*
D21*
X77509690Y-78347190D03*
D13*
G36*
X77021943Y-77810292D02*
G01*
X77034077Y-77812092D01*
X77045977Y-77815072D01*
X77057526Y-77819205D01*
X77068616Y-77824450D01*
X77079137Y-77830756D01*
X77088990Y-77838064D01*
X77098079Y-77846302D01*
X77106317Y-77855391D01*
X77113625Y-77865244D01*
X77119931Y-77875765D01*
X77125176Y-77886855D01*
X77129309Y-77898404D01*
X77132289Y-77910304D01*
X77134089Y-77922438D01*
X77134691Y-77934690D01*
X77134691Y-78759690D01*
X77134089Y-78771942D01*
X77132289Y-78784076D01*
X77129309Y-78795976D01*
X77125176Y-78807525D01*
X77119931Y-78818615D01*
X77113625Y-78829136D01*
X77106317Y-78838989D01*
X77098079Y-78848078D01*
X77088990Y-78856316D01*
X77079137Y-78863624D01*
X77068616Y-78869930D01*
X77057526Y-78875175D01*
X77045977Y-78879308D01*
X77034077Y-78882288D01*
X77021943Y-78884088D01*
X77009691Y-78884690D01*
X77009689Y-78884690D01*
X76997437Y-78884088D01*
X76985303Y-78882288D01*
X76973403Y-78879308D01*
X76961854Y-78875175D01*
X76950764Y-78869930D01*
X76940243Y-78863624D01*
X76930390Y-78856316D01*
X76921301Y-78848078D01*
X76913063Y-78838989D01*
X76905755Y-78829136D01*
X76899449Y-78818615D01*
X76894204Y-78807525D01*
X76890071Y-78795976D01*
X76887091Y-78784076D01*
X76885291Y-78771942D01*
X76884689Y-78759690D01*
X76884689Y-77934690D01*
X76885291Y-77922438D01*
X76887091Y-77910304D01*
X76890071Y-77898404D01*
X76894204Y-77886855D01*
X76899449Y-77875765D01*
X76905755Y-77865244D01*
X76913063Y-77855391D01*
X76921301Y-77846302D01*
X76930390Y-77838064D01*
X76940243Y-77830756D01*
X76950764Y-77824450D01*
X76961854Y-77819205D01*
X76973403Y-77815072D01*
X76985303Y-77812092D01*
X76997437Y-77810292D01*
X77009689Y-77809690D01*
X77009691Y-77809690D01*
X77021943Y-77810292D01*
X77021943Y-77810292D01*
G37*
D21*
X77009690Y-78347190D03*
D13*
G36*
X76521943Y-77810292D02*
G01*
X76534077Y-77812092D01*
X76545977Y-77815072D01*
X76557526Y-77819205D01*
X76568616Y-77824450D01*
X76579137Y-77830756D01*
X76588990Y-77838064D01*
X76598079Y-77846302D01*
X76606317Y-77855391D01*
X76613625Y-77865244D01*
X76619931Y-77875765D01*
X76625176Y-77886855D01*
X76629309Y-77898404D01*
X76632289Y-77910304D01*
X76634089Y-77922438D01*
X76634691Y-77934690D01*
X76634691Y-78759690D01*
X76634089Y-78771942D01*
X76632289Y-78784076D01*
X76629309Y-78795976D01*
X76625176Y-78807525D01*
X76619931Y-78818615D01*
X76613625Y-78829136D01*
X76606317Y-78838989D01*
X76598079Y-78848078D01*
X76588990Y-78856316D01*
X76579137Y-78863624D01*
X76568616Y-78869930D01*
X76557526Y-78875175D01*
X76545977Y-78879308D01*
X76534077Y-78882288D01*
X76521943Y-78884088D01*
X76509691Y-78884690D01*
X76509689Y-78884690D01*
X76497437Y-78884088D01*
X76485303Y-78882288D01*
X76473403Y-78879308D01*
X76461854Y-78875175D01*
X76450764Y-78869930D01*
X76440243Y-78863624D01*
X76430390Y-78856316D01*
X76421301Y-78848078D01*
X76413063Y-78838989D01*
X76405755Y-78829136D01*
X76399449Y-78818615D01*
X76394204Y-78807525D01*
X76390071Y-78795976D01*
X76387091Y-78784076D01*
X76385291Y-78771942D01*
X76384689Y-78759690D01*
X76384689Y-77934690D01*
X76385291Y-77922438D01*
X76387091Y-77910304D01*
X76390071Y-77898404D01*
X76394204Y-77886855D01*
X76399449Y-77875765D01*
X76405755Y-77865244D01*
X76413063Y-77855391D01*
X76421301Y-77846302D01*
X76430390Y-77838064D01*
X76440243Y-77830756D01*
X76450764Y-77824450D01*
X76461854Y-77819205D01*
X76473403Y-77815072D01*
X76485303Y-77812092D01*
X76497437Y-77810292D01*
X76509689Y-77809690D01*
X76509691Y-77809690D01*
X76521943Y-77810292D01*
X76521943Y-77810292D01*
G37*
D21*
X76509690Y-78347190D03*
D13*
G36*
X76021943Y-77810292D02*
G01*
X76034077Y-77812092D01*
X76045977Y-77815072D01*
X76057526Y-77819205D01*
X76068616Y-77824450D01*
X76079137Y-77830756D01*
X76088990Y-77838064D01*
X76098079Y-77846302D01*
X76106317Y-77855391D01*
X76113625Y-77865244D01*
X76119931Y-77875765D01*
X76125176Y-77886855D01*
X76129309Y-77898404D01*
X76132289Y-77910304D01*
X76134089Y-77922438D01*
X76134691Y-77934690D01*
X76134691Y-78759690D01*
X76134089Y-78771942D01*
X76132289Y-78784076D01*
X76129309Y-78795976D01*
X76125176Y-78807525D01*
X76119931Y-78818615D01*
X76113625Y-78829136D01*
X76106317Y-78838989D01*
X76098079Y-78848078D01*
X76088990Y-78856316D01*
X76079137Y-78863624D01*
X76068616Y-78869930D01*
X76057526Y-78875175D01*
X76045977Y-78879308D01*
X76034077Y-78882288D01*
X76021943Y-78884088D01*
X76009691Y-78884690D01*
X76009689Y-78884690D01*
X75997437Y-78884088D01*
X75985303Y-78882288D01*
X75973403Y-78879308D01*
X75961854Y-78875175D01*
X75950764Y-78869930D01*
X75940243Y-78863624D01*
X75930390Y-78856316D01*
X75921301Y-78848078D01*
X75913063Y-78838989D01*
X75905755Y-78829136D01*
X75899449Y-78818615D01*
X75894204Y-78807525D01*
X75890071Y-78795976D01*
X75887091Y-78784076D01*
X75885291Y-78771942D01*
X75884689Y-78759690D01*
X75884689Y-77934690D01*
X75885291Y-77922438D01*
X75887091Y-77910304D01*
X75890071Y-77898404D01*
X75894204Y-77886855D01*
X75899449Y-77875765D01*
X75905755Y-77865244D01*
X75913063Y-77855391D01*
X75921301Y-77846302D01*
X75930390Y-77838064D01*
X75940243Y-77830756D01*
X75950764Y-77824450D01*
X75961854Y-77819205D01*
X75973403Y-77815072D01*
X75985303Y-77812092D01*
X75997437Y-77810292D01*
X76009689Y-77809690D01*
X76009691Y-77809690D01*
X76021943Y-77810292D01*
X76021943Y-77810292D01*
G37*
D21*
X76009690Y-78347190D03*
D13*
G36*
X75521943Y-77810292D02*
G01*
X75534077Y-77812092D01*
X75545977Y-77815072D01*
X75557526Y-77819205D01*
X75568616Y-77824450D01*
X75579137Y-77830756D01*
X75588990Y-77838064D01*
X75598079Y-77846302D01*
X75606317Y-77855391D01*
X75613625Y-77865244D01*
X75619931Y-77875765D01*
X75625176Y-77886855D01*
X75629309Y-77898404D01*
X75632289Y-77910304D01*
X75634089Y-77922438D01*
X75634691Y-77934690D01*
X75634691Y-78759690D01*
X75634089Y-78771942D01*
X75632289Y-78784076D01*
X75629309Y-78795976D01*
X75625176Y-78807525D01*
X75619931Y-78818615D01*
X75613625Y-78829136D01*
X75606317Y-78838989D01*
X75598079Y-78848078D01*
X75588990Y-78856316D01*
X75579137Y-78863624D01*
X75568616Y-78869930D01*
X75557526Y-78875175D01*
X75545977Y-78879308D01*
X75534077Y-78882288D01*
X75521943Y-78884088D01*
X75509691Y-78884690D01*
X75509689Y-78884690D01*
X75497437Y-78884088D01*
X75485303Y-78882288D01*
X75473403Y-78879308D01*
X75461854Y-78875175D01*
X75450764Y-78869930D01*
X75440243Y-78863624D01*
X75430390Y-78856316D01*
X75421301Y-78848078D01*
X75413063Y-78838989D01*
X75405755Y-78829136D01*
X75399449Y-78818615D01*
X75394204Y-78807525D01*
X75390071Y-78795976D01*
X75387091Y-78784076D01*
X75385291Y-78771942D01*
X75384689Y-78759690D01*
X75384689Y-77934690D01*
X75385291Y-77922438D01*
X75387091Y-77910304D01*
X75390071Y-77898404D01*
X75394204Y-77886855D01*
X75399449Y-77875765D01*
X75405755Y-77865244D01*
X75413063Y-77855391D01*
X75421301Y-77846302D01*
X75430390Y-77838064D01*
X75440243Y-77830756D01*
X75450764Y-77824450D01*
X75461854Y-77819205D01*
X75473403Y-77815072D01*
X75485303Y-77812092D01*
X75497437Y-77810292D01*
X75509689Y-77809690D01*
X75509691Y-77809690D01*
X75521943Y-77810292D01*
X75521943Y-77810292D01*
G37*
D21*
X75509690Y-78347190D03*
D13*
G36*
X75021943Y-77810292D02*
G01*
X75034077Y-77812092D01*
X75045977Y-77815072D01*
X75057526Y-77819205D01*
X75068616Y-77824450D01*
X75079137Y-77830756D01*
X75088990Y-77838064D01*
X75098079Y-77846302D01*
X75106317Y-77855391D01*
X75113625Y-77865244D01*
X75119931Y-77875765D01*
X75125176Y-77886855D01*
X75129309Y-77898404D01*
X75132289Y-77910304D01*
X75134089Y-77922438D01*
X75134691Y-77934690D01*
X75134691Y-78759690D01*
X75134089Y-78771942D01*
X75132289Y-78784076D01*
X75129309Y-78795976D01*
X75125176Y-78807525D01*
X75119931Y-78818615D01*
X75113625Y-78829136D01*
X75106317Y-78838989D01*
X75098079Y-78848078D01*
X75088990Y-78856316D01*
X75079137Y-78863624D01*
X75068616Y-78869930D01*
X75057526Y-78875175D01*
X75045977Y-78879308D01*
X75034077Y-78882288D01*
X75021943Y-78884088D01*
X75009691Y-78884690D01*
X75009689Y-78884690D01*
X74997437Y-78884088D01*
X74985303Y-78882288D01*
X74973403Y-78879308D01*
X74961854Y-78875175D01*
X74950764Y-78869930D01*
X74940243Y-78863624D01*
X74930390Y-78856316D01*
X74921301Y-78848078D01*
X74913063Y-78838989D01*
X74905755Y-78829136D01*
X74899449Y-78818615D01*
X74894204Y-78807525D01*
X74890071Y-78795976D01*
X74887091Y-78784076D01*
X74885291Y-78771942D01*
X74884689Y-78759690D01*
X74884689Y-77934690D01*
X74885291Y-77922438D01*
X74887091Y-77910304D01*
X74890071Y-77898404D01*
X74894204Y-77886855D01*
X74899449Y-77875765D01*
X74905755Y-77865244D01*
X74913063Y-77855391D01*
X74921301Y-77846302D01*
X74930390Y-77838064D01*
X74940243Y-77830756D01*
X74950764Y-77824450D01*
X74961854Y-77819205D01*
X74973403Y-77815072D01*
X74985303Y-77812092D01*
X74997437Y-77810292D01*
X75009689Y-77809690D01*
X75009691Y-77809690D01*
X75021943Y-77810292D01*
X75021943Y-77810292D01*
G37*
D21*
X75009690Y-78347190D03*
D13*
G36*
X74521943Y-77810292D02*
G01*
X74534077Y-77812092D01*
X74545977Y-77815072D01*
X74557526Y-77819205D01*
X74568616Y-77824450D01*
X74579137Y-77830756D01*
X74588990Y-77838064D01*
X74598079Y-77846302D01*
X74606317Y-77855391D01*
X74613625Y-77865244D01*
X74619931Y-77875765D01*
X74625176Y-77886855D01*
X74629309Y-77898404D01*
X74632289Y-77910304D01*
X74634089Y-77922438D01*
X74634691Y-77934690D01*
X74634691Y-78759690D01*
X74634089Y-78771942D01*
X74632289Y-78784076D01*
X74629309Y-78795976D01*
X74625176Y-78807525D01*
X74619931Y-78818615D01*
X74613625Y-78829136D01*
X74606317Y-78838989D01*
X74598079Y-78848078D01*
X74588990Y-78856316D01*
X74579137Y-78863624D01*
X74568616Y-78869930D01*
X74557526Y-78875175D01*
X74545977Y-78879308D01*
X74534077Y-78882288D01*
X74521943Y-78884088D01*
X74509691Y-78884690D01*
X74509689Y-78884690D01*
X74497437Y-78884088D01*
X74485303Y-78882288D01*
X74473403Y-78879308D01*
X74461854Y-78875175D01*
X74450764Y-78869930D01*
X74440243Y-78863624D01*
X74430390Y-78856316D01*
X74421301Y-78848078D01*
X74413063Y-78838989D01*
X74405755Y-78829136D01*
X74399449Y-78818615D01*
X74394204Y-78807525D01*
X74390071Y-78795976D01*
X74387091Y-78784076D01*
X74385291Y-78771942D01*
X74384689Y-78759690D01*
X74384689Y-77934690D01*
X74385291Y-77922438D01*
X74387091Y-77910304D01*
X74390071Y-77898404D01*
X74394204Y-77886855D01*
X74399449Y-77875765D01*
X74405755Y-77865244D01*
X74413063Y-77855391D01*
X74421301Y-77846302D01*
X74430390Y-77838064D01*
X74440243Y-77830756D01*
X74450764Y-77824450D01*
X74461854Y-77819205D01*
X74473403Y-77815072D01*
X74485303Y-77812092D01*
X74497437Y-77810292D01*
X74509689Y-77809690D01*
X74509691Y-77809690D01*
X74521943Y-77810292D01*
X74521943Y-77810292D01*
G37*
D21*
X74509690Y-78347190D03*
D13*
G36*
X74021943Y-77810292D02*
G01*
X74034077Y-77812092D01*
X74045977Y-77815072D01*
X74057526Y-77819205D01*
X74068616Y-77824450D01*
X74079137Y-77830756D01*
X74088990Y-77838064D01*
X74098079Y-77846302D01*
X74106317Y-77855391D01*
X74113625Y-77865244D01*
X74119931Y-77875765D01*
X74125176Y-77886855D01*
X74129309Y-77898404D01*
X74132289Y-77910304D01*
X74134089Y-77922438D01*
X74134691Y-77934690D01*
X74134691Y-78759690D01*
X74134089Y-78771942D01*
X74132289Y-78784076D01*
X74129309Y-78795976D01*
X74125176Y-78807525D01*
X74119931Y-78818615D01*
X74113625Y-78829136D01*
X74106317Y-78838989D01*
X74098079Y-78848078D01*
X74088990Y-78856316D01*
X74079137Y-78863624D01*
X74068616Y-78869930D01*
X74057526Y-78875175D01*
X74045977Y-78879308D01*
X74034077Y-78882288D01*
X74021943Y-78884088D01*
X74009691Y-78884690D01*
X74009689Y-78884690D01*
X73997437Y-78884088D01*
X73985303Y-78882288D01*
X73973403Y-78879308D01*
X73961854Y-78875175D01*
X73950764Y-78869930D01*
X73940243Y-78863624D01*
X73930390Y-78856316D01*
X73921301Y-78848078D01*
X73913063Y-78838989D01*
X73905755Y-78829136D01*
X73899449Y-78818615D01*
X73894204Y-78807525D01*
X73890071Y-78795976D01*
X73887091Y-78784076D01*
X73885291Y-78771942D01*
X73884689Y-78759690D01*
X73884689Y-77934690D01*
X73885291Y-77922438D01*
X73887091Y-77910304D01*
X73890071Y-77898404D01*
X73894204Y-77886855D01*
X73899449Y-77875765D01*
X73905755Y-77865244D01*
X73913063Y-77855391D01*
X73921301Y-77846302D01*
X73930390Y-77838064D01*
X73940243Y-77830756D01*
X73950764Y-77824450D01*
X73961854Y-77819205D01*
X73973403Y-77815072D01*
X73985303Y-77812092D01*
X73997437Y-77810292D01*
X74009689Y-77809690D01*
X74009691Y-77809690D01*
X74021943Y-77810292D01*
X74021943Y-77810292D01*
G37*
D21*
X74009690Y-78347190D03*
D13*
G36*
X73521943Y-77810292D02*
G01*
X73534077Y-77812092D01*
X73545977Y-77815072D01*
X73557526Y-77819205D01*
X73568616Y-77824450D01*
X73579137Y-77830756D01*
X73588990Y-77838064D01*
X73598079Y-77846302D01*
X73606317Y-77855391D01*
X73613625Y-77865244D01*
X73619931Y-77875765D01*
X73625176Y-77886855D01*
X73629309Y-77898404D01*
X73632289Y-77910304D01*
X73634089Y-77922438D01*
X73634691Y-77934690D01*
X73634691Y-78759690D01*
X73634089Y-78771942D01*
X73632289Y-78784076D01*
X73629309Y-78795976D01*
X73625176Y-78807525D01*
X73619931Y-78818615D01*
X73613625Y-78829136D01*
X73606317Y-78838989D01*
X73598079Y-78848078D01*
X73588990Y-78856316D01*
X73579137Y-78863624D01*
X73568616Y-78869930D01*
X73557526Y-78875175D01*
X73545977Y-78879308D01*
X73534077Y-78882288D01*
X73521943Y-78884088D01*
X73509691Y-78884690D01*
X73509689Y-78884690D01*
X73497437Y-78884088D01*
X73485303Y-78882288D01*
X73473403Y-78879308D01*
X73461854Y-78875175D01*
X73450764Y-78869930D01*
X73440243Y-78863624D01*
X73430390Y-78856316D01*
X73421301Y-78848078D01*
X73413063Y-78838989D01*
X73405755Y-78829136D01*
X73399449Y-78818615D01*
X73394204Y-78807525D01*
X73390071Y-78795976D01*
X73387091Y-78784076D01*
X73385291Y-78771942D01*
X73384689Y-78759690D01*
X73384689Y-77934690D01*
X73385291Y-77922438D01*
X73387091Y-77910304D01*
X73390071Y-77898404D01*
X73394204Y-77886855D01*
X73399449Y-77875765D01*
X73405755Y-77865244D01*
X73413063Y-77855391D01*
X73421301Y-77846302D01*
X73430390Y-77838064D01*
X73440243Y-77830756D01*
X73450764Y-77824450D01*
X73461854Y-77819205D01*
X73473403Y-77815072D01*
X73485303Y-77812092D01*
X73497437Y-77810292D01*
X73509689Y-77809690D01*
X73509691Y-77809690D01*
X73521943Y-77810292D01*
X73521943Y-77810292D01*
G37*
D21*
X73509690Y-78347190D03*
D13*
G36*
X73021943Y-77810292D02*
G01*
X73034077Y-77812092D01*
X73045977Y-77815072D01*
X73057526Y-77819205D01*
X73068616Y-77824450D01*
X73079137Y-77830756D01*
X73088990Y-77838064D01*
X73098079Y-77846302D01*
X73106317Y-77855391D01*
X73113625Y-77865244D01*
X73119931Y-77875765D01*
X73125176Y-77886855D01*
X73129309Y-77898404D01*
X73132289Y-77910304D01*
X73134089Y-77922438D01*
X73134691Y-77934690D01*
X73134691Y-78759690D01*
X73134089Y-78771942D01*
X73132289Y-78784076D01*
X73129309Y-78795976D01*
X73125176Y-78807525D01*
X73119931Y-78818615D01*
X73113625Y-78829136D01*
X73106317Y-78838989D01*
X73098079Y-78848078D01*
X73088990Y-78856316D01*
X73079137Y-78863624D01*
X73068616Y-78869930D01*
X73057526Y-78875175D01*
X73045977Y-78879308D01*
X73034077Y-78882288D01*
X73021943Y-78884088D01*
X73009691Y-78884690D01*
X73009689Y-78884690D01*
X72997437Y-78884088D01*
X72985303Y-78882288D01*
X72973403Y-78879308D01*
X72961854Y-78875175D01*
X72950764Y-78869930D01*
X72940243Y-78863624D01*
X72930390Y-78856316D01*
X72921301Y-78848078D01*
X72913063Y-78838989D01*
X72905755Y-78829136D01*
X72899449Y-78818615D01*
X72894204Y-78807525D01*
X72890071Y-78795976D01*
X72887091Y-78784076D01*
X72885291Y-78771942D01*
X72884689Y-78759690D01*
X72884689Y-77934690D01*
X72885291Y-77922438D01*
X72887091Y-77910304D01*
X72890071Y-77898404D01*
X72894204Y-77886855D01*
X72899449Y-77875765D01*
X72905755Y-77865244D01*
X72913063Y-77855391D01*
X72921301Y-77846302D01*
X72930390Y-77838064D01*
X72940243Y-77830756D01*
X72950764Y-77824450D01*
X72961854Y-77819205D01*
X72973403Y-77815072D01*
X72985303Y-77812092D01*
X72997437Y-77810292D01*
X73009689Y-77809690D01*
X73009691Y-77809690D01*
X73021943Y-77810292D01*
X73021943Y-77810292D01*
G37*
D21*
X73009690Y-78347190D03*
D13*
G36*
X72521943Y-77810292D02*
G01*
X72534077Y-77812092D01*
X72545977Y-77815072D01*
X72557526Y-77819205D01*
X72568616Y-77824450D01*
X72579137Y-77830756D01*
X72588990Y-77838064D01*
X72598079Y-77846302D01*
X72606317Y-77855391D01*
X72613625Y-77865244D01*
X72619931Y-77875765D01*
X72625176Y-77886855D01*
X72629309Y-77898404D01*
X72632289Y-77910304D01*
X72634089Y-77922438D01*
X72634691Y-77934690D01*
X72634691Y-78759690D01*
X72634089Y-78771942D01*
X72632289Y-78784076D01*
X72629309Y-78795976D01*
X72625176Y-78807525D01*
X72619931Y-78818615D01*
X72613625Y-78829136D01*
X72606317Y-78838989D01*
X72598079Y-78848078D01*
X72588990Y-78856316D01*
X72579137Y-78863624D01*
X72568616Y-78869930D01*
X72557526Y-78875175D01*
X72545977Y-78879308D01*
X72534077Y-78882288D01*
X72521943Y-78884088D01*
X72509691Y-78884690D01*
X72509689Y-78884690D01*
X72497437Y-78884088D01*
X72485303Y-78882288D01*
X72473403Y-78879308D01*
X72461854Y-78875175D01*
X72450764Y-78869930D01*
X72440243Y-78863624D01*
X72430390Y-78856316D01*
X72421301Y-78848078D01*
X72413063Y-78838989D01*
X72405755Y-78829136D01*
X72399449Y-78818615D01*
X72394204Y-78807525D01*
X72390071Y-78795976D01*
X72387091Y-78784076D01*
X72385291Y-78771942D01*
X72384689Y-78759690D01*
X72384689Y-77934690D01*
X72385291Y-77922438D01*
X72387091Y-77910304D01*
X72390071Y-77898404D01*
X72394204Y-77886855D01*
X72399449Y-77875765D01*
X72405755Y-77865244D01*
X72413063Y-77855391D01*
X72421301Y-77846302D01*
X72430390Y-77838064D01*
X72440243Y-77830756D01*
X72450764Y-77824450D01*
X72461854Y-77819205D01*
X72473403Y-77815072D01*
X72485303Y-77812092D01*
X72497437Y-77810292D01*
X72509689Y-77809690D01*
X72509691Y-77809690D01*
X72521943Y-77810292D01*
X72521943Y-77810292D01*
G37*
D21*
X72509690Y-78347190D03*
D13*
G36*
X72096942Y-77385291D02*
G01*
X72109076Y-77387091D01*
X72120976Y-77390071D01*
X72132525Y-77394204D01*
X72143615Y-77399449D01*
X72154136Y-77405755D01*
X72163989Y-77413063D01*
X72173078Y-77421301D01*
X72181316Y-77430390D01*
X72188624Y-77440243D01*
X72194930Y-77450764D01*
X72200175Y-77461854D01*
X72204308Y-77473403D01*
X72207288Y-77485303D01*
X72209088Y-77497437D01*
X72209690Y-77509689D01*
X72209690Y-77509691D01*
X72209088Y-77521943D01*
X72207288Y-77534077D01*
X72204308Y-77545977D01*
X72200175Y-77557526D01*
X72194930Y-77568616D01*
X72188624Y-77579137D01*
X72181316Y-77588990D01*
X72173078Y-77598079D01*
X72163989Y-77606317D01*
X72154136Y-77613625D01*
X72143615Y-77619931D01*
X72132525Y-77625176D01*
X72120976Y-77629309D01*
X72109076Y-77632289D01*
X72096942Y-77634089D01*
X72084690Y-77634691D01*
X71259690Y-77634691D01*
X71247438Y-77634089D01*
X71235304Y-77632289D01*
X71223404Y-77629309D01*
X71211855Y-77625176D01*
X71200765Y-77619931D01*
X71190244Y-77613625D01*
X71180391Y-77606317D01*
X71171302Y-77598079D01*
X71163064Y-77588990D01*
X71155756Y-77579137D01*
X71149450Y-77568616D01*
X71144205Y-77557526D01*
X71140072Y-77545977D01*
X71137092Y-77534077D01*
X71135292Y-77521943D01*
X71134690Y-77509691D01*
X71134690Y-77509689D01*
X71135292Y-77497437D01*
X71137092Y-77485303D01*
X71140072Y-77473403D01*
X71144205Y-77461854D01*
X71149450Y-77450764D01*
X71155756Y-77440243D01*
X71163064Y-77430390D01*
X71171302Y-77421301D01*
X71180391Y-77413063D01*
X71190244Y-77405755D01*
X71200765Y-77399449D01*
X71211855Y-77394204D01*
X71223404Y-77390071D01*
X71235304Y-77387091D01*
X71247438Y-77385291D01*
X71259690Y-77384689D01*
X72084690Y-77384689D01*
X72096942Y-77385291D01*
X72096942Y-77385291D01*
G37*
D21*
X71672190Y-77509690D03*
D13*
G36*
X72096942Y-76885291D02*
G01*
X72109076Y-76887091D01*
X72120976Y-76890071D01*
X72132525Y-76894204D01*
X72143615Y-76899449D01*
X72154136Y-76905755D01*
X72163989Y-76913063D01*
X72173078Y-76921301D01*
X72181316Y-76930390D01*
X72188624Y-76940243D01*
X72194930Y-76950764D01*
X72200175Y-76961854D01*
X72204308Y-76973403D01*
X72207288Y-76985303D01*
X72209088Y-76997437D01*
X72209690Y-77009689D01*
X72209690Y-77009691D01*
X72209088Y-77021943D01*
X72207288Y-77034077D01*
X72204308Y-77045977D01*
X72200175Y-77057526D01*
X72194930Y-77068616D01*
X72188624Y-77079137D01*
X72181316Y-77088990D01*
X72173078Y-77098079D01*
X72163989Y-77106317D01*
X72154136Y-77113625D01*
X72143615Y-77119931D01*
X72132525Y-77125176D01*
X72120976Y-77129309D01*
X72109076Y-77132289D01*
X72096942Y-77134089D01*
X72084690Y-77134691D01*
X71259690Y-77134691D01*
X71247438Y-77134089D01*
X71235304Y-77132289D01*
X71223404Y-77129309D01*
X71211855Y-77125176D01*
X71200765Y-77119931D01*
X71190244Y-77113625D01*
X71180391Y-77106317D01*
X71171302Y-77098079D01*
X71163064Y-77088990D01*
X71155756Y-77079137D01*
X71149450Y-77068616D01*
X71144205Y-77057526D01*
X71140072Y-77045977D01*
X71137092Y-77034077D01*
X71135292Y-77021943D01*
X71134690Y-77009691D01*
X71134690Y-77009689D01*
X71135292Y-76997437D01*
X71137092Y-76985303D01*
X71140072Y-76973403D01*
X71144205Y-76961854D01*
X71149450Y-76950764D01*
X71155756Y-76940243D01*
X71163064Y-76930390D01*
X71171302Y-76921301D01*
X71180391Y-76913063D01*
X71190244Y-76905755D01*
X71200765Y-76899449D01*
X71211855Y-76894204D01*
X71223404Y-76890071D01*
X71235304Y-76887091D01*
X71247438Y-76885291D01*
X71259690Y-76884689D01*
X72084690Y-76884689D01*
X72096942Y-76885291D01*
X72096942Y-76885291D01*
G37*
D21*
X71672190Y-77009690D03*
D13*
G36*
X72096942Y-76385291D02*
G01*
X72109076Y-76387091D01*
X72120976Y-76390071D01*
X72132525Y-76394204D01*
X72143615Y-76399449D01*
X72154136Y-76405755D01*
X72163989Y-76413063D01*
X72173078Y-76421301D01*
X72181316Y-76430390D01*
X72188624Y-76440243D01*
X72194930Y-76450764D01*
X72200175Y-76461854D01*
X72204308Y-76473403D01*
X72207288Y-76485303D01*
X72209088Y-76497437D01*
X72209690Y-76509689D01*
X72209690Y-76509691D01*
X72209088Y-76521943D01*
X72207288Y-76534077D01*
X72204308Y-76545977D01*
X72200175Y-76557526D01*
X72194930Y-76568616D01*
X72188624Y-76579137D01*
X72181316Y-76588990D01*
X72173078Y-76598079D01*
X72163989Y-76606317D01*
X72154136Y-76613625D01*
X72143615Y-76619931D01*
X72132525Y-76625176D01*
X72120976Y-76629309D01*
X72109076Y-76632289D01*
X72096942Y-76634089D01*
X72084690Y-76634691D01*
X71259690Y-76634691D01*
X71247438Y-76634089D01*
X71235304Y-76632289D01*
X71223404Y-76629309D01*
X71211855Y-76625176D01*
X71200765Y-76619931D01*
X71190244Y-76613625D01*
X71180391Y-76606317D01*
X71171302Y-76598079D01*
X71163064Y-76588990D01*
X71155756Y-76579137D01*
X71149450Y-76568616D01*
X71144205Y-76557526D01*
X71140072Y-76545977D01*
X71137092Y-76534077D01*
X71135292Y-76521943D01*
X71134690Y-76509691D01*
X71134690Y-76509689D01*
X71135292Y-76497437D01*
X71137092Y-76485303D01*
X71140072Y-76473403D01*
X71144205Y-76461854D01*
X71149450Y-76450764D01*
X71155756Y-76440243D01*
X71163064Y-76430390D01*
X71171302Y-76421301D01*
X71180391Y-76413063D01*
X71190244Y-76405755D01*
X71200765Y-76399449D01*
X71211855Y-76394204D01*
X71223404Y-76390071D01*
X71235304Y-76387091D01*
X71247438Y-76385291D01*
X71259690Y-76384689D01*
X72084690Y-76384689D01*
X72096942Y-76385291D01*
X72096942Y-76385291D01*
G37*
D21*
X71672190Y-76509690D03*
D13*
G36*
X72096942Y-75885291D02*
G01*
X72109076Y-75887091D01*
X72120976Y-75890071D01*
X72132525Y-75894204D01*
X72143615Y-75899449D01*
X72154136Y-75905755D01*
X72163989Y-75913063D01*
X72173078Y-75921301D01*
X72181316Y-75930390D01*
X72188624Y-75940243D01*
X72194930Y-75950764D01*
X72200175Y-75961854D01*
X72204308Y-75973403D01*
X72207288Y-75985303D01*
X72209088Y-75997437D01*
X72209690Y-76009689D01*
X72209690Y-76009691D01*
X72209088Y-76021943D01*
X72207288Y-76034077D01*
X72204308Y-76045977D01*
X72200175Y-76057526D01*
X72194930Y-76068616D01*
X72188624Y-76079137D01*
X72181316Y-76088990D01*
X72173078Y-76098079D01*
X72163989Y-76106317D01*
X72154136Y-76113625D01*
X72143615Y-76119931D01*
X72132525Y-76125176D01*
X72120976Y-76129309D01*
X72109076Y-76132289D01*
X72096942Y-76134089D01*
X72084690Y-76134691D01*
X71259690Y-76134691D01*
X71247438Y-76134089D01*
X71235304Y-76132289D01*
X71223404Y-76129309D01*
X71211855Y-76125176D01*
X71200765Y-76119931D01*
X71190244Y-76113625D01*
X71180391Y-76106317D01*
X71171302Y-76098079D01*
X71163064Y-76088990D01*
X71155756Y-76079137D01*
X71149450Y-76068616D01*
X71144205Y-76057526D01*
X71140072Y-76045977D01*
X71137092Y-76034077D01*
X71135292Y-76021943D01*
X71134690Y-76009691D01*
X71134690Y-76009689D01*
X71135292Y-75997437D01*
X71137092Y-75985303D01*
X71140072Y-75973403D01*
X71144205Y-75961854D01*
X71149450Y-75950764D01*
X71155756Y-75940243D01*
X71163064Y-75930390D01*
X71171302Y-75921301D01*
X71180391Y-75913063D01*
X71190244Y-75905755D01*
X71200765Y-75899449D01*
X71211855Y-75894204D01*
X71223404Y-75890071D01*
X71235304Y-75887091D01*
X71247438Y-75885291D01*
X71259690Y-75884689D01*
X72084690Y-75884689D01*
X72096942Y-75885291D01*
X72096942Y-75885291D01*
G37*
D21*
X71672190Y-76009690D03*
D13*
G36*
X72096942Y-75385291D02*
G01*
X72109076Y-75387091D01*
X72120976Y-75390071D01*
X72132525Y-75394204D01*
X72143615Y-75399449D01*
X72154136Y-75405755D01*
X72163989Y-75413063D01*
X72173078Y-75421301D01*
X72181316Y-75430390D01*
X72188624Y-75440243D01*
X72194930Y-75450764D01*
X72200175Y-75461854D01*
X72204308Y-75473403D01*
X72207288Y-75485303D01*
X72209088Y-75497437D01*
X72209690Y-75509689D01*
X72209690Y-75509691D01*
X72209088Y-75521943D01*
X72207288Y-75534077D01*
X72204308Y-75545977D01*
X72200175Y-75557526D01*
X72194930Y-75568616D01*
X72188624Y-75579137D01*
X72181316Y-75588990D01*
X72173078Y-75598079D01*
X72163989Y-75606317D01*
X72154136Y-75613625D01*
X72143615Y-75619931D01*
X72132525Y-75625176D01*
X72120976Y-75629309D01*
X72109076Y-75632289D01*
X72096942Y-75634089D01*
X72084690Y-75634691D01*
X71259690Y-75634691D01*
X71247438Y-75634089D01*
X71235304Y-75632289D01*
X71223404Y-75629309D01*
X71211855Y-75625176D01*
X71200765Y-75619931D01*
X71190244Y-75613625D01*
X71180391Y-75606317D01*
X71171302Y-75598079D01*
X71163064Y-75588990D01*
X71155756Y-75579137D01*
X71149450Y-75568616D01*
X71144205Y-75557526D01*
X71140072Y-75545977D01*
X71137092Y-75534077D01*
X71135292Y-75521943D01*
X71134690Y-75509691D01*
X71134690Y-75509689D01*
X71135292Y-75497437D01*
X71137092Y-75485303D01*
X71140072Y-75473403D01*
X71144205Y-75461854D01*
X71149450Y-75450764D01*
X71155756Y-75440243D01*
X71163064Y-75430390D01*
X71171302Y-75421301D01*
X71180391Y-75413063D01*
X71190244Y-75405755D01*
X71200765Y-75399449D01*
X71211855Y-75394204D01*
X71223404Y-75390071D01*
X71235304Y-75387091D01*
X71247438Y-75385291D01*
X71259690Y-75384689D01*
X72084690Y-75384689D01*
X72096942Y-75385291D01*
X72096942Y-75385291D01*
G37*
D21*
X71672190Y-75509690D03*
D13*
G36*
X72096942Y-74885291D02*
G01*
X72109076Y-74887091D01*
X72120976Y-74890071D01*
X72132525Y-74894204D01*
X72143615Y-74899449D01*
X72154136Y-74905755D01*
X72163989Y-74913063D01*
X72173078Y-74921301D01*
X72181316Y-74930390D01*
X72188624Y-74940243D01*
X72194930Y-74950764D01*
X72200175Y-74961854D01*
X72204308Y-74973403D01*
X72207288Y-74985303D01*
X72209088Y-74997437D01*
X72209690Y-75009689D01*
X72209690Y-75009691D01*
X72209088Y-75021943D01*
X72207288Y-75034077D01*
X72204308Y-75045977D01*
X72200175Y-75057526D01*
X72194930Y-75068616D01*
X72188624Y-75079137D01*
X72181316Y-75088990D01*
X72173078Y-75098079D01*
X72163989Y-75106317D01*
X72154136Y-75113625D01*
X72143615Y-75119931D01*
X72132525Y-75125176D01*
X72120976Y-75129309D01*
X72109076Y-75132289D01*
X72096942Y-75134089D01*
X72084690Y-75134691D01*
X71259690Y-75134691D01*
X71247438Y-75134089D01*
X71235304Y-75132289D01*
X71223404Y-75129309D01*
X71211855Y-75125176D01*
X71200765Y-75119931D01*
X71190244Y-75113625D01*
X71180391Y-75106317D01*
X71171302Y-75098079D01*
X71163064Y-75088990D01*
X71155756Y-75079137D01*
X71149450Y-75068616D01*
X71144205Y-75057526D01*
X71140072Y-75045977D01*
X71137092Y-75034077D01*
X71135292Y-75021943D01*
X71134690Y-75009691D01*
X71134690Y-75009689D01*
X71135292Y-74997437D01*
X71137092Y-74985303D01*
X71140072Y-74973403D01*
X71144205Y-74961854D01*
X71149450Y-74950764D01*
X71155756Y-74940243D01*
X71163064Y-74930390D01*
X71171302Y-74921301D01*
X71180391Y-74913063D01*
X71190244Y-74905755D01*
X71200765Y-74899449D01*
X71211855Y-74894204D01*
X71223404Y-74890071D01*
X71235304Y-74887091D01*
X71247438Y-74885291D01*
X71259690Y-74884689D01*
X72084690Y-74884689D01*
X72096942Y-74885291D01*
X72096942Y-74885291D01*
G37*
D21*
X71672190Y-75009690D03*
D13*
G36*
X72096942Y-74385291D02*
G01*
X72109076Y-74387091D01*
X72120976Y-74390071D01*
X72132525Y-74394204D01*
X72143615Y-74399449D01*
X72154136Y-74405755D01*
X72163989Y-74413063D01*
X72173078Y-74421301D01*
X72181316Y-74430390D01*
X72188624Y-74440243D01*
X72194930Y-74450764D01*
X72200175Y-74461854D01*
X72204308Y-74473403D01*
X72207288Y-74485303D01*
X72209088Y-74497437D01*
X72209690Y-74509689D01*
X72209690Y-74509691D01*
X72209088Y-74521943D01*
X72207288Y-74534077D01*
X72204308Y-74545977D01*
X72200175Y-74557526D01*
X72194930Y-74568616D01*
X72188624Y-74579137D01*
X72181316Y-74588990D01*
X72173078Y-74598079D01*
X72163989Y-74606317D01*
X72154136Y-74613625D01*
X72143615Y-74619931D01*
X72132525Y-74625176D01*
X72120976Y-74629309D01*
X72109076Y-74632289D01*
X72096942Y-74634089D01*
X72084690Y-74634691D01*
X71259690Y-74634691D01*
X71247438Y-74634089D01*
X71235304Y-74632289D01*
X71223404Y-74629309D01*
X71211855Y-74625176D01*
X71200765Y-74619931D01*
X71190244Y-74613625D01*
X71180391Y-74606317D01*
X71171302Y-74598079D01*
X71163064Y-74588990D01*
X71155756Y-74579137D01*
X71149450Y-74568616D01*
X71144205Y-74557526D01*
X71140072Y-74545977D01*
X71137092Y-74534077D01*
X71135292Y-74521943D01*
X71134690Y-74509691D01*
X71134690Y-74509689D01*
X71135292Y-74497437D01*
X71137092Y-74485303D01*
X71140072Y-74473403D01*
X71144205Y-74461854D01*
X71149450Y-74450764D01*
X71155756Y-74440243D01*
X71163064Y-74430390D01*
X71171302Y-74421301D01*
X71180391Y-74413063D01*
X71190244Y-74405755D01*
X71200765Y-74399449D01*
X71211855Y-74394204D01*
X71223404Y-74390071D01*
X71235304Y-74387091D01*
X71247438Y-74385291D01*
X71259690Y-74384689D01*
X72084690Y-74384689D01*
X72096942Y-74385291D01*
X72096942Y-74385291D01*
G37*
D21*
X71672190Y-74509690D03*
D13*
G36*
X72096942Y-73885291D02*
G01*
X72109076Y-73887091D01*
X72120976Y-73890071D01*
X72132525Y-73894204D01*
X72143615Y-73899449D01*
X72154136Y-73905755D01*
X72163989Y-73913063D01*
X72173078Y-73921301D01*
X72181316Y-73930390D01*
X72188624Y-73940243D01*
X72194930Y-73950764D01*
X72200175Y-73961854D01*
X72204308Y-73973403D01*
X72207288Y-73985303D01*
X72209088Y-73997437D01*
X72209690Y-74009689D01*
X72209690Y-74009691D01*
X72209088Y-74021943D01*
X72207288Y-74034077D01*
X72204308Y-74045977D01*
X72200175Y-74057526D01*
X72194930Y-74068616D01*
X72188624Y-74079137D01*
X72181316Y-74088990D01*
X72173078Y-74098079D01*
X72163989Y-74106317D01*
X72154136Y-74113625D01*
X72143615Y-74119931D01*
X72132525Y-74125176D01*
X72120976Y-74129309D01*
X72109076Y-74132289D01*
X72096942Y-74134089D01*
X72084690Y-74134691D01*
X71259690Y-74134691D01*
X71247438Y-74134089D01*
X71235304Y-74132289D01*
X71223404Y-74129309D01*
X71211855Y-74125176D01*
X71200765Y-74119931D01*
X71190244Y-74113625D01*
X71180391Y-74106317D01*
X71171302Y-74098079D01*
X71163064Y-74088990D01*
X71155756Y-74079137D01*
X71149450Y-74068616D01*
X71144205Y-74057526D01*
X71140072Y-74045977D01*
X71137092Y-74034077D01*
X71135292Y-74021943D01*
X71134690Y-74009691D01*
X71134690Y-74009689D01*
X71135292Y-73997437D01*
X71137092Y-73985303D01*
X71140072Y-73973403D01*
X71144205Y-73961854D01*
X71149450Y-73950764D01*
X71155756Y-73940243D01*
X71163064Y-73930390D01*
X71171302Y-73921301D01*
X71180391Y-73913063D01*
X71190244Y-73905755D01*
X71200765Y-73899449D01*
X71211855Y-73894204D01*
X71223404Y-73890071D01*
X71235304Y-73887091D01*
X71247438Y-73885291D01*
X71259690Y-73884689D01*
X72084690Y-73884689D01*
X72096942Y-73885291D01*
X72096942Y-73885291D01*
G37*
D21*
X71672190Y-74009690D03*
D13*
G36*
X72096942Y-73385291D02*
G01*
X72109076Y-73387091D01*
X72120976Y-73390071D01*
X72132525Y-73394204D01*
X72143615Y-73399449D01*
X72154136Y-73405755D01*
X72163989Y-73413063D01*
X72173078Y-73421301D01*
X72181316Y-73430390D01*
X72188624Y-73440243D01*
X72194930Y-73450764D01*
X72200175Y-73461854D01*
X72204308Y-73473403D01*
X72207288Y-73485303D01*
X72209088Y-73497437D01*
X72209690Y-73509689D01*
X72209690Y-73509691D01*
X72209088Y-73521943D01*
X72207288Y-73534077D01*
X72204308Y-73545977D01*
X72200175Y-73557526D01*
X72194930Y-73568616D01*
X72188624Y-73579137D01*
X72181316Y-73588990D01*
X72173078Y-73598079D01*
X72163989Y-73606317D01*
X72154136Y-73613625D01*
X72143615Y-73619931D01*
X72132525Y-73625176D01*
X72120976Y-73629309D01*
X72109076Y-73632289D01*
X72096942Y-73634089D01*
X72084690Y-73634691D01*
X71259690Y-73634691D01*
X71247438Y-73634089D01*
X71235304Y-73632289D01*
X71223404Y-73629309D01*
X71211855Y-73625176D01*
X71200765Y-73619931D01*
X71190244Y-73613625D01*
X71180391Y-73606317D01*
X71171302Y-73598079D01*
X71163064Y-73588990D01*
X71155756Y-73579137D01*
X71149450Y-73568616D01*
X71144205Y-73557526D01*
X71140072Y-73545977D01*
X71137092Y-73534077D01*
X71135292Y-73521943D01*
X71134690Y-73509691D01*
X71134690Y-73509689D01*
X71135292Y-73497437D01*
X71137092Y-73485303D01*
X71140072Y-73473403D01*
X71144205Y-73461854D01*
X71149450Y-73450764D01*
X71155756Y-73440243D01*
X71163064Y-73430390D01*
X71171302Y-73421301D01*
X71180391Y-73413063D01*
X71190244Y-73405755D01*
X71200765Y-73399449D01*
X71211855Y-73394204D01*
X71223404Y-73390071D01*
X71235304Y-73387091D01*
X71247438Y-73385291D01*
X71259690Y-73384689D01*
X72084690Y-73384689D01*
X72096942Y-73385291D01*
X72096942Y-73385291D01*
G37*
D21*
X71672190Y-73509690D03*
D13*
G36*
X72096942Y-72885291D02*
G01*
X72109076Y-72887091D01*
X72120976Y-72890071D01*
X72132525Y-72894204D01*
X72143615Y-72899449D01*
X72154136Y-72905755D01*
X72163989Y-72913063D01*
X72173078Y-72921301D01*
X72181316Y-72930390D01*
X72188624Y-72940243D01*
X72194930Y-72950764D01*
X72200175Y-72961854D01*
X72204308Y-72973403D01*
X72207288Y-72985303D01*
X72209088Y-72997437D01*
X72209690Y-73009689D01*
X72209690Y-73009691D01*
X72209088Y-73021943D01*
X72207288Y-73034077D01*
X72204308Y-73045977D01*
X72200175Y-73057526D01*
X72194930Y-73068616D01*
X72188624Y-73079137D01*
X72181316Y-73088990D01*
X72173078Y-73098079D01*
X72163989Y-73106317D01*
X72154136Y-73113625D01*
X72143615Y-73119931D01*
X72132525Y-73125176D01*
X72120976Y-73129309D01*
X72109076Y-73132289D01*
X72096942Y-73134089D01*
X72084690Y-73134691D01*
X71259690Y-73134691D01*
X71247438Y-73134089D01*
X71235304Y-73132289D01*
X71223404Y-73129309D01*
X71211855Y-73125176D01*
X71200765Y-73119931D01*
X71190244Y-73113625D01*
X71180391Y-73106317D01*
X71171302Y-73098079D01*
X71163064Y-73088990D01*
X71155756Y-73079137D01*
X71149450Y-73068616D01*
X71144205Y-73057526D01*
X71140072Y-73045977D01*
X71137092Y-73034077D01*
X71135292Y-73021943D01*
X71134690Y-73009691D01*
X71134690Y-73009689D01*
X71135292Y-72997437D01*
X71137092Y-72985303D01*
X71140072Y-72973403D01*
X71144205Y-72961854D01*
X71149450Y-72950764D01*
X71155756Y-72940243D01*
X71163064Y-72930390D01*
X71171302Y-72921301D01*
X71180391Y-72913063D01*
X71190244Y-72905755D01*
X71200765Y-72899449D01*
X71211855Y-72894204D01*
X71223404Y-72890071D01*
X71235304Y-72887091D01*
X71247438Y-72885291D01*
X71259690Y-72884689D01*
X72084690Y-72884689D01*
X72096942Y-72885291D01*
X72096942Y-72885291D01*
G37*
D21*
X71672190Y-73009690D03*
D13*
G36*
X72096942Y-72385291D02*
G01*
X72109076Y-72387091D01*
X72120976Y-72390071D01*
X72132525Y-72394204D01*
X72143615Y-72399449D01*
X72154136Y-72405755D01*
X72163989Y-72413063D01*
X72173078Y-72421301D01*
X72181316Y-72430390D01*
X72188624Y-72440243D01*
X72194930Y-72450764D01*
X72200175Y-72461854D01*
X72204308Y-72473403D01*
X72207288Y-72485303D01*
X72209088Y-72497437D01*
X72209690Y-72509689D01*
X72209690Y-72509691D01*
X72209088Y-72521943D01*
X72207288Y-72534077D01*
X72204308Y-72545977D01*
X72200175Y-72557526D01*
X72194930Y-72568616D01*
X72188624Y-72579137D01*
X72181316Y-72588990D01*
X72173078Y-72598079D01*
X72163989Y-72606317D01*
X72154136Y-72613625D01*
X72143615Y-72619931D01*
X72132525Y-72625176D01*
X72120976Y-72629309D01*
X72109076Y-72632289D01*
X72096942Y-72634089D01*
X72084690Y-72634691D01*
X71259690Y-72634691D01*
X71247438Y-72634089D01*
X71235304Y-72632289D01*
X71223404Y-72629309D01*
X71211855Y-72625176D01*
X71200765Y-72619931D01*
X71190244Y-72613625D01*
X71180391Y-72606317D01*
X71171302Y-72598079D01*
X71163064Y-72588990D01*
X71155756Y-72579137D01*
X71149450Y-72568616D01*
X71144205Y-72557526D01*
X71140072Y-72545977D01*
X71137092Y-72534077D01*
X71135292Y-72521943D01*
X71134690Y-72509691D01*
X71134690Y-72509689D01*
X71135292Y-72497437D01*
X71137092Y-72485303D01*
X71140072Y-72473403D01*
X71144205Y-72461854D01*
X71149450Y-72450764D01*
X71155756Y-72440243D01*
X71163064Y-72430390D01*
X71171302Y-72421301D01*
X71180391Y-72413063D01*
X71190244Y-72405755D01*
X71200765Y-72399449D01*
X71211855Y-72394204D01*
X71223404Y-72390071D01*
X71235304Y-72387091D01*
X71247438Y-72385291D01*
X71259690Y-72384689D01*
X72084690Y-72384689D01*
X72096942Y-72385291D01*
X72096942Y-72385291D01*
G37*
D21*
X71672190Y-72509690D03*
D13*
G36*
X72521943Y-71135292D02*
G01*
X72534077Y-71137092D01*
X72545977Y-71140072D01*
X72557526Y-71144205D01*
X72568616Y-71149450D01*
X72579137Y-71155756D01*
X72588990Y-71163064D01*
X72598079Y-71171302D01*
X72606317Y-71180391D01*
X72613625Y-71190244D01*
X72619931Y-71200765D01*
X72625176Y-71211855D01*
X72629309Y-71223404D01*
X72632289Y-71235304D01*
X72634089Y-71247438D01*
X72634691Y-71259690D01*
X72634691Y-72084690D01*
X72634089Y-72096942D01*
X72632289Y-72109076D01*
X72629309Y-72120976D01*
X72625176Y-72132525D01*
X72619931Y-72143615D01*
X72613625Y-72154136D01*
X72606317Y-72163989D01*
X72598079Y-72173078D01*
X72588990Y-72181316D01*
X72579137Y-72188624D01*
X72568616Y-72194930D01*
X72557526Y-72200175D01*
X72545977Y-72204308D01*
X72534077Y-72207288D01*
X72521943Y-72209088D01*
X72509691Y-72209690D01*
X72509689Y-72209690D01*
X72497437Y-72209088D01*
X72485303Y-72207288D01*
X72473403Y-72204308D01*
X72461854Y-72200175D01*
X72450764Y-72194930D01*
X72440243Y-72188624D01*
X72430390Y-72181316D01*
X72421301Y-72173078D01*
X72413063Y-72163989D01*
X72405755Y-72154136D01*
X72399449Y-72143615D01*
X72394204Y-72132525D01*
X72390071Y-72120976D01*
X72387091Y-72109076D01*
X72385291Y-72096942D01*
X72384689Y-72084690D01*
X72384689Y-71259690D01*
X72385291Y-71247438D01*
X72387091Y-71235304D01*
X72390071Y-71223404D01*
X72394204Y-71211855D01*
X72399449Y-71200765D01*
X72405755Y-71190244D01*
X72413063Y-71180391D01*
X72421301Y-71171302D01*
X72430390Y-71163064D01*
X72440243Y-71155756D01*
X72450764Y-71149450D01*
X72461854Y-71144205D01*
X72473403Y-71140072D01*
X72485303Y-71137092D01*
X72497437Y-71135292D01*
X72509689Y-71134690D01*
X72509691Y-71134690D01*
X72521943Y-71135292D01*
X72521943Y-71135292D01*
G37*
D21*
X72509690Y-71672190D03*
D13*
G36*
X73021943Y-71135292D02*
G01*
X73034077Y-71137092D01*
X73045977Y-71140072D01*
X73057526Y-71144205D01*
X73068616Y-71149450D01*
X73079137Y-71155756D01*
X73088990Y-71163064D01*
X73098079Y-71171302D01*
X73106317Y-71180391D01*
X73113625Y-71190244D01*
X73119931Y-71200765D01*
X73125176Y-71211855D01*
X73129309Y-71223404D01*
X73132289Y-71235304D01*
X73134089Y-71247438D01*
X73134691Y-71259690D01*
X73134691Y-72084690D01*
X73134089Y-72096942D01*
X73132289Y-72109076D01*
X73129309Y-72120976D01*
X73125176Y-72132525D01*
X73119931Y-72143615D01*
X73113625Y-72154136D01*
X73106317Y-72163989D01*
X73098079Y-72173078D01*
X73088990Y-72181316D01*
X73079137Y-72188624D01*
X73068616Y-72194930D01*
X73057526Y-72200175D01*
X73045977Y-72204308D01*
X73034077Y-72207288D01*
X73021943Y-72209088D01*
X73009691Y-72209690D01*
X73009689Y-72209690D01*
X72997437Y-72209088D01*
X72985303Y-72207288D01*
X72973403Y-72204308D01*
X72961854Y-72200175D01*
X72950764Y-72194930D01*
X72940243Y-72188624D01*
X72930390Y-72181316D01*
X72921301Y-72173078D01*
X72913063Y-72163989D01*
X72905755Y-72154136D01*
X72899449Y-72143615D01*
X72894204Y-72132525D01*
X72890071Y-72120976D01*
X72887091Y-72109076D01*
X72885291Y-72096942D01*
X72884689Y-72084690D01*
X72884689Y-71259690D01*
X72885291Y-71247438D01*
X72887091Y-71235304D01*
X72890071Y-71223404D01*
X72894204Y-71211855D01*
X72899449Y-71200765D01*
X72905755Y-71190244D01*
X72913063Y-71180391D01*
X72921301Y-71171302D01*
X72930390Y-71163064D01*
X72940243Y-71155756D01*
X72950764Y-71149450D01*
X72961854Y-71144205D01*
X72973403Y-71140072D01*
X72985303Y-71137092D01*
X72997437Y-71135292D01*
X73009689Y-71134690D01*
X73009691Y-71134690D01*
X73021943Y-71135292D01*
X73021943Y-71135292D01*
G37*
D21*
X73009690Y-71672190D03*
D13*
G36*
X73521943Y-71135292D02*
G01*
X73534077Y-71137092D01*
X73545977Y-71140072D01*
X73557526Y-71144205D01*
X73568616Y-71149450D01*
X73579137Y-71155756D01*
X73588990Y-71163064D01*
X73598079Y-71171302D01*
X73606317Y-71180391D01*
X73613625Y-71190244D01*
X73619931Y-71200765D01*
X73625176Y-71211855D01*
X73629309Y-71223404D01*
X73632289Y-71235304D01*
X73634089Y-71247438D01*
X73634691Y-71259690D01*
X73634691Y-72084690D01*
X73634089Y-72096942D01*
X73632289Y-72109076D01*
X73629309Y-72120976D01*
X73625176Y-72132525D01*
X73619931Y-72143615D01*
X73613625Y-72154136D01*
X73606317Y-72163989D01*
X73598079Y-72173078D01*
X73588990Y-72181316D01*
X73579137Y-72188624D01*
X73568616Y-72194930D01*
X73557526Y-72200175D01*
X73545977Y-72204308D01*
X73534077Y-72207288D01*
X73521943Y-72209088D01*
X73509691Y-72209690D01*
X73509689Y-72209690D01*
X73497437Y-72209088D01*
X73485303Y-72207288D01*
X73473403Y-72204308D01*
X73461854Y-72200175D01*
X73450764Y-72194930D01*
X73440243Y-72188624D01*
X73430390Y-72181316D01*
X73421301Y-72173078D01*
X73413063Y-72163989D01*
X73405755Y-72154136D01*
X73399449Y-72143615D01*
X73394204Y-72132525D01*
X73390071Y-72120976D01*
X73387091Y-72109076D01*
X73385291Y-72096942D01*
X73384689Y-72084690D01*
X73384689Y-71259690D01*
X73385291Y-71247438D01*
X73387091Y-71235304D01*
X73390071Y-71223404D01*
X73394204Y-71211855D01*
X73399449Y-71200765D01*
X73405755Y-71190244D01*
X73413063Y-71180391D01*
X73421301Y-71171302D01*
X73430390Y-71163064D01*
X73440243Y-71155756D01*
X73450764Y-71149450D01*
X73461854Y-71144205D01*
X73473403Y-71140072D01*
X73485303Y-71137092D01*
X73497437Y-71135292D01*
X73509689Y-71134690D01*
X73509691Y-71134690D01*
X73521943Y-71135292D01*
X73521943Y-71135292D01*
G37*
D21*
X73509690Y-71672190D03*
D13*
G36*
X74021943Y-71135292D02*
G01*
X74034077Y-71137092D01*
X74045977Y-71140072D01*
X74057526Y-71144205D01*
X74068616Y-71149450D01*
X74079137Y-71155756D01*
X74088990Y-71163064D01*
X74098079Y-71171302D01*
X74106317Y-71180391D01*
X74113625Y-71190244D01*
X74119931Y-71200765D01*
X74125176Y-71211855D01*
X74129309Y-71223404D01*
X74132289Y-71235304D01*
X74134089Y-71247438D01*
X74134691Y-71259690D01*
X74134691Y-72084690D01*
X74134089Y-72096942D01*
X74132289Y-72109076D01*
X74129309Y-72120976D01*
X74125176Y-72132525D01*
X74119931Y-72143615D01*
X74113625Y-72154136D01*
X74106317Y-72163989D01*
X74098079Y-72173078D01*
X74088990Y-72181316D01*
X74079137Y-72188624D01*
X74068616Y-72194930D01*
X74057526Y-72200175D01*
X74045977Y-72204308D01*
X74034077Y-72207288D01*
X74021943Y-72209088D01*
X74009691Y-72209690D01*
X74009689Y-72209690D01*
X73997437Y-72209088D01*
X73985303Y-72207288D01*
X73973403Y-72204308D01*
X73961854Y-72200175D01*
X73950764Y-72194930D01*
X73940243Y-72188624D01*
X73930390Y-72181316D01*
X73921301Y-72173078D01*
X73913063Y-72163989D01*
X73905755Y-72154136D01*
X73899449Y-72143615D01*
X73894204Y-72132525D01*
X73890071Y-72120976D01*
X73887091Y-72109076D01*
X73885291Y-72096942D01*
X73884689Y-72084690D01*
X73884689Y-71259690D01*
X73885291Y-71247438D01*
X73887091Y-71235304D01*
X73890071Y-71223404D01*
X73894204Y-71211855D01*
X73899449Y-71200765D01*
X73905755Y-71190244D01*
X73913063Y-71180391D01*
X73921301Y-71171302D01*
X73930390Y-71163064D01*
X73940243Y-71155756D01*
X73950764Y-71149450D01*
X73961854Y-71144205D01*
X73973403Y-71140072D01*
X73985303Y-71137092D01*
X73997437Y-71135292D01*
X74009689Y-71134690D01*
X74009691Y-71134690D01*
X74021943Y-71135292D01*
X74021943Y-71135292D01*
G37*
D21*
X74009690Y-71672190D03*
D13*
G36*
X74521943Y-71135292D02*
G01*
X74534077Y-71137092D01*
X74545977Y-71140072D01*
X74557526Y-71144205D01*
X74568616Y-71149450D01*
X74579137Y-71155756D01*
X74588990Y-71163064D01*
X74598079Y-71171302D01*
X74606317Y-71180391D01*
X74613625Y-71190244D01*
X74619931Y-71200765D01*
X74625176Y-71211855D01*
X74629309Y-71223404D01*
X74632289Y-71235304D01*
X74634089Y-71247438D01*
X74634691Y-71259690D01*
X74634691Y-72084690D01*
X74634089Y-72096942D01*
X74632289Y-72109076D01*
X74629309Y-72120976D01*
X74625176Y-72132525D01*
X74619931Y-72143615D01*
X74613625Y-72154136D01*
X74606317Y-72163989D01*
X74598079Y-72173078D01*
X74588990Y-72181316D01*
X74579137Y-72188624D01*
X74568616Y-72194930D01*
X74557526Y-72200175D01*
X74545977Y-72204308D01*
X74534077Y-72207288D01*
X74521943Y-72209088D01*
X74509691Y-72209690D01*
X74509689Y-72209690D01*
X74497437Y-72209088D01*
X74485303Y-72207288D01*
X74473403Y-72204308D01*
X74461854Y-72200175D01*
X74450764Y-72194930D01*
X74440243Y-72188624D01*
X74430390Y-72181316D01*
X74421301Y-72173078D01*
X74413063Y-72163989D01*
X74405755Y-72154136D01*
X74399449Y-72143615D01*
X74394204Y-72132525D01*
X74390071Y-72120976D01*
X74387091Y-72109076D01*
X74385291Y-72096942D01*
X74384689Y-72084690D01*
X74384689Y-71259690D01*
X74385291Y-71247438D01*
X74387091Y-71235304D01*
X74390071Y-71223404D01*
X74394204Y-71211855D01*
X74399449Y-71200765D01*
X74405755Y-71190244D01*
X74413063Y-71180391D01*
X74421301Y-71171302D01*
X74430390Y-71163064D01*
X74440243Y-71155756D01*
X74450764Y-71149450D01*
X74461854Y-71144205D01*
X74473403Y-71140072D01*
X74485303Y-71137092D01*
X74497437Y-71135292D01*
X74509689Y-71134690D01*
X74509691Y-71134690D01*
X74521943Y-71135292D01*
X74521943Y-71135292D01*
G37*
D21*
X74509690Y-71672190D03*
D13*
G36*
X75021943Y-71135292D02*
G01*
X75034077Y-71137092D01*
X75045977Y-71140072D01*
X75057526Y-71144205D01*
X75068616Y-71149450D01*
X75079137Y-71155756D01*
X75088990Y-71163064D01*
X75098079Y-71171302D01*
X75106317Y-71180391D01*
X75113625Y-71190244D01*
X75119931Y-71200765D01*
X75125176Y-71211855D01*
X75129309Y-71223404D01*
X75132289Y-71235304D01*
X75134089Y-71247438D01*
X75134691Y-71259690D01*
X75134691Y-72084690D01*
X75134089Y-72096942D01*
X75132289Y-72109076D01*
X75129309Y-72120976D01*
X75125176Y-72132525D01*
X75119931Y-72143615D01*
X75113625Y-72154136D01*
X75106317Y-72163989D01*
X75098079Y-72173078D01*
X75088990Y-72181316D01*
X75079137Y-72188624D01*
X75068616Y-72194930D01*
X75057526Y-72200175D01*
X75045977Y-72204308D01*
X75034077Y-72207288D01*
X75021943Y-72209088D01*
X75009691Y-72209690D01*
X75009689Y-72209690D01*
X74997437Y-72209088D01*
X74985303Y-72207288D01*
X74973403Y-72204308D01*
X74961854Y-72200175D01*
X74950764Y-72194930D01*
X74940243Y-72188624D01*
X74930390Y-72181316D01*
X74921301Y-72173078D01*
X74913063Y-72163989D01*
X74905755Y-72154136D01*
X74899449Y-72143615D01*
X74894204Y-72132525D01*
X74890071Y-72120976D01*
X74887091Y-72109076D01*
X74885291Y-72096942D01*
X74884689Y-72084690D01*
X74884689Y-71259690D01*
X74885291Y-71247438D01*
X74887091Y-71235304D01*
X74890071Y-71223404D01*
X74894204Y-71211855D01*
X74899449Y-71200765D01*
X74905755Y-71190244D01*
X74913063Y-71180391D01*
X74921301Y-71171302D01*
X74930390Y-71163064D01*
X74940243Y-71155756D01*
X74950764Y-71149450D01*
X74961854Y-71144205D01*
X74973403Y-71140072D01*
X74985303Y-71137092D01*
X74997437Y-71135292D01*
X75009689Y-71134690D01*
X75009691Y-71134690D01*
X75021943Y-71135292D01*
X75021943Y-71135292D01*
G37*
D21*
X75009690Y-71672190D03*
D13*
G36*
X75521943Y-71135292D02*
G01*
X75534077Y-71137092D01*
X75545977Y-71140072D01*
X75557526Y-71144205D01*
X75568616Y-71149450D01*
X75579137Y-71155756D01*
X75588990Y-71163064D01*
X75598079Y-71171302D01*
X75606317Y-71180391D01*
X75613625Y-71190244D01*
X75619931Y-71200765D01*
X75625176Y-71211855D01*
X75629309Y-71223404D01*
X75632289Y-71235304D01*
X75634089Y-71247438D01*
X75634691Y-71259690D01*
X75634691Y-72084690D01*
X75634089Y-72096942D01*
X75632289Y-72109076D01*
X75629309Y-72120976D01*
X75625176Y-72132525D01*
X75619931Y-72143615D01*
X75613625Y-72154136D01*
X75606317Y-72163989D01*
X75598079Y-72173078D01*
X75588990Y-72181316D01*
X75579137Y-72188624D01*
X75568616Y-72194930D01*
X75557526Y-72200175D01*
X75545977Y-72204308D01*
X75534077Y-72207288D01*
X75521943Y-72209088D01*
X75509691Y-72209690D01*
X75509689Y-72209690D01*
X75497437Y-72209088D01*
X75485303Y-72207288D01*
X75473403Y-72204308D01*
X75461854Y-72200175D01*
X75450764Y-72194930D01*
X75440243Y-72188624D01*
X75430390Y-72181316D01*
X75421301Y-72173078D01*
X75413063Y-72163989D01*
X75405755Y-72154136D01*
X75399449Y-72143615D01*
X75394204Y-72132525D01*
X75390071Y-72120976D01*
X75387091Y-72109076D01*
X75385291Y-72096942D01*
X75384689Y-72084690D01*
X75384689Y-71259690D01*
X75385291Y-71247438D01*
X75387091Y-71235304D01*
X75390071Y-71223404D01*
X75394204Y-71211855D01*
X75399449Y-71200765D01*
X75405755Y-71190244D01*
X75413063Y-71180391D01*
X75421301Y-71171302D01*
X75430390Y-71163064D01*
X75440243Y-71155756D01*
X75450764Y-71149450D01*
X75461854Y-71144205D01*
X75473403Y-71140072D01*
X75485303Y-71137092D01*
X75497437Y-71135292D01*
X75509689Y-71134690D01*
X75509691Y-71134690D01*
X75521943Y-71135292D01*
X75521943Y-71135292D01*
G37*
D21*
X75509690Y-71672190D03*
D13*
G36*
X76021943Y-71135292D02*
G01*
X76034077Y-71137092D01*
X76045977Y-71140072D01*
X76057526Y-71144205D01*
X76068616Y-71149450D01*
X76079137Y-71155756D01*
X76088990Y-71163064D01*
X76098079Y-71171302D01*
X76106317Y-71180391D01*
X76113625Y-71190244D01*
X76119931Y-71200765D01*
X76125176Y-71211855D01*
X76129309Y-71223404D01*
X76132289Y-71235304D01*
X76134089Y-71247438D01*
X76134691Y-71259690D01*
X76134691Y-72084690D01*
X76134089Y-72096942D01*
X76132289Y-72109076D01*
X76129309Y-72120976D01*
X76125176Y-72132525D01*
X76119931Y-72143615D01*
X76113625Y-72154136D01*
X76106317Y-72163989D01*
X76098079Y-72173078D01*
X76088990Y-72181316D01*
X76079137Y-72188624D01*
X76068616Y-72194930D01*
X76057526Y-72200175D01*
X76045977Y-72204308D01*
X76034077Y-72207288D01*
X76021943Y-72209088D01*
X76009691Y-72209690D01*
X76009689Y-72209690D01*
X75997437Y-72209088D01*
X75985303Y-72207288D01*
X75973403Y-72204308D01*
X75961854Y-72200175D01*
X75950764Y-72194930D01*
X75940243Y-72188624D01*
X75930390Y-72181316D01*
X75921301Y-72173078D01*
X75913063Y-72163989D01*
X75905755Y-72154136D01*
X75899449Y-72143615D01*
X75894204Y-72132525D01*
X75890071Y-72120976D01*
X75887091Y-72109076D01*
X75885291Y-72096942D01*
X75884689Y-72084690D01*
X75884689Y-71259690D01*
X75885291Y-71247438D01*
X75887091Y-71235304D01*
X75890071Y-71223404D01*
X75894204Y-71211855D01*
X75899449Y-71200765D01*
X75905755Y-71190244D01*
X75913063Y-71180391D01*
X75921301Y-71171302D01*
X75930390Y-71163064D01*
X75940243Y-71155756D01*
X75950764Y-71149450D01*
X75961854Y-71144205D01*
X75973403Y-71140072D01*
X75985303Y-71137092D01*
X75997437Y-71135292D01*
X76009689Y-71134690D01*
X76009691Y-71134690D01*
X76021943Y-71135292D01*
X76021943Y-71135292D01*
G37*
D21*
X76009690Y-71672190D03*
D13*
G36*
X76521943Y-71135292D02*
G01*
X76534077Y-71137092D01*
X76545977Y-71140072D01*
X76557526Y-71144205D01*
X76568616Y-71149450D01*
X76579137Y-71155756D01*
X76588990Y-71163064D01*
X76598079Y-71171302D01*
X76606317Y-71180391D01*
X76613625Y-71190244D01*
X76619931Y-71200765D01*
X76625176Y-71211855D01*
X76629309Y-71223404D01*
X76632289Y-71235304D01*
X76634089Y-71247438D01*
X76634691Y-71259690D01*
X76634691Y-72084690D01*
X76634089Y-72096942D01*
X76632289Y-72109076D01*
X76629309Y-72120976D01*
X76625176Y-72132525D01*
X76619931Y-72143615D01*
X76613625Y-72154136D01*
X76606317Y-72163989D01*
X76598079Y-72173078D01*
X76588990Y-72181316D01*
X76579137Y-72188624D01*
X76568616Y-72194930D01*
X76557526Y-72200175D01*
X76545977Y-72204308D01*
X76534077Y-72207288D01*
X76521943Y-72209088D01*
X76509691Y-72209690D01*
X76509689Y-72209690D01*
X76497437Y-72209088D01*
X76485303Y-72207288D01*
X76473403Y-72204308D01*
X76461854Y-72200175D01*
X76450764Y-72194930D01*
X76440243Y-72188624D01*
X76430390Y-72181316D01*
X76421301Y-72173078D01*
X76413063Y-72163989D01*
X76405755Y-72154136D01*
X76399449Y-72143615D01*
X76394204Y-72132525D01*
X76390071Y-72120976D01*
X76387091Y-72109076D01*
X76385291Y-72096942D01*
X76384689Y-72084690D01*
X76384689Y-71259690D01*
X76385291Y-71247438D01*
X76387091Y-71235304D01*
X76390071Y-71223404D01*
X76394204Y-71211855D01*
X76399449Y-71200765D01*
X76405755Y-71190244D01*
X76413063Y-71180391D01*
X76421301Y-71171302D01*
X76430390Y-71163064D01*
X76440243Y-71155756D01*
X76450764Y-71149450D01*
X76461854Y-71144205D01*
X76473403Y-71140072D01*
X76485303Y-71137092D01*
X76497437Y-71135292D01*
X76509689Y-71134690D01*
X76509691Y-71134690D01*
X76521943Y-71135292D01*
X76521943Y-71135292D01*
G37*
D21*
X76509690Y-71672190D03*
D13*
G36*
X77021943Y-71135292D02*
G01*
X77034077Y-71137092D01*
X77045977Y-71140072D01*
X77057526Y-71144205D01*
X77068616Y-71149450D01*
X77079137Y-71155756D01*
X77088990Y-71163064D01*
X77098079Y-71171302D01*
X77106317Y-71180391D01*
X77113625Y-71190244D01*
X77119931Y-71200765D01*
X77125176Y-71211855D01*
X77129309Y-71223404D01*
X77132289Y-71235304D01*
X77134089Y-71247438D01*
X77134691Y-71259690D01*
X77134691Y-72084690D01*
X77134089Y-72096942D01*
X77132289Y-72109076D01*
X77129309Y-72120976D01*
X77125176Y-72132525D01*
X77119931Y-72143615D01*
X77113625Y-72154136D01*
X77106317Y-72163989D01*
X77098079Y-72173078D01*
X77088990Y-72181316D01*
X77079137Y-72188624D01*
X77068616Y-72194930D01*
X77057526Y-72200175D01*
X77045977Y-72204308D01*
X77034077Y-72207288D01*
X77021943Y-72209088D01*
X77009691Y-72209690D01*
X77009689Y-72209690D01*
X76997437Y-72209088D01*
X76985303Y-72207288D01*
X76973403Y-72204308D01*
X76961854Y-72200175D01*
X76950764Y-72194930D01*
X76940243Y-72188624D01*
X76930390Y-72181316D01*
X76921301Y-72173078D01*
X76913063Y-72163989D01*
X76905755Y-72154136D01*
X76899449Y-72143615D01*
X76894204Y-72132525D01*
X76890071Y-72120976D01*
X76887091Y-72109076D01*
X76885291Y-72096942D01*
X76884689Y-72084690D01*
X76884689Y-71259690D01*
X76885291Y-71247438D01*
X76887091Y-71235304D01*
X76890071Y-71223404D01*
X76894204Y-71211855D01*
X76899449Y-71200765D01*
X76905755Y-71190244D01*
X76913063Y-71180391D01*
X76921301Y-71171302D01*
X76930390Y-71163064D01*
X76940243Y-71155756D01*
X76950764Y-71149450D01*
X76961854Y-71144205D01*
X76973403Y-71140072D01*
X76985303Y-71137092D01*
X76997437Y-71135292D01*
X77009689Y-71134690D01*
X77009691Y-71134690D01*
X77021943Y-71135292D01*
X77021943Y-71135292D01*
G37*
D21*
X77009690Y-71672190D03*
D13*
G36*
X77521943Y-71135292D02*
G01*
X77534077Y-71137092D01*
X77545977Y-71140072D01*
X77557526Y-71144205D01*
X77568616Y-71149450D01*
X77579137Y-71155756D01*
X77588990Y-71163064D01*
X77598079Y-71171302D01*
X77606317Y-71180391D01*
X77613625Y-71190244D01*
X77619931Y-71200765D01*
X77625176Y-71211855D01*
X77629309Y-71223404D01*
X77632289Y-71235304D01*
X77634089Y-71247438D01*
X77634691Y-71259690D01*
X77634691Y-72084690D01*
X77634089Y-72096942D01*
X77632289Y-72109076D01*
X77629309Y-72120976D01*
X77625176Y-72132525D01*
X77619931Y-72143615D01*
X77613625Y-72154136D01*
X77606317Y-72163989D01*
X77598079Y-72173078D01*
X77588990Y-72181316D01*
X77579137Y-72188624D01*
X77568616Y-72194930D01*
X77557526Y-72200175D01*
X77545977Y-72204308D01*
X77534077Y-72207288D01*
X77521943Y-72209088D01*
X77509691Y-72209690D01*
X77509689Y-72209690D01*
X77497437Y-72209088D01*
X77485303Y-72207288D01*
X77473403Y-72204308D01*
X77461854Y-72200175D01*
X77450764Y-72194930D01*
X77440243Y-72188624D01*
X77430390Y-72181316D01*
X77421301Y-72173078D01*
X77413063Y-72163989D01*
X77405755Y-72154136D01*
X77399449Y-72143615D01*
X77394204Y-72132525D01*
X77390071Y-72120976D01*
X77387091Y-72109076D01*
X77385291Y-72096942D01*
X77384689Y-72084690D01*
X77384689Y-71259690D01*
X77385291Y-71247438D01*
X77387091Y-71235304D01*
X77390071Y-71223404D01*
X77394204Y-71211855D01*
X77399449Y-71200765D01*
X77405755Y-71190244D01*
X77413063Y-71180391D01*
X77421301Y-71171302D01*
X77430390Y-71163064D01*
X77440243Y-71155756D01*
X77450764Y-71149450D01*
X77461854Y-71144205D01*
X77473403Y-71140072D01*
X77485303Y-71137092D01*
X77497437Y-71135292D01*
X77509689Y-71134690D01*
X77509691Y-71134690D01*
X77521943Y-71135292D01*
X77521943Y-71135292D01*
G37*
D21*
X77509690Y-71672190D03*
D13*
G36*
X78771942Y-72385291D02*
G01*
X78784076Y-72387091D01*
X78795976Y-72390071D01*
X78807525Y-72394204D01*
X78818615Y-72399449D01*
X78829136Y-72405755D01*
X78838989Y-72413063D01*
X78848078Y-72421301D01*
X78856316Y-72430390D01*
X78863624Y-72440243D01*
X78869930Y-72450764D01*
X78875175Y-72461854D01*
X78879308Y-72473403D01*
X78882288Y-72485303D01*
X78884088Y-72497437D01*
X78884690Y-72509689D01*
X78884690Y-72509691D01*
X78884088Y-72521943D01*
X78882288Y-72534077D01*
X78879308Y-72545977D01*
X78875175Y-72557526D01*
X78869930Y-72568616D01*
X78863624Y-72579137D01*
X78856316Y-72588990D01*
X78848078Y-72598079D01*
X78838989Y-72606317D01*
X78829136Y-72613625D01*
X78818615Y-72619931D01*
X78807525Y-72625176D01*
X78795976Y-72629309D01*
X78784076Y-72632289D01*
X78771942Y-72634089D01*
X78759690Y-72634691D01*
X77934690Y-72634691D01*
X77922438Y-72634089D01*
X77910304Y-72632289D01*
X77898404Y-72629309D01*
X77886855Y-72625176D01*
X77875765Y-72619931D01*
X77865244Y-72613625D01*
X77855391Y-72606317D01*
X77846302Y-72598079D01*
X77838064Y-72588990D01*
X77830756Y-72579137D01*
X77824450Y-72568616D01*
X77819205Y-72557526D01*
X77815072Y-72545977D01*
X77812092Y-72534077D01*
X77810292Y-72521943D01*
X77809690Y-72509691D01*
X77809690Y-72509689D01*
X77810292Y-72497437D01*
X77812092Y-72485303D01*
X77815072Y-72473403D01*
X77819205Y-72461854D01*
X77824450Y-72450764D01*
X77830756Y-72440243D01*
X77838064Y-72430390D01*
X77846302Y-72421301D01*
X77855391Y-72413063D01*
X77865244Y-72405755D01*
X77875765Y-72399449D01*
X77886855Y-72394204D01*
X77898404Y-72390071D01*
X77910304Y-72387091D01*
X77922438Y-72385291D01*
X77934690Y-72384689D01*
X78759690Y-72384689D01*
X78771942Y-72385291D01*
X78771942Y-72385291D01*
G37*
D21*
X78347190Y-72509690D03*
D13*
G36*
X78771942Y-72885291D02*
G01*
X78784076Y-72887091D01*
X78795976Y-72890071D01*
X78807525Y-72894204D01*
X78818615Y-72899449D01*
X78829136Y-72905755D01*
X78838989Y-72913063D01*
X78848078Y-72921301D01*
X78856316Y-72930390D01*
X78863624Y-72940243D01*
X78869930Y-72950764D01*
X78875175Y-72961854D01*
X78879308Y-72973403D01*
X78882288Y-72985303D01*
X78884088Y-72997437D01*
X78884690Y-73009689D01*
X78884690Y-73009691D01*
X78884088Y-73021943D01*
X78882288Y-73034077D01*
X78879308Y-73045977D01*
X78875175Y-73057526D01*
X78869930Y-73068616D01*
X78863624Y-73079137D01*
X78856316Y-73088990D01*
X78848078Y-73098079D01*
X78838989Y-73106317D01*
X78829136Y-73113625D01*
X78818615Y-73119931D01*
X78807525Y-73125176D01*
X78795976Y-73129309D01*
X78784076Y-73132289D01*
X78771942Y-73134089D01*
X78759690Y-73134691D01*
X77934690Y-73134691D01*
X77922438Y-73134089D01*
X77910304Y-73132289D01*
X77898404Y-73129309D01*
X77886855Y-73125176D01*
X77875765Y-73119931D01*
X77865244Y-73113625D01*
X77855391Y-73106317D01*
X77846302Y-73098079D01*
X77838064Y-73088990D01*
X77830756Y-73079137D01*
X77824450Y-73068616D01*
X77819205Y-73057526D01*
X77815072Y-73045977D01*
X77812092Y-73034077D01*
X77810292Y-73021943D01*
X77809690Y-73009691D01*
X77809690Y-73009689D01*
X77810292Y-72997437D01*
X77812092Y-72985303D01*
X77815072Y-72973403D01*
X77819205Y-72961854D01*
X77824450Y-72950764D01*
X77830756Y-72940243D01*
X77838064Y-72930390D01*
X77846302Y-72921301D01*
X77855391Y-72913063D01*
X77865244Y-72905755D01*
X77875765Y-72899449D01*
X77886855Y-72894204D01*
X77898404Y-72890071D01*
X77910304Y-72887091D01*
X77922438Y-72885291D01*
X77934690Y-72884689D01*
X78759690Y-72884689D01*
X78771942Y-72885291D01*
X78771942Y-72885291D01*
G37*
D21*
X78347190Y-73009690D03*
D13*
G36*
X78771942Y-73385291D02*
G01*
X78784076Y-73387091D01*
X78795976Y-73390071D01*
X78807525Y-73394204D01*
X78818615Y-73399449D01*
X78829136Y-73405755D01*
X78838989Y-73413063D01*
X78848078Y-73421301D01*
X78856316Y-73430390D01*
X78863624Y-73440243D01*
X78869930Y-73450764D01*
X78875175Y-73461854D01*
X78879308Y-73473403D01*
X78882288Y-73485303D01*
X78884088Y-73497437D01*
X78884690Y-73509689D01*
X78884690Y-73509691D01*
X78884088Y-73521943D01*
X78882288Y-73534077D01*
X78879308Y-73545977D01*
X78875175Y-73557526D01*
X78869930Y-73568616D01*
X78863624Y-73579137D01*
X78856316Y-73588990D01*
X78848078Y-73598079D01*
X78838989Y-73606317D01*
X78829136Y-73613625D01*
X78818615Y-73619931D01*
X78807525Y-73625176D01*
X78795976Y-73629309D01*
X78784076Y-73632289D01*
X78771942Y-73634089D01*
X78759690Y-73634691D01*
X77934690Y-73634691D01*
X77922438Y-73634089D01*
X77910304Y-73632289D01*
X77898404Y-73629309D01*
X77886855Y-73625176D01*
X77875765Y-73619931D01*
X77865244Y-73613625D01*
X77855391Y-73606317D01*
X77846302Y-73598079D01*
X77838064Y-73588990D01*
X77830756Y-73579137D01*
X77824450Y-73568616D01*
X77819205Y-73557526D01*
X77815072Y-73545977D01*
X77812092Y-73534077D01*
X77810292Y-73521943D01*
X77809690Y-73509691D01*
X77809690Y-73509689D01*
X77810292Y-73497437D01*
X77812092Y-73485303D01*
X77815072Y-73473403D01*
X77819205Y-73461854D01*
X77824450Y-73450764D01*
X77830756Y-73440243D01*
X77838064Y-73430390D01*
X77846302Y-73421301D01*
X77855391Y-73413063D01*
X77865244Y-73405755D01*
X77875765Y-73399449D01*
X77886855Y-73394204D01*
X77898404Y-73390071D01*
X77910304Y-73387091D01*
X77922438Y-73385291D01*
X77934690Y-73384689D01*
X78759690Y-73384689D01*
X78771942Y-73385291D01*
X78771942Y-73385291D01*
G37*
D21*
X78347190Y-73509690D03*
D13*
G36*
X78771942Y-73885291D02*
G01*
X78784076Y-73887091D01*
X78795976Y-73890071D01*
X78807525Y-73894204D01*
X78818615Y-73899449D01*
X78829136Y-73905755D01*
X78838989Y-73913063D01*
X78848078Y-73921301D01*
X78856316Y-73930390D01*
X78863624Y-73940243D01*
X78869930Y-73950764D01*
X78875175Y-73961854D01*
X78879308Y-73973403D01*
X78882288Y-73985303D01*
X78884088Y-73997437D01*
X78884690Y-74009689D01*
X78884690Y-74009691D01*
X78884088Y-74021943D01*
X78882288Y-74034077D01*
X78879308Y-74045977D01*
X78875175Y-74057526D01*
X78869930Y-74068616D01*
X78863624Y-74079137D01*
X78856316Y-74088990D01*
X78848078Y-74098079D01*
X78838989Y-74106317D01*
X78829136Y-74113625D01*
X78818615Y-74119931D01*
X78807525Y-74125176D01*
X78795976Y-74129309D01*
X78784076Y-74132289D01*
X78771942Y-74134089D01*
X78759690Y-74134691D01*
X77934690Y-74134691D01*
X77922438Y-74134089D01*
X77910304Y-74132289D01*
X77898404Y-74129309D01*
X77886855Y-74125176D01*
X77875765Y-74119931D01*
X77865244Y-74113625D01*
X77855391Y-74106317D01*
X77846302Y-74098079D01*
X77838064Y-74088990D01*
X77830756Y-74079137D01*
X77824450Y-74068616D01*
X77819205Y-74057526D01*
X77815072Y-74045977D01*
X77812092Y-74034077D01*
X77810292Y-74021943D01*
X77809690Y-74009691D01*
X77809690Y-74009689D01*
X77810292Y-73997437D01*
X77812092Y-73985303D01*
X77815072Y-73973403D01*
X77819205Y-73961854D01*
X77824450Y-73950764D01*
X77830756Y-73940243D01*
X77838064Y-73930390D01*
X77846302Y-73921301D01*
X77855391Y-73913063D01*
X77865244Y-73905755D01*
X77875765Y-73899449D01*
X77886855Y-73894204D01*
X77898404Y-73890071D01*
X77910304Y-73887091D01*
X77922438Y-73885291D01*
X77934690Y-73884689D01*
X78759690Y-73884689D01*
X78771942Y-73885291D01*
X78771942Y-73885291D01*
G37*
D21*
X78347190Y-74009690D03*
D13*
G36*
X78771942Y-74385291D02*
G01*
X78784076Y-74387091D01*
X78795976Y-74390071D01*
X78807525Y-74394204D01*
X78818615Y-74399449D01*
X78829136Y-74405755D01*
X78838989Y-74413063D01*
X78848078Y-74421301D01*
X78856316Y-74430390D01*
X78863624Y-74440243D01*
X78869930Y-74450764D01*
X78875175Y-74461854D01*
X78879308Y-74473403D01*
X78882288Y-74485303D01*
X78884088Y-74497437D01*
X78884690Y-74509689D01*
X78884690Y-74509691D01*
X78884088Y-74521943D01*
X78882288Y-74534077D01*
X78879308Y-74545977D01*
X78875175Y-74557526D01*
X78869930Y-74568616D01*
X78863624Y-74579137D01*
X78856316Y-74588990D01*
X78848078Y-74598079D01*
X78838989Y-74606317D01*
X78829136Y-74613625D01*
X78818615Y-74619931D01*
X78807525Y-74625176D01*
X78795976Y-74629309D01*
X78784076Y-74632289D01*
X78771942Y-74634089D01*
X78759690Y-74634691D01*
X77934690Y-74634691D01*
X77922438Y-74634089D01*
X77910304Y-74632289D01*
X77898404Y-74629309D01*
X77886855Y-74625176D01*
X77875765Y-74619931D01*
X77865244Y-74613625D01*
X77855391Y-74606317D01*
X77846302Y-74598079D01*
X77838064Y-74588990D01*
X77830756Y-74579137D01*
X77824450Y-74568616D01*
X77819205Y-74557526D01*
X77815072Y-74545977D01*
X77812092Y-74534077D01*
X77810292Y-74521943D01*
X77809690Y-74509691D01*
X77809690Y-74509689D01*
X77810292Y-74497437D01*
X77812092Y-74485303D01*
X77815072Y-74473403D01*
X77819205Y-74461854D01*
X77824450Y-74450764D01*
X77830756Y-74440243D01*
X77838064Y-74430390D01*
X77846302Y-74421301D01*
X77855391Y-74413063D01*
X77865244Y-74405755D01*
X77875765Y-74399449D01*
X77886855Y-74394204D01*
X77898404Y-74390071D01*
X77910304Y-74387091D01*
X77922438Y-74385291D01*
X77934690Y-74384689D01*
X78759690Y-74384689D01*
X78771942Y-74385291D01*
X78771942Y-74385291D01*
G37*
D21*
X78347190Y-74509690D03*
D13*
G36*
X78771942Y-74885291D02*
G01*
X78784076Y-74887091D01*
X78795976Y-74890071D01*
X78807525Y-74894204D01*
X78818615Y-74899449D01*
X78829136Y-74905755D01*
X78838989Y-74913063D01*
X78848078Y-74921301D01*
X78856316Y-74930390D01*
X78863624Y-74940243D01*
X78869930Y-74950764D01*
X78875175Y-74961854D01*
X78879308Y-74973403D01*
X78882288Y-74985303D01*
X78884088Y-74997437D01*
X78884690Y-75009689D01*
X78884690Y-75009691D01*
X78884088Y-75021943D01*
X78882288Y-75034077D01*
X78879308Y-75045977D01*
X78875175Y-75057526D01*
X78869930Y-75068616D01*
X78863624Y-75079137D01*
X78856316Y-75088990D01*
X78848078Y-75098079D01*
X78838989Y-75106317D01*
X78829136Y-75113625D01*
X78818615Y-75119931D01*
X78807525Y-75125176D01*
X78795976Y-75129309D01*
X78784076Y-75132289D01*
X78771942Y-75134089D01*
X78759690Y-75134691D01*
X77934690Y-75134691D01*
X77922438Y-75134089D01*
X77910304Y-75132289D01*
X77898404Y-75129309D01*
X77886855Y-75125176D01*
X77875765Y-75119931D01*
X77865244Y-75113625D01*
X77855391Y-75106317D01*
X77846302Y-75098079D01*
X77838064Y-75088990D01*
X77830756Y-75079137D01*
X77824450Y-75068616D01*
X77819205Y-75057526D01*
X77815072Y-75045977D01*
X77812092Y-75034077D01*
X77810292Y-75021943D01*
X77809690Y-75009691D01*
X77809690Y-75009689D01*
X77810292Y-74997437D01*
X77812092Y-74985303D01*
X77815072Y-74973403D01*
X77819205Y-74961854D01*
X77824450Y-74950764D01*
X77830756Y-74940243D01*
X77838064Y-74930390D01*
X77846302Y-74921301D01*
X77855391Y-74913063D01*
X77865244Y-74905755D01*
X77875765Y-74899449D01*
X77886855Y-74894204D01*
X77898404Y-74890071D01*
X77910304Y-74887091D01*
X77922438Y-74885291D01*
X77934690Y-74884689D01*
X78759690Y-74884689D01*
X78771942Y-74885291D01*
X78771942Y-74885291D01*
G37*
D21*
X78347190Y-75009690D03*
D13*
G36*
X78771942Y-75385291D02*
G01*
X78784076Y-75387091D01*
X78795976Y-75390071D01*
X78807525Y-75394204D01*
X78818615Y-75399449D01*
X78829136Y-75405755D01*
X78838989Y-75413063D01*
X78848078Y-75421301D01*
X78856316Y-75430390D01*
X78863624Y-75440243D01*
X78869930Y-75450764D01*
X78875175Y-75461854D01*
X78879308Y-75473403D01*
X78882288Y-75485303D01*
X78884088Y-75497437D01*
X78884690Y-75509689D01*
X78884690Y-75509691D01*
X78884088Y-75521943D01*
X78882288Y-75534077D01*
X78879308Y-75545977D01*
X78875175Y-75557526D01*
X78869930Y-75568616D01*
X78863624Y-75579137D01*
X78856316Y-75588990D01*
X78848078Y-75598079D01*
X78838989Y-75606317D01*
X78829136Y-75613625D01*
X78818615Y-75619931D01*
X78807525Y-75625176D01*
X78795976Y-75629309D01*
X78784076Y-75632289D01*
X78771942Y-75634089D01*
X78759690Y-75634691D01*
X77934690Y-75634691D01*
X77922438Y-75634089D01*
X77910304Y-75632289D01*
X77898404Y-75629309D01*
X77886855Y-75625176D01*
X77875765Y-75619931D01*
X77865244Y-75613625D01*
X77855391Y-75606317D01*
X77846302Y-75598079D01*
X77838064Y-75588990D01*
X77830756Y-75579137D01*
X77824450Y-75568616D01*
X77819205Y-75557526D01*
X77815072Y-75545977D01*
X77812092Y-75534077D01*
X77810292Y-75521943D01*
X77809690Y-75509691D01*
X77809690Y-75509689D01*
X77810292Y-75497437D01*
X77812092Y-75485303D01*
X77815072Y-75473403D01*
X77819205Y-75461854D01*
X77824450Y-75450764D01*
X77830756Y-75440243D01*
X77838064Y-75430390D01*
X77846302Y-75421301D01*
X77855391Y-75413063D01*
X77865244Y-75405755D01*
X77875765Y-75399449D01*
X77886855Y-75394204D01*
X77898404Y-75390071D01*
X77910304Y-75387091D01*
X77922438Y-75385291D01*
X77934690Y-75384689D01*
X78759690Y-75384689D01*
X78771942Y-75385291D01*
X78771942Y-75385291D01*
G37*
D21*
X78347190Y-75509690D03*
D13*
G36*
X78771942Y-75885291D02*
G01*
X78784076Y-75887091D01*
X78795976Y-75890071D01*
X78807525Y-75894204D01*
X78818615Y-75899449D01*
X78829136Y-75905755D01*
X78838989Y-75913063D01*
X78848078Y-75921301D01*
X78856316Y-75930390D01*
X78863624Y-75940243D01*
X78869930Y-75950764D01*
X78875175Y-75961854D01*
X78879308Y-75973403D01*
X78882288Y-75985303D01*
X78884088Y-75997437D01*
X78884690Y-76009689D01*
X78884690Y-76009691D01*
X78884088Y-76021943D01*
X78882288Y-76034077D01*
X78879308Y-76045977D01*
X78875175Y-76057526D01*
X78869930Y-76068616D01*
X78863624Y-76079137D01*
X78856316Y-76088990D01*
X78848078Y-76098079D01*
X78838989Y-76106317D01*
X78829136Y-76113625D01*
X78818615Y-76119931D01*
X78807525Y-76125176D01*
X78795976Y-76129309D01*
X78784076Y-76132289D01*
X78771942Y-76134089D01*
X78759690Y-76134691D01*
X77934690Y-76134691D01*
X77922438Y-76134089D01*
X77910304Y-76132289D01*
X77898404Y-76129309D01*
X77886855Y-76125176D01*
X77875765Y-76119931D01*
X77865244Y-76113625D01*
X77855391Y-76106317D01*
X77846302Y-76098079D01*
X77838064Y-76088990D01*
X77830756Y-76079137D01*
X77824450Y-76068616D01*
X77819205Y-76057526D01*
X77815072Y-76045977D01*
X77812092Y-76034077D01*
X77810292Y-76021943D01*
X77809690Y-76009691D01*
X77809690Y-76009689D01*
X77810292Y-75997437D01*
X77812092Y-75985303D01*
X77815072Y-75973403D01*
X77819205Y-75961854D01*
X77824450Y-75950764D01*
X77830756Y-75940243D01*
X77838064Y-75930390D01*
X77846302Y-75921301D01*
X77855391Y-75913063D01*
X77865244Y-75905755D01*
X77875765Y-75899449D01*
X77886855Y-75894204D01*
X77898404Y-75890071D01*
X77910304Y-75887091D01*
X77922438Y-75885291D01*
X77934690Y-75884689D01*
X78759690Y-75884689D01*
X78771942Y-75885291D01*
X78771942Y-75885291D01*
G37*
D21*
X78347190Y-76009690D03*
D13*
G36*
X78771942Y-76385291D02*
G01*
X78784076Y-76387091D01*
X78795976Y-76390071D01*
X78807525Y-76394204D01*
X78818615Y-76399449D01*
X78829136Y-76405755D01*
X78838989Y-76413063D01*
X78848078Y-76421301D01*
X78856316Y-76430390D01*
X78863624Y-76440243D01*
X78869930Y-76450764D01*
X78875175Y-76461854D01*
X78879308Y-76473403D01*
X78882288Y-76485303D01*
X78884088Y-76497437D01*
X78884690Y-76509689D01*
X78884690Y-76509691D01*
X78884088Y-76521943D01*
X78882288Y-76534077D01*
X78879308Y-76545977D01*
X78875175Y-76557526D01*
X78869930Y-76568616D01*
X78863624Y-76579137D01*
X78856316Y-76588990D01*
X78848078Y-76598079D01*
X78838989Y-76606317D01*
X78829136Y-76613625D01*
X78818615Y-76619931D01*
X78807525Y-76625176D01*
X78795976Y-76629309D01*
X78784076Y-76632289D01*
X78771942Y-76634089D01*
X78759690Y-76634691D01*
X77934690Y-76634691D01*
X77922438Y-76634089D01*
X77910304Y-76632289D01*
X77898404Y-76629309D01*
X77886855Y-76625176D01*
X77875765Y-76619931D01*
X77865244Y-76613625D01*
X77855391Y-76606317D01*
X77846302Y-76598079D01*
X77838064Y-76588990D01*
X77830756Y-76579137D01*
X77824450Y-76568616D01*
X77819205Y-76557526D01*
X77815072Y-76545977D01*
X77812092Y-76534077D01*
X77810292Y-76521943D01*
X77809690Y-76509691D01*
X77809690Y-76509689D01*
X77810292Y-76497437D01*
X77812092Y-76485303D01*
X77815072Y-76473403D01*
X77819205Y-76461854D01*
X77824450Y-76450764D01*
X77830756Y-76440243D01*
X77838064Y-76430390D01*
X77846302Y-76421301D01*
X77855391Y-76413063D01*
X77865244Y-76405755D01*
X77875765Y-76399449D01*
X77886855Y-76394204D01*
X77898404Y-76390071D01*
X77910304Y-76387091D01*
X77922438Y-76385291D01*
X77934690Y-76384689D01*
X78759690Y-76384689D01*
X78771942Y-76385291D01*
X78771942Y-76385291D01*
G37*
D21*
X78347190Y-76509690D03*
D13*
G36*
X78771942Y-76885291D02*
G01*
X78784076Y-76887091D01*
X78795976Y-76890071D01*
X78807525Y-76894204D01*
X78818615Y-76899449D01*
X78829136Y-76905755D01*
X78838989Y-76913063D01*
X78848078Y-76921301D01*
X78856316Y-76930390D01*
X78863624Y-76940243D01*
X78869930Y-76950764D01*
X78875175Y-76961854D01*
X78879308Y-76973403D01*
X78882288Y-76985303D01*
X78884088Y-76997437D01*
X78884690Y-77009689D01*
X78884690Y-77009691D01*
X78884088Y-77021943D01*
X78882288Y-77034077D01*
X78879308Y-77045977D01*
X78875175Y-77057526D01*
X78869930Y-77068616D01*
X78863624Y-77079137D01*
X78856316Y-77088990D01*
X78848078Y-77098079D01*
X78838989Y-77106317D01*
X78829136Y-77113625D01*
X78818615Y-77119931D01*
X78807525Y-77125176D01*
X78795976Y-77129309D01*
X78784076Y-77132289D01*
X78771942Y-77134089D01*
X78759690Y-77134691D01*
X77934690Y-77134691D01*
X77922438Y-77134089D01*
X77910304Y-77132289D01*
X77898404Y-77129309D01*
X77886855Y-77125176D01*
X77875765Y-77119931D01*
X77865244Y-77113625D01*
X77855391Y-77106317D01*
X77846302Y-77098079D01*
X77838064Y-77088990D01*
X77830756Y-77079137D01*
X77824450Y-77068616D01*
X77819205Y-77057526D01*
X77815072Y-77045977D01*
X77812092Y-77034077D01*
X77810292Y-77021943D01*
X77809690Y-77009691D01*
X77809690Y-77009689D01*
X77810292Y-76997437D01*
X77812092Y-76985303D01*
X77815072Y-76973403D01*
X77819205Y-76961854D01*
X77824450Y-76950764D01*
X77830756Y-76940243D01*
X77838064Y-76930390D01*
X77846302Y-76921301D01*
X77855391Y-76913063D01*
X77865244Y-76905755D01*
X77875765Y-76899449D01*
X77886855Y-76894204D01*
X77898404Y-76890071D01*
X77910304Y-76887091D01*
X77922438Y-76885291D01*
X77934690Y-76884689D01*
X78759690Y-76884689D01*
X78771942Y-76885291D01*
X78771942Y-76885291D01*
G37*
D21*
X78347190Y-77009690D03*
X78347190Y-77509690D03*
D13*
G36*
X78884690Y-77384690D02*
G01*
X78884690Y-77634690D01*
X77809690Y-77634690D01*
X77809690Y-77384690D01*
X78884690Y-77384690D01*
X78884690Y-77384690D01*
G37*
G36*
X73359195Y-72535894D02*
G01*
X73383463Y-72539494D01*
X73407262Y-72545455D01*
X73430361Y-72553720D01*
X73452540Y-72564210D01*
X73473583Y-72576822D01*
X73493289Y-72591437D01*
X73511467Y-72607913D01*
X73527943Y-72626091D01*
X73542558Y-72645797D01*
X73555170Y-72666840D01*
X73565660Y-72689019D01*
X73573925Y-72712118D01*
X73579886Y-72735917D01*
X73583486Y-72760185D01*
X73584690Y-72784689D01*
X73584690Y-73334691D01*
X73583486Y-73359195D01*
X73579886Y-73383463D01*
X73573925Y-73407262D01*
X73565660Y-73430361D01*
X73555170Y-73452540D01*
X73542558Y-73473583D01*
X73527943Y-73493289D01*
X73511467Y-73511467D01*
X73493289Y-73527943D01*
X73473583Y-73542558D01*
X73452540Y-73555170D01*
X73430361Y-73565660D01*
X73407262Y-73573925D01*
X73383463Y-73579886D01*
X73359195Y-73583486D01*
X73334691Y-73584690D01*
X72784689Y-73584690D01*
X72760185Y-73583486D01*
X72735917Y-73579886D01*
X72712118Y-73573925D01*
X72689019Y-73565660D01*
X72666840Y-73555170D01*
X72645797Y-73542558D01*
X72626091Y-73527943D01*
X72607913Y-73511467D01*
X72591437Y-73493289D01*
X72576822Y-73473583D01*
X72564210Y-73452540D01*
X72553720Y-73430361D01*
X72545455Y-73407262D01*
X72539494Y-73383463D01*
X72535894Y-73359195D01*
X72534690Y-73334691D01*
X72534690Y-72784689D01*
X72535894Y-72760185D01*
X72539494Y-72735917D01*
X72545455Y-72712118D01*
X72553720Y-72689019D01*
X72564210Y-72666840D01*
X72576822Y-72645797D01*
X72591437Y-72626091D01*
X72607913Y-72607913D01*
X72626091Y-72591437D01*
X72645797Y-72576822D01*
X72666840Y-72564210D01*
X72689019Y-72553720D01*
X72712118Y-72545455D01*
X72735917Y-72539494D01*
X72760185Y-72535894D01*
X72784689Y-72534690D01*
X73334691Y-72534690D01*
X73359195Y-72535894D01*
X73359195Y-72535894D01*
G37*
D22*
X73059690Y-73059690D03*
D13*
G36*
X73359195Y-73835894D02*
G01*
X73383463Y-73839494D01*
X73407262Y-73845455D01*
X73430361Y-73853720D01*
X73452540Y-73864210D01*
X73473583Y-73876822D01*
X73493289Y-73891437D01*
X73511467Y-73907913D01*
X73527943Y-73926091D01*
X73542558Y-73945797D01*
X73555170Y-73966840D01*
X73565660Y-73989019D01*
X73573925Y-74012118D01*
X73579886Y-74035917D01*
X73583486Y-74060185D01*
X73584690Y-74084689D01*
X73584690Y-74634691D01*
X73583486Y-74659195D01*
X73579886Y-74683463D01*
X73573925Y-74707262D01*
X73565660Y-74730361D01*
X73555170Y-74752540D01*
X73542558Y-74773583D01*
X73527943Y-74793289D01*
X73511467Y-74811467D01*
X73493289Y-74827943D01*
X73473583Y-74842558D01*
X73452540Y-74855170D01*
X73430361Y-74865660D01*
X73407262Y-74873925D01*
X73383463Y-74879886D01*
X73359195Y-74883486D01*
X73334691Y-74884690D01*
X72784689Y-74884690D01*
X72760185Y-74883486D01*
X72735917Y-74879886D01*
X72712118Y-74873925D01*
X72689019Y-74865660D01*
X72666840Y-74855170D01*
X72645797Y-74842558D01*
X72626091Y-74827943D01*
X72607913Y-74811467D01*
X72591437Y-74793289D01*
X72576822Y-74773583D01*
X72564210Y-74752540D01*
X72553720Y-74730361D01*
X72545455Y-74707262D01*
X72539494Y-74683463D01*
X72535894Y-74659195D01*
X72534690Y-74634691D01*
X72534690Y-74084689D01*
X72535894Y-74060185D01*
X72539494Y-74035917D01*
X72545455Y-74012118D01*
X72553720Y-73989019D01*
X72564210Y-73966840D01*
X72576822Y-73945797D01*
X72591437Y-73926091D01*
X72607913Y-73907913D01*
X72626091Y-73891437D01*
X72645797Y-73876822D01*
X72666840Y-73864210D01*
X72689019Y-73853720D01*
X72712118Y-73845455D01*
X72735917Y-73839494D01*
X72760185Y-73835894D01*
X72784689Y-73834690D01*
X73334691Y-73834690D01*
X73359195Y-73835894D01*
X73359195Y-73835894D01*
G37*
D22*
X73059690Y-74359690D03*
D13*
G36*
X73359195Y-75135894D02*
G01*
X73383463Y-75139494D01*
X73407262Y-75145455D01*
X73430361Y-75153720D01*
X73452540Y-75164210D01*
X73473583Y-75176822D01*
X73493289Y-75191437D01*
X73511467Y-75207913D01*
X73527943Y-75226091D01*
X73542558Y-75245797D01*
X73555170Y-75266840D01*
X73565660Y-75289019D01*
X73573925Y-75312118D01*
X73579886Y-75335917D01*
X73583486Y-75360185D01*
X73584690Y-75384689D01*
X73584690Y-75934691D01*
X73583486Y-75959195D01*
X73579886Y-75983463D01*
X73573925Y-76007262D01*
X73565660Y-76030361D01*
X73555170Y-76052540D01*
X73542558Y-76073583D01*
X73527943Y-76093289D01*
X73511467Y-76111467D01*
X73493289Y-76127943D01*
X73473583Y-76142558D01*
X73452540Y-76155170D01*
X73430361Y-76165660D01*
X73407262Y-76173925D01*
X73383463Y-76179886D01*
X73359195Y-76183486D01*
X73334691Y-76184690D01*
X72784689Y-76184690D01*
X72760185Y-76183486D01*
X72735917Y-76179886D01*
X72712118Y-76173925D01*
X72689019Y-76165660D01*
X72666840Y-76155170D01*
X72645797Y-76142558D01*
X72626091Y-76127943D01*
X72607913Y-76111467D01*
X72591437Y-76093289D01*
X72576822Y-76073583D01*
X72564210Y-76052540D01*
X72553720Y-76030361D01*
X72545455Y-76007262D01*
X72539494Y-75983463D01*
X72535894Y-75959195D01*
X72534690Y-75934691D01*
X72534690Y-75384689D01*
X72535894Y-75360185D01*
X72539494Y-75335917D01*
X72545455Y-75312118D01*
X72553720Y-75289019D01*
X72564210Y-75266840D01*
X72576822Y-75245797D01*
X72591437Y-75226091D01*
X72607913Y-75207913D01*
X72626091Y-75191437D01*
X72645797Y-75176822D01*
X72666840Y-75164210D01*
X72689019Y-75153720D01*
X72712118Y-75145455D01*
X72735917Y-75139494D01*
X72760185Y-75135894D01*
X72784689Y-75134690D01*
X73334691Y-75134690D01*
X73359195Y-75135894D01*
X73359195Y-75135894D01*
G37*
D22*
X73059690Y-75659690D03*
D13*
G36*
X73359195Y-76435894D02*
G01*
X73383463Y-76439494D01*
X73407262Y-76445455D01*
X73430361Y-76453720D01*
X73452540Y-76464210D01*
X73473583Y-76476822D01*
X73493289Y-76491437D01*
X73511467Y-76507913D01*
X73527943Y-76526091D01*
X73542558Y-76545797D01*
X73555170Y-76566840D01*
X73565660Y-76589019D01*
X73573925Y-76612118D01*
X73579886Y-76635917D01*
X73583486Y-76660185D01*
X73584690Y-76684689D01*
X73584690Y-77234691D01*
X73583486Y-77259195D01*
X73579886Y-77283463D01*
X73573925Y-77307262D01*
X73565660Y-77330361D01*
X73555170Y-77352540D01*
X73542558Y-77373583D01*
X73527943Y-77393289D01*
X73511467Y-77411467D01*
X73493289Y-77427943D01*
X73473583Y-77442558D01*
X73452540Y-77455170D01*
X73430361Y-77465660D01*
X73407262Y-77473925D01*
X73383463Y-77479886D01*
X73359195Y-77483486D01*
X73334691Y-77484690D01*
X72784689Y-77484690D01*
X72760185Y-77483486D01*
X72735917Y-77479886D01*
X72712118Y-77473925D01*
X72689019Y-77465660D01*
X72666840Y-77455170D01*
X72645797Y-77442558D01*
X72626091Y-77427943D01*
X72607913Y-77411467D01*
X72591437Y-77393289D01*
X72576822Y-77373583D01*
X72564210Y-77352540D01*
X72553720Y-77330361D01*
X72545455Y-77307262D01*
X72539494Y-77283463D01*
X72535894Y-77259195D01*
X72534690Y-77234691D01*
X72534690Y-76684689D01*
X72535894Y-76660185D01*
X72539494Y-76635917D01*
X72545455Y-76612118D01*
X72553720Y-76589019D01*
X72564210Y-76566840D01*
X72576822Y-76545797D01*
X72591437Y-76526091D01*
X72607913Y-76507913D01*
X72626091Y-76491437D01*
X72645797Y-76476822D01*
X72666840Y-76464210D01*
X72689019Y-76453720D01*
X72712118Y-76445455D01*
X72735917Y-76439494D01*
X72760185Y-76435894D01*
X72784689Y-76434690D01*
X73334691Y-76434690D01*
X73359195Y-76435894D01*
X73359195Y-76435894D01*
G37*
D22*
X73059690Y-76959690D03*
D13*
G36*
X74659195Y-72535894D02*
G01*
X74683463Y-72539494D01*
X74707262Y-72545455D01*
X74730361Y-72553720D01*
X74752540Y-72564210D01*
X74773583Y-72576822D01*
X74793289Y-72591437D01*
X74811467Y-72607913D01*
X74827943Y-72626091D01*
X74842558Y-72645797D01*
X74855170Y-72666840D01*
X74865660Y-72689019D01*
X74873925Y-72712118D01*
X74879886Y-72735917D01*
X74883486Y-72760185D01*
X74884690Y-72784689D01*
X74884690Y-73334691D01*
X74883486Y-73359195D01*
X74879886Y-73383463D01*
X74873925Y-73407262D01*
X74865660Y-73430361D01*
X74855170Y-73452540D01*
X74842558Y-73473583D01*
X74827943Y-73493289D01*
X74811467Y-73511467D01*
X74793289Y-73527943D01*
X74773583Y-73542558D01*
X74752540Y-73555170D01*
X74730361Y-73565660D01*
X74707262Y-73573925D01*
X74683463Y-73579886D01*
X74659195Y-73583486D01*
X74634691Y-73584690D01*
X74084689Y-73584690D01*
X74060185Y-73583486D01*
X74035917Y-73579886D01*
X74012118Y-73573925D01*
X73989019Y-73565660D01*
X73966840Y-73555170D01*
X73945797Y-73542558D01*
X73926091Y-73527943D01*
X73907913Y-73511467D01*
X73891437Y-73493289D01*
X73876822Y-73473583D01*
X73864210Y-73452540D01*
X73853720Y-73430361D01*
X73845455Y-73407262D01*
X73839494Y-73383463D01*
X73835894Y-73359195D01*
X73834690Y-73334691D01*
X73834690Y-72784689D01*
X73835894Y-72760185D01*
X73839494Y-72735917D01*
X73845455Y-72712118D01*
X73853720Y-72689019D01*
X73864210Y-72666840D01*
X73876822Y-72645797D01*
X73891437Y-72626091D01*
X73907913Y-72607913D01*
X73926091Y-72591437D01*
X73945797Y-72576822D01*
X73966840Y-72564210D01*
X73989019Y-72553720D01*
X74012118Y-72545455D01*
X74035917Y-72539494D01*
X74060185Y-72535894D01*
X74084689Y-72534690D01*
X74634691Y-72534690D01*
X74659195Y-72535894D01*
X74659195Y-72535894D01*
G37*
D22*
X74359690Y-73059690D03*
D13*
G36*
X74659195Y-73835894D02*
G01*
X74683463Y-73839494D01*
X74707262Y-73845455D01*
X74730361Y-73853720D01*
X74752540Y-73864210D01*
X74773583Y-73876822D01*
X74793289Y-73891437D01*
X74811467Y-73907913D01*
X74827943Y-73926091D01*
X74842558Y-73945797D01*
X74855170Y-73966840D01*
X74865660Y-73989019D01*
X74873925Y-74012118D01*
X74879886Y-74035917D01*
X74883486Y-74060185D01*
X74884690Y-74084689D01*
X74884690Y-74634691D01*
X74883486Y-74659195D01*
X74879886Y-74683463D01*
X74873925Y-74707262D01*
X74865660Y-74730361D01*
X74855170Y-74752540D01*
X74842558Y-74773583D01*
X74827943Y-74793289D01*
X74811467Y-74811467D01*
X74793289Y-74827943D01*
X74773583Y-74842558D01*
X74752540Y-74855170D01*
X74730361Y-74865660D01*
X74707262Y-74873925D01*
X74683463Y-74879886D01*
X74659195Y-74883486D01*
X74634691Y-74884690D01*
X74084689Y-74884690D01*
X74060185Y-74883486D01*
X74035917Y-74879886D01*
X74012118Y-74873925D01*
X73989019Y-74865660D01*
X73966840Y-74855170D01*
X73945797Y-74842558D01*
X73926091Y-74827943D01*
X73907913Y-74811467D01*
X73891437Y-74793289D01*
X73876822Y-74773583D01*
X73864210Y-74752540D01*
X73853720Y-74730361D01*
X73845455Y-74707262D01*
X73839494Y-74683463D01*
X73835894Y-74659195D01*
X73834690Y-74634691D01*
X73834690Y-74084689D01*
X73835894Y-74060185D01*
X73839494Y-74035917D01*
X73845455Y-74012118D01*
X73853720Y-73989019D01*
X73864210Y-73966840D01*
X73876822Y-73945797D01*
X73891437Y-73926091D01*
X73907913Y-73907913D01*
X73926091Y-73891437D01*
X73945797Y-73876822D01*
X73966840Y-73864210D01*
X73989019Y-73853720D01*
X74012118Y-73845455D01*
X74035917Y-73839494D01*
X74060185Y-73835894D01*
X74084689Y-73834690D01*
X74634691Y-73834690D01*
X74659195Y-73835894D01*
X74659195Y-73835894D01*
G37*
D22*
X74359690Y-74359690D03*
D13*
G36*
X74659195Y-75135894D02*
G01*
X74683463Y-75139494D01*
X74707262Y-75145455D01*
X74730361Y-75153720D01*
X74752540Y-75164210D01*
X74773583Y-75176822D01*
X74793289Y-75191437D01*
X74811467Y-75207913D01*
X74827943Y-75226091D01*
X74842558Y-75245797D01*
X74855170Y-75266840D01*
X74865660Y-75289019D01*
X74873925Y-75312118D01*
X74879886Y-75335917D01*
X74883486Y-75360185D01*
X74884690Y-75384689D01*
X74884690Y-75934691D01*
X74883486Y-75959195D01*
X74879886Y-75983463D01*
X74873925Y-76007262D01*
X74865660Y-76030361D01*
X74855170Y-76052540D01*
X74842558Y-76073583D01*
X74827943Y-76093289D01*
X74811467Y-76111467D01*
X74793289Y-76127943D01*
X74773583Y-76142558D01*
X74752540Y-76155170D01*
X74730361Y-76165660D01*
X74707262Y-76173925D01*
X74683463Y-76179886D01*
X74659195Y-76183486D01*
X74634691Y-76184690D01*
X74084689Y-76184690D01*
X74060185Y-76183486D01*
X74035917Y-76179886D01*
X74012118Y-76173925D01*
X73989019Y-76165660D01*
X73966840Y-76155170D01*
X73945797Y-76142558D01*
X73926091Y-76127943D01*
X73907913Y-76111467D01*
X73891437Y-76093289D01*
X73876822Y-76073583D01*
X73864210Y-76052540D01*
X73853720Y-76030361D01*
X73845455Y-76007262D01*
X73839494Y-75983463D01*
X73835894Y-75959195D01*
X73834690Y-75934691D01*
X73834690Y-75384689D01*
X73835894Y-75360185D01*
X73839494Y-75335917D01*
X73845455Y-75312118D01*
X73853720Y-75289019D01*
X73864210Y-75266840D01*
X73876822Y-75245797D01*
X73891437Y-75226091D01*
X73907913Y-75207913D01*
X73926091Y-75191437D01*
X73945797Y-75176822D01*
X73966840Y-75164210D01*
X73989019Y-75153720D01*
X74012118Y-75145455D01*
X74035917Y-75139494D01*
X74060185Y-75135894D01*
X74084689Y-75134690D01*
X74634691Y-75134690D01*
X74659195Y-75135894D01*
X74659195Y-75135894D01*
G37*
D22*
X74359690Y-75659690D03*
D13*
G36*
X74659195Y-76435894D02*
G01*
X74683463Y-76439494D01*
X74707262Y-76445455D01*
X74730361Y-76453720D01*
X74752540Y-76464210D01*
X74773583Y-76476822D01*
X74793289Y-76491437D01*
X74811467Y-76507913D01*
X74827943Y-76526091D01*
X74842558Y-76545797D01*
X74855170Y-76566840D01*
X74865660Y-76589019D01*
X74873925Y-76612118D01*
X74879886Y-76635917D01*
X74883486Y-76660185D01*
X74884690Y-76684689D01*
X74884690Y-77234691D01*
X74883486Y-77259195D01*
X74879886Y-77283463D01*
X74873925Y-77307262D01*
X74865660Y-77330361D01*
X74855170Y-77352540D01*
X74842558Y-77373583D01*
X74827943Y-77393289D01*
X74811467Y-77411467D01*
X74793289Y-77427943D01*
X74773583Y-77442558D01*
X74752540Y-77455170D01*
X74730361Y-77465660D01*
X74707262Y-77473925D01*
X74683463Y-77479886D01*
X74659195Y-77483486D01*
X74634691Y-77484690D01*
X74084689Y-77484690D01*
X74060185Y-77483486D01*
X74035917Y-77479886D01*
X74012118Y-77473925D01*
X73989019Y-77465660D01*
X73966840Y-77455170D01*
X73945797Y-77442558D01*
X73926091Y-77427943D01*
X73907913Y-77411467D01*
X73891437Y-77393289D01*
X73876822Y-77373583D01*
X73864210Y-77352540D01*
X73853720Y-77330361D01*
X73845455Y-77307262D01*
X73839494Y-77283463D01*
X73835894Y-77259195D01*
X73834690Y-77234691D01*
X73834690Y-76684689D01*
X73835894Y-76660185D01*
X73839494Y-76635917D01*
X73845455Y-76612118D01*
X73853720Y-76589019D01*
X73864210Y-76566840D01*
X73876822Y-76545797D01*
X73891437Y-76526091D01*
X73907913Y-76507913D01*
X73926091Y-76491437D01*
X73945797Y-76476822D01*
X73966840Y-76464210D01*
X73989019Y-76453720D01*
X74012118Y-76445455D01*
X74035917Y-76439494D01*
X74060185Y-76435894D01*
X74084689Y-76434690D01*
X74634691Y-76434690D01*
X74659195Y-76435894D01*
X74659195Y-76435894D01*
G37*
D22*
X74359690Y-76959690D03*
D13*
G36*
X75959195Y-72535894D02*
G01*
X75983463Y-72539494D01*
X76007262Y-72545455D01*
X76030361Y-72553720D01*
X76052540Y-72564210D01*
X76073583Y-72576822D01*
X76093289Y-72591437D01*
X76111467Y-72607913D01*
X76127943Y-72626091D01*
X76142558Y-72645797D01*
X76155170Y-72666840D01*
X76165660Y-72689019D01*
X76173925Y-72712118D01*
X76179886Y-72735917D01*
X76183486Y-72760185D01*
X76184690Y-72784689D01*
X76184690Y-73334691D01*
X76183486Y-73359195D01*
X76179886Y-73383463D01*
X76173925Y-73407262D01*
X76165660Y-73430361D01*
X76155170Y-73452540D01*
X76142558Y-73473583D01*
X76127943Y-73493289D01*
X76111467Y-73511467D01*
X76093289Y-73527943D01*
X76073583Y-73542558D01*
X76052540Y-73555170D01*
X76030361Y-73565660D01*
X76007262Y-73573925D01*
X75983463Y-73579886D01*
X75959195Y-73583486D01*
X75934691Y-73584690D01*
X75384689Y-73584690D01*
X75360185Y-73583486D01*
X75335917Y-73579886D01*
X75312118Y-73573925D01*
X75289019Y-73565660D01*
X75266840Y-73555170D01*
X75245797Y-73542558D01*
X75226091Y-73527943D01*
X75207913Y-73511467D01*
X75191437Y-73493289D01*
X75176822Y-73473583D01*
X75164210Y-73452540D01*
X75153720Y-73430361D01*
X75145455Y-73407262D01*
X75139494Y-73383463D01*
X75135894Y-73359195D01*
X75134690Y-73334691D01*
X75134690Y-72784689D01*
X75135894Y-72760185D01*
X75139494Y-72735917D01*
X75145455Y-72712118D01*
X75153720Y-72689019D01*
X75164210Y-72666840D01*
X75176822Y-72645797D01*
X75191437Y-72626091D01*
X75207913Y-72607913D01*
X75226091Y-72591437D01*
X75245797Y-72576822D01*
X75266840Y-72564210D01*
X75289019Y-72553720D01*
X75312118Y-72545455D01*
X75335917Y-72539494D01*
X75360185Y-72535894D01*
X75384689Y-72534690D01*
X75934691Y-72534690D01*
X75959195Y-72535894D01*
X75959195Y-72535894D01*
G37*
D22*
X75659690Y-73059690D03*
D13*
G36*
X75959195Y-73835894D02*
G01*
X75983463Y-73839494D01*
X76007262Y-73845455D01*
X76030361Y-73853720D01*
X76052540Y-73864210D01*
X76073583Y-73876822D01*
X76093289Y-73891437D01*
X76111467Y-73907913D01*
X76127943Y-73926091D01*
X76142558Y-73945797D01*
X76155170Y-73966840D01*
X76165660Y-73989019D01*
X76173925Y-74012118D01*
X76179886Y-74035917D01*
X76183486Y-74060185D01*
X76184690Y-74084689D01*
X76184690Y-74634691D01*
X76183486Y-74659195D01*
X76179886Y-74683463D01*
X76173925Y-74707262D01*
X76165660Y-74730361D01*
X76155170Y-74752540D01*
X76142558Y-74773583D01*
X76127943Y-74793289D01*
X76111467Y-74811467D01*
X76093289Y-74827943D01*
X76073583Y-74842558D01*
X76052540Y-74855170D01*
X76030361Y-74865660D01*
X76007262Y-74873925D01*
X75983463Y-74879886D01*
X75959195Y-74883486D01*
X75934691Y-74884690D01*
X75384689Y-74884690D01*
X75360185Y-74883486D01*
X75335917Y-74879886D01*
X75312118Y-74873925D01*
X75289019Y-74865660D01*
X75266840Y-74855170D01*
X75245797Y-74842558D01*
X75226091Y-74827943D01*
X75207913Y-74811467D01*
X75191437Y-74793289D01*
X75176822Y-74773583D01*
X75164210Y-74752540D01*
X75153720Y-74730361D01*
X75145455Y-74707262D01*
X75139494Y-74683463D01*
X75135894Y-74659195D01*
X75134690Y-74634691D01*
X75134690Y-74084689D01*
X75135894Y-74060185D01*
X75139494Y-74035917D01*
X75145455Y-74012118D01*
X75153720Y-73989019D01*
X75164210Y-73966840D01*
X75176822Y-73945797D01*
X75191437Y-73926091D01*
X75207913Y-73907913D01*
X75226091Y-73891437D01*
X75245797Y-73876822D01*
X75266840Y-73864210D01*
X75289019Y-73853720D01*
X75312118Y-73845455D01*
X75335917Y-73839494D01*
X75360185Y-73835894D01*
X75384689Y-73834690D01*
X75934691Y-73834690D01*
X75959195Y-73835894D01*
X75959195Y-73835894D01*
G37*
D22*
X75659690Y-74359690D03*
D13*
G36*
X75959195Y-75135894D02*
G01*
X75983463Y-75139494D01*
X76007262Y-75145455D01*
X76030361Y-75153720D01*
X76052540Y-75164210D01*
X76073583Y-75176822D01*
X76093289Y-75191437D01*
X76111467Y-75207913D01*
X76127943Y-75226091D01*
X76142558Y-75245797D01*
X76155170Y-75266840D01*
X76165660Y-75289019D01*
X76173925Y-75312118D01*
X76179886Y-75335917D01*
X76183486Y-75360185D01*
X76184690Y-75384689D01*
X76184690Y-75934691D01*
X76183486Y-75959195D01*
X76179886Y-75983463D01*
X76173925Y-76007262D01*
X76165660Y-76030361D01*
X76155170Y-76052540D01*
X76142558Y-76073583D01*
X76127943Y-76093289D01*
X76111467Y-76111467D01*
X76093289Y-76127943D01*
X76073583Y-76142558D01*
X76052540Y-76155170D01*
X76030361Y-76165660D01*
X76007262Y-76173925D01*
X75983463Y-76179886D01*
X75959195Y-76183486D01*
X75934691Y-76184690D01*
X75384689Y-76184690D01*
X75360185Y-76183486D01*
X75335917Y-76179886D01*
X75312118Y-76173925D01*
X75289019Y-76165660D01*
X75266840Y-76155170D01*
X75245797Y-76142558D01*
X75226091Y-76127943D01*
X75207913Y-76111467D01*
X75191437Y-76093289D01*
X75176822Y-76073583D01*
X75164210Y-76052540D01*
X75153720Y-76030361D01*
X75145455Y-76007262D01*
X75139494Y-75983463D01*
X75135894Y-75959195D01*
X75134690Y-75934691D01*
X75134690Y-75384689D01*
X75135894Y-75360185D01*
X75139494Y-75335917D01*
X75145455Y-75312118D01*
X75153720Y-75289019D01*
X75164210Y-75266840D01*
X75176822Y-75245797D01*
X75191437Y-75226091D01*
X75207913Y-75207913D01*
X75226091Y-75191437D01*
X75245797Y-75176822D01*
X75266840Y-75164210D01*
X75289019Y-75153720D01*
X75312118Y-75145455D01*
X75335917Y-75139494D01*
X75360185Y-75135894D01*
X75384689Y-75134690D01*
X75934691Y-75134690D01*
X75959195Y-75135894D01*
X75959195Y-75135894D01*
G37*
D22*
X75659690Y-75659690D03*
D13*
G36*
X75959195Y-76435894D02*
G01*
X75983463Y-76439494D01*
X76007262Y-76445455D01*
X76030361Y-76453720D01*
X76052540Y-76464210D01*
X76073583Y-76476822D01*
X76093289Y-76491437D01*
X76111467Y-76507913D01*
X76127943Y-76526091D01*
X76142558Y-76545797D01*
X76155170Y-76566840D01*
X76165660Y-76589019D01*
X76173925Y-76612118D01*
X76179886Y-76635917D01*
X76183486Y-76660185D01*
X76184690Y-76684689D01*
X76184690Y-77234691D01*
X76183486Y-77259195D01*
X76179886Y-77283463D01*
X76173925Y-77307262D01*
X76165660Y-77330361D01*
X76155170Y-77352540D01*
X76142558Y-77373583D01*
X76127943Y-77393289D01*
X76111467Y-77411467D01*
X76093289Y-77427943D01*
X76073583Y-77442558D01*
X76052540Y-77455170D01*
X76030361Y-77465660D01*
X76007262Y-77473925D01*
X75983463Y-77479886D01*
X75959195Y-77483486D01*
X75934691Y-77484690D01*
X75384689Y-77484690D01*
X75360185Y-77483486D01*
X75335917Y-77479886D01*
X75312118Y-77473925D01*
X75289019Y-77465660D01*
X75266840Y-77455170D01*
X75245797Y-77442558D01*
X75226091Y-77427943D01*
X75207913Y-77411467D01*
X75191437Y-77393289D01*
X75176822Y-77373583D01*
X75164210Y-77352540D01*
X75153720Y-77330361D01*
X75145455Y-77307262D01*
X75139494Y-77283463D01*
X75135894Y-77259195D01*
X75134690Y-77234691D01*
X75134690Y-76684689D01*
X75135894Y-76660185D01*
X75139494Y-76635917D01*
X75145455Y-76612118D01*
X75153720Y-76589019D01*
X75164210Y-76566840D01*
X75176822Y-76545797D01*
X75191437Y-76526091D01*
X75207913Y-76507913D01*
X75226091Y-76491437D01*
X75245797Y-76476822D01*
X75266840Y-76464210D01*
X75289019Y-76453720D01*
X75312118Y-76445455D01*
X75335917Y-76439494D01*
X75360185Y-76435894D01*
X75384689Y-76434690D01*
X75934691Y-76434690D01*
X75959195Y-76435894D01*
X75959195Y-76435894D01*
G37*
D22*
X75659690Y-76959690D03*
D13*
G36*
X77259195Y-72535894D02*
G01*
X77283463Y-72539494D01*
X77307262Y-72545455D01*
X77330361Y-72553720D01*
X77352540Y-72564210D01*
X77373583Y-72576822D01*
X77393289Y-72591437D01*
X77411467Y-72607913D01*
X77427943Y-72626091D01*
X77442558Y-72645797D01*
X77455170Y-72666840D01*
X77465660Y-72689019D01*
X77473925Y-72712118D01*
X77479886Y-72735917D01*
X77483486Y-72760185D01*
X77484690Y-72784689D01*
X77484690Y-73334691D01*
X77483486Y-73359195D01*
X77479886Y-73383463D01*
X77473925Y-73407262D01*
X77465660Y-73430361D01*
X77455170Y-73452540D01*
X77442558Y-73473583D01*
X77427943Y-73493289D01*
X77411467Y-73511467D01*
X77393289Y-73527943D01*
X77373583Y-73542558D01*
X77352540Y-73555170D01*
X77330361Y-73565660D01*
X77307262Y-73573925D01*
X77283463Y-73579886D01*
X77259195Y-73583486D01*
X77234691Y-73584690D01*
X76684689Y-73584690D01*
X76660185Y-73583486D01*
X76635917Y-73579886D01*
X76612118Y-73573925D01*
X76589019Y-73565660D01*
X76566840Y-73555170D01*
X76545797Y-73542558D01*
X76526091Y-73527943D01*
X76507913Y-73511467D01*
X76491437Y-73493289D01*
X76476822Y-73473583D01*
X76464210Y-73452540D01*
X76453720Y-73430361D01*
X76445455Y-73407262D01*
X76439494Y-73383463D01*
X76435894Y-73359195D01*
X76434690Y-73334691D01*
X76434690Y-72784689D01*
X76435894Y-72760185D01*
X76439494Y-72735917D01*
X76445455Y-72712118D01*
X76453720Y-72689019D01*
X76464210Y-72666840D01*
X76476822Y-72645797D01*
X76491437Y-72626091D01*
X76507913Y-72607913D01*
X76526091Y-72591437D01*
X76545797Y-72576822D01*
X76566840Y-72564210D01*
X76589019Y-72553720D01*
X76612118Y-72545455D01*
X76635917Y-72539494D01*
X76660185Y-72535894D01*
X76684689Y-72534690D01*
X77234691Y-72534690D01*
X77259195Y-72535894D01*
X77259195Y-72535894D01*
G37*
D22*
X76959690Y-73059690D03*
D13*
G36*
X77259195Y-73835894D02*
G01*
X77283463Y-73839494D01*
X77307262Y-73845455D01*
X77330361Y-73853720D01*
X77352540Y-73864210D01*
X77373583Y-73876822D01*
X77393289Y-73891437D01*
X77411467Y-73907913D01*
X77427943Y-73926091D01*
X77442558Y-73945797D01*
X77455170Y-73966840D01*
X77465660Y-73989019D01*
X77473925Y-74012118D01*
X77479886Y-74035917D01*
X77483486Y-74060185D01*
X77484690Y-74084689D01*
X77484690Y-74634691D01*
X77483486Y-74659195D01*
X77479886Y-74683463D01*
X77473925Y-74707262D01*
X77465660Y-74730361D01*
X77455170Y-74752540D01*
X77442558Y-74773583D01*
X77427943Y-74793289D01*
X77411467Y-74811467D01*
X77393289Y-74827943D01*
X77373583Y-74842558D01*
X77352540Y-74855170D01*
X77330361Y-74865660D01*
X77307262Y-74873925D01*
X77283463Y-74879886D01*
X77259195Y-74883486D01*
X77234691Y-74884690D01*
X76684689Y-74884690D01*
X76660185Y-74883486D01*
X76635917Y-74879886D01*
X76612118Y-74873925D01*
X76589019Y-74865660D01*
X76566840Y-74855170D01*
X76545797Y-74842558D01*
X76526091Y-74827943D01*
X76507913Y-74811467D01*
X76491437Y-74793289D01*
X76476822Y-74773583D01*
X76464210Y-74752540D01*
X76453720Y-74730361D01*
X76445455Y-74707262D01*
X76439494Y-74683463D01*
X76435894Y-74659195D01*
X76434690Y-74634691D01*
X76434690Y-74084689D01*
X76435894Y-74060185D01*
X76439494Y-74035917D01*
X76445455Y-74012118D01*
X76453720Y-73989019D01*
X76464210Y-73966840D01*
X76476822Y-73945797D01*
X76491437Y-73926091D01*
X76507913Y-73907913D01*
X76526091Y-73891437D01*
X76545797Y-73876822D01*
X76566840Y-73864210D01*
X76589019Y-73853720D01*
X76612118Y-73845455D01*
X76635917Y-73839494D01*
X76660185Y-73835894D01*
X76684689Y-73834690D01*
X77234691Y-73834690D01*
X77259195Y-73835894D01*
X77259195Y-73835894D01*
G37*
D22*
X76959690Y-74359690D03*
D13*
G36*
X77259195Y-75135894D02*
G01*
X77283463Y-75139494D01*
X77307262Y-75145455D01*
X77330361Y-75153720D01*
X77352540Y-75164210D01*
X77373583Y-75176822D01*
X77393289Y-75191437D01*
X77411467Y-75207913D01*
X77427943Y-75226091D01*
X77442558Y-75245797D01*
X77455170Y-75266840D01*
X77465660Y-75289019D01*
X77473925Y-75312118D01*
X77479886Y-75335917D01*
X77483486Y-75360185D01*
X77484690Y-75384689D01*
X77484690Y-75934691D01*
X77483486Y-75959195D01*
X77479886Y-75983463D01*
X77473925Y-76007262D01*
X77465660Y-76030361D01*
X77455170Y-76052540D01*
X77442558Y-76073583D01*
X77427943Y-76093289D01*
X77411467Y-76111467D01*
X77393289Y-76127943D01*
X77373583Y-76142558D01*
X77352540Y-76155170D01*
X77330361Y-76165660D01*
X77307262Y-76173925D01*
X77283463Y-76179886D01*
X77259195Y-76183486D01*
X77234691Y-76184690D01*
X76684689Y-76184690D01*
X76660185Y-76183486D01*
X76635917Y-76179886D01*
X76612118Y-76173925D01*
X76589019Y-76165660D01*
X76566840Y-76155170D01*
X76545797Y-76142558D01*
X76526091Y-76127943D01*
X76507913Y-76111467D01*
X76491437Y-76093289D01*
X76476822Y-76073583D01*
X76464210Y-76052540D01*
X76453720Y-76030361D01*
X76445455Y-76007262D01*
X76439494Y-75983463D01*
X76435894Y-75959195D01*
X76434690Y-75934691D01*
X76434690Y-75384689D01*
X76435894Y-75360185D01*
X76439494Y-75335917D01*
X76445455Y-75312118D01*
X76453720Y-75289019D01*
X76464210Y-75266840D01*
X76476822Y-75245797D01*
X76491437Y-75226091D01*
X76507913Y-75207913D01*
X76526091Y-75191437D01*
X76545797Y-75176822D01*
X76566840Y-75164210D01*
X76589019Y-75153720D01*
X76612118Y-75145455D01*
X76635917Y-75139494D01*
X76660185Y-75135894D01*
X76684689Y-75134690D01*
X77234691Y-75134690D01*
X77259195Y-75135894D01*
X77259195Y-75135894D01*
G37*
D22*
X76959690Y-75659690D03*
D13*
G36*
X77259195Y-76435894D02*
G01*
X77283463Y-76439494D01*
X77307262Y-76445455D01*
X77330361Y-76453720D01*
X77352540Y-76464210D01*
X77373583Y-76476822D01*
X77393289Y-76491437D01*
X77411467Y-76507913D01*
X77427943Y-76526091D01*
X77442558Y-76545797D01*
X77455170Y-76566840D01*
X77465660Y-76589019D01*
X77473925Y-76612118D01*
X77479886Y-76635917D01*
X77483486Y-76660185D01*
X77484690Y-76684689D01*
X77484690Y-77234691D01*
X77483486Y-77259195D01*
X77479886Y-77283463D01*
X77473925Y-77307262D01*
X77465660Y-77330361D01*
X77455170Y-77352540D01*
X77442558Y-77373583D01*
X77427943Y-77393289D01*
X77411467Y-77411467D01*
X77393289Y-77427943D01*
X77373583Y-77442558D01*
X77352540Y-77455170D01*
X77330361Y-77465660D01*
X77307262Y-77473925D01*
X77283463Y-77479886D01*
X77259195Y-77483486D01*
X77234691Y-77484690D01*
X76684689Y-77484690D01*
X76660185Y-77483486D01*
X76635917Y-77479886D01*
X76612118Y-77473925D01*
X76589019Y-77465660D01*
X76566840Y-77455170D01*
X76545797Y-77442558D01*
X76526091Y-77427943D01*
X76507913Y-77411467D01*
X76491437Y-77393289D01*
X76476822Y-77373583D01*
X76464210Y-77352540D01*
X76453720Y-77330361D01*
X76445455Y-77307262D01*
X76439494Y-77283463D01*
X76435894Y-77259195D01*
X76434690Y-77234691D01*
X76434690Y-76684689D01*
X76435894Y-76660185D01*
X76439494Y-76635917D01*
X76445455Y-76612118D01*
X76453720Y-76589019D01*
X76464210Y-76566840D01*
X76476822Y-76545797D01*
X76491437Y-76526091D01*
X76507913Y-76507913D01*
X76526091Y-76491437D01*
X76545797Y-76476822D01*
X76566840Y-76464210D01*
X76589019Y-76453720D01*
X76612118Y-76445455D01*
X76635917Y-76439494D01*
X76660185Y-76435894D01*
X76684689Y-76434690D01*
X77234691Y-76434690D01*
X77259195Y-76435894D01*
X77259195Y-76435894D01*
G37*
D22*
X76959690Y-76959690D03*
D13*
G36*
X97474473Y-39032142D02*
G01*
X97489034Y-39034302D01*
X97503313Y-39037879D01*
X97517173Y-39042838D01*
X97530480Y-39049132D01*
X97543106Y-39056700D01*
X97554929Y-39065468D01*
X97565836Y-39075354D01*
X97575722Y-39086261D01*
X97584490Y-39098084D01*
X97592058Y-39110710D01*
X97598352Y-39124017D01*
X97603311Y-39137877D01*
X97606888Y-39152156D01*
X97609048Y-39166717D01*
X97609770Y-39181420D01*
X97609770Y-40331420D01*
X97609048Y-40346123D01*
X97606888Y-40360684D01*
X97603311Y-40374963D01*
X97598352Y-40388823D01*
X97592058Y-40402130D01*
X97584490Y-40414756D01*
X97575722Y-40426579D01*
X97565836Y-40437486D01*
X97554929Y-40447372D01*
X97543106Y-40456140D01*
X97530480Y-40463708D01*
X97517173Y-40470002D01*
X97503313Y-40474961D01*
X97489034Y-40478538D01*
X97474473Y-40480698D01*
X97459770Y-40481420D01*
X97159770Y-40481420D01*
X97145067Y-40480698D01*
X97130506Y-40478538D01*
X97116227Y-40474961D01*
X97102367Y-40470002D01*
X97089060Y-40463708D01*
X97076434Y-40456140D01*
X97064611Y-40447372D01*
X97053704Y-40437486D01*
X97043818Y-40426579D01*
X97035050Y-40414756D01*
X97027482Y-40402130D01*
X97021188Y-40388823D01*
X97016229Y-40374963D01*
X97012652Y-40360684D01*
X97010492Y-40346123D01*
X97009770Y-40331420D01*
X97009770Y-39181420D01*
X97010492Y-39166717D01*
X97012652Y-39152156D01*
X97016229Y-39137877D01*
X97021188Y-39124017D01*
X97027482Y-39110710D01*
X97035050Y-39098084D01*
X97043818Y-39086261D01*
X97053704Y-39075354D01*
X97064611Y-39065468D01*
X97076434Y-39056700D01*
X97089060Y-39049132D01*
X97102367Y-39042838D01*
X97116227Y-39037879D01*
X97130506Y-39034302D01*
X97145067Y-39032142D01*
X97159770Y-39031420D01*
X97459770Y-39031420D01*
X97474473Y-39032142D01*
X97474473Y-39032142D01*
G37*
D23*
X97309770Y-39756420D03*
D13*
G36*
X95892121Y-39031781D02*
G01*
X95899402Y-39032861D01*
X95906541Y-39034649D01*
X95913471Y-39037129D01*
X95920125Y-39040276D01*
X95926438Y-39044060D01*
X95932349Y-39048444D01*
X95937803Y-39053387D01*
X95942746Y-39058841D01*
X95947130Y-39064752D01*
X95950914Y-39071065D01*
X95954061Y-39077719D01*
X95956541Y-39084649D01*
X95958329Y-39091788D01*
X95959409Y-39099069D01*
X95959770Y-39106420D01*
X95959770Y-40406420D01*
X95959409Y-40413771D01*
X95958329Y-40421052D01*
X95956541Y-40428191D01*
X95954061Y-40435121D01*
X95950914Y-40441775D01*
X95947130Y-40448088D01*
X95942746Y-40453999D01*
X95937803Y-40459453D01*
X95932349Y-40464396D01*
X95926438Y-40468780D01*
X95920125Y-40472564D01*
X95913471Y-40475711D01*
X95906541Y-40478191D01*
X95899402Y-40479979D01*
X95892121Y-40481059D01*
X95884770Y-40481420D01*
X95734770Y-40481420D01*
X95727419Y-40481059D01*
X95720138Y-40479979D01*
X95712999Y-40478191D01*
X95706069Y-40475711D01*
X95699415Y-40472564D01*
X95693102Y-40468780D01*
X95687191Y-40464396D01*
X95681737Y-40459453D01*
X95676794Y-40453999D01*
X95672410Y-40448088D01*
X95668626Y-40441775D01*
X95665479Y-40435121D01*
X95662999Y-40428191D01*
X95661211Y-40421052D01*
X95660131Y-40413771D01*
X95659770Y-40406420D01*
X95659770Y-39106420D01*
X95660131Y-39099069D01*
X95661211Y-39091788D01*
X95662999Y-39084649D01*
X95665479Y-39077719D01*
X95668626Y-39071065D01*
X95672410Y-39064752D01*
X95676794Y-39058841D01*
X95681737Y-39053387D01*
X95687191Y-39048444D01*
X95693102Y-39044060D01*
X95699415Y-39040276D01*
X95706069Y-39037129D01*
X95712999Y-39034649D01*
X95720138Y-39032861D01*
X95727419Y-39031781D01*
X95734770Y-39031420D01*
X95884770Y-39031420D01*
X95892121Y-39031781D01*
X95892121Y-39031781D01*
G37*
D24*
X95809770Y-39756420D03*
D13*
G36*
X95392121Y-39031781D02*
G01*
X95399402Y-39032861D01*
X95406541Y-39034649D01*
X95413471Y-39037129D01*
X95420125Y-39040276D01*
X95426438Y-39044060D01*
X95432349Y-39048444D01*
X95437803Y-39053387D01*
X95442746Y-39058841D01*
X95447130Y-39064752D01*
X95450914Y-39071065D01*
X95454061Y-39077719D01*
X95456541Y-39084649D01*
X95458329Y-39091788D01*
X95459409Y-39099069D01*
X95459770Y-39106420D01*
X95459770Y-40406420D01*
X95459409Y-40413771D01*
X95458329Y-40421052D01*
X95456541Y-40428191D01*
X95454061Y-40435121D01*
X95450914Y-40441775D01*
X95447130Y-40448088D01*
X95442746Y-40453999D01*
X95437803Y-40459453D01*
X95432349Y-40464396D01*
X95426438Y-40468780D01*
X95420125Y-40472564D01*
X95413471Y-40475711D01*
X95406541Y-40478191D01*
X95399402Y-40479979D01*
X95392121Y-40481059D01*
X95384770Y-40481420D01*
X95234770Y-40481420D01*
X95227419Y-40481059D01*
X95220138Y-40479979D01*
X95212999Y-40478191D01*
X95206069Y-40475711D01*
X95199415Y-40472564D01*
X95193102Y-40468780D01*
X95187191Y-40464396D01*
X95181737Y-40459453D01*
X95176794Y-40453999D01*
X95172410Y-40448088D01*
X95168626Y-40441775D01*
X95165479Y-40435121D01*
X95162999Y-40428191D01*
X95161211Y-40421052D01*
X95160131Y-40413771D01*
X95159770Y-40406420D01*
X95159770Y-39106420D01*
X95160131Y-39099069D01*
X95161211Y-39091788D01*
X95162999Y-39084649D01*
X95165479Y-39077719D01*
X95168626Y-39071065D01*
X95172410Y-39064752D01*
X95176794Y-39058841D01*
X95181737Y-39053387D01*
X95187191Y-39048444D01*
X95193102Y-39044060D01*
X95199415Y-39040276D01*
X95206069Y-39037129D01*
X95212999Y-39034649D01*
X95220138Y-39032861D01*
X95227419Y-39031781D01*
X95234770Y-39031420D01*
X95384770Y-39031420D01*
X95392121Y-39031781D01*
X95392121Y-39031781D01*
G37*
D24*
X95309770Y-39756420D03*
D13*
G36*
X94892121Y-39031781D02*
G01*
X94899402Y-39032861D01*
X94906541Y-39034649D01*
X94913471Y-39037129D01*
X94920125Y-39040276D01*
X94926438Y-39044060D01*
X94932349Y-39048444D01*
X94937803Y-39053387D01*
X94942746Y-39058841D01*
X94947130Y-39064752D01*
X94950914Y-39071065D01*
X94954061Y-39077719D01*
X94956541Y-39084649D01*
X94958329Y-39091788D01*
X94959409Y-39099069D01*
X94959770Y-39106420D01*
X94959770Y-40406420D01*
X94959409Y-40413771D01*
X94958329Y-40421052D01*
X94956541Y-40428191D01*
X94954061Y-40435121D01*
X94950914Y-40441775D01*
X94947130Y-40448088D01*
X94942746Y-40453999D01*
X94937803Y-40459453D01*
X94932349Y-40464396D01*
X94926438Y-40468780D01*
X94920125Y-40472564D01*
X94913471Y-40475711D01*
X94906541Y-40478191D01*
X94899402Y-40479979D01*
X94892121Y-40481059D01*
X94884770Y-40481420D01*
X94734770Y-40481420D01*
X94727419Y-40481059D01*
X94720138Y-40479979D01*
X94712999Y-40478191D01*
X94706069Y-40475711D01*
X94699415Y-40472564D01*
X94693102Y-40468780D01*
X94687191Y-40464396D01*
X94681737Y-40459453D01*
X94676794Y-40453999D01*
X94672410Y-40448088D01*
X94668626Y-40441775D01*
X94665479Y-40435121D01*
X94662999Y-40428191D01*
X94661211Y-40421052D01*
X94660131Y-40413771D01*
X94659770Y-40406420D01*
X94659770Y-39106420D01*
X94660131Y-39099069D01*
X94661211Y-39091788D01*
X94662999Y-39084649D01*
X94665479Y-39077719D01*
X94668626Y-39071065D01*
X94672410Y-39064752D01*
X94676794Y-39058841D01*
X94681737Y-39053387D01*
X94687191Y-39048444D01*
X94693102Y-39044060D01*
X94699415Y-39040276D01*
X94706069Y-39037129D01*
X94712999Y-39034649D01*
X94720138Y-39032861D01*
X94727419Y-39031781D01*
X94734770Y-39031420D01*
X94884770Y-39031420D01*
X94892121Y-39031781D01*
X94892121Y-39031781D01*
G37*
D24*
X94809770Y-39756420D03*
D13*
G36*
X94396121Y-39031781D02*
G01*
X94403402Y-39032861D01*
X94410541Y-39034649D01*
X94417471Y-39037129D01*
X94424125Y-39040276D01*
X94430438Y-39044060D01*
X94436349Y-39048444D01*
X94441803Y-39053387D01*
X94446746Y-39058841D01*
X94451130Y-39064752D01*
X94454914Y-39071065D01*
X94458061Y-39077719D01*
X94460541Y-39084649D01*
X94462329Y-39091788D01*
X94463409Y-39099069D01*
X94463770Y-39106420D01*
X94463770Y-40406420D01*
X94463409Y-40413771D01*
X94462329Y-40421052D01*
X94460541Y-40428191D01*
X94458061Y-40435121D01*
X94454914Y-40441775D01*
X94451130Y-40448088D01*
X94446746Y-40453999D01*
X94441803Y-40459453D01*
X94436349Y-40464396D01*
X94430438Y-40468780D01*
X94424125Y-40472564D01*
X94417471Y-40475711D01*
X94410541Y-40478191D01*
X94403402Y-40479979D01*
X94396121Y-40481059D01*
X94388770Y-40481420D01*
X94238770Y-40481420D01*
X94231419Y-40481059D01*
X94224138Y-40479979D01*
X94216999Y-40478191D01*
X94210069Y-40475711D01*
X94203415Y-40472564D01*
X94197102Y-40468780D01*
X94191191Y-40464396D01*
X94185737Y-40459453D01*
X94180794Y-40453999D01*
X94176410Y-40448088D01*
X94172626Y-40441775D01*
X94169479Y-40435121D01*
X94166999Y-40428191D01*
X94165211Y-40421052D01*
X94164131Y-40413771D01*
X94163770Y-40406420D01*
X94163770Y-39106420D01*
X94164131Y-39099069D01*
X94165211Y-39091788D01*
X94166999Y-39084649D01*
X94169479Y-39077719D01*
X94172626Y-39071065D01*
X94176410Y-39064752D01*
X94180794Y-39058841D01*
X94185737Y-39053387D01*
X94191191Y-39048444D01*
X94197102Y-39044060D01*
X94203415Y-39040276D01*
X94210069Y-39037129D01*
X94216999Y-39034649D01*
X94224138Y-39032861D01*
X94231419Y-39031781D01*
X94238770Y-39031420D01*
X94388770Y-39031420D01*
X94396121Y-39031781D01*
X94396121Y-39031781D01*
G37*
D24*
X94313770Y-39756420D03*
D13*
G36*
X92392121Y-39031781D02*
G01*
X92399402Y-39032861D01*
X92406541Y-39034649D01*
X92413471Y-39037129D01*
X92420125Y-39040276D01*
X92426438Y-39044060D01*
X92432349Y-39048444D01*
X92437803Y-39053387D01*
X92442746Y-39058841D01*
X92447130Y-39064752D01*
X92450914Y-39071065D01*
X92454061Y-39077719D01*
X92456541Y-39084649D01*
X92458329Y-39091788D01*
X92459409Y-39099069D01*
X92459770Y-39106420D01*
X92459770Y-40406420D01*
X92459409Y-40413771D01*
X92458329Y-40421052D01*
X92456541Y-40428191D01*
X92454061Y-40435121D01*
X92450914Y-40441775D01*
X92447130Y-40448088D01*
X92442746Y-40453999D01*
X92437803Y-40459453D01*
X92432349Y-40464396D01*
X92426438Y-40468780D01*
X92420125Y-40472564D01*
X92413471Y-40475711D01*
X92406541Y-40478191D01*
X92399402Y-40479979D01*
X92392121Y-40481059D01*
X92384770Y-40481420D01*
X92234770Y-40481420D01*
X92227419Y-40481059D01*
X92220138Y-40479979D01*
X92212999Y-40478191D01*
X92206069Y-40475711D01*
X92199415Y-40472564D01*
X92193102Y-40468780D01*
X92187191Y-40464396D01*
X92181737Y-40459453D01*
X92176794Y-40453999D01*
X92172410Y-40448088D01*
X92168626Y-40441775D01*
X92165479Y-40435121D01*
X92162999Y-40428191D01*
X92161211Y-40421052D01*
X92160131Y-40413771D01*
X92159770Y-40406420D01*
X92159770Y-39106420D01*
X92160131Y-39099069D01*
X92161211Y-39091788D01*
X92162999Y-39084649D01*
X92165479Y-39077719D01*
X92168626Y-39071065D01*
X92172410Y-39064752D01*
X92176794Y-39058841D01*
X92181737Y-39053387D01*
X92187191Y-39048444D01*
X92193102Y-39044060D01*
X92199415Y-39040276D01*
X92206069Y-39037129D01*
X92212999Y-39034649D01*
X92220138Y-39032861D01*
X92227419Y-39031781D01*
X92234770Y-39031420D01*
X92384770Y-39031420D01*
X92392121Y-39031781D01*
X92392121Y-39031781D01*
G37*
D24*
X92309770Y-39756420D03*
D13*
G36*
X92892121Y-39031781D02*
G01*
X92899402Y-39032861D01*
X92906541Y-39034649D01*
X92913471Y-39037129D01*
X92920125Y-39040276D01*
X92926438Y-39044060D01*
X92932349Y-39048444D01*
X92937803Y-39053387D01*
X92942746Y-39058841D01*
X92947130Y-39064752D01*
X92950914Y-39071065D01*
X92954061Y-39077719D01*
X92956541Y-39084649D01*
X92958329Y-39091788D01*
X92959409Y-39099069D01*
X92959770Y-39106420D01*
X92959770Y-40406420D01*
X92959409Y-40413771D01*
X92958329Y-40421052D01*
X92956541Y-40428191D01*
X92954061Y-40435121D01*
X92950914Y-40441775D01*
X92947130Y-40448088D01*
X92942746Y-40453999D01*
X92937803Y-40459453D01*
X92932349Y-40464396D01*
X92926438Y-40468780D01*
X92920125Y-40472564D01*
X92913471Y-40475711D01*
X92906541Y-40478191D01*
X92899402Y-40479979D01*
X92892121Y-40481059D01*
X92884770Y-40481420D01*
X92734770Y-40481420D01*
X92727419Y-40481059D01*
X92720138Y-40479979D01*
X92712999Y-40478191D01*
X92706069Y-40475711D01*
X92699415Y-40472564D01*
X92693102Y-40468780D01*
X92687191Y-40464396D01*
X92681737Y-40459453D01*
X92676794Y-40453999D01*
X92672410Y-40448088D01*
X92668626Y-40441775D01*
X92665479Y-40435121D01*
X92662999Y-40428191D01*
X92661211Y-40421052D01*
X92660131Y-40413771D01*
X92659770Y-40406420D01*
X92659770Y-39106420D01*
X92660131Y-39099069D01*
X92661211Y-39091788D01*
X92662999Y-39084649D01*
X92665479Y-39077719D01*
X92668626Y-39071065D01*
X92672410Y-39064752D01*
X92676794Y-39058841D01*
X92681737Y-39053387D01*
X92687191Y-39048444D01*
X92693102Y-39044060D01*
X92699415Y-39040276D01*
X92706069Y-39037129D01*
X92712999Y-39034649D01*
X92720138Y-39032861D01*
X92727419Y-39031781D01*
X92734770Y-39031420D01*
X92884770Y-39031420D01*
X92892121Y-39031781D01*
X92892121Y-39031781D01*
G37*
D24*
X92809770Y-39756420D03*
D13*
G36*
X93392121Y-39031781D02*
G01*
X93399402Y-39032861D01*
X93406541Y-39034649D01*
X93413471Y-39037129D01*
X93420125Y-39040276D01*
X93426438Y-39044060D01*
X93432349Y-39048444D01*
X93437803Y-39053387D01*
X93442746Y-39058841D01*
X93447130Y-39064752D01*
X93450914Y-39071065D01*
X93454061Y-39077719D01*
X93456541Y-39084649D01*
X93458329Y-39091788D01*
X93459409Y-39099069D01*
X93459770Y-39106420D01*
X93459770Y-40406420D01*
X93459409Y-40413771D01*
X93458329Y-40421052D01*
X93456541Y-40428191D01*
X93454061Y-40435121D01*
X93450914Y-40441775D01*
X93447130Y-40448088D01*
X93442746Y-40453999D01*
X93437803Y-40459453D01*
X93432349Y-40464396D01*
X93426438Y-40468780D01*
X93420125Y-40472564D01*
X93413471Y-40475711D01*
X93406541Y-40478191D01*
X93399402Y-40479979D01*
X93392121Y-40481059D01*
X93384770Y-40481420D01*
X93234770Y-40481420D01*
X93227419Y-40481059D01*
X93220138Y-40479979D01*
X93212999Y-40478191D01*
X93206069Y-40475711D01*
X93199415Y-40472564D01*
X93193102Y-40468780D01*
X93187191Y-40464396D01*
X93181737Y-40459453D01*
X93176794Y-40453999D01*
X93172410Y-40448088D01*
X93168626Y-40441775D01*
X93165479Y-40435121D01*
X93162999Y-40428191D01*
X93161211Y-40421052D01*
X93160131Y-40413771D01*
X93159770Y-40406420D01*
X93159770Y-39106420D01*
X93160131Y-39099069D01*
X93161211Y-39091788D01*
X93162999Y-39084649D01*
X93165479Y-39077719D01*
X93168626Y-39071065D01*
X93172410Y-39064752D01*
X93176794Y-39058841D01*
X93181737Y-39053387D01*
X93187191Y-39048444D01*
X93193102Y-39044060D01*
X93199415Y-39040276D01*
X93206069Y-39037129D01*
X93212999Y-39034649D01*
X93220138Y-39032861D01*
X93227419Y-39031781D01*
X93234770Y-39031420D01*
X93384770Y-39031420D01*
X93392121Y-39031781D01*
X93392121Y-39031781D01*
G37*
D24*
X93309770Y-39756420D03*
D13*
G36*
X93892121Y-39031781D02*
G01*
X93899402Y-39032861D01*
X93906541Y-39034649D01*
X93913471Y-39037129D01*
X93920125Y-39040276D01*
X93926438Y-39044060D01*
X93932349Y-39048444D01*
X93937803Y-39053387D01*
X93942746Y-39058841D01*
X93947130Y-39064752D01*
X93950914Y-39071065D01*
X93954061Y-39077719D01*
X93956541Y-39084649D01*
X93958329Y-39091788D01*
X93959409Y-39099069D01*
X93959770Y-39106420D01*
X93959770Y-40406420D01*
X93959409Y-40413771D01*
X93958329Y-40421052D01*
X93956541Y-40428191D01*
X93954061Y-40435121D01*
X93950914Y-40441775D01*
X93947130Y-40448088D01*
X93942746Y-40453999D01*
X93937803Y-40459453D01*
X93932349Y-40464396D01*
X93926438Y-40468780D01*
X93920125Y-40472564D01*
X93913471Y-40475711D01*
X93906541Y-40478191D01*
X93899402Y-40479979D01*
X93892121Y-40481059D01*
X93884770Y-40481420D01*
X93734770Y-40481420D01*
X93727419Y-40481059D01*
X93720138Y-40479979D01*
X93712999Y-40478191D01*
X93706069Y-40475711D01*
X93699415Y-40472564D01*
X93693102Y-40468780D01*
X93687191Y-40464396D01*
X93681737Y-40459453D01*
X93676794Y-40453999D01*
X93672410Y-40448088D01*
X93668626Y-40441775D01*
X93665479Y-40435121D01*
X93662999Y-40428191D01*
X93661211Y-40421052D01*
X93660131Y-40413771D01*
X93659770Y-40406420D01*
X93659770Y-39106420D01*
X93660131Y-39099069D01*
X93661211Y-39091788D01*
X93662999Y-39084649D01*
X93665479Y-39077719D01*
X93668626Y-39071065D01*
X93672410Y-39064752D01*
X93676794Y-39058841D01*
X93681737Y-39053387D01*
X93687191Y-39048444D01*
X93693102Y-39044060D01*
X93699415Y-39040276D01*
X93706069Y-39037129D01*
X93712999Y-39034649D01*
X93720138Y-39032861D01*
X93727419Y-39031781D01*
X93734770Y-39031420D01*
X93884770Y-39031420D01*
X93892121Y-39031781D01*
X93892121Y-39031781D01*
G37*
D24*
X93809770Y-39756420D03*
D13*
G36*
X96674473Y-39032142D02*
G01*
X96689034Y-39034302D01*
X96703313Y-39037879D01*
X96717173Y-39042838D01*
X96730480Y-39049132D01*
X96743106Y-39056700D01*
X96754929Y-39065468D01*
X96765836Y-39075354D01*
X96775722Y-39086261D01*
X96784490Y-39098084D01*
X96792058Y-39110710D01*
X96798352Y-39124017D01*
X96803311Y-39137877D01*
X96806888Y-39152156D01*
X96809048Y-39166717D01*
X96809770Y-39181420D01*
X96809770Y-40331420D01*
X96809048Y-40346123D01*
X96806888Y-40360684D01*
X96803311Y-40374963D01*
X96798352Y-40388823D01*
X96792058Y-40402130D01*
X96784490Y-40414756D01*
X96775722Y-40426579D01*
X96765836Y-40437486D01*
X96754929Y-40447372D01*
X96743106Y-40456140D01*
X96730480Y-40463708D01*
X96717173Y-40470002D01*
X96703313Y-40474961D01*
X96689034Y-40478538D01*
X96674473Y-40480698D01*
X96659770Y-40481420D01*
X96359770Y-40481420D01*
X96345067Y-40480698D01*
X96330506Y-40478538D01*
X96316227Y-40474961D01*
X96302367Y-40470002D01*
X96289060Y-40463708D01*
X96276434Y-40456140D01*
X96264611Y-40447372D01*
X96253704Y-40437486D01*
X96243818Y-40426579D01*
X96235050Y-40414756D01*
X96227482Y-40402130D01*
X96221188Y-40388823D01*
X96216229Y-40374963D01*
X96212652Y-40360684D01*
X96210492Y-40346123D01*
X96209770Y-40331420D01*
X96209770Y-39181420D01*
X96210492Y-39166717D01*
X96212652Y-39152156D01*
X96216229Y-39137877D01*
X96221188Y-39124017D01*
X96227482Y-39110710D01*
X96235050Y-39098084D01*
X96243818Y-39086261D01*
X96253704Y-39075354D01*
X96264611Y-39065468D01*
X96276434Y-39056700D01*
X96289060Y-39049132D01*
X96302367Y-39042838D01*
X96316227Y-39037879D01*
X96330506Y-39034302D01*
X96345067Y-39032142D01*
X96359770Y-39031420D01*
X96659770Y-39031420D01*
X96674473Y-39032142D01*
X96674473Y-39032142D01*
G37*
D23*
X96509770Y-39756420D03*
D13*
G36*
X90974473Y-39032142D02*
G01*
X90989034Y-39034302D01*
X91003313Y-39037879D01*
X91017173Y-39042838D01*
X91030480Y-39049132D01*
X91043106Y-39056700D01*
X91054929Y-39065468D01*
X91065836Y-39075354D01*
X91075722Y-39086261D01*
X91084490Y-39098084D01*
X91092058Y-39110710D01*
X91098352Y-39124017D01*
X91103311Y-39137877D01*
X91106888Y-39152156D01*
X91109048Y-39166717D01*
X91109770Y-39181420D01*
X91109770Y-40331420D01*
X91109048Y-40346123D01*
X91106888Y-40360684D01*
X91103311Y-40374963D01*
X91098352Y-40388823D01*
X91092058Y-40402130D01*
X91084490Y-40414756D01*
X91075722Y-40426579D01*
X91065836Y-40437486D01*
X91054929Y-40447372D01*
X91043106Y-40456140D01*
X91030480Y-40463708D01*
X91017173Y-40470002D01*
X91003313Y-40474961D01*
X90989034Y-40478538D01*
X90974473Y-40480698D01*
X90959770Y-40481420D01*
X90659770Y-40481420D01*
X90645067Y-40480698D01*
X90630506Y-40478538D01*
X90616227Y-40474961D01*
X90602367Y-40470002D01*
X90589060Y-40463708D01*
X90576434Y-40456140D01*
X90564611Y-40447372D01*
X90553704Y-40437486D01*
X90543818Y-40426579D01*
X90535050Y-40414756D01*
X90527482Y-40402130D01*
X90521188Y-40388823D01*
X90516229Y-40374963D01*
X90512652Y-40360684D01*
X90510492Y-40346123D01*
X90509770Y-40331420D01*
X90509770Y-39181420D01*
X90510492Y-39166717D01*
X90512652Y-39152156D01*
X90516229Y-39137877D01*
X90521188Y-39124017D01*
X90527482Y-39110710D01*
X90535050Y-39098084D01*
X90543818Y-39086261D01*
X90553704Y-39075354D01*
X90564611Y-39065468D01*
X90576434Y-39056700D01*
X90589060Y-39049132D01*
X90602367Y-39042838D01*
X90616227Y-39037879D01*
X90630506Y-39034302D01*
X90645067Y-39032142D01*
X90659770Y-39031420D01*
X90959770Y-39031420D01*
X90974473Y-39032142D01*
X90974473Y-39032142D01*
G37*
D23*
X90809770Y-39756420D03*
D13*
G36*
X91774473Y-39032142D02*
G01*
X91789034Y-39034302D01*
X91803313Y-39037879D01*
X91817173Y-39042838D01*
X91830480Y-39049132D01*
X91843106Y-39056700D01*
X91854929Y-39065468D01*
X91865836Y-39075354D01*
X91875722Y-39086261D01*
X91884490Y-39098084D01*
X91892058Y-39110710D01*
X91898352Y-39124017D01*
X91903311Y-39137877D01*
X91906888Y-39152156D01*
X91909048Y-39166717D01*
X91909770Y-39181420D01*
X91909770Y-40331420D01*
X91909048Y-40346123D01*
X91906888Y-40360684D01*
X91903311Y-40374963D01*
X91898352Y-40388823D01*
X91892058Y-40402130D01*
X91884490Y-40414756D01*
X91875722Y-40426579D01*
X91865836Y-40437486D01*
X91854929Y-40447372D01*
X91843106Y-40456140D01*
X91830480Y-40463708D01*
X91817173Y-40470002D01*
X91803313Y-40474961D01*
X91789034Y-40478538D01*
X91774473Y-40480698D01*
X91759770Y-40481420D01*
X91459770Y-40481420D01*
X91445067Y-40480698D01*
X91430506Y-40478538D01*
X91416227Y-40474961D01*
X91402367Y-40470002D01*
X91389060Y-40463708D01*
X91376434Y-40456140D01*
X91364611Y-40447372D01*
X91353704Y-40437486D01*
X91343818Y-40426579D01*
X91335050Y-40414756D01*
X91327482Y-40402130D01*
X91321188Y-40388823D01*
X91316229Y-40374963D01*
X91312652Y-40360684D01*
X91310492Y-40346123D01*
X91309770Y-40331420D01*
X91309770Y-39181420D01*
X91310492Y-39166717D01*
X91312652Y-39152156D01*
X91316229Y-39137877D01*
X91321188Y-39124017D01*
X91327482Y-39110710D01*
X91335050Y-39098084D01*
X91343818Y-39086261D01*
X91353704Y-39075354D01*
X91364611Y-39065468D01*
X91376434Y-39056700D01*
X91389060Y-39049132D01*
X91402367Y-39042838D01*
X91416227Y-39037879D01*
X91430506Y-39034302D01*
X91445067Y-39032142D01*
X91459770Y-39031420D01*
X91759770Y-39031420D01*
X91774473Y-39032142D01*
X91774473Y-39032142D01*
G37*
D23*
X91609770Y-39756420D03*
D13*
G36*
X94091627Y-45736295D02*
G01*
X94123175Y-45740975D01*
X94154114Y-45748724D01*
X94184143Y-45759469D01*
X94212975Y-45773106D01*
X94240331Y-45789502D01*
X94265949Y-45808502D01*
X94289581Y-45829920D01*
X94310999Y-45853552D01*
X94329999Y-45879170D01*
X94346395Y-45906526D01*
X94360032Y-45935358D01*
X94370777Y-45965387D01*
X94378526Y-45996326D01*
X94383206Y-46027874D01*
X94384771Y-46059730D01*
X94384771Y-46469730D01*
X94383206Y-46501586D01*
X94378526Y-46533134D01*
X94370777Y-46564073D01*
X94360032Y-46594102D01*
X94346395Y-46622934D01*
X94329999Y-46650290D01*
X94310999Y-46675908D01*
X94289581Y-46699540D01*
X94265949Y-46720958D01*
X94240331Y-46739958D01*
X94212975Y-46756354D01*
X94184143Y-46769991D01*
X94154114Y-46780736D01*
X94123175Y-46788485D01*
X94091627Y-46793165D01*
X94059771Y-46794730D01*
X94059769Y-46794730D01*
X94027913Y-46793165D01*
X93996365Y-46788485D01*
X93965426Y-46780736D01*
X93935397Y-46769991D01*
X93906565Y-46756354D01*
X93879209Y-46739958D01*
X93853591Y-46720958D01*
X93829959Y-46699540D01*
X93808541Y-46675908D01*
X93789541Y-46650290D01*
X93773145Y-46622934D01*
X93759508Y-46594102D01*
X93748763Y-46564073D01*
X93741014Y-46533134D01*
X93736334Y-46501586D01*
X93734769Y-46469730D01*
X93734769Y-46059730D01*
X93736334Y-46027874D01*
X93741014Y-45996326D01*
X93748763Y-45965387D01*
X93759508Y-45935358D01*
X93773145Y-45906526D01*
X93789541Y-45879170D01*
X93808541Y-45853552D01*
X93829959Y-45829920D01*
X93853591Y-45808502D01*
X93879209Y-45789502D01*
X93906565Y-45773106D01*
X93935397Y-45759469D01*
X93965426Y-45748724D01*
X93996365Y-45740975D01*
X94027913Y-45736295D01*
X94059769Y-45734730D01*
X94059771Y-45734730D01*
X94091627Y-45736295D01*
X94091627Y-45736295D01*
G37*
D25*
X94059770Y-46264730D03*
D13*
G36*
X95041627Y-45736295D02*
G01*
X95073175Y-45740975D01*
X95104114Y-45748724D01*
X95134143Y-45759469D01*
X95162975Y-45773106D01*
X95190331Y-45789502D01*
X95215949Y-45808502D01*
X95239581Y-45829920D01*
X95260999Y-45853552D01*
X95279999Y-45879170D01*
X95296395Y-45906526D01*
X95310032Y-45935358D01*
X95320777Y-45965387D01*
X95328526Y-45996326D01*
X95333206Y-46027874D01*
X95334771Y-46059730D01*
X95334771Y-46469730D01*
X95333206Y-46501586D01*
X95328526Y-46533134D01*
X95320777Y-46564073D01*
X95310032Y-46594102D01*
X95296395Y-46622934D01*
X95279999Y-46650290D01*
X95260999Y-46675908D01*
X95239581Y-46699540D01*
X95215949Y-46720958D01*
X95190331Y-46739958D01*
X95162975Y-46756354D01*
X95134143Y-46769991D01*
X95104114Y-46780736D01*
X95073175Y-46788485D01*
X95041627Y-46793165D01*
X95009771Y-46794730D01*
X95009769Y-46794730D01*
X94977913Y-46793165D01*
X94946365Y-46788485D01*
X94915426Y-46780736D01*
X94885397Y-46769991D01*
X94856565Y-46756354D01*
X94829209Y-46739958D01*
X94803591Y-46720958D01*
X94779959Y-46699540D01*
X94758541Y-46675908D01*
X94739541Y-46650290D01*
X94723145Y-46622934D01*
X94709508Y-46594102D01*
X94698763Y-46564073D01*
X94691014Y-46533134D01*
X94686334Y-46501586D01*
X94684769Y-46469730D01*
X94684769Y-46059730D01*
X94686334Y-46027874D01*
X94691014Y-45996326D01*
X94698763Y-45965387D01*
X94709508Y-45935358D01*
X94723145Y-45906526D01*
X94739541Y-45879170D01*
X94758541Y-45853552D01*
X94779959Y-45829920D01*
X94803591Y-45808502D01*
X94829209Y-45789502D01*
X94856565Y-45773106D01*
X94885397Y-45759469D01*
X94915426Y-45748724D01*
X94946365Y-45740975D01*
X94977913Y-45736295D01*
X95009769Y-45734730D01*
X95009771Y-45734730D01*
X95041627Y-45736295D01*
X95041627Y-45736295D01*
G37*
D25*
X95009770Y-46264730D03*
D13*
G36*
X93141627Y-45736295D02*
G01*
X93173175Y-45740975D01*
X93204114Y-45748724D01*
X93234143Y-45759469D01*
X93262975Y-45773106D01*
X93290331Y-45789502D01*
X93315949Y-45808502D01*
X93339581Y-45829920D01*
X93360999Y-45853552D01*
X93379999Y-45879170D01*
X93396395Y-45906526D01*
X93410032Y-45935358D01*
X93420777Y-45965387D01*
X93428526Y-45996326D01*
X93433206Y-46027874D01*
X93434771Y-46059730D01*
X93434771Y-46469730D01*
X93433206Y-46501586D01*
X93428526Y-46533134D01*
X93420777Y-46564073D01*
X93410032Y-46594102D01*
X93396395Y-46622934D01*
X93379999Y-46650290D01*
X93360999Y-46675908D01*
X93339581Y-46699540D01*
X93315949Y-46720958D01*
X93290331Y-46739958D01*
X93262975Y-46756354D01*
X93234143Y-46769991D01*
X93204114Y-46780736D01*
X93173175Y-46788485D01*
X93141627Y-46793165D01*
X93109771Y-46794730D01*
X93109769Y-46794730D01*
X93077913Y-46793165D01*
X93046365Y-46788485D01*
X93015426Y-46780736D01*
X92985397Y-46769991D01*
X92956565Y-46756354D01*
X92929209Y-46739958D01*
X92903591Y-46720958D01*
X92879959Y-46699540D01*
X92858541Y-46675908D01*
X92839541Y-46650290D01*
X92823145Y-46622934D01*
X92809508Y-46594102D01*
X92798763Y-46564073D01*
X92791014Y-46533134D01*
X92786334Y-46501586D01*
X92784769Y-46469730D01*
X92784769Y-46059730D01*
X92786334Y-46027874D01*
X92791014Y-45996326D01*
X92798763Y-45965387D01*
X92809508Y-45935358D01*
X92823145Y-45906526D01*
X92839541Y-45879170D01*
X92858541Y-45853552D01*
X92879959Y-45829920D01*
X92903591Y-45808502D01*
X92929209Y-45789502D01*
X92956565Y-45773106D01*
X92985397Y-45759469D01*
X93015426Y-45748724D01*
X93046365Y-45740975D01*
X93077913Y-45736295D01*
X93109769Y-45734730D01*
X93109771Y-45734730D01*
X93141627Y-45736295D01*
X93141627Y-45736295D01*
G37*
D25*
X93109770Y-46264730D03*
D13*
G36*
X93141627Y-43536295D02*
G01*
X93173175Y-43540975D01*
X93204114Y-43548724D01*
X93234143Y-43559469D01*
X93262975Y-43573106D01*
X93290331Y-43589502D01*
X93315949Y-43608502D01*
X93339581Y-43629920D01*
X93360999Y-43653552D01*
X93379999Y-43679170D01*
X93396395Y-43706526D01*
X93410032Y-43735358D01*
X93420777Y-43765387D01*
X93428526Y-43796326D01*
X93433206Y-43827874D01*
X93434771Y-43859730D01*
X93434771Y-44269730D01*
X93433206Y-44301586D01*
X93428526Y-44333134D01*
X93420777Y-44364073D01*
X93410032Y-44394102D01*
X93396395Y-44422934D01*
X93379999Y-44450290D01*
X93360999Y-44475908D01*
X93339581Y-44499540D01*
X93315949Y-44520958D01*
X93290331Y-44539958D01*
X93262975Y-44556354D01*
X93234143Y-44569991D01*
X93204114Y-44580736D01*
X93173175Y-44588485D01*
X93141627Y-44593165D01*
X93109771Y-44594730D01*
X93109769Y-44594730D01*
X93077913Y-44593165D01*
X93046365Y-44588485D01*
X93015426Y-44580736D01*
X92985397Y-44569991D01*
X92956565Y-44556354D01*
X92929209Y-44539958D01*
X92903591Y-44520958D01*
X92879959Y-44499540D01*
X92858541Y-44475908D01*
X92839541Y-44450290D01*
X92823145Y-44422934D01*
X92809508Y-44394102D01*
X92798763Y-44364073D01*
X92791014Y-44333134D01*
X92786334Y-44301586D01*
X92784769Y-44269730D01*
X92784769Y-43859730D01*
X92786334Y-43827874D01*
X92791014Y-43796326D01*
X92798763Y-43765387D01*
X92809508Y-43735358D01*
X92823145Y-43706526D01*
X92839541Y-43679170D01*
X92858541Y-43653552D01*
X92879959Y-43629920D01*
X92903591Y-43608502D01*
X92929209Y-43589502D01*
X92956565Y-43573106D01*
X92985397Y-43559469D01*
X93015426Y-43548724D01*
X93046365Y-43540975D01*
X93077913Y-43536295D01*
X93109769Y-43534730D01*
X93109771Y-43534730D01*
X93141627Y-43536295D01*
X93141627Y-43536295D01*
G37*
D25*
X93109770Y-44064730D03*
D13*
G36*
X94091627Y-43536295D02*
G01*
X94123175Y-43540975D01*
X94154114Y-43548724D01*
X94184143Y-43559469D01*
X94212975Y-43573106D01*
X94240331Y-43589502D01*
X94265949Y-43608502D01*
X94289581Y-43629920D01*
X94310999Y-43653552D01*
X94329999Y-43679170D01*
X94346395Y-43706526D01*
X94360032Y-43735358D01*
X94370777Y-43765387D01*
X94378526Y-43796326D01*
X94383206Y-43827874D01*
X94384771Y-43859730D01*
X94384771Y-44269730D01*
X94383206Y-44301586D01*
X94378526Y-44333134D01*
X94370777Y-44364073D01*
X94360032Y-44394102D01*
X94346395Y-44422934D01*
X94329999Y-44450290D01*
X94310999Y-44475908D01*
X94289581Y-44499540D01*
X94265949Y-44520958D01*
X94240331Y-44539958D01*
X94212975Y-44556354D01*
X94184143Y-44569991D01*
X94154114Y-44580736D01*
X94123175Y-44588485D01*
X94091627Y-44593165D01*
X94059771Y-44594730D01*
X94059769Y-44594730D01*
X94027913Y-44593165D01*
X93996365Y-44588485D01*
X93965426Y-44580736D01*
X93935397Y-44569991D01*
X93906565Y-44556354D01*
X93879209Y-44539958D01*
X93853591Y-44520958D01*
X93829959Y-44499540D01*
X93808541Y-44475908D01*
X93789541Y-44450290D01*
X93773145Y-44422934D01*
X93759508Y-44394102D01*
X93748763Y-44364073D01*
X93741014Y-44333134D01*
X93736334Y-44301586D01*
X93734769Y-44269730D01*
X93734769Y-43859730D01*
X93736334Y-43827874D01*
X93741014Y-43796326D01*
X93748763Y-43765387D01*
X93759508Y-43735358D01*
X93773145Y-43706526D01*
X93789541Y-43679170D01*
X93808541Y-43653552D01*
X93829959Y-43629920D01*
X93853591Y-43608502D01*
X93879209Y-43589502D01*
X93906565Y-43573106D01*
X93935397Y-43559469D01*
X93965426Y-43548724D01*
X93996365Y-43540975D01*
X94027913Y-43536295D01*
X94059769Y-43534730D01*
X94059771Y-43534730D01*
X94091627Y-43536295D01*
X94091627Y-43536295D01*
G37*
D25*
X94059770Y-44064730D03*
D26*
X95009770Y-44064730D03*
M02*
