M48
; DRILL file {KiCad 5.1.2} date Mon 29 Jul 2019 09:43:09 AM -03
; FORMAT={3:3/ absolute / metric / suppress leading zeros}
; #@! TF.CreationDate,2019-07-29T09:43:09-03:00
; #@! TF.GenerationSoftware,Kicad,Pcbnew,5.1.2
FMAT,2
METRIC,TZ
T1C0.305
T2C0.600
T3C1.524
T4C1.525
T5C2.500
T6C2.540
T7C0.650
T8C1.702
T9C2.100
T10C3.048
T11C3.988
%
G90
G05
T1
X91012Y-42879
X91774Y-41609
X93110Y-42686
X93679Y-41990
X94441Y-41990
X95010Y-42691
X95838Y-41609
X97108Y-42879
X100918Y-87075
X100918Y-91901
T3
X106125Y-97870
X108665Y-91520
X106125Y-135970
X108665Y-129620
X48975Y-135970
X51515Y-129620
T4
X62945Y-117555
X69295Y-120095
X43895Y-136605
X50245Y-139145
X101045Y-136605
X107395Y-139145
X101045Y-117555
X107395Y-120095
X43895Y-117555
X50245Y-120095
X62945Y-60405
X69295Y-62945
X101045Y-98505
X107395Y-101045
X43895Y-60405
X50245Y-62945
X81995Y-117555
X88345Y-120095
X101045Y-79455
X107395Y-81995
X81995Y-98505
X88345Y-101045
X43895Y-98505
X50245Y-101045
X101045Y-41355
X107395Y-43895
X62945Y-41355
X69295Y-43895
X62945Y-98505
X69295Y-101045
X81995Y-41355
X88345Y-43895
X81995Y-79455
X88345Y-81995
X43895Y-41355
X50245Y-43895
X62945Y-136605
X69295Y-139145
X101045Y-60405
X107395Y-62945
X81995Y-136605
X88345Y-139145
X81995Y-60405
X88345Y-62945
X62945Y-79455
X69295Y-81995
X43895Y-79455
X50245Y-81995
T5
X94060Y-113110
X55960Y-113110
X55960Y-55960
X94060Y-55960
T7
X91170Y-38430
X96950Y-38430
T8
X79455Y-103585
X89615Y-103585
X41355Y-103585
X51515Y-103585
X98505Y-46435
X108665Y-46435
X60405Y-46435
X70565Y-46435
X60405Y-103585
X70565Y-103585
X79455Y-46435
X89615Y-46435
X103585Y-127080
X103585Y-137240
X79455Y-84535
X89615Y-84535
X41355Y-46435
X51515Y-46435
X60405Y-141685
X70565Y-141685
X46435Y-127080
X46435Y-137240
X98505Y-65485
X108665Y-65485
X79455Y-141685
X89615Y-141685
X79455Y-65485
X89615Y-65485
X60405Y-84535
X70565Y-84535
X41355Y-84535
X51515Y-84535
X60405Y-122635
X70565Y-122635
X41355Y-141685
X51515Y-141685
X98505Y-141685
X108665Y-141685
X98505Y-122635
X108665Y-122635
X41355Y-122635
X51515Y-122635
X103585Y-88980
X103585Y-99140
X60405Y-65485
X70565Y-65485
X98505Y-103585
X108665Y-103585
X41355Y-65485
X51515Y-65485
X79455Y-122635
X89615Y-122635
X98505Y-84535
X108665Y-84535
T10
X110570Y-82122
X110570Y-105998
X110570Y-120222
X110570Y-144098
X39450Y-120222
X39450Y-144098
T11
X95330Y-82122
X95330Y-105998
X103585Y-94060
X65485Y-65485
X103585Y-103585
X46435Y-65485
X84535Y-122635
X103585Y-84535
X84535Y-103585
X46435Y-103585
X103585Y-46435
X65485Y-46435
X65485Y-103585
X84535Y-46435
X95330Y-120222
X95330Y-144098
X103585Y-132160
X84535Y-84535
X46435Y-46435
X65485Y-141685
X46435Y-132160
X54690Y-120222
X54690Y-144098
X103585Y-65485
X84535Y-141685
X84535Y-65485
X65485Y-84535
X46435Y-84535
X65485Y-122635
X46435Y-141685
X103585Y-141685
X103585Y-122635
X46435Y-122635
T2
G00X89760Y-35081
M15
G01X89760Y-34481
M16
G05
G00X89760Y-39531
M15
G01X89760Y-38431
M16
G05
G00X98360Y-35081
M15
G01X98360Y-34481
M16
G05
G00X98360Y-39531
M15
G01X98360Y-38431
M16
G05
T6
G00X75010Y-139705
M15
G01X75010Y-143665
M16
G05
T9
G00X98530Y-92936
M15
G01X98530Y-95336
M16
G05
G00X64285Y-127715
M15
G01X66685Y-127715
M16
G05
G00X83335Y-51515
M15
G01X85735Y-51515
M16
G05
G00X83208Y-146765
M15
G01X85608Y-146765
M16
G05
G00X45235Y-127715
M15
G01X47635Y-127715
M16
G05
G00X64285Y-89615
M15
G01X66685Y-89615
M16
G05
G00X45235Y-70565
M15
G01X47635Y-70565
M16
G05
G00X64285Y-146765
M15
G01X66685Y-146765
M16
G05
G00X64285Y-70565
M15
G01X66685Y-70565
M16
G05
G00X45235Y-108665
M15
G01X47635Y-108665
M16
G05
G00X41355Y-130960
M15
G01X41355Y-133360
M16
G05
G00X64285Y-51515
M15
G01X66685Y-51515
M16
G05
G00X45235Y-89615
M15
G01X47635Y-89615
M16
G05
G00X83335Y-70565
M15
G01X85735Y-70565
M16
G05
G00X64285Y-108665
M15
G01X66685Y-108665
M16
G05
G00X102385Y-146765
M15
G01X104785Y-146765
M16
G05
G00X45235Y-146765
M15
G01X47635Y-146765
M16
G05
G00X83335Y-127715
M15
G01X85735Y-127715
M16
G05
G00X45235Y-51515
M15
G01X47635Y-51515
M16
G05
G00X102385Y-51515
M15
G01X104785Y-51515
M16
G05
G00X102385Y-70565
M15
G01X104785Y-70565
M16
G05
G00X83335Y-89615
M15
G01X85735Y-89615
M16
G05
G00X83335Y-108665
M15
G01X85735Y-108665
M16
G05
G00X102385Y-108665
M15
G01X104785Y-108665
M16
G05
G00X102385Y-89615
M15
G01X104785Y-89615
M16
G05
G00X102385Y-127715
M15
G01X104785Y-127715
M16
G05
T0
M30
